# This file uses centimeters as units for non-parametric coordinates.

mtllib rd_a21c.mtl
g default
v -89.650154 -9.233271 50.000000
v -53.506027 -6.000000 50.000000
v -0.000003 -6.000000 50.000000
v 50.933445 -6.000000 50.000000
v 91.890022 -7.616635 50.000000
v -97.207619 -9.233271 42.392426
v -89.650154 -2.948905 42.392426
v -53.506027 0.284367 42.392426
v -0.000003 0.284367 42.392426
v 50.933445 0.284367 42.392426
v 91.890022 -1.332269 42.392426
v 99.999992 -7.616635 42.392426
v -97.207619 -9.233271 -41.106140
v -89.650154 -2.948905 -41.106140
v -53.506027 0.284367 -41.106140
v -0.000003 0.284367 -41.106140
v 50.933445 0.284367 -41.106140
v 91.890022 -1.332269 -41.106140
v 99.999992 -7.616635 -41.106140
v -89.650154 -9.233271 -50.000000
v -53.506027 -6.000000 -50.000000
v -0.000003 -6.000000 -50.000000
v 50.933445 -6.000000 -50.000000
v 91.890022 -7.616635 -50.000000
v -86.857765 -61.321842 50.000000
v -53.506027 -95.528549 50.000000
v -0.000003 -106.000000 50.000000
v 50.933445 -92.736191 50.000000
v 84.909065 -62.019951 50.000000
v -89.650154 -9.233271 50.000000
v -53.506027 -6.000000 50.000000
v -0.000003 -6.000000 50.000000
v 50.933445 -6.000000 50.000000
v 91.890022 -7.616635 50.000000
v -97.207619 -9.233271 42.392426
v 99.999985 -7.616635 42.392426
v -97.207619 -9.233271 -41.106140
v 99.999985 -7.616635 -41.106140
v -89.650154 -9.233271 -50.000000
v -53.506027 -6.000000 -50.000000
v -0.000003 -6.000000 -50.000000
v 50.933445 -6.000000 -50.000000
v 91.890022 -7.616635 -50.000000
v -86.857765 -61.321842 -50.000000
v -53.506027 -95.528549 -50.000000
v -0.000003 -106.000000 -50.000000
v 50.933445 -92.736191 -50.000000
v 84.909065 -62.019951 -50.000000
v -94.415230 -53.642776 -41.106136
v -86.857765 -64.464035 -41.106136
v -53.506027 -98.670746 -41.106136
v -0.000003 -109.142181 -41.106136
v 50.933445 -95.878372 -41.106136
v 84.909065 -65.162132 -41.106136
v 93.019028 -56.435181 -41.106136
v -94.415230 -53.642776 42.392429
v -86.857765 -64.464035 42.392429
v -53.506027 -98.670746 42.392429
v -0.000003 -109.142181 42.392429
v 50.933445 -95.878372 42.392429
v 84.909065 -65.162132 42.392429
v 93.019028 -56.435181 42.392429
vt 0.508473 -0.088813
vt 0.508473 0.004054
vt 0.454410 0.004054
vt 0.616600 0.004054
vt 0.616600 -0.088813
vt 0.724727 0.004054
vt 0.724727 -0.088813
vt 0.832853 0.004054
vt 0.832853 -0.088813
vt 0.940980 0.004054
vt 0.940980 -0.088813
vt 0.995043 0.004054
vt 0.454410 0.813206
vt 0.508473 0.813206
vt 0.616600 0.813206
vt 0.724727 0.813206
vt 0.832853 0.813206
vt 0.940980 0.813206
vt 0.995043 0.813206
vt 0.508473 0.900864
vt 0.616600 0.900864
vt 0.724727 0.900864
vt 0.832853 0.900864
vt 0.940980 0.900864
vt 1.029449 0.524099
vt 1.076700 0.566973
vt 1.035800 0.895123
vt 1.086916 0.900374
vt -0.053657 0.417592
vt 0.180226 0.208742
vt -0.107303 0.766695
vt 0.118271 0.811879
vt 0.524714 0.172840
vt 0.455512 0.846521
vt 0.836561 0.295172
vt 0.776538 0.879497
vt -0.107303 0.766695
vt 0.118271 0.811879
vt -0.053657 0.417592
vt 0.180226 0.208742
vt 0.455512 0.846521
vt 0.524714 0.172840
vt 0.776538 0.879497
vt 0.836561 0.295172
vt 1.035800 0.895123
vt 1.029449 0.524099
vt 1.076700 0.566973
vt 1.086916 0.900374
vt -0.051482 0.396424
vt -0.106604 0.464432
vt 0.182401 0.187573
vt 0.526888 0.151671
vt 0.838736 0.274004
vt 1.031623 0.502931
vt -0.106604 0.464432
vt -0.051482 0.396424
vt 0.182401 0.187573
vt 0.526888 0.151671
vt 0.838736 0.274004
vt 1.031623 0.502931
vt -0.154937 0.761802
vt -0.154937 0.761802
vn -0.232208 0.749896 0.619464
vn -0.376337 0.901558 0.213457
vn -0.613951 0.738326 0.279176
vn -0.040179 0.940258 0.338085
vn -0.022947 0.770766 0.636705
vn 0.000000 0.941002 0.338401
vn 0.000000 0.770969 0.636872
vn 0.019362 0.940803 0.338399
vn 0.020280 0.770811 0.636741
vn 0.269026 0.876390 0.399457
vn 0.280650 0.739984 0.611276
vn 0.601455 0.776177 0.189214
vn -0.630757 0.758538 -0.163602
vn -0.370148 0.883880 -0.285913
vn -0.056680 0.951498 -0.302390
vn 0.000000 0.953072 -0.302743
vn 0.012533 0.952993 -0.302732
vn 0.296679 0.920068 -0.255844
vn 0.592761 0.764958 -0.251941
vn -0.243198 0.792173 -0.559747
vn -0.024302 0.816452 -0.576902
vn 0.000000 0.816693 -0.577072
vn 0.021482 0.816505 -0.576939
vn 0.293824 0.780644 -0.551600
vn 0.256088 -0.032861 0.966095
vn 0.853222 -0.118259 0.507964
vn 0.498298 -0.067511 0.864374
vn 0.955693 -0.136662 0.260718
vn -0.396848 -0.021274 0.917638
vn -0.000000 0.000000 1.000000
vn -0.390368 -0.022712 0.920379
vn 0.000000 0.000000 1.000000
vn -0.000000 0.000000 1.000000
vn 0.000000 0.000000 1.000000
vn 0.000000 0.000000 1.000000
vn 0.000000 0.000000 1.000000
vn -0.419521 -0.022490 -0.907467
vn 0.000000 0.000000 -1.000000
vn -0.426756 -0.024882 -0.904025
vn -0.000000 0.000000 -1.000000
vn -0.000000 0.000000 -1.000000
vn -0.000000 0.000000 -1.000000
vn 0.000000 0.000000 -1.000000
vn -0.000000 0.000000 -1.000000
vn 0.265390 -0.034054 -0.963539
vn 0.545313 -0.074062 -0.834954
vn 0.965285 -0.138034 -0.221745
vn 0.879804 -0.122000 -0.459414
vn -0.733510 -0.640859 -0.226415
vn -0.768476 -0.635631 -0.073602
vn -0.815772 -0.569727 -0.099633
vn -0.470648 -0.870809 -0.142065
vn -0.366559 -0.877255 -0.309933
vn 0.032473 -0.984993 -0.169510
vn 0.100474 -0.938113 -0.331434
vn 0.471832 -0.867728 -0.156276
vn 0.524499 -0.802783 -0.283621
vn 0.688326 -0.709845 -0.149423
vn 0.681111 -0.690362 -0.243903
vn 0.730271 -0.678641 -0.078430
vn -0.817406 -0.570869 0.077177
vn -0.750659 -0.641347 0.158697
vn -0.472625 -0.862229 0.182170
vn 0.027466 -0.980527 0.194457
vn 0.467739 -0.868072 0.166345
vn 0.699108 -0.708692 0.094885
vn 0.725659 -0.674355 0.136617
vn -0.745443 -0.616086 0.254466
vn -0.537877 -0.779176 0.321828
vn -0.041451 -0.923470 0.381425
vn 0.378586 -0.855468 0.353338
vn 0.663086 -0.691852 0.285758
vn -0.974019 -0.061245 -0.218026
vn -0.893387 -0.053693 -0.446067
vn -0.867567 -0.052146 0.494579
vn -0.965964 -0.060738 0.251444
s 1
g polySurface13
usemtl initialShadingGroup
f 1/1/1 7/2/2 6/3/3
f 7/2/2 1/1/1 8/4/4
f 8/4/4 1/1/1 2/5/5
f 8/4/4 2/5/5 9/6/6
f 9/6/6 2/5/5 3/7/7
f 9/6/6 3/7/7 10/8/8
f 10/8/8 3/7/7 4/9/9
f 10/8/8 4/9/9 11/10/10
f 11/10/10 4/9/9 5/11/11
f 5/11/11 12/12/12 11/10/10
f 6/3/3 7/2/2 13/13/13
f 13/13/13 7/2/2 14/14/14
f 14/14/14 7/2/2 15/15/15
f 15/15/15 7/2/2 8/4/4
f 15/15/15 8/4/4 16/16/16
f 16/16/16 8/4/4 9/6/6
f 16/16/16 9/6/6 17/17/17
f 17/17/17 9/6/6 10/8/8
f 17/17/17 10/8/8 18/18/18
f 18/18/18 10/8/8 11/10/10
f 11/10/10 12/12/12 18/18/18
f 18/18/18 12/12/12 19/19/19
f 13/13/13 14/14/14 20/20/20
f 21/21/21 20/20/20 15/15/15
f 15/15/15 20/20/20 14/14/14
f 22/22/22 21/21/21 16/16/16
f 16/16/16 21/21/21 15/15/15
f 23/23/23 22/22/22 17/17/17
f 17/17/17 22/22/22 16/16/16
f 24/24/24 23/23/23 18/18/18
f 18/18/18 23/23/23 17/17/17
f 18/18/18 19/19/19 24/24/24
s 2
usemtl lambert2SG
f 29/25/25 62/26/26 34/27/27
f 34/27/27 62/26/26 36/28/28
f 25/29/29 26/30/30 30/31/31
f 30/31/31 26/30/30 31/32/32
f 26/30/30 27/33/33 31/32/32
f 31/32/32 27/33/33 32/34/34
f 27/33/33 28/35/35 32/34/34
f 32/34/34 28/35/35 33/36/36
f 28/35/35 29/25/25 33/36/36
f 33/36/36 29/25/25 34/27/27
f 39/37/37 40/38/38 44/39/39
f 44/39/39 40/38/38 45/40/40
f 40/38/38 41/41/41 45/40/40
f 45/40/40 41/41/41 46/42/42
f 41/41/41 42/43/43 46/42/42
f 46/42/42 42/43/43 47/44/44
f 42/43/43 43/45/45 47/44/44
f 47/44/44 43/45/45 48/46/46
f 55/47/47 48/46/46 38/48/48
f 38/48/48 48/46/46 43/45/45
s 5
f 44/39/49 50/49/50 49/50/51
f 50/49/50 44/39/49 51/51/52
f 51/51/52 44/39/49 45/40/53
f 51/51/52 45/40/53 52/52/54
f 52/52/54 45/40/53 46/42/55
f 52/52/54 46/42/55 53/53/56
f 53/53/56 46/42/55 47/44/57
f 53/53/56 47/44/57 54/54/58
f 54/54/58 47/44/57 48/46/59
f 48/46/59 55/47/60 54/54/58
f 49/50/51 50/49/50 56/55/61
f 56/55/61 50/49/50 57/56/62
f 57/56/62 50/49/50 58/57/63
f 58/57/63 50/49/50 51/51/52
f 58/57/63 51/51/52 59/58/64
f 59/58/64 51/51/52 52/52/54
f 59/58/64 52/52/54 60/59/65
f 60/59/65 52/52/54 53/53/56
f 60/59/65 53/53/56 61/60/66
f 61/60/66 53/53/56 54/54/58
f 54/54/58 55/47/60 61/60/66
f 61/60/66 55/47/60 62/26/67
f 56/55/61 57/56/62 25/29/68
f 25/29/68 57/56/62 26/30/69
f 26/30/69 57/56/62 58/57/63
f 26/30/69 58/57/63 27/33/70
f 27/33/70 58/57/63 59/58/64
f 27/33/70 59/58/64 28/35/71
f 28/35/71 59/58/64 60/59/65
f 28/35/71 60/59/65 29/25/72
f 29/25/72 60/59/65 61/60/66
f 61/60/66 62/26/67 29/25/72
s 2
f 62/26/26 55/47/47 36/28/28
f 36/28/28 55/47/47 38/48/48
f 49/50/73 37/61/74 44/39/39
f 44/39/39 37/61/74 39/37/37
f 56/55/75 35/62/76 49/50/73
f 49/50/73 35/62/76 37/61/74
f 25/29/29 30/31/31 56/55/75
f 56/55/75 30/31/31 35/62/76
