# This file uses centimeters as units for non-parametric coordinates.

mtllib arch.mtl
g default
v 29.231273 62.865719 -1.032756
v -29.231273 62.865719 -1.032756
v -29.231273 -0.021777 -16.916245
v 29.231273 -0.021777 -16.916245
v -47.207549 0.021774 -25.648784
v -47.207549 0.021774 25.178224
v -45.338629 46.644905 25.178224
v -45.338629 46.644905 -25.648784
v 48.108026 0.021774 25.178224
v 48.108026 0.021774 -25.648784
v 45.865338 46.644905 -25.648784
v 45.865338 46.644905 25.178224
v 42.127465 58.295244 -25.648784
v 42.127465 58.295244 25.178224
v 34.277936 68.750682 -25.648784
v 34.277936 68.750682 25.178224
v 18.578903 74.426490 25.178224
v 18.578903 74.127770 -25.648784
v 0.263340 76.218869 25.178224
v 0.263340 76.218869 -25.648784
v -17.678414 74.426490 25.178224
v -17.678414 74.127770 -25.648784
v -33.377456 68.750682 25.178224
v -33.377456 68.750682 -25.648784
v -41.600744 59.191449 -25.648784
v -41.600744 59.191449 25.178224
v -23.285206 0.021774 25.178224
v -23.285206 0.021774 -25.648784
v -23.285206 39.176722 -25.648784
v -23.285206 39.176722 25.178224
v 24.185687 0.021774 -25.648784
v 24.185687 0.021774 25.178224
v 22.316767 37.981826 25.178224
v 22.316767 37.981826 -25.648784
v 21.195407 43.358910 25.178224
v 21.195407 43.358910 -25.648784
v 17.457542 48.138561 25.178224
v 17.457542 48.138561 -25.648784
v 9.608030 51.125832 25.178224
v 9.608030 50.827093 -25.648784
v 0.263340 52.022006 25.178224
v 0.263340 52.022006 -25.648784
v -8.707533 51.125832 25.178224
v -8.707533 50.827093 -25.648784
v -16.557037 48.138561 25.178224
v -16.557037 48.138561 -25.648784
v -21.416278 44.255100 25.178224
v -21.416278 43.956373 -25.648784
v 48.108026 0.021774 25.178224
v 45.865338 46.644905 25.178224
v 42.127465 58.295244 25.178224
v 34.277936 68.750682 25.178224
v 24.185687 0.021774 25.178224
v 22.316767 37.981826 25.178224
v 21.195407 43.358910 25.178224
v 18.578903 74.426490 25.178224
v 17.457542 48.138561 25.178224
v 9.608030 51.125832 25.178224
v 0.263340 52.022006 25.178224
v 0.263340 76.218869 25.178224
v -8.707533 51.125832 25.178224
v -16.557037 48.138561 25.178224
v -17.678414 74.426490 25.178224
v -21.416278 44.255100 25.178224
v -23.285206 39.176722 25.178224
v -33.377456 68.750682 25.178224
v -23.285206 0.021774 25.178224
v -41.600744 59.191449 25.178224
v -45.338629 46.644905 25.178224
v -47.207549 0.021774 25.178224
vt -0.007813 0.007813
vt -0.007813 0.246094
vt -0.097656 0.246094
vt -0.097656 0.007813
vt -0.984375 0.246094
vt -0.984375 0.007813
vt -0.878906 0.007813
vt -0.878906 0.246094
vt -0.781250 0.007813
vt -0.781250 0.246094
vt -0.679688 0.007813
vt -0.679688 0.246094
vt -0.574219 0.246094
vt -0.574219 0.007813
vt -0.480469 0.246094
vt -0.480469 0.007813
vt -0.382813 0.246094
vt -0.382813 0.007813
vt -0.289063 0.246094
vt -0.289063 0.007813
vt -0.195313 0.007813
vt -0.195313 0.246094
vt -0.570313 0.980469
vt -0.417969 0.980469
vt -0.417969 0.652344
vt -0.570313 0.648438
vt -0.417969 0.980469
vt -0.570313 0.980469
vt -0.570313 0.660156
vt -0.417969 0.980469
vt -0.417969 0.660156
vt -0.570313 0.613281
vt -0.417969 0.613281
vt -0.570313 0.574219
vt -0.417969 0.574219
vt -0.570313 0.550781
vt -0.417969 0.550781
vt -0.570313 0.542969
vt -0.417969 0.542969
vt -0.570313 0.550781
vt -0.417969 0.550781
vt -0.417969 0.550781
vt -0.570313 0.550781
vt -0.570313 0.574219
vt -0.417969 0.574219
vt -0.570313 0.550781
vt -0.417969 0.574219
vt -0.417969 0.550781
vt -0.570313 0.609375
vt -0.417969 0.609375
vt -0.417969 0.574219
vt -0.417969 0.574219
vt -0.570313 0.574219
vt -0.984375 0.980469
vt -0.960938 0.546875
vt -0.925781 0.437500
vt -0.839844 0.339844
vt -0.738281 0.980469
vt -0.722656 0.628906
vt -0.707031 0.574219
vt -0.683594 0.289063
vt -0.667969 0.531250
vt -0.589844 0.503906
vt -0.496094 0.496094
vt -0.496094 0.269531
vt -0.402344 0.503906
vt -0.320313 0.531250
vt -0.308594 0.289063
vt -0.269531 0.570313
vt -0.250000 0.617188
vt -0.148438 0.339844
vt -0.250000 0.980469
vt -0.062500 0.429688
vt -0.023438 0.546875
vt -0.003906 0.980469
vt 0.592810 0.579176
vt 0.551564 0.579176
vt 0.551564 0.545006
vt 0.592810 0.545006
vn 0.000000 -0.255299 0.966862
vn 0.000000 -0.255299 0.966862
vn 0.000000 -0.255299 0.966862
vn 0.000000 -0.255299 0.966862
vn 0.000000 -0.255299 0.966862
vn 0.000000 -0.255299 0.966862
vn -0.999197 0.040072 0.000000
vn -0.999197 0.040072 0.000000
vn -0.992440 0.122735 0.000000
vn -0.999197 0.040072 0.000000
vn -0.992440 0.122735 0.000000
vn -0.978737 0.205120 0.000000
vn 0.998844 0.048069 -0.000000
vn 0.998844 0.048069 -0.000000
vn 0.990858 0.134909 -0.000000
vn 0.998844 0.048069 -0.000000
vn 0.990858 0.134909 -0.000000
vn 0.975188 0.221380 -0.000000
vn 0.975188 0.221380 -0.000000
vn 0.990858 0.134909 -0.000000
vn 0.912609 0.408834 -0.000000
vn 0.975188 0.221380 -0.000000
vn 0.912609 0.408834 -0.000000
vn 0.861147 0.508356 -0.000000
vn 0.861147 0.508356 -0.000000
vn 0.912609 0.408834 -0.000000
vn 0.591273 0.806470 -0.001452
vn 0.861147 0.508356 -0.000000
vn 0.591273 0.806470 -0.001452
vn 0.594676 0.803965 -0.000000
vn 0.255458 0.966813 -0.003828
vn 0.594676 0.803965 -0.000000
vn 0.591273 0.806470 -0.001452
vn 0.255458 0.966813 -0.003828
vn 0.591273 0.806470 -0.001452
vn 0.179291 0.983789 -0.003824
vn 0.037316 0.999302 -0.001959
vn 0.255458 0.966813 -0.003828
vn 0.179291 0.983789 -0.003824
vn 0.037316 0.999302 -0.001959
vn 0.179291 0.983789 -0.003824
vn -0.034098 0.999417 -0.001957
vn -0.186241 0.982497 -0.003812
vn 0.037316 0.999302 -0.001959
vn -0.034098 0.999417 -0.001957
vn -0.186241 0.982497 -0.003812
vn -0.034098 0.999417 -0.001957
vn -0.261372 0.965231 -0.003809
vn -0.564166 0.825660 -0.001430
vn -0.186241 0.982497 -0.003812
vn -0.261372 0.965231 -0.003809
vn -0.564166 0.825660 -0.001430
vn -0.261372 0.965231 -0.003809
vn -0.560662 0.828045 0.000000
vn -0.841329 0.540523 0.000000
vn -0.909423 0.415873 0.000000
vn -0.564166 0.825660 -0.001430
vn -0.841329 0.540523 0.000000
vn -0.564166 0.825660 -0.001430
vn -0.560662 0.828045 0.000000
vn -0.978737 0.205120 0.000000
vn -0.992440 0.122735 0.000000
vn -0.909423 0.415873 0.000000
vn -0.978737 0.205120 0.000000
vn -0.909423 0.415873 0.000000
vn -0.841329 0.540523 0.000000
vn 1.000000 0.000000 -0.000000
vn 1.000000 0.000000 -0.000000
vn 0.992371 -0.123285 -0.000000
vn 1.000000 0.000000 -0.000000
vn 0.992371 -0.123285 -0.000000
vn 0.970769 -0.240016 0.000687
vn -0.998789 -0.049202 0.000000
vn -0.998789 -0.049202 0.000000
vn -0.994874 -0.101127 0.000000
vn -0.998789 -0.049202 0.000000
vn -0.994874 -0.101127 0.000000
vn -0.988239 -0.152917 0.000000
vn -0.988239 -0.152917 0.000000
vn -0.994874 -0.101127 0.000000
vn -0.936919 -0.349547 0.000000
vn -0.988239 -0.152917 0.000000
vn -0.936919 -0.349547 0.000000
vn -0.871668 -0.490097 0.000000
vn -0.871668 -0.490097 0.000000
vn -0.936919 -0.349547 0.000000
vn -0.586702 -0.809802 0.001429
vn -0.871668 -0.490097 0.000000
vn -0.586702 -0.809802 0.001429
vn -0.579851 -0.814723 0.000000
vn -0.586702 -0.809802 0.001429
vn -0.194045 -0.980985 0.003802
vn -0.270321 -0.962763 0.003795
vn -0.586702 -0.809802 0.001429
vn -0.270321 -0.962763 0.003795
vn -0.579851 -0.814723 0.000000
vn -0.194045 -0.980985 0.003802
vn 0.045554 -0.998960 0.001959
vn -0.030291 -0.999539 0.001956
vn -0.194045 -0.980985 0.003802
vn -0.030291 -0.999539 0.001956
vn -0.270321 -0.962763 0.003795
vn 0.045554 -0.998960 0.001959
vn 0.261502 -0.965195 0.003829
vn 0.186116 -0.982520 0.003823
vn 0.045554 -0.998960 0.001959
vn 0.186116 -0.982520 0.003823
vn -0.030291 -0.999539 0.001956
vn 0.261502 -0.965195 0.003829
vn 0.495965 -0.868343 -0.000000
vn 0.496558 -0.868000 0.002542
vn 0.261502 -0.965195 0.003829
vn 0.496558 -0.868000 0.002542
vn 0.186116 -0.982520 0.003823
vn 0.761659 -0.647975 0.002230
vn 0.864339 -0.502905 0.002222
vn 0.496558 -0.868000 0.002542
vn 0.761659 -0.647975 0.002230
vn 0.496558 -0.868000 0.002542
vn 0.495965 -0.868343 -0.000000
vn 0.970769 -0.240016 0.000687
vn 0.992371 -0.123285 -0.000000
vn 0.864339 -0.502905 0.002222
vn 0.970769 -0.240016 0.000687
vn 0.864339 -0.502905 0.002222
vn 0.761659 -0.647975 0.002230
vn 0.000000 0.000000 1.000000
vn 0.000000 0.000000 1.000000
vn 0.000000 0.000000 1.000000
vn 0.000000 0.000000 1.000000
vn 0.000000 0.000000 1.000000
vn 0.000000 0.000000 1.000000
vn 0.000000 0.000000 1.000000
vn 0.000000 0.000000 1.000000
vn 0.000000 0.000000 1.000000
vn 0.000000 0.000000 1.000000
vn 0.000000 0.000000 1.000000
vn 0.000000 0.000000 1.000000
vn 0.000000 0.000000 1.000000
vn 0.000000 0.000000 1.000000
vn 0.000000 0.000000 1.000000
vn 0.000000 0.000000 1.000000
vn 0.000000 0.000000 1.000000
vn 0.000000 0.000000 1.000000
vn 0.000000 0.000000 1.000000
vn 0.000000 0.000000 1.000000
vn 0.000000 0.000000 1.000000
vn 0.000000 0.000000 1.000000
vn 0.000000 0.000000 1.000000
vn 0.000000 0.000000 1.000000
vn 0.000000 0.000000 1.000000
vn 0.000000 0.000000 1.000000
vn 0.000000 0.000000 1.000000
vn 0.000000 0.000000 1.000000
vn 0.000000 0.000000 1.000000
vn 0.000000 0.000000 1.000000
vn 0.000000 0.000000 1.000000
vn 0.000000 0.000000 1.000000
vn 0.000000 0.000000 1.000000
vn 0.000000 0.000000 1.000000
vn 0.000000 0.000000 1.000000
vn 0.000000 0.000000 1.000000
vn 0.000000 0.000000 1.000000
vn 0.000000 0.000000 1.000000
vn 0.000000 0.000000 1.000000
vn 0.000000 0.000000 1.000000
vn 0.000000 0.000000 1.000000
vn 0.000000 0.000000 1.000000
vn 0.000000 0.000000 1.000000
vn 0.000000 0.000000 1.000000
vn 0.000000 0.000000 1.000000
vn 0.000000 0.000000 1.000000
vn 0.000000 0.000000 1.000000
vn 0.000000 0.000000 1.000000
vn 0.000000 0.000000 1.000000
vn 0.000000 0.000000 1.000000
vn 0.000000 0.000000 1.000000
vn 0.000000 0.000000 1.000000
vn 0.000000 0.000000 1.000000
vn 0.000000 0.000000 1.000000
vn 0.000000 0.000000 1.000000
vn 0.000000 0.000000 1.000000
vn 0.000000 0.000000 1.000000
vn 0.000000 0.000000 1.000000
vn 0.000000 0.000000 1.000000
vn 0.000000 0.000000 1.000000
s off
g polySurface2
usemtl lambert2SG
f 1/76/1 2/77/2 3/78/3
f 1/76/4 3/78/5 4/79/6
f 5/1/7 6/2/8 7/3/9
f 5/1/10 7/3/11 8/4/12
f 9/5/13 10/6/14 11/7/15
f 9/5/16 11/7/17 12/8/18
f 12/8/19 11/7/20 13/9/21
f 12/8/22 13/9/23 14/10/24
f 14/10/25 13/9/26 15/11/27
f 14/10/28 15/11/29 16/12/30
f 17/13/31 16/12/32 15/11/33
f 17/13/34 15/11/35 18/14/36
f 19/15/37 17/13/38 18/14/39
f 19/15/40 18/14/41 20/16/42
f 21/17/43 19/15/44 20/16/45
f 21/17/46 20/16/47 22/18/48
f 23/19/49 21/17/50 22/18/51
f 23/19/52 22/18/53 24/20/54
f 25/21/55 26/22/56 23/19/57
f 25/21/58 23/19/59 24/20/60
f 8/4/61 7/3/62 26/22/63
f 8/4/64 26/22/65 25/21/66
f 27/23/67 28/24/68 29/25/69
f 27/23/70 29/25/71 30/26/72
f 31/27/73 32/28/74 33/29/75
f 31/30/76 33/29/77 34/31/78
f 34/31/79 33/29/80 35/32/81
f 34/31/82 35/32/83 36/33/84
f 36/33/85 35/32/86 37/34/87
f 36/33/88 37/34/89 38/35/90
f 37/34/91 39/36/92 40/37/93
f 37/34/94 40/37/95 38/35/96
f 39/36/97 41/38/98 42/39/99
f 39/36/100 42/39/101 40/37/102
f 41/38/103 43/40/104 44/41/105
f 41/38/106 44/42/107 42/39/108
f 43/43/109 45/44/110 46/45/111
f 43/46/112 46/47/113 44/48/114
f 47/49/115 48/50/116 46/51/117
f 47/49/118 46/52/119 45/53/120
f 30/26/121 29/25/122 48/50/123
f 30/26/124 48/50/125 47/49/126
f 49/54/127 50/55/128 51/56/129
f 49/54/130 51/56/131 52/57/132
f 49/54/133 52/57/134 53/58/135
f 53/58/136 52/57/137 54/59/138
f 54/59/139 52/57/140 55/60/141
f 55/60/142 52/57/143 56/61/144
f 55/60/145 56/61/146 57/62/147
f 57/62/148 56/61/149 58/63/150
f 58/63/151 56/61/152 59/64/153
f 59/64/154 56/61/155 60/65/156
f 59/64/157 60/65/158 61/66/159
f 61/66/160 60/65/161 62/67/162
f 62/67/163 60/65/164 63/68/165
f 62/67/166 63/68/167 64/69/168
f 64/69/169 63/68/170 65/70/171
f 65/70/172 63/68/173 66/71/174
f 67/72/175 65/70/176 66/71/177
f 67/72/178 66/71/179 68/73/180
f 67/72/181 68/73/182 69/74/183
f 67/72/184 69/74/185 70/75/186
