# This file uses centimeters as units for non-parametric coordinates.

mtllib b42.mtl
g default
v -200.047638 -199.971619 49.985813
v -150.035706 -211.752167 49.985813
v -100.023781 -237.276718 49.985813
v -50.011848 -268.691528 49.985813
v 0.000084 -302.069763 49.985813
v 50.012016 -337.411499 49.985813
v 100.023949 -374.716644 49.985813
v 150.035873 -392.387512 49.985813
v 200.047806 -398.277771 49.985813
v -200.047638 -0.028374 49.985813
v -150.035797 -11.808929 49.985813
v -100.023872 -37.333458 49.985813
v -50.011940 -68.748276 49.985813
v -0.000008 -102.126541 49.985813
v 50.011925 -137.468262 49.985813
v 100.023857 -174.773392 49.985813
v 150.035782 -192.444260 49.985813
v 200.047806 -198.334534 49.985813
v -200.047638 -0.028374 -49.985813
v -150.035797 -11.808929 -49.985813
v -100.023872 -37.333458 -49.985813
v -50.011940 -68.748276 -49.985813
v -0.000008 -102.126541 -49.985813
v 50.011925 -137.468262 -49.985813
v 100.023857 -174.773392 -49.985813
v 150.035782 -192.444260 -49.985813
v 200.047806 -198.334534 -49.985813
v -200.047638 -199.971619 -49.985813
v -150.035706 -211.752167 -49.985813
v -100.023781 -237.276718 -49.985813
v -50.011848 -268.691528 -49.985813
v 0.000084 -302.069763 -49.985813
v 50.012016 -337.411499 -49.985813
v 100.023949 -374.716644 -49.985813
v 150.035873 -392.387512 -49.985813
v 200.047806 -398.277771 -49.985813
v -200.047729 -0.028374 49.985813
v -150.035797 -11.808929 49.985813
v -100.023872 -37.333458 49.985813
v -50.011940 -68.748276 49.985813
v -0.000008 -102.126541 49.985813
v 50.011925 -137.468262 49.985813
v 100.023857 -174.773392 49.985813
v 150.035782 -192.444260 49.985813
v 200.047714 -198.334534 49.985813
v -200.047729 -0.028374 -49.985813
v -150.035797 -11.808929 -49.985813
v -100.023872 -37.333458 -49.985813
v -50.011940 -68.748276 -49.985813
v -0.000008 -102.126541 -49.985813
v 50.011925 -137.468262 -49.985813
v 100.023857 -174.773392 -49.985813
v 150.035782 -192.444260 -49.985813
v 200.047714 -198.334534 -49.985813
v -200.046982 -199.971619 49.985813
v -150.035065 -211.752167 49.985813
v -100.023132 -237.276718 49.985813
v -50.011204 -268.691528 49.985813
v 0.000728 -302.069763 49.985813
v 50.012661 -337.411499 49.985813
v 100.024590 -374.716644 49.985813
v 150.036514 -392.387512 49.985813
v 200.048447 -398.277771 49.985813
v -200.046982 -0.028374 49.985813
v 200.047806 -198.334534 49.985813
v -200.047638 -0.028374 -49.985813
v 200.047897 -198.334534 -49.985813
v -200.047455 -199.971619 -49.985813
v -150.035522 -211.752167 -49.985813
v -100.023689 -237.276718 -49.985813
v -50.011753 -268.691528 -49.985813
v 0.000360 -302.069763 -49.985813
v 50.012291 -337.411499 -49.985813
v 100.024040 -374.716644 -49.985813
v 150.035965 -392.387512 -49.985813
v 200.047989 -398.277771 -49.985813
vt 0.155510 0.290852
vt 0.155510 0.802873
vt 0.036032 0.290852
vt 0.036032 0.802873
vt 0.274989 0.290852
vt 0.274989 0.802873
vt 0.394467 0.290852
vt 0.394467 0.802873
vt 0.513946 0.290852
vt 0.513946 0.802873
vt 0.633424 0.290852
vt 0.633424 0.802873
vt 0.752903 0.290852
vt 0.752903 0.802873
vt 0.872381 0.290852
vt 0.872381 0.802873
vt 0.991860 0.290852
vt 0.991860 0.802873
vt -0.006243 0.135722
vt 0.119446 0.135722
vt -0.006243 0.709847
vt 0.119446 0.709847
vt 0.245135 0.135722
vt 0.245135 0.709847
vt 0.370824 0.135722
vt 0.370824 0.709847
vt 0.496513 0.135722
vt 0.496513 0.709847
vt 0.622203 0.135722
vt 0.622203 0.709847
vt 0.747892 0.135722
vt 0.747892 0.709847
vt 0.873581 0.135722
vt 0.873581 0.709847
vt 0.999269 0.135722
vt 0.999269 0.709847
vt -0.485333 0.447051
vt -0.252945 0.447051
vt -0.485333 0.979323
vt -0.252945 0.979323
vt -0.020558 0.447051
vt -0.020558 0.979323
vt 0.211829 0.447051
vt 0.211829 0.979323
vt 0.444217 0.447051
vt 0.444217 0.979323
vt 0.676604 0.447051
vt 0.676604 0.979323
vt 0.908991 0.447051
vt 0.908991 0.979323
vt 1.141378 0.447051
vt 1.141378 0.979323
vt 1.373766 0.447051
vt 1.373766 0.979323
vt -0.099081 0.750000
vt 0.050689 0.750000
vt -0.099081 1.000000
vt 0.050689 1.000000
vt 0.200460 0.750000
vt 0.200460 1.000000
vt 0.350230 0.750000
vt 0.350230 1.000000
vt 0.500000 0.750000
vt 0.500000 1.000000
vt 0.649770 0.750000
vt 0.649770 1.000000
vt 0.799541 0.750000
vt 0.799541 1.000000
vt 0.949311 0.750000
vt 0.949311 1.000000
vt 1.099081 0.750000
vt 1.099081 1.000000
vt 0.625000 0.000000
vt 0.875000 0.000000
vt 0.625000 0.250000
vt 0.875000 0.250000
vt 0.125000 0.000000
vt 0.375000 0.000000
vt 0.125000 0.250000
vt 0.375000 0.250000
vn -0.000000 0.000000 1.000000
vn -0.000000 0.000000 1.000000
vn -0.000000 0.000000 1.000000
vn 0.000000 0.000000 1.000000
vn 0.000000 0.000000 1.000000
vn 0.000000 0.000000 1.000000
vn 0.000000 0.000000 1.000000
vn 0.000000 0.000000 1.000000
vn 0.000000 0.000000 1.000000
vn -0.000000 0.000000 1.000000
vn 0.000000 0.000000 1.000000
vn -0.000000 0.000000 1.000000
vn -0.000000 0.000000 1.000000
vn 0.000000 0.000000 1.000000
vn 0.000000 0.000000 1.000000
vn 0.000000 0.000000 1.000000
vn -0.000000 0.000000 1.000000
vn 0.000000 0.000000 1.000000
vn 0.000000 0.000000 -1.000000
vn -0.000000 0.000000 -1.000000
vn -0.000000 0.000000 -1.000000
vn -0.000000 0.000000 -1.000000
vn 0.000000 0.000000 -1.000000
vn 0.000000 0.000000 -1.000000
vn 0.000000 0.000000 -1.000000
vn 0.000000 0.000000 -1.000000
vn -0.000000 0.000000 -1.000000
vn 0.000000 0.000000 -1.000000
vn -0.000000 0.000000 -1.000000
vn 0.000000 0.000000 -1.000000
vn 0.000000 0.000000 -1.000000
vn -0.000000 0.000000 -1.000000
vn 0.000000 0.000000 -1.000000
vn 0.000000 0.000000 -1.000000
vn 0.000000 0.000000 -1.000000
vn -0.000000 0.000000 -1.000000
vn 0.229280 0.973361 0.000000
vn 0.306349 0.951919 0.000000
vn 0.229280 0.973361 0.000000
vn 0.381937 0.924189 0.000000
vn 0.480785 0.876839 0.000000
vn 0.506583 0.862191 0.000000
vn 0.539697 0.841859 0.000000
vn 0.547435 0.836848 0.000000
vn 0.562498 0.826798 0.000000
vn 0.569827 0.821765 0.000000
vn 0.584085 0.811692 0.000000
vn 0.591018 0.806658 0.000000
vn 0.514833 0.857291 0.000000
vn 0.425683 0.904872 0.000000
vn 0.262530 0.964924 0.000000
vn 0.190072 0.981770 0.000000
vn 0.116969 0.993136 0.000000
vn 0.116969 0.993136 0.000000
vn -0.229280 -0.973361 0.000001
vn -0.306349 -0.951919 0.000001
vn -0.229280 -0.973361 0.000001
vn -0.381937 -0.924188 0.000002
vn -0.480785 -0.876838 0.000003
vn -0.506583 -0.862191 0.000003
vn -0.539696 -0.841860 0.000003
vn -0.547434 -0.836849 0.000002
vn -0.562498 -0.826799 0.000002
vn -0.569827 -0.821765 0.000002
vn -0.584086 -0.811692 0.000002
vn -0.591019 -0.806658 0.000003
vn -0.514833 -0.857290 0.000003
vn -0.425683 -0.904872 0.000002
vn -0.262529 -0.964924 0.000001
vn -0.190072 -0.981770 0.000001
vn -0.116968 -0.993136 0.000000
vn -0.116969 -0.993136 0.000000
vn 1.000000 0.000003 -0.000005
vn 1.000000 0.000002 -0.000002
vn 1.000000 0.000002 -0.000002
vn 1.000000 0.000000 0.000001
vn -1.000000 -0.000001 0.000005
vn -1.000000 -0.000000 0.000006
vn -1.000000 -0.000000 0.000006
vn -1.000000 0.000000 0.000007
s 1
g polySurface6
usemtl lambert4SG
f 2/1/1 11/2/2 1/3/3
f 1/3/3 11/2/2 10/4/4
f 3/5/5 12/6/6 2/1/1
f 2/1/1 12/6/6 11/2/2
f 4/7/7 13/8/8 3/5/5
f 3/5/5 13/8/8 12/6/6
f 5/9/9 14/10/10 4/7/7
f 4/7/7 14/10/10 13/8/8
f 6/11/11 15/12/12 5/9/9
f 5/9/9 15/12/12 14/10/10
f 7/13/13 16/14/14 6/11/11
f 6/11/11 16/14/14 15/12/12
f 8/15/15 17/16/16 7/13/13
f 7/13/13 17/16/16 16/14/14
f 9/17/17 18/18/18 8/15/15
f 8/15/15 18/18/18 17/16/16
s 8
f 19/19/19 20/20/20 28/21/21
f 28/21/21 20/20/20 29/22/22
f 20/20/20 21/23/23 29/22/22
f 29/22/22 21/23/23 30/24/24
f 21/23/23 22/25/25 30/24/24
f 30/24/24 22/25/25 31/26/26
f 22/25/25 23/27/27 31/26/26
f 31/26/26 23/27/27 32/28/28
f 23/27/27 24/29/29 32/28/28
f 32/28/28 24/29/29 33/30/30
f 24/29/29 25/31/31 33/30/30
f 33/30/30 25/31/31 34/32/32
f 25/31/31 26/33/33 34/32/32
f 34/32/32 26/33/33 35/34/34
f 26/33/33 27/35/35 35/34/34
f 35/34/34 27/35/35 36/36/36
s 9
usemtl lambert2SG
f 37/37/37 38/38/38 46/39/39
f 46/39/39 38/38/38 47/40/40
f 38/38/38 39/41/41 47/40/40
f 47/40/40 39/41/41 48/42/42
f 39/41/41 40/43/43 48/42/42
f 48/42/42 40/43/43 49/44/44
f 40/43/43 41/45/45 49/44/44
f 49/44/44 41/45/45 50/46/46
f 41/45/45 42/47/47 50/46/46
f 50/46/46 42/47/47 51/48/48
f 42/47/47 43/49/49 51/48/48
f 51/48/48 43/49/49 52/50/50
f 43/49/49 44/51/51 52/50/50
f 52/50/50 44/51/51 53/52/52
f 44/51/51 45/53/53 53/52/52
f 53/52/52 45/53/53 54/54/54
s 10
usemtl lambert5SG
f 68/55/55 69/56/56 55/57/57
f 55/57/57 69/56/56 56/58/58
f 69/56/56 70/59/59 56/58/58
f 56/58/58 70/59/59 57/60/60
f 70/59/59 71/61/61 57/60/60
f 57/60/60 71/61/61 58/62/62
f 71/61/61 72/63/63 58/62/62
f 58/62/62 72/63/63 59/64/64
f 72/63/63 73/65/65 59/64/64
f 59/64/64 73/65/65 60/66/66
f 73/65/65 74/67/67 60/66/66
f 60/66/66 74/67/67 61/68/68
f 74/67/67 75/69/69 61/68/68
f 61/68/68 75/69/69 62/70/70
f 75/69/69 76/71/71 62/70/70
f 62/70/70 76/71/71 63/72/72
s 11
f 63/73/73 76/74/74 65/75/75
f 65/75/75 76/74/74 67/76/76
s 12
f 68/77/77 55/78/78 66/79/79
f 66/79/79 55/78/78 64/80/80
