# This file uses centimeters as units for non-parametric coordinates.

mtllib block_rect_curved_2x2.mtl
g default
v -100.000000 -184.967079 100.000000
v 100.000000 -184.967079 100.000000
v -100.000000 12.679109 100.000000
v 100.000000 12.679109 100.000000
v -100.000000 12.679109 -100.000000
v 100.000000 12.679109 -100.000000
v -100.000000 -184.967079 -100.000000
v 100.000000 -184.967079 -100.000000
v 0.000000 99.219729 0.000000
v -100.000000 12.679109 0.000000
v 0.000000 12.679109 100.000000
v 100.000000 12.679109 0.000000
v 0.000000 12.679109 -100.000000
v -50.000000 55.938443 -50.000000
v -50.000000 12.679109 -100.000000
v -100.000000 12.679109 -50.000000
v -50.000000 73.211746 0.000000
v 0.000000 73.211746 -50.000000
v -50.000000 55.938443 50.000000
v -100.000000 12.679109 50.000000
v -50.000000 12.679109 100.000000
v 0.000000 73.211746 50.000000
v 50.000000 55.938443 50.000000
v 50.000000 12.679109 100.000000
v 100.000000 12.679109 50.000000
v 50.000000 73.211746 0.000000
v 50.000000 55.938443 -50.000000
v 100.000000 12.679109 -50.000000
v 50.000000 12.679109 -100.000000
v -25.000000 42.667886 -75.000000
v 0.000000 44.806260 -75.000000
v -25.000000 12.679109 -100.000000
v -50.000000 36.358164 -75.000000
v -25.000000 68.759313 -50.000000
v -75.000000 42.667886 25.000000
v -75.000000 44.806260 0.000000
v -100.000000 12.679109 25.000000
v -75.000000 36.358164 50.000000
v -50.000000 68.759313 25.000000
v 25.000000 42.667886 75.000000
v 0.000000 44.806260 75.000000
v 25.000000 12.679109 100.000000
v 50.000000 36.358164 75.000000
v 25.000000 68.759313 50.000000
v 75.000000 42.667886 -25.000000
v 75.000000 44.806260 0.000000
v 100.000000 12.679109 -25.000000
v 75.000000 36.358164 -50.000000
v 50.000000 68.759313 -25.000000
v -75.000000 26.193298 -75.000000
v -75.000000 12.679109 -100.000000
v -100.000000 12.679109 -75.000000
v -75.000000 36.358164 -50.000000
v -75.000000 42.667886 -25.000000
v -100.000000 12.679109 -25.000000
v -50.000000 68.759313 -25.000000
v -25.000000 86.288593 -25.000000
v -25.000000 92.444093 0.000000
v 0.000000 92.444093 -25.000000
v -75.000000 26.193298 75.000000
v -100.000000 12.679109 75.000000
v -75.000000 12.679109 100.000000
v -50.000000 36.358164 75.000000
v -25.000000 42.667886 75.000000
v -25.000000 12.679109 100.000000
v -25.000000 68.759313 50.000000
v -25.000000 86.288593 25.000000
v 0.000000 92.444093 25.000000
v 75.000000 26.193298 75.000000
v 75.000000 12.679109 100.000000
v 100.000000 12.679109 75.000000
v 75.000000 36.358164 50.000000
v 75.000000 42.667886 25.000000
v 100.000000 12.679109 25.000000
v 50.000000 68.759313 25.000000
v 25.000000 86.288593 25.000000
v 25.000000 92.444093 0.000000
v 75.000000 26.193298 -75.000000
v 100.000000 12.679109 -75.000000
v 75.000000 12.679109 -100.000000
v 50.000000 36.358164 -75.000000
v 25.000000 42.667886 -75.000000
v 25.000000 12.679109 -100.000000
v 25.000000 68.759313 -50.000000
v 25.000000 86.288593 -25.000000
vt 0.007347 0.005443
vt 0.993279 0.005443
vt 0.153345 0.153845
vt 0.848524 0.153845
vt 0.761627 0.153845
vt 0.674729 0.153845
vt 0.587832 0.153845
vt 0.500935 0.153845
vt 0.414037 0.153845
vt 0.327140 0.153845
vt 0.240243 0.153845
vt 0.413739 0.675162
vt 0.500637 0.675162
vt 0.500637 0.762060
vt 0.413739 0.762060
vt 0.500637 0.588265
vt 0.413739 0.588265
vt 0.587534 0.675162
vt 0.587534 0.762060
vt 0.500637 0.848957
vt 0.413739 0.848957
vt 0.326842 0.762060
vt 0.326842 0.675162
vt 0.587534 0.588265
vt 0.326842 0.588265
vt 0.413739 0.501368
vt 0.500637 0.501368
vt 0.674431 0.675162
vt 0.674431 0.762060
vt 0.587534 0.848957
vt 0.326842 0.848957
vt 0.239945 0.675162
vt 0.239945 0.762060
vt 0.587534 0.501368
vt 0.674431 0.588265
vt 0.239945 0.588265
vt 0.326842 0.501368
vt 0.500637 0.414470
vt 0.413739 0.414470
vt 0.761329 0.675162
vt 0.761329 0.762060
vt 0.674431 0.848957
vt 0.239945 0.848957
vt 0.153047 0.762060
vt 0.153047 0.675162
vt 0.587534 0.414470
vt 0.674431 0.501368
vt 0.761329 0.588265
vt 0.153047 0.588265
vt 0.239945 0.501368
vt 0.326842 0.414470
vt 0.413739 0.327573
vt 0.500637 0.327573
vt 0.848226 0.675162
vt 0.848226 0.762060
vt 0.761329 0.848957
vt 0.153047 0.848957
vt 0.587534 0.327573
vt 0.674431 0.414470
vt 0.761329 0.501368
vt 0.848226 0.588265
vt 0.153047 0.501368
vt 0.239945 0.414470
vt 0.326842 0.327573
vt 0.500637 0.240676
vt 0.413739 0.240676
vt 0.848226 0.848957
vt 0.587534 0.240676
vt 0.674431 0.327573
vt 0.761329 0.414470
vt 0.848226 0.501368
vt 0.153047 0.414470
vt 0.239945 0.327573
vt 0.326842 0.240676
vt 0.413739 0.153779
vt 0.500637 0.153779
vt 0.587534 0.153779
vt 0.674431 0.240676
vt 0.761329 0.327573
vt 0.848226 0.414470
vt 0.153047 0.327573
vt 0.239945 0.240676
vt 0.326842 0.153779
vt 0.674431 0.153779
vt 0.761329 0.240676
vt 0.848226 0.327573
vt 0.153047 0.240676
vt 0.239945 0.153779
vt 0.761329 0.153779
vt 0.848226 0.240676
vt 0.153047 0.153779
vt 0.848226 0.153779
vt 0.152770 0.849885
vt 0.239667 0.849885
vt 0.326564 0.849885
vt 0.413462 0.849885
vt 0.500359 0.849885
vt 0.587256 0.849885
vt 0.674154 0.849885
vt 0.761051 0.849885
vt 0.847948 0.849885
vt 0.003817 0.997507
vt 0.999769 0.997507
vt 0.079992 0.032692
vt 0.056360 0.032692
vt 0.079992 0.010013
vt 0.056360 0.010013
vt 0.994354 0.003279
vt 0.994354 0.992774
vt 0.848489 0.154592
vt 0.848489 0.849770
vt 0.848489 0.762873
vt 0.848489 0.675975
vt 0.848489 0.589078
vt 0.848489 0.502181
vt 0.848489 0.415284
vt 0.848489 0.328386
vt 0.848489 0.241489
vt 0.006941 0.996521
vt 0.006941 0.004811
vt 0.152962 0.849151
vt 0.152962 0.153972
vt 0.152962 0.240869
vt 0.152962 0.327766
vt 0.152962 0.414664
vt 0.152962 0.501561
vt 0.152962 0.588458
vt 0.152962 0.675356
vt 0.152962 0.762253
vn 0.000000 0.000000 1.000000
vn 0.000000 0.000000 1.000000
vn 0.000000 0.000000 1.000000
vn 0.000000 0.000000 1.000000
vn 0.000000 0.000000 1.000000
vn 0.000000 0.000000 1.000000
vn 0.000000 0.000000 1.000000
vn 0.000000 0.000000 1.000000
vn 0.000000 0.000000 1.000000
vn 0.000000 0.000000 1.000000
vn 0.000000 0.000000 1.000000
vn 0.000000 0.000000 1.000000
vn 0.000000 0.000000 1.000000
vn 0.000000 0.000000 1.000000
vn 0.000000 0.000000 1.000000
vn 0.000000 0.000000 1.000000
vn 0.000000 0.000000 1.000000
vn 0.000000 0.000000 1.000000
vn 0.000000 0.000000 1.000000
vn 0.000000 0.000000 1.000000
vn 0.000000 0.000000 1.000000
vn 0.000000 0.000000 1.000000
vn 0.000000 0.000000 1.000000
vn 0.000000 0.000000 1.000000
vn 0.000000 0.000000 1.000000
vn 0.000000 0.000000 1.000000
vn 0.000000 0.000000 1.000000
vn -0.000000 0.757427 -0.652919
vn -0.000000 0.655266 -0.755398
vn -0.265838 0.734801 -0.624018
vn -0.133471 0.670884 -0.729452
vn 0.000000 0.000000 -1.000000
vn 0.000000 0.000000 -1.000000
vn 0.000000 0.000000 -1.000000
vn 0.000000 0.000000 -1.000000
vn 0.000000 0.000000 -1.000000
vn 0.000000 0.000000 -1.000000
vn 0.000000 0.000000 -1.000000
vn 0.000000 0.000000 -1.000000
vn 0.000000 0.000000 -1.000000
vn 0.000000 0.000000 -1.000000
vn 0.000000 0.000000 -1.000000
vn 0.000000 0.000000 -1.000000
vn 0.000000 0.000000 -1.000000
vn 0.000000 0.000000 -1.000000
vn 0.000000 0.000000 -1.000000
vn 0.000000 0.000000 -1.000000
vn 0.000000 0.000000 -1.000000
vn 0.000000 0.000000 -1.000000
vn 0.000000 0.000000 -1.000000
vn 0.000000 0.000000 -1.000000
vn 0.000000 0.000000 -1.000000
vn 0.000000 0.000000 -1.000000
vn 0.000000 0.000000 -1.000000
vn 0.000000 0.000000 -1.000000
vn 0.000000 0.000000 -1.000000
vn 0.000000 0.000000 -1.000000
vn 0.000000 0.000000 -1.000000
vn 0.000000 -1.000000 0.000000
vn 0.000000 -1.000000 0.000000
vn 0.000000 -1.000000 0.000000
vn 0.000000 -1.000000 0.000000
vn 0.000000 -1.000000 0.000000
vn 0.000000 -1.000000 0.000000
vn 1.000000 0.000000 0.000000
vn 1.000000 0.000000 0.000000
vn 1.000000 0.000000 0.000000
vn 1.000000 0.000000 0.000000
vn 1.000000 0.000000 0.000000
vn 1.000000 0.000000 0.000000
vn 1.000000 0.000000 0.000000
vn 1.000000 0.000000 0.000000
vn 1.000000 0.000000 0.000000
vn 1.000000 0.000000 0.000000
vn 1.000000 0.000000 0.000000
vn 1.000000 0.000000 0.000000
vn 1.000000 0.000000 0.000000
vn 1.000000 0.000000 0.000000
vn 1.000000 0.000000 0.000000
vn 1.000000 0.000000 0.000000
vn 1.000000 0.000000 0.000000
vn 1.000000 0.000000 0.000000
vn 1.000000 0.000000 0.000000
vn 1.000000 0.000000 0.000000
vn 1.000000 0.000000 0.000000
vn 1.000000 0.000000 0.000000
vn 1.000000 0.000000 0.000000
vn 1.000000 0.000000 0.000000
vn 1.000000 0.000000 0.000000
vn 1.000000 0.000000 0.000000
vn 1.000000 0.000000 0.000000
vn -1.000000 0.000000 0.000000
vn -1.000000 0.000000 0.000000
vn -1.000000 0.000000 0.000000
vn -1.000000 0.000000 0.000000
vn -1.000000 0.000000 0.000000
vn -1.000000 0.000000 0.000000
vn -1.000000 0.000000 0.000000
vn -1.000000 0.000000 0.000000
vn -1.000000 0.000000 0.000000
vn -1.000000 0.000000 0.000000
vn -1.000000 0.000000 0.000000
vn -1.000000 0.000000 0.000000
vn -1.000000 0.000000 0.000000
vn -1.000000 0.000000 0.000000
vn -1.000000 0.000000 0.000000
vn -1.000000 0.000000 0.000000
vn -1.000000 0.000000 0.000000
vn -1.000000 0.000000 0.000000
vn -1.000000 0.000000 0.000000
vn -1.000000 0.000000 0.000000
vn -1.000000 0.000000 0.000000
vn -1.000000 0.000000 0.000000
vn -1.000000 0.000000 0.000000
vn -1.000000 0.000000 0.000000
vn -1.000000 0.000000 0.000000
vn -1.000000 0.000000 0.000000
vn -1.000000 0.000000 0.000000
vn -0.652919 0.757427 0.000000
vn -0.755398 0.655266 -0.000000
vn -0.624018 0.734801 0.265838
vn -0.729452 0.670884 0.133471
vn 0.000000 0.757427 0.652919
vn 0.000000 0.655266 0.755398
vn 0.265838 0.734801 0.624018
vn 0.133471 0.670884 0.729452
vn 0.652919 0.757427 0.000000
vn 0.755398 0.655266 0.000000
vn 0.624018 0.734801 -0.265838
vn 0.729452 0.670884 -0.133471
vn -0.258522 0.741106 -0.619620
vn 0.000000 1.000000 0.000000
vn -0.390006 0.834141 -0.390006
vn 0.000000 1.000000 0.000000
vn 0.000000 1.000000 0.000000
vn 0.000000 1.000000 0.000000
vn -0.619620 0.741106 -0.258522
vn -0.729452 0.670884 -0.133471
vn -0.624018 0.734801 -0.265838
vn -0.391316 0.832913 -0.391316
vn -0.388806 0.921320 0.000000
vn -0.619620 0.741106 0.258522
vn 0.000000 1.000000 0.000000
vn -0.390006 0.834141 0.390006
vn 0.000000 1.000000 0.000000
vn 0.000000 1.000000 0.000000
vn 0.000000 1.000000 0.000000
vn -0.258522 0.741106 0.619620
vn -0.133471 0.670884 0.729452
vn -0.265838 0.734801 0.624018
vn -0.391316 0.832913 0.391316
vn 0.000000 0.921320 0.388806
vn 0.258522 0.741106 0.619620
vn 0.000000 1.000000 0.000000
vn 0.390006 0.834141 0.390006
vn 0.000000 1.000000 0.000000
vn 0.000000 1.000000 0.000000
vn 0.000000 1.000000 0.000000
vn 0.619620 0.741106 0.258522
vn 0.729452 0.670884 0.133471
vn 0.624018 0.734801 0.265838
vn 0.391316 0.832913 0.391316
vn 0.388806 0.921320 0.000000
vn 0.619620 0.741106 -0.258522
vn 0.000000 1.000000 0.000000
vn 0.390006 0.834141 -0.390006
vn 0.000000 1.000000 0.000000
vn 0.000000 1.000000 0.000000
vn 0.000000 1.000000 0.000000
vn 0.258522 0.741106 -0.619620
vn 0.133471 0.670884 -0.729452
vn 0.265838 0.734801 -0.624018
vn 0.391316 0.832913 -0.391316
vn -0.000000 0.921320 -0.388806
vn 0.000000 1.000000 0.000000
vn 0.000000 1.000000 0.000000
vn -0.475869 0.739661 -0.475869
vn 0.000000 1.000000 0.000000
vn 0.000000 1.000000 0.000000
vn -0.475869 0.739661 0.475869
vn 0.000000 1.000000 0.000000
vn 0.000000 1.000000 0.000000
vn 0.475869 0.739661 0.475869
vn 0.000000 1.000000 0.000000
vn 0.000000 1.000000 0.000000
vn 0.475869 0.739661 -0.475869
vn 0.000000 1.000000 0.000000
vn 0.000000 1.000000 0.000000
vn 0.000000 1.000000 0.000000
vn 0.000000 1.000000 0.000000
vn 0.000000 1.000000 0.000000
vn 0.000000 1.000000 0.000000
vn 0.000000 1.000000 0.000000
vn 0.000000 1.000000 0.000000
vn 0.000000 1.000000 0.000000
vn 0.000000 1.000000 0.000000
vn 0.000000 1.000000 0.000000
vn 0.000000 1.000000 0.000000
vn 0.000000 1.000000 0.000000
vn 0.000000 1.000000 0.000000
vn 0.000000 1.000000 0.000000
vn 0.000000 1.000000 0.000000
vn 0.000000 1.000000 0.000000
s off
g plat_rect_1x1_std:Mesh
usemtl initialShadingGroup
f 1/1/1 2/2/2 3/3/3
f 3/3/4 2/2/5 62/11/6
f 62/11/7 2/2/8 21/10/9
f 21/10/10 2/2/11 65/9/12
f 65/9/13 2/2/14 11/8/15
f 11/8/16 2/2/17 42/7/18
f 42/7/19 2/2/20 24/6/21
f 24/6/22 2/2/23 70/5/24
f 2/2/25 4/4/26 70/5/27
s 1
f 18/13/28 31/14/29 34/12/30
f 34/12/30 31/14/29 30/15/31
s off
f 6/101/32 7/102/33 80/100/34
f 80/100/35 7/102/36 29/99/37
f 29/99/38 7/102/39 83/98/40
f 83/98/41 7/102/42 13/97/43
f 13/97/44 7/102/45 32/96/46
f 32/96/47 7/102/48 15/95/49
f 15/95/50 7/102/51 51/94/52
f 5/93/53 51/94/54 7/102/55
f 7/102/56 6/101/57 8/103/58
f 7/104/59 8/105/60 1/106/61
f 1/106/62 8/105/63 2/107/64
f 2/108/65 8/109/66 4/110/67
f 4/110/68 8/109/69 71/118/70
f 71/118/71 8/109/72 25/117/73
f 25/117/74 8/109/75 74/116/76
f 74/116/77 8/109/78 12/115/79
f 12/115/80 8/109/81 47/114/82
f 47/114/83 8/109/84 28/113/85
f 28/113/86 8/109/87 79/112/88
f 8/109/89 6/111/90 79/112/91
f 7/119/92 1/120/93 5/121/94
f 5/121/95 1/120/96 52/129/97
f 52/129/98 1/120/99 16/128/100
f 16/128/101 1/120/102 55/127/103
f 55/127/104 1/120/105 10/126/106
f 10/126/107 1/120/108 37/125/109
f 37/125/110 1/120/111 20/124/112
f 20/124/113 1/120/114 61/123/115
f 1/120/116 3/122/117 61/123/118
s 1
f 17/37/119 36/50/120 39/51/121
f 39/51/121 36/50/120 35/63/122
f 22/53/123 41/65/124 44/58/125
f 44/58/125 41/65/124 40/68/126
f 26/47/127 46/60/128 49/35/129
f 49/35/129 46/60/128 45/48/130
f 33/22/131 15/31/132 50/33/133
f 50/33/133 15/31/132 51/43/134
f 16/45/135 55/49/136 53/32/137
f 53/32/137 55/49/136 54/36/138
f 56/25/139 17/37/119 57/17/140
f 57/17/140 17/37/119 58/26/141
f 38/73/142 20/81/143 60/82/144
f 60/82/144 20/81/143 61/87/145
f 21/83/146 65/75/147 63/74/148
f 63/74/148 65/75/147 64/66/149
f 66/52/150 22/53/123 67/39/151
f 67/39/151 22/53/123 68/38/152
f 43/78/153 24/84/154 69/85/155
f 69/85/155 24/84/154 70/89/156
f 25/86/157 74/80/158 72/79/159
f 72/79/159 74/80/158 73/70/160
f 75/59/161 26/47/127 76/46/162
f 76/46/162 26/47/127 77/34/163
f 48/40/164 28/54/165 78/41/166
f 78/41/166 28/54/165 79/55/167
f 29/42/168 83/30/169 81/29/170
f 81/29/170 83/30/169 82/19/171
f 84/18/172 18/13/28 85/24/173
f 85/24/173 18/13/28 59/16/174
f 31/14/29 13/20/175 30/15/31
f 30/15/31 13/20/175 32/21/176
f 15/31/132 33/22/131 32/21/176
f 32/21/176 33/22/131 30/15/31
f 33/22/131 14/23/177 30/15/31
f 30/15/31 14/23/177 34/12/30
f 36/50/120 10/62/178 35/63/122
f 35/63/122 10/62/178 37/72/179
f 20/81/143 38/73/142 37/72/179
f 37/72/179 38/73/142 35/63/122
f 38/73/142 19/64/180 35/63/122
f 35/63/122 19/64/180 39/51/121
f 41/65/124 11/76/181 40/68/126
f 40/68/126 11/76/181 42/77/182
f 24/84/154 43/78/153 42/77/182
f 42/77/182 43/78/153 40/68/126
f 43/78/153 23/69/183 40/68/126
f 40/68/126 23/69/183 44/58/125
f 46/60/128 12/71/184 45/48/130
f 45/48/130 12/71/184 47/61/185
f 28/54/165 48/40/164 47/61/185
f 47/61/185 48/40/164 45/48/130
f 48/40/164 27/28/186 45/48/130
f 45/48/130 27/28/186 49/35/129
s off
f 5/57/187 52/44/188 51/43/189
s 1
f 51/43/134 52/44/190 50/33/133
f 52/44/190 16/45/135 50/33/133
f 50/33/133 16/45/135 53/32/137
f 14/23/177 33/22/131 53/32/137
f 53/32/137 33/22/131 50/33/133
f 55/49/136 10/62/178 54/36/138
f 54/36/138 10/62/178 36/50/120
f 17/37/119 56/25/139 36/50/120
f 36/50/120 56/25/139 54/36/138
f 56/25/139 14/23/177 54/36/138
f 54/36/138 14/23/177 53/32/137
f 9/27/191 59/16/174 58/26/141
f 58/26/141 59/16/174 57/17/140
f 59/16/174 18/13/28 57/17/140
f 57/17/140 18/13/28 34/12/30
f 14/23/177 56/25/139 34/12/30
f 34/12/30 56/25/139 57/17/140
s off
f 3/91/192 62/88/193 61/87/194
s 1
f 61/87/145 62/88/195 60/82/144
f 62/88/195 21/83/146 60/82/144
f 60/82/144 21/83/146 63/74/148
f 19/64/180 38/73/142 63/74/148
f 63/74/148 38/73/142 60/82/144
f 65/75/147 11/76/181 64/66/149
f 64/66/149 11/76/181 41/65/124
f 22/53/123 66/52/150 41/65/124
f 41/65/124 66/52/150 64/66/149
f 66/52/150 19/64/180 64/66/149
f 64/66/149 19/64/180 63/74/148
f 9/27/191 58/26/141 68/38/152
f 68/38/152 58/26/141 67/39/151
f 58/26/141 17/37/119 67/39/151
f 67/39/151 17/37/119 39/51/121
f 19/64/180 66/52/150 39/51/121
f 39/51/121 66/52/150 67/39/151
s off
f 4/92/196 71/90/197 70/89/198
s 1
f 70/89/156 71/90/199 69/85/155
f 71/90/199 25/86/157 69/85/155
f 69/85/155 25/86/157 72/79/159
f 23/69/183 43/78/153 72/79/159
f 72/79/159 43/78/153 69/85/155
f 74/80/158 12/71/184 73/70/160
f 73/70/160 12/71/184 46/60/128
f 26/47/127 75/59/161 46/60/128
f 46/60/128 75/59/161 73/70/160
f 75/59/161 23/69/183 73/70/160
f 73/70/160 23/69/183 72/79/159
f 9/27/191 68/38/152 77/34/163
f 77/34/163 68/38/152 76/46/162
f 68/38/152 22/53/123 76/46/162
f 76/46/162 22/53/123 44/58/125
f 23/69/183 75/59/161 44/58/125
f 44/58/125 75/59/161 76/46/162
s off
f 6/67/200 80/56/201 79/55/202
s 1
f 79/55/167 80/56/203 78/41/166
f 80/56/203 29/42/168 78/41/166
f 78/41/166 29/42/168 81/29/170
f 27/28/186 48/40/164 81/29/170
f 81/29/170 48/40/164 78/41/166
f 83/30/169 13/20/175 82/19/171
f 82/19/171 13/20/175 31/14/29
f 18/13/28 84/18/172 31/14/29
f 31/14/29 84/18/172 82/19/171
f 84/18/172 27/28/186 82/19/171
f 82/19/171 27/28/186 81/29/170
f 9/27/191 77/34/163 59/16/174
f 59/16/174 77/34/163 85/24/173
f 77/34/163 26/47/127 85/24/173
f 85/24/173 26/47/127 49/35/129
f 27/28/186 84/18/172 49/35/129
f 49/35/129 84/18/172 85/24/173
