# This file uses centimeters as units for non-parametric coordinates.

mtllib blood_pool.mtl
g default
v 20.840031 0.014457 -6.627862
v 17.724233 0.014457 -12.742959
v 12.871264 0.014457 -17.595927
v 6.756166 0.014457 -20.711725
v -0.022472 0.014457 -21.785353
v -6.801109 0.014457 -20.711723
v -12.916205 0.014457 -17.595924
v -17.769171 0.014457 -12.742955
v -20.884967 0.014457 -6.627859
v -21.958597 0.014457 0.150776
v -20.884967 0.014457 6.929412
v -17.769170 0.014457 13.044507
v -12.916202 0.014457 17.897473
v -6.801107 0.014457 21.013269
v -0.022473 0.014457 22.086900
v 6.756161 0.014457 21.013269
v 12.871256 0.014457 17.897472
v 17.724222 0.014457 13.044505
v 20.840018 0.014457 6.929410
v 21.913648 0.014457 0.150776
v 19.449423 0.912100 -6.176026
v 16.541312 0.912100 -11.883518
v 12.011823 0.912100 -16.413007
v 6.304330 0.912100 -19.321119
v -0.022472 0.912100 -20.323184
v -6.349274 0.912100 -19.321117
v -12.056761 0.912100 -16.413004
v -16.586251 0.912100 -11.883514
v -19.494362 0.912100 -6.176023
v -20.496428 0.912100 0.150776
v -19.494362 0.912100 6.477576
v -16.586250 0.912100 12.185065
v -12.056761 0.912100 16.714553
v -6.349272 0.912100 19.622663
v -0.022473 0.912100 20.624731
v 6.304326 0.912100 19.622662
v 12.011811 0.912100 16.714551
v 16.541302 0.912100 12.185062
v 19.449412 0.912100 6.477575
v 20.451478 0.912100 0.150776
v 16.359187 1.681291 -5.171948
v 13.912599 1.681291 -9.973647
v -0.022472 1.681291 0.150776
v 10.101950 1.681291 -13.784295
v 5.300251 1.681291 -16.230882
v -0.022472 1.681291 -17.073918
v -5.345196 1.681291 -16.230881
v -10.146890 1.681291 -13.784292
v -13.957539 1.681291 -9.973643
v -16.404125 1.681291 -5.171946
v -17.247162 1.681291 0.150776
v -16.404125 1.681291 5.473497
v -13.957539 1.681291 10.275194
v -10.146890 1.681291 14.085841
v -5.345194 1.681291 16.532427
v -0.022473 1.681291 17.375465
v 5.300247 1.681291 16.532427
v 10.101941 1.681291 14.085839
v 13.912589 1.681291 10.275191
v 16.359175 1.681291 5.473496
v 17.202213 1.681291 0.150776
vt 0.375000 0.312500
vt 0.387500 0.312500
vt 0.400000 0.312500
vt 0.412500 0.312500
vt 0.425000 0.312500
vt 0.437500 0.312500
vt 0.450000 0.312500
vt 0.462500 0.312500
vt 0.475000 0.312500
vt 0.487500 0.312500
vt 0.500000 0.312500
vt 0.512500 0.312500
vt 0.525000 0.312500
vt 0.537500 0.312500
vt 0.550000 0.312500
vt 0.562500 0.312500
vt 0.575000 0.312500
vt 0.587500 0.312500
vt 0.600000 0.312500
vt 0.612500 0.312500
vt 0.625000 0.312500
vt 0.375000 0.688440
vt 0.387500 0.688440
vt 0.400000 0.688440
vt 0.412500 0.688440
vt 0.425000 0.688440
vt 0.437500 0.688440
vt 0.450000 0.688440
vt 0.462500 0.688440
vt 0.475000 0.688440
vt 0.487500 0.688440
vt 0.500000 0.688440
vt 0.512500 0.688440
vt 0.525000 0.688440
vt 0.537500 0.688440
vt 0.550000 0.688440
vt 0.562500 0.688440
vt 0.575000 0.688440
vt 0.587500 0.688440
vt 0.600000 0.688440
vt 0.612500 0.688440
vt 0.625000 0.688440
vt 0.648603 0.795466
vt 0.626409 0.751908
vt 0.591842 0.717341
vt 0.548284 0.695147
vt 0.500000 0.687500
vt 0.451716 0.695147
vt 0.408159 0.717341
vt 0.373591 0.751909
vt 0.351397 0.795466
vt 0.343750 0.843750
vt 0.351397 0.892034
vt 0.373591 0.935591
vt 0.408159 0.970159
vt 0.451716 0.992353
vt 0.500000 1.000000
vt 0.548284 0.992353
vt 0.591841 0.970159
vt 0.626409 0.935591
vt 0.648603 0.892034
vt 0.656250 0.843750
vt 0.500000 0.837500
vt 0.648603 0.892034
vt 0.626409 0.935591
vt 0.591841 0.970159
vt 0.548284 0.992353
vt 0.500000 1.000000
vt 0.451716 0.992353
vt 0.408159 0.970159
vt 0.373591 0.935591
vt 0.351397 0.892034
vt 0.343750 0.843750
vt 0.351397 0.795466
vt 0.373591 0.751909
vt 0.408159 0.717341
vt 0.451716 0.695147
vt 0.500000 0.687500
vt 0.548284 0.695147
vt 0.591842 0.717341
vt 0.626409 0.751908
vt 0.648603 0.795466
vt 0.656250 0.843750
vn 0.497580 0.852218 -0.161673
vn 0.423267 0.852218 -0.307521
vn 0.352124 0.928934 -0.114412
vn 0.299534 0.928934 -0.217624
vn 0.307521 0.852218 -0.423267
vn 0.217624 0.928934 -0.299534
vn 0.161673 0.852218 -0.497580
vn 0.114412 0.928934 -0.352124
vn 0.000000 0.852218 -0.523187
vn -0.000000 0.928934 -0.370245
vn -0.161674 0.852218 -0.497580
vn -0.114412 0.928934 -0.352124
vn -0.307521 0.852218 -0.423267
vn -0.217624 0.928934 -0.299534
vn -0.423267 0.852218 -0.307521
vn -0.299534 0.928934 -0.217624
vn -0.497580 0.852218 -0.161674
vn -0.352124 0.928934 -0.114412
vn -0.523186 0.852218 -0.000000
vn -0.370245 0.928934 -0.000000
vn -0.497580 0.852218 0.161674
vn -0.352124 0.928934 0.114412
vn -0.423267 0.852218 0.307522
vn -0.299534 0.928934 0.217625
vn -0.307521 0.852218 0.423267
vn -0.217624 0.928934 0.299534
vn -0.161674 0.852218 0.497580
vn -0.114412 0.928934 0.352124
vn -0.000000 0.852218 0.523187
vn 0.000000 0.928934 0.370245
vn 0.161674 0.852218 0.497580
vn 0.114412 0.928934 0.352124
vn 0.307521 0.852218 0.423267
vn 0.217624 0.928934 0.299534
vn 0.423267 0.852218 0.307521
vn 0.299534 0.928934 0.217624
vn 0.497580 0.852218 0.161674
vn 0.352124 0.928934 0.114412
vn 0.523187 0.852218 0.000000
vn 0.370245 0.928934 0.000000
vn 0.107806 0.993555 -0.035028
vn 0.091705 0.993555 -0.066628
vn 0.000000 1.000000 -0.000000
vn 0.066628 0.993555 -0.091705
vn 0.035028 0.993555 -0.107806
vn -0.000000 0.993555 -0.113354
vn -0.035028 0.993555 -0.107806
vn -0.066628 0.993555 -0.091705
vn -0.091705 0.993555 -0.066628
vn -0.107806 0.993555 -0.035028
vn -0.113354 0.993555 0.000000
vn -0.107806 0.993555 0.035028
vn -0.091705 0.993555 0.066628
vn -0.066628 0.993555 0.091705
vn -0.035028 0.993555 0.107806
vn 0.000000 0.993555 0.113354
vn 0.035028 0.993555 0.107806
vn 0.066628 0.993555 0.091705
vn 0.091705 0.993555 0.066628
vn 0.107806 0.993555 0.035028
vn 0.113354 0.993555 0.000000
vn 0.352124 0.928934 -0.114412
vn 0.299534 0.928934 -0.217624
vn 0.107806 0.993555 -0.035028
vn 0.091705 0.993555 -0.066628
vn 0.217624 0.928934 -0.299534
vn 0.066628 0.993555 -0.091705
vn 0.114412 0.928934 -0.352124
vn 0.035028 0.993555 -0.107806
vn -0.000000 0.928934 -0.370245
vn -0.000000 0.993555 -0.113354
vn -0.114412 0.928934 -0.352124
vn -0.035028 0.993555 -0.107806
vn -0.217624 0.928934 -0.299534
vn -0.066628 0.993555 -0.091705
vn -0.299534 0.928934 -0.217624
vn -0.091705 0.993555 -0.066628
vn -0.352124 0.928934 -0.114412
vn -0.107806 0.993555 -0.035028
vn -0.370245 0.928934 -0.000000
vn -0.113354 0.993555 0.000000
vn -0.352124 0.928934 0.114412
vn -0.107806 0.993555 0.035028
vn -0.299534 0.928934 0.217625
vn -0.091705 0.993555 0.066628
vn -0.217624 0.928934 0.299534
vn -0.066628 0.993555 0.091705
vn -0.114412 0.928934 0.352124
vn -0.035028 0.993555 0.107806
vn 0.000000 0.928934 0.370245
vn 0.000000 0.993555 0.113354
vn 0.114412 0.928934 0.352124
vn 0.035028 0.993555 0.107806
vn 0.217624 0.928934 0.299534
vn 0.066628 0.993555 0.091705
vn 0.299534 0.928934 0.217624
vn 0.091705 0.993555 0.066628
vn 0.352124 0.928934 0.114412
vn 0.107806 0.993555 0.035028
vn 0.370245 0.928934 0.000000
vn 0.113354 0.993555 0.000000
s 1
g pCylinder1
usemtl lambert2SG
f 1/1/1 2/2/2 21/22/3
f 21/22/3 2/2/2 22/23/4
f 2/2/2 3/3/5 22/23/4
f 22/23/4 3/3/5 23/24/6
f 3/3/5 4/4/7 23/24/6
f 23/24/6 4/4/7 24/25/8
f 4/4/7 5/5/9 24/25/8
f 24/25/8 5/5/9 25/26/10
f 5/5/9 6/6/11 25/26/10
f 25/26/10 6/6/11 26/27/12
f 6/6/11 7/7/13 26/27/12
f 26/27/12 7/7/13 27/28/14
f 7/7/13 8/8/15 27/28/14
f 27/28/14 8/8/15 28/29/16
f 8/8/15 9/9/17 28/29/16
f 28/29/16 9/9/17 29/30/18
f 9/9/17 10/10/19 29/30/18
f 29/30/18 10/10/19 30/31/20
f 10/10/19 11/11/21 30/31/20
f 30/31/20 11/11/21 31/32/22
f 11/11/21 12/12/23 31/32/22
f 31/32/22 12/12/23 32/33/24
f 12/12/23 13/13/25 32/33/24
f 32/33/24 13/13/25 33/34/26
f 13/13/25 14/14/27 33/34/26
f 33/34/26 14/14/27 34/35/28
f 14/14/27 15/15/29 34/35/28
f 34/35/28 15/15/29 35/36/30
f 15/15/29 16/16/31 35/36/30
f 35/36/30 16/16/31 36/37/32
f 16/16/31 17/17/33 36/37/32
f 36/37/32 17/17/33 37/38/34
f 17/17/33 18/18/35 37/38/34
f 37/38/34 18/18/35 38/39/36
f 18/18/35 19/19/37 38/39/36
f 38/39/36 19/19/37 39/40/38
f 19/19/37 20/20/39 39/40/38
f 39/40/38 20/20/39 40/41/40
f 20/20/39 1/21/1 40/41/40
f 40/41/40 1/21/1 21/42/3
s 2
f 41/64/41 42/65/42 43/63/43
f 42/65/42 44/66/44 43/63/43
f 44/66/44 45/67/45 43/63/43
f 45/67/45 46/68/46 43/63/43
f 46/68/46 47/69/47 43/63/43
f 47/69/47 48/70/48 43/63/43
f 48/70/48 49/71/49 43/63/43
f 49/71/49 50/72/50 43/63/43
f 50/72/50 51/73/51 43/63/43
f 51/73/51 52/74/52 43/63/43
f 52/74/52 53/75/53 43/63/43
f 53/75/53 54/76/54 43/63/43
f 54/76/54 55/77/55 43/63/43
f 55/77/55 56/78/56 43/63/43
f 56/78/56 57/79/57 43/63/43
f 57/79/57 58/80/58 43/63/43
f 58/80/58 59/81/59 43/63/43
f 59/81/59 60/82/60 43/63/43
f 60/82/60 61/83/61 43/63/43
f 61/83/61 41/64/41 43/63/43
s 3
f 21/61/62 22/60/63 41/64/64
f 41/64/64 22/60/63 42/65/65
f 22/60/63 23/59/66 42/65/65
f 42/65/65 23/59/66 44/66/67
f 23/59/66 24/58/68 44/66/67
f 44/66/67 24/58/68 45/67/69
f 24/58/68 25/57/70 45/67/69
f 45/67/69 25/57/70 46/68/71
f 25/57/70 26/56/72 46/68/71
f 46/68/71 26/56/72 47/69/73
f 26/56/72 27/55/74 47/69/73
f 47/69/73 27/55/74 48/70/75
f 27/55/74 28/54/76 48/70/75
f 48/70/75 28/54/76 49/71/77
f 28/54/76 29/53/78 49/71/77
f 49/71/77 29/53/78 50/72/79
f 29/53/78 30/52/80 50/72/79
f 50/72/79 30/52/80 51/73/81
f 30/52/80 31/51/82 51/73/81
f 51/73/81 31/51/82 52/74/83
f 31/51/82 32/50/84 52/74/83
f 52/74/83 32/50/84 53/75/85
f 32/50/84 33/49/86 53/75/85
f 53/75/85 33/49/86 54/76/87
f 33/49/86 34/48/88 54/76/87
f 54/76/87 34/48/88 55/77/89
f 34/48/88 35/47/90 55/77/89
f 55/77/89 35/47/90 56/78/91
f 35/47/90 36/46/92 56/78/91
f 56/78/91 36/46/92 57/79/93
f 36/46/92 37/45/94 57/79/93
f 57/79/93 37/45/94 58/80/95
f 37/45/94 38/44/96 58/80/95
f 58/80/95 38/44/96 59/81/97
f 38/44/96 39/43/98 59/81/97
f 59/81/97 39/43/98 60/82/99
f 39/43/98 40/62/100 60/82/99
f 60/82/99 40/62/100 61/83/101
f 40/62/100 21/61/62 61/83/101
f 61/83/101 21/61/62 41/64/64
