# This file uses centimeters as units for non-parametric coordinates.

mtllib field_2x2.mtl
g default
v -263.528636 -0.000000 98.910871
v -262.528636 -0.000000 98.910871
v -263.528636 0.000000 97.910871
v -262.528636 0.000000 97.910871
vt 0.000000 0.000000
vt 1.000000 0.000000
vt 0.000000 1.000000
vt 1.000000 1.000000
vn 0.000000 1.000000 0.000000
vn 0.000000 1.000000 0.000000
vn 0.000000 1.000000 0.000000
vn 0.000000 1.000000 0.000000
s off
g pPlane1
usemtl initialShadingGroup
f 1/1/1 2/2/2 4/4/3 3/3/4
g default
v -200.000000 -850.060181 200.000000
v 200.000000 -850.060181 200.000000
v -200.000000 0.000000 200.000000
v 200.000000 0.000000 200.000000
v -200.000000 0.000000 -200.000000
v 200.000000 0.000000 -200.000000
v -200.000000 -850.060181 -200.000000
v 200.000000 -850.060181 -200.000000
vt 0.005811 -0.008422
vt 0.498918 -0.008422
vt 0.005811 0.504434
vt 0.498918 0.504434
vt 0.506026 -0.008422
vt 0.999133 -0.008422
vt 0.506026 0.504434
vt 0.999133 0.504434
vt 0.505976 0.507499
vt 1.008957 0.507499
vt 0.505976 1.000606
vt 1.008957 1.000606
vt -0.003809 0.507499
vt 0.499172 0.507499
vt -0.003809 1.000606
vt 0.499172 1.000606
vn 0.000000 0.000000 1.000000
vn 0.000000 0.000000 1.000000
vn 0.000000 0.000000 1.000000
vn 0.000000 0.000000 1.000000
vn 0.000000 0.000000 -1.000000
vn 0.000000 0.000000 -1.000000
vn 0.000000 0.000000 -1.000000
vn 0.000000 0.000000 -1.000000
vn 1.000000 0.000000 0.000000
vn 1.000000 0.000000 0.000000
vn 1.000000 0.000000 0.000000
vn 1.000000 0.000000 0.000000
vn -1.000000 0.000000 0.000000
vn -1.000000 0.000000 0.000000
vn -1.000000 0.000000 0.000000
vn -1.000000 0.000000 0.000000
s 1
g polySurface11 polySurface10
usemtl lambert6SG
f 5/5/5 6/6/6 7/7/7
f 7/7/7 6/6/6 8/8/8
s 2
f 9/9/9 10/10/10 11/11/11
f 11/11/11 10/10/10 12/12/12
s 3
f 6/13/13 12/14/14 8/15/15
f 8/15/15 12/14/14 10/16/16
s 4
f 11/17/17 5/18/18 9/19/19
f 9/19/19 5/18/18 7/20/20
g default
v -200.000000 0.000001 200.000000
v 200.000000 0.000001 200.000000
v -200.000015 0.000001 -200.000000
v 200.000000 0.000001 -200.000000
vt -0.032893 -0.004532
vt 0.940571 -0.004532
vt -0.032893 0.962257
vt 0.940571 0.962257
vn 0.000000 1.000000 -0.000000
vn 0.000000 1.000000 -0.000000
vn 0.000000 1.000000 -0.000000
vn 0.000000 1.000000 0.000000
s 1
g polySurface10 polySurface12
usemtl lambert2SG
f 13/21/21 14/22/22 15/23/23
f 15/23/23 14/22/22 16/24/24
