# This file uses centimeters as units for non-parametric coordinates.

mtllib field_1x1.mtl
g default
v -100.000000 -850.060181 100.000000
v 100.000000 -850.060181 100.000000
v -100.000000 0.000000 100.000000
v 100.000000 0.000000 100.000000
v -100.000000 0.000000 -100.000000
v 100.000000 0.000000 -100.000000
v -100.000000 -850.060181 -100.000000
v 100.000000 -850.060181 -100.000000
vt 0.005811 -0.008422
vt 0.498918 -0.008422
vt 0.005811 0.504434
vt 0.498918 0.504434
vt 0.506026 -0.008422
vt 0.999133 -0.008422
vt 0.506026 0.504434
vt 0.999133 0.504434
vt 0.505976 0.507499
vt 1.008957 0.507499
vt 0.505976 1.000606
vt 1.008957 1.000606
vt -0.003809 0.507499
vt 0.499172 0.507499
vt -0.003809 1.000606
vt 0.499172 1.000606
vn 0.000000 0.000000 1.000000
vn 0.000000 0.000000 1.000000
vn 0.000000 0.000000 1.000000
vn 0.000000 0.000000 1.000000
vn 0.000000 0.000000 -1.000000
vn 0.000000 0.000000 -1.000000
vn 0.000000 0.000000 -1.000000
vn 0.000000 0.000000 -1.000000
vn 1.000000 0.000000 0.000000
vn 1.000000 0.000000 0.000000
vn 1.000000 0.000000 0.000000
vn 1.000000 0.000000 0.000000
vn -1.000000 0.000000 0.000000
vn -1.000000 0.000000 0.000000
vn -1.000000 0.000000 0.000000
vn -1.000000 0.000000 0.000000
s 1
g polySurface9 polySurface8
usemtl lambert6SG
f 1/1/1 2/2/2 3/3/3
f 3/3/3 2/2/2 4/4/4
s 2
f 5/5/5 6/6/6 7/7/7
f 7/7/7 6/6/6 8/8/8
s 3
f 2/9/9 8/10/10 4/11/11
f 4/11/11 8/10/10 6/12/12
s 4
f 7/13/13 1/14/14 5/15/15
f 5/15/15 1/14/14 3/16/16
g default
v -99.999998 0.000001 99.999996
v 100.000002 0.000001 99.999996
v -100.000005 0.000001 -100.000004
v 100.000002 0.000001 -100.000004
vt 0.492031 0.510445
vt 0.992660 0.510445
vt 0.492031 0.978132
vt 0.992660 0.978132
vn 0.000000 1.000000 -0.000000
vn 0.000000 1.000000 -0.000000
vn 0.000000 1.000000 -0.000000
vn 0.000000 1.000000 0.000000
s 1
g pCube2
usemtl lambert2SG
f 9/17/17 10/18/18 11/19/19
f 11/19/19 10/18/18 12/20/20
