# This file uses centimeters as units for non-parametric coordinates.

mtllib fruit1.mtl
g default
v 0.393832 15.403128 -0.478570
v -2.345491 26.421140 -1.612432
v -0.138816 26.539612 -2.946408
v -0.138816 26.776555 -0.411872
v 9.829338 16.232433 -3.880177
v 6.252974 15.877016 -8.549062
v 9.753253 16.706322 -3.880177
v 6.252974 16.350904 -8.549062
v 0.469935 15.284656 -6.748202
v 0.469935 15.758545 -6.748202
v 0.469935 15.284656 -0.945455
v 0.469935 15.758545 -0.945455
v 6.252974 15.877016 0.855406
v 6.252974 16.350904 0.855406
v -0.595360 14.929239 -0.478570
v -4.019537 15.877016 -5.147455
v -0.443173 15.284656 -0.478570
v -3.867349 16.350904 -5.147455
v -9.574322 17.535626 -3.346594
v -9.422134 18.009513 -3.346594
v -9.574322 17.535626 2.456153
v -9.422134 18.009513 2.456153
v -4.019537 15.877016 4.257013
v -3.867349 16.350904 4.257013
v 0.850395 15.284656 -0.011685
v 6.329077 13.507465 -0.011685
v 2.524441 13.507465 -5.280849
v -3.639077 13.507465 -3.279896
v -3.639077 13.507465 3.189828
v 2.524441 13.507465 5.190783
v 3.589736 8.887018 -8.482364
v 9.753253 8.887018 -0.011685
v -6.378417 8.887018 -5.280849
v -6.378417 8.887018 5.190783
v 3.589736 8.887018 8.459011
v 9.753253 3.081795 -0.011685
v 3.589736 3.081795 -8.482364
v -6.378417 3.081795 -5.280849
v -6.378417 3.081795 5.190783
v 3.589736 3.081795 8.459011
v 2.524441 -1.657161 -5.280849
v 6.329077 -1.657161 -0.011685
v -3.639077 -1.657161 -3.279896
v -3.639077 -1.657161 3.189828
v 2.524441 -1.657161 5.190783
v 0.850395 -3.434278 -0.011685
vt -0.121094 0.269531
vt -0.121094 0.039063
vt -0.082031 0.039063
vt -0.156250 0.039063
vt -0.050781 0.269531
vt -0.039063 0.039063
vt -0.457031 0.222656
vt -0.558594 0.144531
vt -0.457031 0.218750
vt -0.308594 0.199219
vt -0.339844 0.105469
vt -0.218750 0.199219
vt -0.191406 0.105469
vt -0.359375 0.144531
vt -0.519531 0.023438
vt -0.398438 0.023438
vt -0.265625 0.050781
vt -0.675781 0.035156
vt -0.761719 0.097656
vt -0.675781 0.031250
vt -0.761719 0.093750
vt -0.937500 0.015625
vt -0.937500 0.019531
vt -0.976563 0.132813
vt -0.976563 0.128906
vt -0.824219 0.015625
vt -0.824219 0.019531
vt -0.789063 0.128906
vt -0.789063 0.132813
vt -0.593750 0.097656
vt -0.593750 0.093750
vt -0.882813 0.203125
vt -0.726563 0.199219
vt -0.625000 0.199219
vt -0.558594 0.144531
vt -0.308594 0.199219
vt -0.339844 0.105469
vt -0.218750 0.199219
vt -0.218750 0.199219
vt -0.308594 0.199219
vt -0.218750 0.199219
vt -0.218750 0.199219
vt -0.191406 0.105469
vt -0.359375 0.144531
vt -0.359375 0.144531
vt -0.558594 0.144531
vt -0.359375 0.144531
vt -0.339844 0.105469
vt -0.207031 0.296875
vt -0.207031 0.382813
vt -0.390625 0.382813
vt -0.687500 0.253906
vt -0.433594 0.382813
vt -0.593750 0.382813
vt -0.773438 0.382813
vt -0.921875 0.382813
vt -0.074219 0.382813
vt -0.390625 0.527344
vt -0.207031 0.527344
vt -0.539063 0.527344
vt -0.812500 0.527344
vt -0.984375 0.527344
vt -0.015625 0.527344
vt -0.207031 0.707031
vt -0.390625 0.707031
vt -0.539063 0.707031
vt -0.812500 0.707031
vt -0.984375 0.707031
vt -0.015625 0.707031
vt -0.378906 0.851563
vt -0.207031 0.851563
vt -0.414063 0.851563
vt -0.593750 0.851563
vt -0.773438 0.851563
vt -0.929688 0.851563
vt -0.078125 0.851563
vt -0.207031 0.964844
vt -0.679688 0.984375
vn 0.138437 -0.975068 0.173427
vn -0.820159 0.570656 -0.041129
vn 0.299392 0.630475 -0.716146
vn 0.138437 -0.975068 0.173427
vn 0.309341 0.751310 0.582960
vn -0.820159 0.570656 -0.041129
vn 0.138437 -0.975068 0.173427
vn 0.299392 0.630475 -0.716146
vn 0.309341 0.751310 0.582960
vn -0.820159 0.570656 -0.041129
vn 0.309341 0.751310 0.582960
vn 0.299392 0.630475 -0.716146
vn 0.691824 -0.705840 0.152216
vn 0.510923 -0.320157 -0.797783
vn 0.532143 0.831855 -0.157612
vn 0.532143 0.831855 -0.157612
vn 0.510923 -0.320157 -0.797783
vn 0.038410 0.368327 -0.928902
vn -0.655140 -0.544841 -0.523393
vn -0.562337 0.745592 -0.357588
vn 0.038410 0.368327 -0.928902
vn -0.655140 -0.544841 -0.523393
vn 0.038410 0.368327 -0.928902
vn 0.510923 -0.320157 -0.797783
vn -0.655140 -0.544841 -0.523393
vn -0.444405 -0.807363 0.388162
vn -0.712253 0.506489 0.485967
vn -0.655140 -0.544841 -0.523393
vn -0.712253 0.506489 0.485967
vn -0.562337 0.745592 -0.357588
vn -0.712253 0.506489 0.485967
vn -0.444405 -0.807363 0.388162
vn 0.111980 -0.365638 0.923996
vn -0.712253 0.506489 0.485967
vn 0.111980 -0.365638 0.923996
vn 0.440755 0.414930 0.795970
vn 0.111980 -0.365638 0.923996
vn 0.691824 -0.705840 0.152216
vn 0.440755 0.414930 0.795970
vn 0.440755 0.414930 0.795970
vn 0.691824 -0.705840 0.152216
vn 0.532143 0.831855 -0.157612
vn 0.038410 0.368327 -0.928902
vn -0.562337 0.745592 -0.357588
vn 0.532143 0.831855 -0.157612
vn 0.532143 0.831855 -0.157612
vn -0.562337 0.745592 -0.357588
vn -0.712253 0.506489 0.485967
vn 0.532143 0.831855 -0.157612
vn -0.712253 0.506489 0.485967
vn 0.440755 0.414930 0.795970
vn -0.655140 -0.544841 -0.523393
vn 0.510923 -0.320157 -0.797783
vn 0.691824 -0.705840 0.152216
vn -0.655140 -0.544841 -0.523393
vn 0.691824 -0.705840 0.152216
vn -0.444405 -0.807363 0.388162
vn -0.444405 -0.807363 0.388162
vn 0.691824 -0.705840 0.152216
vn 0.111980 -0.365638 0.923996
vn 0.342770 -0.927651 0.148232
vn 0.336901 -0.519590 -0.785191
vn 0.828141 0.536196 -0.163331
vn 0.828141 0.536196 -0.163331
vn 0.336901 -0.519590 -0.785191
vn 0.176529 0.330862 -0.927021
vn -0.808374 -0.300524 -0.506178
vn -0.254012 0.894874 -0.366986
vn 0.176529 0.330862 -0.927021
vn -0.808374 -0.300524 -0.506178
vn 0.176529 0.330862 -0.927021
vn 0.336901 -0.519590 -0.785191
vn -0.808374 -0.300524 -0.506178
vn -0.708014 -0.600480 0.371671
vn -0.496069 0.710393 0.499257
vn -0.808374 -0.300524 -0.506178
vn -0.496069 0.710393 0.499257
vn -0.254012 0.894874 -0.366986
vn -0.496069 0.710393 0.499257
vn -0.708014 -0.600480 0.371671
vn -0.031718 -0.378666 0.924990
vn -0.496069 0.710393 0.499257
vn -0.031718 -0.378666 0.924990
vn 0.563049 0.183412 0.805814
vn -0.031718 -0.378666 0.924990
vn 0.342770 -0.927651 0.148232
vn 0.563049 0.183412 0.805814
vn 0.563049 0.183412 0.805814
vn 0.342770 -0.927651 0.148232
vn 0.828141 0.536196 -0.163331
vn 0.176529 0.330862 -0.927021
vn -0.254012 0.894874 -0.366986
vn 0.828141 0.536196 -0.163331
vn 0.828141 0.536196 -0.163331
vn -0.254012 0.894874 -0.366986
vn -0.496069 0.710393 0.499257
vn 0.828141 0.536196 -0.163331
vn -0.496069 0.710393 0.499257
vn 0.563049 0.183412 0.805814
vn -0.808374 -0.300524 -0.506178
vn 0.336901 -0.519590 -0.785191
vn 0.342770 -0.927651 0.148232
vn -0.808374 -0.300524 -0.506178
vn 0.342770 -0.927651 0.148232
vn -0.708014 -0.600480 0.371671
vn -0.708014 -0.600480 0.371671
vn 0.342770 -0.927651 0.148232
vn -0.031718 -0.378666 0.924990
vn 0.001209 0.999998 0.001501
vn 0.567802 0.823162 0.002124
vn 0.203169 0.756006 -0.622236
vn 0.001209 0.999998 0.001501
vn 0.203169 0.756006 -0.622236
vn -0.459271 0.823305 -0.333525
vn 0.001209 0.999998 0.001501
vn -0.459271 0.823305 -0.333525
vn -0.567059 0.778488 0.269075
vn 0.001209 0.999998 0.001501
vn -0.567059 0.778488 0.269075
vn 0.200945 0.756608 0.622226
vn 0.001209 0.999998 0.001501
vn 0.200945 0.756608 0.622226
vn 0.567802 0.823162 0.002124
vn 0.157110 0.254484 -0.954230
vn 0.203169 0.756006 -0.622236
vn 0.924968 0.365506 -0.104117
vn 0.924968 0.365506 -0.104117
vn 0.203169 0.756006 -0.622236
vn 0.567802 0.823162 0.002124
vn 0.203169 0.756006 -0.622236
vn 0.157110 0.254484 -0.954230
vn -0.733304 0.420578 -0.534210
vn 0.203169 0.756006 -0.622236
vn -0.733304 0.420578 -0.534210
vn -0.459271 0.823305 -0.333525
vn -0.459271 0.823305 -0.333525
vn -0.733304 0.420578 -0.534210
vn -0.567059 0.778488 0.269075
vn -0.567059 0.778488 0.269075
vn -0.733304 0.420578 -0.534210
vn -0.721664 0.276028 0.634830
vn 0.200945 0.756608 0.622226
vn -0.567059 0.778488 0.269075
vn -0.721664 0.276028 0.634830
vn 0.200945 0.756608 0.622226
vn -0.721664 0.276028 0.634830
vn 0.433707 0.258260 0.863250
vn 0.924968 0.365506 -0.104117
vn 0.567802 0.823162 0.002124
vn 0.200945 0.756608 0.622226
vn 0.924968 0.365506 -0.104117
vn 0.200945 0.756608 0.622226
vn 0.433707 0.258260 0.863250
vn 0.927605 -0.358475 0.105091
vn 0.435903 -0.249506 -0.864717
vn 0.924968 0.365506 -0.104117
vn 0.924968 0.365506 -0.104117
vn 0.435903 -0.249506 -0.864717
vn 0.157110 0.254484 -0.954230
vn -0.767106 -0.314815 -0.558963
vn -0.733304 0.420578 -0.534210
vn 0.157110 0.254484 -0.954230
vn -0.767106 -0.314815 -0.558963
vn 0.157110 0.254484 -0.954230
vn 0.435903 -0.249506 -0.864717
vn -0.767106 -0.314815 -0.558963
vn -0.670859 -0.372695 0.641129
vn -0.721664 0.276028 0.634830
vn -0.767106 -0.314815 -0.558963
vn -0.721664 0.276028 0.634830
vn -0.733304 0.420578 -0.534210
vn -0.721664 0.276028 0.634830
vn -0.670859 -0.372695 0.641129
vn 0.153623 -0.253214 0.955135
vn -0.721664 0.276028 0.634830
vn 0.153623 -0.253214 0.955135
vn 0.433707 0.258260 0.863250
vn 0.153623 -0.253214 0.955135
vn 0.927605 -0.358475 0.105091
vn 0.433707 0.258260 0.863250
vn 0.433707 0.258260 0.863250
vn 0.927605 -0.358475 0.105091
vn 0.924968 0.365506 -0.104117
vn 0.204940 -0.751068 -0.627611
vn 0.435903 -0.249506 -0.864717
vn 0.927605 -0.358475 0.105091
vn 0.204940 -0.751068 -0.627611
vn 0.927605 -0.358475 0.105091
vn 0.572119 -0.820168 0.002133
vn 0.435903 -0.249506 -0.864717
vn 0.204940 -0.751068 -0.627611
vn -0.767106 -0.314815 -0.558963
vn -0.767106 -0.314815 -0.558963
vn 0.204940 -0.751068 -0.627611
vn -0.462745 -0.820326 -0.336054
vn -0.767106 -0.314815 -0.558963
vn -0.462745 -0.820326 -0.336054
vn -0.571778 -0.774311 0.271132
vn -0.767106 -0.314815 -0.558963
vn -0.571778 -0.774311 0.271132
vn -0.670859 -0.372695 0.641129
vn -0.571778 -0.774311 0.271132
vn 0.202698 -0.751664 0.627626
vn -0.670859 -0.372695 0.641129
vn -0.670859 -0.372695 0.641129
vn 0.202698 -0.751664 0.627626
vn 0.153623 -0.253214 0.955135
vn 0.572119 -0.820168 0.002133
vn 0.927605 -0.358475 0.105091
vn 0.202698 -0.751664 0.627626
vn 0.202698 -0.751664 0.627626
vn 0.927605 -0.358475 0.105091
vn 0.153623 -0.253214 0.955135
vn 0.572119 -0.820168 0.002133
vn 0.001209 -0.999998 0.001501
vn 0.204940 -0.751068 -0.627611
vn 0.204940 -0.751068 -0.627611
vn 0.001209 -0.999998 0.001501
vn -0.462745 -0.820326 -0.336054
vn -0.462745 -0.820326 -0.336054
vn 0.001209 -0.999998 0.001501
vn -0.571778 -0.774311 0.271132
vn -0.571778 -0.774311 0.271132
vn 0.001209 -0.999998 0.001501
vn 0.202698 -0.751664 0.627626
vn 0.202698 -0.751664 0.627626
vn 0.001209 -0.999998 0.001501
vn 0.572119 -0.820168 0.002133
s off
g polySurface1
usemtl fruit_stem1:fruit_stem
f 1/1/1 2/2/2 3/3/3
f 1/1/4 4/4/5 2/2/6
f 1/5/7 3/3/8 4/6/9
f 2/2/10 4/4/11 3/3/12
f 5/7/13 6/8/14 7/9/15
f 7/9/16 6/8/17 8/35/18
f 9/10/19 10/36/20 8/11/21
f 9/10/22 8/11/23 6/37/24
f 9/10/25 11/12/26 12/38/27
f 9/10/28 12/39/29 10/40/30
f 12/41/31 11/12/32 13/13/33
f 12/42/34 13/13/35 14/43/36
f 13/14/37 5/7/38 14/44/39
f 14/45/40 5/7/41 7/9/42
f 8/46/43 10/15/44 7/9/45
f 7/9/46 10/15/47 12/16/48
f 7/9/49 12/16/50 14/47/51
f 9/10/52 6/48/53 5/17/54
f 9/10/55 5/17/56 11/12/57
f 11/12/58 5/17/59 13/13/60
f 15/18/61 16/19/62 17/20/63
f 17/20/64 16/19/65 18/21/66
f 19/22/67 20/23/68 18/24/69
f 19/22/70 18/24/71 16/25/72
f 19/22/73 21/26/74 22/27/75
f 19/22/76 22/27/77 20/23/78
f 22/27/79 21/26/80 23/28/81
f 22/27/82 23/28/83 24/29/84
f 23/30/85 15/18/86 24/31/87
f 24/31/88 15/18/89 17/20/90
f 18/24/91 20/23/92 17/32/93
f 17/32/94 20/23/95 22/27/96
f 17/32/97 22/27/98 24/29/99
f 19/33/100 16/19/101 15/18/102
f 19/33/103 15/18/104 21/34/105
f 21/34/106 15/18/107 23/30/108
usemtl fruit2:fruit1
f 25/49/109 26/50/110 27/51/111
f 25/52/112 27/53/113 28/54/114
f 25/52/115 28/54/116 29/55/117
f 25/52/118 29/55/119 30/56/120
f 25/49/121 30/57/122 26/50/123
f 31/58/124 27/51/125 32/59/126
f 32/59/127 27/51/128 26/50/129
f 27/53/130 31/58/131 33/60/132
f 27/53/133 33/60/134 28/54/135
f 28/54/136 33/60/137 29/55/138
f 29/55/139 33/60/140 34/61/141
f 30/56/142 29/55/143 34/61/144
f 30/56/145 34/61/146 35/62/147
f 32/59/148 26/50/149 30/57/150
f 32/59/151 30/57/152 35/63/153
f 36/64/154 37/65/155 32/59/156
f 32/59/157 37/65/158 31/58/159
f 38/66/160 33/60/161 31/58/162
f 38/66/163 31/58/164 37/65/165
f 38/66/166 39/67/167 34/61/168
f 38/66/169 34/61/170 33/60/171
f 34/61/172 39/67/173 40/68/174
f 34/61/175 40/68/176 35/62/177
f 40/69/178 36/64/179 35/63/180
f 35/63/181 36/64/182 32/59/183
f 41/70/184 37/65/185 36/64/186
f 41/70/187 36/64/188 42/71/189
f 37/65/190 41/72/191 38/66/192
f 38/66/193 41/72/194 43/73/195
f 38/66/196 43/73/197 44/74/198
f 38/66/199 44/74/200 39/67/201
f 44/74/202 45/75/203 39/67/204
f 39/67/205 45/75/206 40/68/207
f 42/71/208 36/64/209 45/76/210
f 45/76/211 36/64/212 40/69/213
f 42/71/214 46/77/215 41/70/216
f 41/72/217 46/78/218 43/73/219
f 43/73/220 46/78/221 44/74/222
f 44/74/223 46/78/224 45/75/225
f 45/76/226 46/77/227 42/71/228
