# This file uses centimeters as units for non-parametric coordinates.

g default
v -86.857765 -61.321842 50.000000
v -53.506027 -95.528549 50.000000
v -0.000003 -106.000000 50.000000
v 50.933445 -92.736191 50.000000
v 84.909065 -62.019951 50.000000
v -89.650154 -9.233271 50.000000
v -53.506027 -6.000000 50.000000
v -0.000003 -6.000000 50.000000
v 50.933445 -6.000000 50.000000
v 91.890022 -7.616635 50.000000
v -97.207619 -9.233271 42.392426
v 99.999985 -7.616635 42.392426
v -97.207619 -9.233271 -41.106140
v 99.999985 -7.616635 -41.106140
v -89.650154 -9.233271 -50.000000
v -53.506027 -6.000000 -50.000000
v -0.000003 -6.000000 -50.000000
v 50.933445 -6.000000 -50.000000
v 91.890022 -7.616635 -50.000000
v -86.857765 -61.321842 -50.000000
v -53.506027 -95.528549 -50.000000
v -0.000003 -106.000000 -50.000000
v 50.933445 -92.736191 -50.000000
v 84.909065 -62.019951 -50.000000
v -94.415230 -53.642776 -41.106136
v -86.857765 -64.464035 -41.106136
v -53.506027 -98.670746 -41.106136
v -0.000003 -109.142181 -41.106136
v 50.933445 -95.878372 -41.106136
v 84.909065 -65.162132 -41.106136
v 93.019028 -56.435181 -41.106136
v -94.415230 -53.642776 42.392429
v -86.857765 -64.464035 42.392429
v -53.506027 -98.670746 42.392429
v -0.000003 -109.142181 42.392429
v 50.933445 -95.878372 42.392429
v 84.909065 -65.162132 42.392429
v 93.019028 -56.435181 42.392429
vt 1.029449 0.524099
vt 1.076700 0.566973
vt 1.035800 0.895123
vt 1.086916 0.900374
vt -0.053657 0.417592
vt 0.180226 0.208742
vt -0.107303 0.766695
vt 0.118271 0.811879
vt 0.524714 0.172840
vt 0.455512 0.846521
vt 0.836561 0.295172
vt 0.776538 0.879497
vt -0.107303 0.766695
vt 0.118271 0.811879
vt -0.053657 0.417592
vt 0.180226 0.208742
vt 0.455512 0.846521
vt 0.524714 0.172840
vt 0.776538 0.879497
vt 0.836561 0.295172
vt 1.035800 0.895123
vt 1.029449 0.524099
vt 1.076700 0.566973
vt 1.086916 0.900374
vt -0.051482 0.396424
vt -0.106604 0.464432
vt 0.182401 0.187573
vt 0.526888 0.151671
vt 0.838736 0.274004
vt 1.031623 0.502931
vt -0.106604 0.464432
vt -0.051482 0.396424
vt 0.182401 0.187573
vt 0.526888 0.151671
vt 0.838736 0.274004
vt 1.031623 0.502931
vt -0.154937 0.761802
vt -0.154937 0.761802
vn 0.256088 -0.032861 0.966095
vn 0.853222 -0.118259 0.507964
vn 0.498298 -0.067511 0.864374
vn 0.955693 -0.136662 0.260718
vn -0.396848 -0.021274 0.917638
vn -0.000000 0.000000 1.000000
vn -0.390368 -0.022712 0.920379
vn 0.000000 0.000000 1.000000
vn -0.000000 0.000000 1.000000
vn 0.000000 0.000000 1.000000
vn 0.000000 0.000000 1.000000
vn 0.000000 0.000000 1.000000
vn -0.419521 -0.022490 -0.907467
vn 0.000000 0.000000 -1.000000
vn -0.426756 -0.024882 -0.904025
vn -0.000000 0.000000 -1.000000
vn -0.000000 0.000000 -1.000000
vn -0.000000 0.000000 -1.000000
vn 0.000000 0.000000 -1.000000
vn -0.000000 0.000000 -1.000000
vn 0.265390 -0.034055 -0.963539
vn 0.545313 -0.074062 -0.834954
vn 0.965285 -0.138034 -0.221745
vn 0.879804 -0.122000 -0.459414
vn -0.733510 -0.640859 -0.226415
vn -0.768476 -0.635631 -0.073602
vn -0.815772 -0.569727 -0.099633
vn -0.470648 -0.870809 -0.142065
vn -0.366559 -0.877255 -0.309933
vn 0.032473 -0.984993 -0.169510
vn 0.100474 -0.938113 -0.331434
vn 0.471832 -0.867728 -0.156276
vn 0.524499 -0.802783 -0.283621
vn 0.688326 -0.709845 -0.149423
vn 0.681111 -0.690362 -0.243903
vn 0.730271 -0.678641 -0.078430
vn -0.817406 -0.570868 0.077177
vn -0.750659 -0.641347 0.158697
vn -0.472625 -0.862229 0.182170
vn 0.027466 -0.980527 0.194457
vn 0.467739 -0.868072 0.166345
vn 0.699108 -0.708692 0.094885
vn 0.725659 -0.674355 0.136617
vn -0.745443 -0.616086 0.254466
vn -0.537877 -0.779176 0.321828
vn -0.041451 -0.923470 0.381425
vn 0.378586 -0.855468 0.353338
vn 0.663086 -0.691852 0.285758
vn -0.974019 -0.061245 -0.218026
vn -0.893387 -0.053693 -0.446067
vn -0.867567 -0.052146 0.494579
vn -0.965964 -0.060738 0.251444
s 1
g rd_a21c:polySurface13
f 5/1/1 38/2/2 10/3/3
f 10/3/3 38/2/2 12/4/4
f 1/5/5 2/6/6 6/7/7
f 6/7/7 2/6/6 7/8/8
f 2/6/6 3/9/9 7/8/8
f 7/8/8 3/9/9 8/10/10
f 3/9/9 4/11/11 8/10/10
f 8/10/10 4/11/11 9/12/12
f 4/11/11 5/1/1 9/12/12
f 9/12/12 5/1/1 10/3/3
f 15/13/13 16/14/14 20/15/15
f 20/15/15 16/14/14 21/16/16
f 16/14/14 17/17/17 21/16/16
f 21/16/16 17/17/17 22/18/18
f 17/17/17 18/19/19 22/18/18
f 22/18/18 18/19/19 23/20/20
f 18/19/19 19/21/21 23/20/20
f 23/20/20 19/21/21 24/22/22
f 31/23/23 24/22/22 14/24/24
f 14/24/24 24/22/22 19/21/21
s 4
f 20/15/25 26/25/26 25/26/27
f 26/25/26 20/15/25 27/27/28
f 27/27/28 20/15/25 21/16/29
f 27/27/28 21/16/29 28/28/30
f 28/28/30 21/16/29 22/18/31
f 28/28/30 22/18/31 29/29/32
f 29/29/32 22/18/31 23/20/33
f 29/29/32 23/20/33 30/30/34
f 30/30/34 23/20/33 24/22/35
f 24/22/35 31/23/36 30/30/34
f 25/26/27 26/25/26 32/31/37
f 32/31/37 26/25/26 33/32/38
f 33/32/38 26/25/26 34/33/39
f 34/33/39 26/25/26 27/27/28
f 34/33/39 27/27/28 35/34/40
f 35/34/40 27/27/28 28/28/30
f 35/34/40 28/28/30 36/35/41
f 36/35/41 28/28/30 29/29/32
f 36/35/41 29/29/32 37/36/42
f 37/36/42 29/29/32 30/30/34
f 30/30/34 31/23/36 37/36/42
f 37/36/42 31/23/36 38/2/43
f 32/31/37 33/32/38 1/5/44
f 1/5/44 33/32/38 2/6/45
f 2/6/45 33/32/38 34/33/39
f 2/6/45 34/33/39 3/9/46
f 3/9/46 34/33/39 35/34/40
f 3/9/46 35/34/40 4/11/47
f 4/11/47 35/34/40 36/35/41
f 4/11/47 36/35/41 5/1/48
f 5/1/48 36/35/41 37/36/42
f 37/36/42 38/2/43 5/1/48
s 1
f 38/2/2 31/23/23 12/4/4
f 12/4/4 31/23/23 14/24/24
f 25/26/49 13/37/50 20/15/15
f 20/15/15 13/37/50 15/13/13
f 32/31/51 11/38/52 25/26/49
f 25/26/49 11/38/52 13/37/50
f 1/5/5 6/7/7 32/31/51
f 32/31/51 6/7/7 11/38/52
