# This file uses centimeters as units for non-parametric coordinates.

mtllib rd_a41b_notop.mtl
g default
v -184.908813 -105.727379 50.000000
v -152.284302 -89.158829 50.000000
v -107.190567 -108.994331 50.000000
v -51.818268 -84.359322 50.000000
v -0.300423 -108.076454 50.000000
v 47.362949 -72.291275 50.000000
v 101.450432 -96.932777 50.000000
v 151.683426 -67.307632 50.000000
v 184.307968 -87.388649 50.000000
v -192.157211 -6.000000 50.000000
v -152.157211 -6.000000 50.000000
v -107.012054 -6.000000 50.000000
v -51.576603 -6.000000 50.000000
v -0.000006 -6.000000 50.000000
v 47.717724 -6.000000 50.000000
v 101.866890 -6.000000 50.000000
v 152.157181 -6.000000 50.000000
v 192.157196 -6.000000 50.000000
v -200.000000 -6.000000 42.392426
v 199.999969 -6.000000 42.392426
v -200.000000 -6.000000 -41.106140
v 199.999969 -6.000000 -41.106140
v -192.157211 -6.000000 -50.000000
v -152.157211 -6.000000 -50.000000
v -107.012054 -6.000000 -50.000000
v -51.576603 -6.000000 -50.000000
v -0.000006 -6.000000 -50.000000
v 47.717724 -6.000000 -50.000000
v 101.866890 -6.000000 -50.000000
v 152.157181 -6.000000 -50.000000
v 192.157196 -6.000000 -50.000000
v -184.908813 -105.727379 -50.000000
v -152.284302 -89.158829 -50.000000
v -107.190567 -108.994331 -50.000000
v -51.818268 -84.359322 -50.000000
v -0.300423 -108.076454 -50.000000
v 47.362949 -72.291275 -50.000000
v 101.450432 -96.932777 -50.000000
v 151.683426 -67.307632 -50.000000
v 184.307968 -87.388649 -50.000000
v -192.742676 -106.101624 -41.106136
v -184.758881 -108.865990 -41.106136
v -152.134354 -92.297440 -41.106136
v -107.040627 -112.132942 -41.106136
v -51.668327 -87.497932 -41.106136
v -0.150484 -111.215057 -41.106136
v 47.512890 -75.429886 -41.106136
v 101.600372 -100.071388 -41.106136
v 151.833374 -70.446243 -41.106136
v 184.457901 -90.527260 -41.106136
v 192.141815 -87.014404 -41.106136
v -192.742676 -106.101624 42.392429
v -184.758881 -108.865990 42.392429
v -152.134354 -92.297440 42.392429
v -107.040627 -112.132942 42.392429
v -51.668327 -87.497932 42.392429
v -0.150484 -111.215057 42.392429
v 47.512890 -75.429886 42.392429
v 101.600372 -100.071388 42.392429
v 151.833374 -70.446243 42.392429
v 184.457901 -90.527260 42.392429
v 192.141815 -87.014404 42.392429
vt 1.651423 0.192383
vt 1.699637 0.198203
vt 1.662449 0.748697
vt 1.710890 0.751977
vt -0.426744 0.039549
vt -0.464229 0.604661
vt -0.620626 -0.086680
vt -0.711292 0.587928
vt -0.139091 -0.076368
vt -0.185388 0.623546
vt 0.191581 0.114189
vt 0.157013 0.646736
vt 0.520699 -0.025416
vt 0.475579 0.668312
vt 0.798626 0.237681
vt 0.770310 0.688274
vt 1.144041 0.092870
vt 1.104765 0.710926
vt 1.440674 0.315184
vt 1.415386 0.731964
vt -0.464229 0.604661
vt -0.426744 0.039549
vt -0.711292 0.587928
vt -0.620626 -0.086680
vt -0.185388 0.623546
vt -0.139091 -0.076368
vt 0.157013 0.646736
vt 0.191581 0.114189
vt 0.475579 0.668312
vt 0.520699 -0.025416
vt 0.770310 0.688274
vt 0.798626 0.237681
vt 1.104765 0.710926
vt 1.144041 0.092870
vt 1.415386 0.731964
vt 1.440674 0.315184
vt 1.662449 0.748697
vt 1.651423 0.192383
vt 1.699637 0.198203
vt 1.710890 0.751977
vt -0.618256 -0.107944
vt -0.668840 -0.092500
vt -0.424374 0.018285
vt -0.136721 -0.097631
vt 0.193952 0.092925
vt 0.523070 -0.046680
vt 0.800997 0.216417
vt 1.146412 0.071606
vt 1.443045 0.293920
vt 1.653794 0.171119
vt -0.668840 -0.092500
vt -0.618256 -0.107944
vt -0.424374 0.018285
vt -0.136721 -0.097631
vt 0.193952 0.092925
vt 0.523070 -0.046680
vt 0.800997 0.216417
vt 1.146412 0.071606
vt 1.443045 0.293920
vt 1.653794 0.171119
vt -0.759733 0.584647
vt -0.759733 0.584647
vn 0.376299 -0.036291 0.925787
vn 0.854824 -0.082777 0.512274
vn 0.375632 -0.036331 0.926057
vn 0.962013 -0.093312 0.256561
vn 0.000000 0.000000 1.000000
vn 0.000000 0.000000 1.000000
vn -0.247565 -0.017994 0.968704
vn -0.495479 -0.035967 0.867875
vn 0.000000 0.000000 1.000000
vn -0.000000 0.000000 1.000000
vn 0.000000 0.000000 1.000000
vn 0.000000 0.000000 1.000000
vn 0.000000 0.000000 1.000000
vn 0.000000 0.000000 1.000000
vn 0.000000 0.000000 1.000000
vn 0.000000 0.000000 1.000000
vn -0.000000 0.000000 1.000000
vn 0.000000 0.000000 1.000000
vn -0.000000 0.000000 1.000000
vn -0.000000 0.000000 1.000000
vn 0.000000 0.000000 -1.000000
vn 0.000000 0.000000 -1.000000
vn -0.270922 -0.019691 -0.962400
vn -0.541510 -0.039309 -0.839775
vn 0.000000 0.000000 -1.000000
vn 0.000000 0.000000 -1.000000
vn 0.000000 0.000000 -1.000000
vn 0.000000 0.000000 -1.000000
vn 0.000000 0.000000 -1.000000
vn 0.000000 0.000000 -1.000000
vn 0.000000 0.000000 -1.000000
vn 0.000000 0.000000 -1.000000
vn 0.000000 0.000000 -1.000000
vn 0.000000 0.000000 -1.000000
vn 0.000000 0.000000 -1.000000
vn 0.000000 0.000000 -1.000000
vn 0.410604 -0.039599 -0.910954
vn 0.411248 -0.039776 -0.910655
vn 0.968110 -0.093904 -0.232259
vn 0.880981 -0.085306 -0.465399
vn 0.064676 -0.940686 -0.333056
vn 0.063929 -0.983503 -0.169222
vn -0.323091 -0.933121 -0.157790
vn 0.172608 -0.927933 -0.330373
vn 0.030924 -0.985075 -0.169328
vn -0.136553 -0.934891 -0.327617
vn -0.001936 -0.985330 -0.170648
vn 0.133895 -0.933802 -0.331792
vn -0.003173 -0.985736 -0.168270
vn -0.083366 -0.940162 -0.330373
vn 0.101134 -0.980568 -0.168105
vn 0.284309 -0.902575 -0.323307
vn 0.111568 -0.978792 -0.171810
vn -0.112215 -0.937640 -0.328998
vn 0.047949 -0.984300 -0.169864
vn 0.175742 -0.927394 -0.330237
vn -0.005829 -0.985742 -0.168162
vn -0.225041 -0.919999 -0.320870
vn -0.168429 -0.976490 -0.134533
vn 0.413480 -0.904434 -0.105044
vn -0.324780 -0.938001 0.121130
vn 0.152946 -0.975844 0.156002
vn 0.021909 -0.980273 0.196428
vn 0.006344 -0.980904 0.194389
vn -0.011831 -0.980336 0.196979
vn 0.110802 -0.973874 0.198224
vn 0.101410 -0.975748 0.193988
vn 0.057057 -0.978886 0.196280
vn -0.016151 -0.980020 0.198243
vn -0.056641 -0.979836 0.191606
vn 0.408833 -0.894269 0.182040
vn 0.192433 -0.905798 0.377492
vn -0.119384 -0.918634 0.376642
vn 0.135967 -0.914886 0.380128
vn -0.145276 -0.915617 0.374887
vn 0.278409 -0.885922 0.370985
vn -0.078626 -0.922101 0.378876
vn 0.206418 -0.903068 0.376642
vn -0.193255 -0.908328 0.370935
vn -0.060180 -0.923160 0.379677
vn -0.969742 -0.070306 -0.233792
vn -0.881817 -0.063980 -0.467232
vn -0.855495 -0.062068 0.514078
vn -0.963917 -0.069883 0.256867
s 1
g rd_a41b:polySurface7
usemtl rd_a41b:lambert2SG
f 9/1/1 62/2/2 18/3/3
f 18/3/3 62/2/2 20/4/4
f 2/5/5 11/6/6 1/7/7
f 1/7/7 11/6/6 10/8/8
f 3/9/9 12/10/10 2/5/5
f 2/5/5 12/10/10 11/6/6
f 4/11/11 13/12/12 3/9/9
f 3/9/9 13/12/12 12/10/10
f 5/13/13 14/14/14 4/11/11
f 4/11/11 14/14/14 13/12/12
f 6/15/15 15/16/16 5/13/13
f 5/13/13 15/16/16 14/14/14
f 7/17/17 16/18/18 6/15/15
f 6/15/15 16/18/18 15/16/16
f 8/19/19 17/20/20 7/17/17
f 7/17/17 17/20/20 16/18/18
f 9/1/1 18/3/3 8/19/19
f 8/19/19 18/3/3 17/20/20
f 24/21/21 33/22/22 23/23/23
f 23/23/23 33/22/22 32/24/24
f 25/25/25 34/26/26 24/21/21
f 24/21/21 34/26/26 33/22/22
f 26/27/27 35/28/28 25/25/25
f 25/25/25 35/28/28 34/26/26
f 27/29/29 36/30/30 26/27/27
f 26/27/27 36/30/30 35/28/28
f 28/31/31 37/32/32 27/29/29
f 27/29/29 37/32/32 36/30/30
f 29/33/33 38/34/34 28/31/31
f 28/31/31 38/34/34 37/32/32
f 30/35/35 39/36/36 29/33/33
f 29/33/33 39/36/36 38/34/34
f 31/37/37 40/38/38 30/35/35
f 30/35/35 40/38/38 39/36/36
f 51/39/39 40/38/38 22/40/40
f 22/40/40 40/38/38 31/37/37
s 17
f 32/24/41 42/41/42 41/42/43
f 32/24/41 33/22/44 42/41/42
f 42/41/42 33/22/44 43/43/45
f 33/22/44 34/26/46 43/43/45
f 43/43/45 34/26/46 44/44/47
f 34/26/46 35/28/48 44/44/47
f 44/44/47 35/28/48 45/45/49
f 35/28/48 36/30/50 45/45/49
f 45/45/49 36/30/50 46/46/51
f 36/30/50 37/32/52 46/46/51
f 46/46/51 37/32/52 47/47/53
f 37/32/52 38/34/54 47/47/53
f 47/47/53 38/34/54 48/48/55
f 38/34/54 39/36/56 48/48/55
f 48/48/55 39/36/56 49/49/57
f 39/36/56 40/38/58 49/49/57
f 49/49/57 40/38/58 50/50/59
f 40/38/58 51/39/60 50/50/59
f 41/42/43 42/41/42 52/51/61
f 52/51/61 42/41/42 53/52/62
f 42/41/42 43/43/45 53/52/62
f 53/52/62 43/43/45 54/53/63
f 43/43/45 44/44/47 54/53/63
f 54/53/63 44/44/47 55/54/64
f 44/44/47 45/45/49 55/54/64
f 55/54/64 45/45/49 56/55/65
f 45/45/49 46/46/51 56/55/65
f 56/55/65 46/46/51 57/56/66
f 46/46/51 47/47/53 57/56/66
f 57/56/66 47/47/53 58/57/67
f 47/47/53 48/48/55 58/57/67
f 58/57/67 48/48/55 59/58/68
f 48/48/55 49/49/57 59/58/68
f 59/58/68 49/49/57 60/59/69
f 49/49/57 50/50/59 60/59/69
f 60/59/69 50/50/59 61/60/70
f 50/50/59 51/39/60 61/60/70
f 61/60/70 51/39/60 62/2/71
f 52/51/61 53/52/62 1/7/72
f 53/52/62 54/53/63 1/7/72
f 1/7/72 54/53/63 2/5/73
f 54/53/63 55/54/64 2/5/73
f 2/5/73 55/54/64 3/9/74
f 55/54/64 56/55/65 3/9/74
f 3/9/74 56/55/65 4/11/75
f 56/55/65 57/56/66 4/11/75
f 4/11/75 57/56/66 5/13/76
f 57/56/66 58/57/67 5/13/76
f 5/13/76 58/57/67 6/15/77
f 58/57/67 59/58/68 6/15/77
f 6/15/77 59/58/68 7/17/78
f 59/58/68 60/59/69 7/17/78
f 7/17/78 60/59/69 8/19/79
f 60/59/69 61/60/70 8/19/79
f 8/19/79 61/60/70 9/1/80
f 61/60/70 62/2/71 9/1/80
s 1
f 62/2/2 51/39/39 20/4/4
f 20/4/4 51/39/39 22/40/40
f 41/42/81 21/61/82 32/24/24
f 32/24/24 21/61/82 23/23/23
f 52/51/83 19/62/84 41/42/81
f 41/42/81 19/62/84 21/61/82
f 1/7/7 10/8/8 52/51/83
f 52/51/83 10/8/8 19/62/84
