# This file uses centimeters as units for non-parametric coordinates.

g default
v -88.468086 -105.999992 50.000000
v -52.309380 -78.076149 50.000000
v -2.620574 -106.000000 50.000000
v 44.679192 -68.302826 50.000000
v 82.713844 -106.000000 50.000000
v -92.442535 -6.000000 50.000000
v -53.506027 -6.000000 50.000000
v -0.000003 -6.000000 50.000000
v 50.933445 -6.000000 50.000000
v 91.890022 -6.000000 50.000000
v -100.000000 -6.000000 42.392426
v 99.999985 -6.000000 42.392426
v -100.000000 -6.000000 -41.106140
v 99.999985 -6.000000 -41.106140
v -92.442535 -6.000000 -50.000000
v -53.506027 -6.000000 -50.000000
v -0.000003 -6.000000 -50.000000
v 50.933445 -6.000000 -50.000000
v 91.890022 -6.000000 -50.000000
v -88.468086 -105.999992 -50.000000
v -52.309380 -78.076149 -50.000000
v -2.620574 -106.000000 -50.000000
v 44.679192 -68.302826 -50.000000
v 82.713844 -106.000000 -50.000000
v -95.486389 -105.999992 -41.106136
v -88.468086 -109.142181 -41.106136
v -52.309380 -81.218338 -41.106136
v -2.620574 -109.142181 -41.106136
v 44.679192 -71.445015 -41.106136
v 82.713844 -109.142181 -41.106136
v 90.245232 -106.000000 -41.106136
v -95.486389 -105.999992 42.392429
v -88.468086 -109.142181 42.392429
v -52.309380 -81.218338 42.392429
v -2.620574 -109.142181 42.392429
v 44.679192 -71.445015 42.392429
v 82.713844 -109.142181 42.392429
v 90.245232 -106.000000 42.392429
vt 0.959450 0.030465
vt 1.000000 0.030465
vt 0.959450 1.000000
vt 1.000000 1.000000
vt 0.037787 0.030465
vt 0.232470 0.301196
vt 0.037787 1.000000
vt 0.232470 1.000000
vt 0.500000 0.030465
vt 0.500000 1.000000
vt 0.754667 0.395952
vt 0.754667 1.000000
vt 0.037787 1.000000
vt 0.232470 1.000000
vt 0.037787 0.030465
vt 0.232470 0.301196
vt 0.500000 1.000000
vt 0.500000 0.030465
vt 0.754667 1.000000
vt 0.754667 0.395952
vt 0.959450 1.000000
vt 0.959450 0.030465
vt 1.000000 0.030465
vt 1.000000 1.000000
vt 0.037787 0.000000
vt 0.000000 0.030465
vt 0.232470 0.270732
vt 0.500000 0.000000
vt 0.754667 0.365487
vt 0.959450 0.000000
vt 0.000000 0.030465
vt 0.037787 0.000000
vt 0.232470 0.270732
vt 0.500000 0.000000
vt 0.754667 0.365487
vt 0.959450 0.000000
vt 0.000000 1.000000
vt 0.000000 1.000000
vn 0.253783 -0.023288 0.966981
vn 0.855000 -0.081934 0.512115
vn 0.496492 -0.046968 0.866770
vn 0.960640 -0.093708 0.261513
vn -0.401069 -0.015940 0.915909
vn -0.000000 0.000000 1.000000
vn -0.392545 -0.016641 0.919582
vn -0.000000 0.000000 1.000000
vn -0.000000 0.000000 1.000000
vn 0.000000 0.000000 1.000000
vn 0.000000 0.000000 1.000000
vn 0.000000 0.000000 1.000000
vn -0.419647 -0.016679 -0.907534
vn 0.000000 0.000000 -1.000000
vn -0.427792 -0.018173 -0.903695
vn -0.000000 0.000000 -1.000000
vn -0.000000 0.000000 -1.000000
vn -0.000000 0.000000 -1.000000
vn 0.000000 0.000000 -1.000000
vn 0.000000 0.000000 -1.000000
vn 0.265868 -0.024397 -0.963701
vn 0.542336 -0.051360 -0.838591
vn 0.969290 -0.094552 -0.227018
vn 0.881129 -0.084445 -0.465275
vn 0.296634 -0.900447 -0.318127
vn 0.118422 -0.986535 -0.112802
vn -0.403669 -0.901622 -0.155333
vn 0.068437 -0.983505 -0.167436
vn -0.133813 -0.934405 -0.330124
vn 0.085062 -0.981281 -0.172781
vn 0.283284 -0.904261 -0.319472
vn -0.059427 -0.983054 -0.173415
vn -0.320468 -0.893157 -0.315550
vn -0.315224 -0.929700 -0.190505
vn -0.187274 -0.926203 -0.327226
vn 0.382937 -0.917847 -0.104482
vn -0.405710 -0.906183 0.119298
vn 0.228841 -0.946630 0.226987
vn 0.078908 -0.976788 0.199145
vn 0.074612 -0.978362 0.192978
vn -0.048145 -0.979699 0.194609
vn -0.192818 -0.972724 0.128953
vn 0.378678 -0.907640 0.181088
vn 0.113534 -0.918288 0.379285
vn 0.268456 -0.890336 0.367740
vn -0.126419 -0.916849 0.378690
vn 0.212560 -0.903144 0.373028
vn -0.380663 -0.854680 0.353012
vn -0.975185 -0.044016 -0.216971
vn -0.894630 -0.038937 -0.445108
vn -0.869710 -0.037845 0.492110
vn -0.966851 -0.043640 0.251586
s 1
g rd_a21b:polySurface10
f 5/1/1 38/2/2 10/3/3
f 10/3/3 38/2/2 12/4/4
f 1/5/5 2/6/6 6/7/7
f 6/7/7 2/6/6 7/8/8
f 2/6/6 3/9/9 7/8/8
f 7/8/8 3/9/9 8/10/10
f 3/9/9 4/11/11 8/10/10
f 8/10/10 4/11/11 9/12/12
f 4/11/11 5/1/1 9/12/12
f 9/12/12 5/1/1 10/3/3
f 15/13/13 16/14/14 20/15/15
f 20/15/15 16/14/14 21/16/16
f 16/14/14 17/17/17 21/16/16
f 21/16/16 17/17/17 22/18/18
f 17/17/17 18/19/19 22/18/18
f 22/18/18 18/19/19 23/20/20
f 18/19/19 19/21/21 23/20/20
f 23/20/20 19/21/21 24/22/22
f 31/23/23 24/22/22 14/24/24
f 14/24/24 24/22/22 19/21/21
s 4
f 20/15/25 26/25/26 25/26/27
f 26/25/26 20/15/25 27/27/28
f 27/27/28 20/15/25 21/16/29
f 27/27/28 21/16/29 28/28/30
f 28/28/30 21/16/29 22/18/31
f 28/28/30 22/18/31 29/29/32
f 29/29/32 22/18/31 23/20/33
f 29/29/32 23/20/33 30/30/34
f 30/30/34 23/20/33 24/22/35
f 24/22/35 31/23/36 30/30/34
f 25/26/27 26/25/26 32/31/37
f 32/31/37 26/25/26 33/32/38
f 33/32/38 26/25/26 34/33/39
f 34/33/39 26/25/26 27/27/28
f 34/33/39 27/27/28 35/34/40
f 35/34/40 27/27/28 28/28/30
f 35/34/40 28/28/30 36/35/41
f 36/35/41 28/28/30 29/29/32
f 36/35/41 29/29/32 37/36/42
f 37/36/42 29/29/32 30/30/34
f 30/30/34 31/23/36 37/36/42
f 37/36/42 31/23/36 38/2/43
f 32/31/37 33/32/38 1/5/44
f 1/5/44 33/32/38 2/6/45
f 2/6/45 33/32/38 34/33/39
f 2/6/45 34/33/39 3/9/46
f 3/9/46 34/33/39 35/34/40
f 3/9/46 35/34/40 4/11/47
f 4/11/47 35/34/40 36/35/41
f 4/11/47 36/35/41 5/1/48
f 5/1/48 36/35/41 37/36/42
f 37/36/42 38/2/43 5/1/48
s 1
f 38/2/2 31/23/23 12/4/4
f 12/4/4 31/23/23 14/24/24
f 25/26/49 13/37/50 20/15/15
f 20/15/15 13/37/50 15/13/13
f 32/31/51 11/38/52 25/26/49
f 25/26/49 11/38/52 13/37/50
f 1/5/5 6/7/7 32/31/51
f 32/31/51 6/7/7 11/38/52
