# This file uses centimeters as units for non-parametric coordinates.

g default
v -84.081398 -105.999992 50.000000
v -47.740662 -105.999992 50.000000
v 2.198288 -105.999992 50.000000
v 49.736168 -105.999992 50.000000
v 87.962303 -105.999992 50.000000
v -92.442535 -6.000000 50.000000
v -53.506027 -6.000000 50.000000
v -0.000003 -6.000000 50.000000
v 50.933445 -6.000000 50.000000
v 91.890022 -6.000000 50.000000
v -100.000000 -6.000000 42.392426
v 99.999985 -6.000000 42.392426
v -100.000000 -6.000000 -41.106140
v 99.999985 -6.000000 -41.106140
v -92.442535 -6.000000 -50.000000
v -53.506027 -6.000000 -50.000000
v -0.000003 -6.000000 -50.000000
v 50.933445 -6.000000 -50.000000
v 91.890022 -6.000000 -50.000000
v -84.081398 -105.999992 -50.000000
v -47.740662 -105.999992 -50.000000
v 2.198288 -105.999992 -50.000000
v 49.736168 -105.999992 -50.000000
v 87.962303 -105.999992 -50.000000
v -91.135033 -105.999992 -41.106136
v -84.081398 -110.737076 -41.106136
v -47.740662 -110.737076 -41.106136
v 2.198288 -110.737076 -41.106136
v 49.736168 -110.737076 -41.106136
v 87.962303 -110.737076 -41.106136
v 95.531601 -105.999992 -41.106136
v -91.135033 -105.999992 42.392429
v -84.081398 -110.737076 42.392429
v -47.740662 -110.737076 42.392429
v 2.198288 -110.737076 42.392429
v 49.736168 -110.737076 42.392429
v 87.962303 -110.737076 42.392429
v 95.531601 -105.999992 42.392429
vt 1.555370 -0.046972
vt 1.598444 -0.046972
vt 1.555370 0.661166
vt 1.598444 0.661166
vt -0.555370 -0.046972
vt -0.087734 -0.046972
vt -0.555370 0.661166
vt -0.087734 0.661166
vt 0.500000 -0.046972
vt 0.500000 0.661166
vt 1.059476 -0.046972
vt 1.059476 0.661166
vt -0.555370 0.661166
vt -0.087734 0.661166
vt -0.555370 -0.046972
vt -0.087734 -0.046972
vt 0.500000 0.661166
vt 0.500000 -0.046972
vt 1.059476 0.661166
vt 1.059476 -0.046972
vt 1.555370 0.661166
vt 1.555370 -0.046972
vt 1.598444 -0.046972
vt 1.598444 0.661166
vt -0.555370 -0.069223
vt -0.598444 -0.046972
vt -0.087734 -0.069223
vt 0.500000 -0.069223
vt 1.059476 -0.069223
vt 1.555370 -0.069223
vt -0.598444 -0.046972
vt -0.555370 -0.069223
vt -0.087734 -0.069223
vt 0.500000 -0.069223
vt 1.059476 -0.069223
vt 1.555370 -0.069223
vt -0.598444 0.661166
vt -0.598444 0.661166
vn 0.253396 -0.009953 0.967311
vn 0.857039 -0.036923 0.513927
vn 0.496453 -0.020818 0.867814
vn 0.964088 -0.043079 0.262065
vn -0.399461 -0.033399 0.916142
vn 0.000000 0.000000 1.000000
vn -0.391520 -0.033705 0.919552
vn 0.000000 0.000000 1.000000
vn 0.000000 0.000000 1.000000
vn 0.000000 0.000000 1.000000
vn 0.000000 0.000000 1.000000
vn 0.000000 0.000000 1.000000
vn -0.419119 -0.035043 -0.907255
vn 0.000000 0.000000 -1.000000
vn -0.426668 -0.036764 -0.903661
vn 0.000000 0.000000 -1.000000
vn 0.000000 0.000000 -1.000000
vn 0.000000 0.000000 -1.000000
vn 0.000000 0.000000 -1.000000
vn 0.000000 0.000000 -1.000000
vn 0.266280 -0.010459 -0.963839
vn 0.542528 -0.022798 -0.839729
vn 0.972612 -0.043460 -0.228337
vn 0.883380 -0.038061 -0.467110
vn -0.175505 -0.868914 -0.462804
vn -0.289438 -0.944438 -0.155767
vn -0.545486 -0.812242 -0.206659
vn 0.000000 -0.970209 -0.242268
vn 0.000000 -0.882613 -0.470100
vn 0.000000 -0.970209 -0.242268
vn 0.000000 -0.882613 -0.470100
vn 0.000000 -0.970210 -0.242268
vn 0.000000 -0.882613 -0.470100
vn 0.215757 -0.933129 -0.287609
vn 0.249660 -0.854664 -0.455214
vn 0.525283 -0.839340 -0.139949
vn -0.550606 -0.819866 0.157013
vn -0.226517 -0.917739 0.326260
vn 0.000000 -0.961479 0.274880
vn 0.000000 -0.961479 0.274880
vn 0.000000 -0.961479 0.274880
vn 0.273254 -0.945376 0.177753
vn 0.514940 -0.822812 0.240454
vn -0.256181 -0.820555 0.510942
vn 0.000000 -0.848882 0.528582
vn 0.000000 -0.848882 0.528582
vn 0.000000 -0.848882 0.528582
vn 0.160614 -0.837861 0.521720
vn -0.972294 -0.086194 -0.217290
vn -0.892140 -0.077741 -0.445020
vn -0.867294 -0.075572 0.492027
vn -0.964166 -0.085473 0.251154
s 1
g rd_a21:polySurface7
f 5/1/1 38/2/2 10/3/3
f 10/3/3 38/2/2 12/4/4
f 1/5/5 2/6/6 6/7/7
f 6/7/7 2/6/6 7/8/8
f 2/6/6 3/9/9 7/8/8
f 7/8/8 3/9/9 8/10/10
f 3/9/9 4/11/11 8/10/10
f 8/10/10 4/11/11 9/12/12
f 4/11/11 5/1/1 9/12/12
f 9/12/12 5/1/1 10/3/3
f 15/13/13 16/14/14 20/15/15
f 20/15/15 16/14/14 21/16/16
f 16/14/14 17/17/17 21/16/16
f 21/16/16 17/17/17 22/18/18
f 17/17/17 18/19/19 22/18/18
f 22/18/18 18/19/19 23/20/20
f 18/19/19 19/21/21 23/20/20
f 23/20/20 19/21/21 24/22/22
f 31/23/23 24/22/22 14/24/24
f 14/24/24 24/22/22 19/21/21
s 4
f 20/15/25 26/25/26 25/26/27
f 26/25/26 20/15/25 27/27/28
f 27/27/28 20/15/25 21/16/29
f 27/27/28 21/16/29 28/28/30
f 28/28/30 21/16/29 22/18/31
f 28/28/30 22/18/31 29/29/32
f 29/29/32 22/18/31 23/20/33
f 29/29/32 23/20/33 30/30/34
f 30/30/34 23/20/33 24/22/35
f 24/22/35 31/23/36 30/30/34
f 25/26/27 26/25/26 32/31/37
f 32/31/37 26/25/26 33/32/38
f 33/32/38 26/25/26 34/33/39
f 34/33/39 26/25/26 27/27/28
f 34/33/39 27/27/28 35/34/40
f 35/34/40 27/27/28 28/28/30
f 35/34/40 28/28/30 36/35/41
f 36/35/41 28/28/30 29/29/32
f 36/35/41 29/29/32 37/36/42
f 37/36/42 29/29/32 30/30/34
f 30/30/34 31/23/36 37/36/42
f 37/36/42 31/23/36 38/2/43
f 32/31/37 33/32/38 1/5/44
f 1/5/44 33/32/38 2/6/45
f 2/6/45 33/32/38 34/33/39
f 2/6/45 34/33/39 3/9/46
f 3/9/46 34/33/39 35/34/40
f 3/9/46 35/34/40 4/11/47
f 4/11/47 35/34/40 36/35/41
f 4/11/47 36/35/41 5/1/48
f 5/1/48 36/35/41 37/36/42
f 37/36/42 38/2/43 5/1/48
s 1
f 38/2/2 31/23/23 12/4/4
f 12/4/4 31/23/23 14/24/24
f 25/26/49 13/37/50 20/15/15
f 20/15/15 13/37/50 15/13/13
f 32/31/51 11/38/52 25/26/49
f 25/26/49 11/38/52 13/37/50
f 1/5/5 6/7/7 32/31/51
f 32/31/51 6/7/7 11/38/52
