# This file uses centimeters as units for non-parametric coordinates.

mtllib rd_a21_top.mtl
g default
v -96.064662 -6.300000 52.500000
v -55.181333 -6.300000 52.500000
v 0.999997 -6.300000 52.500000
v 54.480117 -6.300000 52.500000
v 97.484531 -6.300000 52.500000
v -103.999992 -6.300000 44.512047
v -96.064662 0.298585 44.512047
v -55.181333 0.298585 44.512047
v 0.999997 0.298585 44.512047
v 54.480117 0.298585 44.512047
v 97.484531 0.298585 44.512047
v 105.999992 -6.300000 44.512047
v -103.999992 -6.300000 -43.161447
v -96.064662 0.298585 -43.161447
v -55.181333 0.298585 -43.161447
v 0.999997 0.298585 -43.161447
v 54.480117 0.298585 -43.161447
v 97.484531 0.298585 -43.161447
v 105.999992 -6.300000 -43.161447
v -96.064662 -6.300000 -52.500000
v -55.181333 -6.300000 -52.500000
v 0.999997 -6.300000 -52.500000
v 54.480117 -6.300000 -52.500000
v 97.484531 -6.300000 -52.500000
v -102.227076 -24.577067 52.500000
v -55.181333 -35.953888 52.500000
v 1.474029 -38.798070 52.500000
v 54.954152 -35.005827 52.500000
v 103.172918 -24.103024 52.500000
v -96.064662 -6.300000 52.500000
v -55.181333 -6.300000 52.500000
v 0.999997 -6.300000 52.500000
v 54.480117 -6.300000 52.500000
v 97.484531 -6.300000 52.500000
v -103.999992 -6.300000 44.512047
v 105.999984 -6.300000 44.512047
v -103.999992 -6.300000 -43.161447
v 105.999984 -6.300000 -43.161447
v -96.064662 -6.300000 -52.500000
v -55.181333 -6.300000 -52.500000
v 0.999997 -6.300000 -52.500000
v 54.480117 -6.300000 -52.500000
v 97.484531 -6.300000 -52.500000
v -102.227076 -24.577067 -52.500000
v -55.181333 -35.953888 -52.500000
v 1.474029 -38.798070 -52.500000
v 54.954152 -35.005827 -52.500000
v 103.172918 -24.103024 -52.500000
v -107.792255 -21.258823 -43.161443
v -102.227076 -27.876366 -43.161443
v -55.181333 -39.253187 -43.161443
v 1.474029 -42.097364 -43.161443
v 54.954152 -38.305125 -43.161443
v 103.172918 -27.402323 -43.161443
v 107.896124 -23.154955 -43.161443
v -107.792255 -21.258823 44.512055
v -102.227076 -27.876366 44.512055
v -55.181333 -39.253187 44.512055
v 1.474029 -42.097364 44.512055
v 54.954152 -38.305125 44.512055
v 103.172918 -27.402323 44.512055
v 107.896124 -23.154955 44.512055
vt 0.256688 -0.044783
vt 0.256688 0.038867
vt 0.237632 0.038867
vt 0.354864 0.038867
vt 0.354864 -0.044783
vt 0.489777 0.038867
vt 0.489777 -0.044783
vt 0.618203 0.038867
vt 0.618203 -0.044783
vt 0.721472 0.038867
vt 0.721472 -0.044783
vt 0.741921 0.038867
vt 0.237632 0.956989
vt 0.256688 0.956989
vt 0.354864 0.956989
vt 0.489777 0.956989
vt 0.618203 0.956989
vt 0.721472 0.956989
vt 0.741921 0.956989
vt 0.256688 1.054783
vt 0.354864 1.054783
vt 0.489777 1.054783
vt 0.618203 1.054783
vt 0.721472 1.054783
vt 0.735132 -0.044783
vt 0.746475 0.038867
vt 0.721472 -0.044783
vt 0.741921 0.038867
vt 0.241890 -0.044783
vt 0.354864 -0.044783
vt 0.256688 -0.044783
vt 0.354864 -0.044783
vt 0.490915 -0.044783
vt 0.489777 -0.044783
vt 0.619341 -0.044783
vt 0.618203 -0.044783
vt 0.256688 1.054783
vt 0.354864 1.054783
vt 0.241890 1.054783
vt 0.354864 1.054783
vt 0.489777 1.054783
vt 0.490915 1.054783
vt 0.618203 1.054783
vt 0.619341 1.054783
vt 0.721472 1.054783
vt 0.735132 1.054783
vt 0.746475 0.956989
vt 0.741921 0.956989
vt 0.241890 0.956989
vt 0.228526 0.956989
vt 0.354864 0.956989
vt 0.490915 0.956989
vt 0.619341 0.956989
vt 0.735132 0.956989
vt 0.228526 0.038867
vt 0.241890 0.038867
vt 0.354864 0.038867
vt 0.490915 0.038867
vt 0.619341 0.038867
vt 0.735132 0.038867
vt 0.237632 0.956989
vt 0.237632 0.038867
vn -0.328416 0.420184 0.845925
vn -0.336160 0.916501 0.216846
vn -0.846222 0.458279 0.271826
vn 0.000000 0.941002 0.338401
vn 0.000000 0.426103 0.904675
vn 0.000000 0.941002 0.338401
vn 0.000000 0.426103 0.904675
vn 0.000000 0.941002 0.338401
vn 0.000000 0.426103 0.904675
vn 0.248346 0.881437 0.401737
vn 0.466857 0.396893 0.790266
vn 0.843883 0.478042 0.243593
vn -0.793692 0.527511 -0.302961
vn -0.330737 0.897951 -0.290339
vn 0.000000 0.953072 -0.302743
vn 0.000000 0.953072 -0.302743
vn 0.000000 0.953072 -0.302743
vn 0.276001 0.926025 -0.257489
vn 0.832619 0.424322 -0.355943
vn -0.303213 0.578988 -0.756858
vn 0.000000 0.459852 -0.887995
vn 0.000000 0.459852 -0.887995
vn 0.000000 0.459852 -0.887995
vn 0.291658 0.396345 -0.870544
vn 0.403662 -0.463020 0.789094
vn 0.902415 -0.225402 0.367208
vn 0.466857 0.396893 0.790266
vn 0.843883 0.478042 0.243593
vn -0.547914 -0.395503 0.737135
vn -0.097271 -0.549695 0.829683
vn -0.328416 0.420184 0.845925
vn 0.000000 0.426103 0.904675
vn -0.005482 -0.555969 0.831185
vn 0.000000 0.426103 0.904675
vn 0.067452 -0.552970 0.830467
vn 0.000000 0.426103 0.904675
vn -0.303213 0.578988 -0.756858
vn 0.000000 0.459852 -0.887995
vn -0.516762 -0.358585 -0.777415
vn -0.064957 -0.574595 -0.815856
vn 0.000000 0.459852 -0.887995
vn 0.017611 -0.577234 -0.816389
vn 0.000000 0.459852 -0.887995
vn 0.099138 -0.570790 -0.815089
vn 0.291658 0.396345 -0.870544
vn 0.636263 -0.313934 -0.704709
vn 0.925338 -0.354041 -0.135665
vn 0.832619 0.424322 -0.355943
vn -0.516762 -0.358585 -0.777415
vn -0.525356 -0.845371 -0.096693
vn -0.976153 -0.123984 -0.178194
vn -0.140408 -0.975954 -0.166733
vn -0.064957 -0.574595 -0.815856
vn 0.010752 -0.985552 -0.169031
vn 0.017611 -0.577234 -0.816389
vn 0.144734 -0.975117 -0.167926
vn 0.099138 -0.570790 -0.815089
vn 0.407451 -0.893465 -0.188956
vn 0.636263 -0.313934 -0.704709
vn 0.925338 -0.354041 -0.135665
vn -0.921012 -0.229878 0.314474
vn -0.463195 -0.860213 0.213271
vn -0.141757 -0.970777 0.193643
vn 0.009345 -0.980843 0.194577
vn 0.142449 -0.970976 0.192131
vn 0.457446 -0.881585 0.116407
vn 0.902415 -0.225402 0.367208
vn -0.547914 -0.395503 0.737135
vn -0.097271 -0.549695 0.829683
vn -0.005482 -0.555969 0.831185
vn 0.067452 -0.552970 0.830467
vn 0.403662 -0.463020 0.789094
vn -0.976153 -0.123984 -0.178194
vn -0.793692 0.527511 -0.302961
vn -0.921012 -0.229878 0.314474
vn -0.846222 0.458279 0.271826
s 1
g polySurface8
usemtl initialShadingGroup
f 1/1/1 7/2/2 6/3/3
f 7/2/2 1/1/1 8/4/4
f 8/4/4 1/1/1 2/5/5
f 8/4/4 2/5/5 9/6/6
f 9/6/6 2/5/5 3/7/7
f 9/6/6 3/7/7 10/8/8
f 10/8/8 3/7/7 4/9/9
f 10/8/8 4/9/9 11/10/10
f 11/10/10 4/9/9 5/11/11
f 5/11/11 12/12/12 11/10/10
f 6/3/3 7/2/2 13/13/13
f 13/13/13 7/2/2 14/14/14
f 14/14/14 7/2/2 15/15/15
f 15/15/15 7/2/2 8/4/4
f 15/15/15 8/4/4 16/16/16
f 16/16/16 8/4/4 9/6/6
f 16/16/16 9/6/6 17/17/17
f 17/17/17 9/6/6 10/8/8
f 17/17/17 10/8/8 18/18/18
f 18/18/18 10/8/8 11/10/10
f 11/10/10 12/12/12 18/18/18
f 18/18/18 12/12/12 19/19/19
f 13/13/13 14/14/14 20/20/20
f 21/21/21 20/20/20 15/15/15
f 15/15/15 20/20/20 14/14/14
f 22/22/22 21/21/21 16/16/16
f 16/16/16 21/21/21 15/15/15
f 23/23/23 22/22/22 17/17/17
f 17/17/17 22/22/22 16/16/16
f 24/24/24 23/23/23 18/18/18
f 18/18/18 23/23/23 17/17/17
f 18/18/18 19/19/19 24/24/24
s 2
usemtl lambert2SG
f 29/25/25 62/26/26 34/27/27
f 34/27/27 62/26/26 36/28/28
f 25/29/29 26/30/30 30/31/31
f 30/31/31 26/30/30 31/32/32
f 26/30/30 27/33/33 31/32/32
f 31/32/32 27/33/33 32/34/34
f 27/33/33 28/35/35 32/34/34
f 32/34/34 28/35/35 33/36/36
f 28/35/35 29/25/25 33/36/36
f 33/36/36 29/25/25 34/27/27
f 39/37/37 40/38/38 44/39/39
f 44/39/39 40/38/38 45/40/40
f 40/38/38 41/41/41 45/40/40
f 45/40/40 41/41/41 46/42/42
f 41/41/41 42/43/43 46/42/42
f 46/42/42 42/43/43 47/44/44
f 42/43/43 43/45/45 47/44/44
f 47/44/44 43/45/45 48/46/46
f 55/47/47 48/46/46 38/48/48
f 38/48/48 48/46/46 43/45/45
s 5
f 44/39/49 50/49/50 49/50/51
f 50/49/50 44/39/49 51/51/52
f 51/51/52 44/39/49 45/40/53
f 51/51/52 45/40/53 52/52/54
f 52/52/54 45/40/53 46/42/55
f 52/52/54 46/42/55 53/53/56
f 53/53/56 46/42/55 47/44/57
f 53/53/56 47/44/57 54/54/58
f 54/54/58 47/44/57 48/46/59
f 48/46/59 55/47/60 54/54/58
f 49/50/51 50/49/50 56/55/61
f 56/55/61 50/49/50 57/56/62
f 57/56/62 50/49/50 58/57/63
f 58/57/63 50/49/50 51/51/52
f 58/57/63 51/51/52 59/58/64
f 59/58/64 51/51/52 52/52/54
f 59/58/64 52/52/54 60/59/65
f 60/59/65 52/52/54 53/53/56
f 60/59/65 53/53/56 61/60/66
f 61/60/66 53/53/56 54/54/58
f 54/54/58 55/47/60 61/60/66
f 61/60/66 55/47/60 62/26/67
f 56/55/61 57/56/62 25/29/68
f 25/29/68 57/56/62 26/30/69
f 26/30/69 57/56/62 58/57/63
f 26/30/69 58/57/63 27/33/70
f 27/33/70 58/57/63 59/58/64
f 27/33/70 59/58/64 28/35/71
f 28/35/71 59/58/64 60/59/65
f 28/35/71 60/59/65 29/25/72
f 29/25/72 60/59/65 61/60/66
f 61/60/66 62/26/67 29/25/72
s 2
f 62/26/26 55/47/47 36/28/28
f 36/28/28 55/47/47 38/48/48
f 49/50/73 37/61/74 44/39/39
f 44/39/39 37/61/74 39/37/37
f 56/55/75 35/62/76 49/50/73
f 49/50/73 35/62/76 37/61/74
f 25/29/29 30/31/31 56/55/75
f 56/55/75 30/31/31 35/62/76
