# This file uses centimeters as units for non-parametric coordinates.

mtllib rd_a21a_notop.mtl
g default
v -90.966324 -104.515717 50.000000
v -53.041264 -95.698586 50.000000
v -0.925162 -83.582214 50.000000
v 48.685188 -72.048393 50.000000
v 88.577843 -62.773830 50.000000
v -92.442535 -6.000000 50.000000
v -53.506027 -6.000000 50.000000
v -0.000003 -6.000000 50.000000
v 50.933445 -6.000000 50.000000
v 91.890022 -6.000000 50.000000
v -100.000000 -6.000000 42.392426
v 99.999985 -6.000000 42.392426
v -100.000000 -6.000000 -41.106140
v 99.999985 -6.000000 -41.106140
v -92.442535 -6.000000 -50.000000
v -53.506027 -6.000000 -50.000000
v -0.000003 -6.000000 -50.000000
v 50.933445 -6.000000 -50.000000
v 91.890022 -6.000000 -50.000000
v -90.966324 -104.515717 -50.000000
v -53.041264 -95.698586 -50.000000
v -0.925162 -83.582214 -50.000000
v 48.685188 -72.048393 -50.000000
v 88.577843 -62.773830 -50.000000
v -98.327469 -106.227097 -41.106136
v -90.254776 -107.576279 -41.106136
v -52.329720 -98.759155 -41.106136
v -0.213618 -86.642776 -41.106136
v 49.396736 -75.108963 -41.106136
v 89.289383 -65.834381 -41.106136
v 96.477135 -60.937336 -41.106136
v -98.327469 -106.227097 42.392429
v -90.254776 -107.576279 42.392429
v -52.329720 -98.759155 42.392429
v -0.213618 -86.642776 42.392429
v 49.396736 -75.108963 42.392429
v 89.289383 -65.834381 42.392429
v 96.477135 -60.937336 42.392429
vt 1.555370 -0.046972
vt 1.598444 -0.046972
vt 1.555370 0.661166
vt 1.598444 0.661166
vt -0.555370 -0.046972
vt -0.087734 -0.046972
vt -0.555370 0.661166
vt -0.087734 0.661166
vt 0.500000 -0.046972
vt 0.500000 0.661166
vt 1.059476 -0.046972
vt 1.059476 0.661166
vt -0.555370 0.661166
vt -0.087734 0.661166
vt -0.555370 -0.046972
vt -0.087734 -0.046972
vt 0.500000 0.661166
vt 0.500000 -0.046972
vt 1.059476 0.661166
vt 1.059476 -0.046972
vt 1.555370 0.661166
vt 1.555370 -0.046972
vt 1.598444 -0.046972
vt 1.598444 0.661166
vt -0.555370 -0.069223
vt -0.598444 -0.046972
vt -0.087734 -0.069223
vt 0.500000 -0.069223
vt 1.059476 -0.069223
vt 1.555370 -0.069223
vt -0.598444 -0.046972
vt -0.555370 -0.069223
vt -0.087734 -0.069223
vt 0.500000 -0.069223
vt 1.059476 -0.069223
vt 1.555370 -0.069223
vt -0.598444 0.661166
vt -0.598444 0.661166
vn 0.248973 -0.014525 0.968402
vn 0.853747 -0.053298 0.517954
vn 0.491929 -0.030107 0.870115
vn 0.963115 -0.061760 0.261909
vn -0.389456 -0.005836 0.921026
vn 0.000000 0.000000 1.000000
vn -0.386821 -0.006124 0.922135
vn 0.000000 0.000000 1.000000
vn 0.000000 0.000000 1.000000
vn 0.000000 0.000000 1.000000
vn 0.000000 0.000000 1.000000
vn 0.000000 0.000000 1.000000
vn -0.419780 -0.006290 -0.907604
vn -0.000000 0.000000 -1.000000
vn -0.422280 -0.006689 -0.906441
vn -0.000000 0.000000 -1.000000
vn -0.000000 0.000000 -1.000000
vn -0.000000 0.000000 -1.000000
vn 0.000000 0.000000 -1.000000
vn 0.000000 0.000000 -1.000000
vn 0.266168 -0.015528 -0.963802
vn 0.538299 -0.032976 -0.842108
vn 0.970640 -0.062242 -0.232346
vn 0.880433 -0.054947 -0.470977
vn 0.091519 -0.939335 -0.330567
vn 0.030955 -0.993381 -0.110616
vn -0.162798 -0.974085 -0.157018
vn 0.223192 -0.960014 -0.168991
vn 0.213515 -0.918391 -0.333120
vn 0.223192 -0.960014 -0.168990
vn 0.213515 -0.918391 -0.333120
vn 0.223192 -0.960014 -0.168990
vn 0.213515 -0.918391 -0.333120
vn 0.360643 -0.910649 -0.201631
vn 0.379957 -0.864889 -0.328023
vn 0.559906 -0.821815 -0.105481
vn -0.163641 -0.979126 0.120554
vn 0.067595 -0.970348 0.232070
vn 0.222120 -0.955403 0.194597
vn 0.222120 -0.955403 0.194597
vn 0.222120 -0.955403 0.194597
vn 0.398559 -0.908213 0.127671
vn 0.553561 -0.812503 0.182780
vn 0.028110 -0.926457 0.375349
vn 0.209299 -0.900255 0.381754
vn 0.209299 -0.900255 0.381752
vn 0.209298 -0.900255 0.381753
vn 0.318850 -0.868614 0.379269
vn -0.974258 -0.016258 -0.224850
vn -0.891351 -0.014417 -0.453085
vn -0.865899 -0.014014 0.500023
vn -0.967666 -0.016148 0.251717
s 1
g rd_a21a:polySurface7
usemtl rd_a21a:lambert2SG
f 5/1/1 38/2/2 10/3/3
f 10/3/3 38/2/2 12/4/4
f 1/5/5 2/6/6 6/7/7
f 6/7/7 2/6/6 7/8/8
f 2/6/6 3/9/9 7/8/8
f 7/8/8 3/9/9 8/10/10
f 3/9/9 4/11/11 8/10/10
f 8/10/10 4/11/11 9/12/12
f 4/11/11 5/1/1 9/12/12
f 9/12/12 5/1/1 10/3/3
f 15/13/13 16/14/14 20/15/15
f 20/15/15 16/14/14 21/16/16
f 16/14/14 17/17/17 21/16/16
f 21/16/16 17/17/17 22/18/18
f 17/17/17 18/19/19 22/18/18
f 22/18/18 18/19/19 23/20/20
f 18/19/19 19/21/21 23/20/20
f 23/20/20 19/21/21 24/22/22
f 31/23/23 24/22/22 14/24/24
f 14/24/24 24/22/22 19/21/21
s 4
f 20/15/25 26/25/26 25/26/27
f 26/25/26 20/15/25 27/27/28
f 27/27/28 20/15/25 21/16/29
f 27/27/28 21/16/29 28/28/30
f 28/28/30 21/16/29 22/18/31
f 28/28/30 22/18/31 29/29/32
f 29/29/32 22/18/31 23/20/33
f 29/29/32 23/20/33 30/30/34
f 30/30/34 23/20/33 24/22/35
f 24/22/35 31/23/36 30/30/34
f 25/26/27 26/25/26 32/31/37
f 32/31/37 26/25/26 33/32/38
f 33/32/38 26/25/26 34/33/39
f 34/33/39 26/25/26 27/27/28
f 34/33/39 27/27/28 35/34/40
f 35/34/40 27/27/28 28/28/30
f 35/34/40 28/28/30 36/35/41
f 36/35/41 28/28/30 29/29/32
f 36/35/41 29/29/32 37/36/42
f 37/36/42 29/29/32 30/30/34
f 30/30/34 31/23/36 37/36/42
f 37/36/42 31/23/36 38/2/43
f 32/31/37 33/32/38 1/5/44
f 1/5/44 33/32/38 2/6/45
f 2/6/45 33/32/38 34/33/39
f 2/6/45 34/33/39 3/9/46
f 3/9/46 34/33/39 35/34/40
f 3/9/46 35/34/40 4/11/47
f 4/11/47 35/34/40 36/35/41
f 4/11/47 36/35/41 5/1/48
f 5/1/48 36/35/41 37/36/42
f 37/36/42 38/2/43 5/1/48
s 1
f 38/2/2 31/23/23 12/4/4
f 12/4/4 31/23/23 14/24/24
f 25/26/49 13/37/50 20/15/15
f 20/15/15 13/37/50 15/13/13
f 32/31/51 11/38/52 25/26/49
f 25/26/49 11/38/52 13/37/50
f 1/5/5 6/7/7 32/31/51
f 32/31/51 6/7/7 11/38/52
