# This file uses centimeters as units for non-parametric coordinates.

mtllib rd_b41c_notop.mtl
g default
v -192.157211 -105.999992 50.000000
v -152.157211 -89.245903 50.000000
v -107.012054 -123.801216 50.000000
v -51.576603 -103.905739 50.000000
v -0.000006 -153.120880 50.000000
v 47.717724 -142.649567 50.000000
v 101.866890 -200.241730 50.000000
v 152.157181 -174.063431 50.000000
v 192.157196 -211.760147 50.000000
v -192.157211 -6.000000 50.000000
v -152.157211 -6.000000 50.000000
v -107.012054 -11.235653 50.000000
v -51.576603 -23.801218 50.000000
v -0.000006 -42.649567 50.000000
v 47.717724 -65.686440 50.000000
v 101.866890 -85.581909 50.000000
v 152.157181 -103.383110 50.000000
v 192.157196 -111.760178 50.000000
v -200.000000 -6.000000 42.392426
v 199.999969 -111.760178 42.392426
v -200.000000 -6.000000 -41.106140
v 199.999969 -111.760178 -41.106140
v -192.157211 -6.000000 -50.000000
v -152.157211 -6.000000 -50.000000
v -107.012054 -11.235653 -50.000000
v -51.576603 -23.801218 -50.000000
v -0.000006 -42.649567 -50.000000
v 47.717724 -65.686440 -50.000000
v 101.866890 -85.581909 -50.000000
v 152.157181 -103.383110 -50.000000
v 192.157196 -111.760178 -50.000000
v -192.157211 -105.999992 -50.000000
v -152.157211 -89.245903 -50.000000
v -107.012054 -123.801216 -50.000000
v -51.576603 -103.905739 -50.000000
v -0.000006 -153.120880 -50.000000
v 47.717724 -142.649567 -50.000000
v 101.866890 -200.241730 -50.000000
v 152.157181 -174.063431 -50.000000
v 192.157196 -211.760147 -50.000000
v -200.000000 -105.999992 -41.106136
v -192.157211 -109.142181 -41.106136
v -152.157211 -92.388092 -41.106136
v -107.012054 -126.943390 -41.106136
v -51.576603 -107.047905 -41.106136
v -0.000006 -156.263046 -41.106136
v 47.717724 -145.791733 -41.106136
v 101.866890 -203.383926 -41.106136
v 152.157181 -177.205658 -41.106136
v 192.157196 -214.902359 -41.106136
v 199.999969 -211.760147 -41.106136
v -200.000000 -105.999992 42.392429
v -192.157211 -109.142181 42.392429
v -152.157211 -92.388092 42.392429
v -107.012054 -126.943390 42.392429
v -51.576603 -107.047905 42.392429
v -0.000006 -156.263046 42.392429
v 47.717724 -145.791733 42.392429
v 101.866890 -203.383926 42.392429
v 152.157181 -177.205658 42.392429
v 192.157196 -214.902359 42.392429
v 199.999969 -211.760147 42.392429
vt 0.856443 -0.125123
vt 0.885575 -0.121224
vt 0.761262 0.586109
vt 0.790393 0.590007
vt -0.523159 0.455921
vt -0.618341 1.167153
vt -0.671737 0.436037
vt -0.766919 1.147269
vt -0.350487 0.441125
vt -0.445668 1.152356
vt -0.132614 0.379311
vt -0.227796 1.090543
vt 0.076904 0.270894
vt -0.018277 0.982125
vt 0.276076 0.130768
vt 0.180895 0.842000
vt 0.496148 0.016183
vt 0.400966 0.727414
vt 0.699892 -0.085426
vt 0.604710 0.625805
vt -0.618341 1.167153
vt -0.523159 0.455921
vt -0.766919 1.147269
vt -0.671737 0.436037
vt -0.445668 1.152356
vt -0.350487 0.441125
vt -0.227796 1.090543
vt -0.132614 0.379311
vt -0.018277 0.982125
vt 0.076904 0.270894
vt 0.180895 0.842000
vt 0.276076 0.130768
vt 0.400966 0.727414
vt 0.496148 0.016183
vt 0.604710 0.625805
vt 0.699892 -0.085426
vt 0.761262 0.586109
vt 0.856443 -0.125123
vt 0.885575 -0.121224
vt 0.790393 0.590007
vt -0.668746 0.413689
vt -0.700869 0.432139
vt -0.520169 0.433573
vt -0.347496 0.418777
vt -0.129624 0.356963
vt 0.079895 0.248546
vt 0.279067 0.108420
vt 0.499138 -0.006166
vt 0.702882 -0.107775
vt 0.859434 -0.147471
vt -0.700869 0.432139
vt -0.668746 0.413689
vt -0.520169 0.433573
vt -0.347496 0.418777
vt -0.129624 0.356963
vt 0.079895 0.248546
vt 0.279067 0.108420
vt 0.499138 -0.006166
vt 0.702882 -0.107775
vt 0.859434 -0.147471
vt -0.796051 1.143371
vt -0.796051 1.143371
vn 0.375641 0.000000 0.926765
vn 0.857483 -0.000000 0.514512
vn 0.375641 0.000000 0.926765
vn 0.966343 -0.000000 0.257256
vn -0.000000 0.000000 1.000000
vn -0.000000 0.000000 1.000000
vn -0.248172 0.000000 0.968716
vn -0.496344 0.000000 0.868126
vn 0.000000 0.000000 1.000000
vn -0.000000 0.000000 1.000000
vn 0.000000 0.000000 1.000000
vn 0.000000 0.000000 1.000000
vn 0.000000 0.000000 1.000000
vn -0.000000 0.000000 1.000000
vn 0.000000 0.000000 1.000000
vn -0.000000 0.000000 1.000000
vn -0.000000 0.000000 1.000000
vn -0.000000 0.000000 1.000000
vn 0.000000 0.000000 1.000000
vn 0.000000 0.000000 1.000000
vn -0.000000 0.000000 -1.000000
vn -0.000000 0.000000 -1.000000
vn -0.271254 0.000000 -0.962508
vn -0.542508 0.000000 -0.840050
vn 0.000000 0.000000 -1.000000
vn -0.000000 0.000000 -1.000000
vn 0.000000 0.000000 -1.000000
vn 0.000000 0.000000 -1.000000
vn 0.000000 0.000000 -1.000000
vn 0.000000 0.000000 -1.000000
vn -0.000000 0.000000 -1.000000
vn -0.000000 0.000000 -1.000000
vn -0.000000 0.000000 -1.000000
vn -0.000000 0.000000 -1.000000
vn 0.000000 0.000000 -1.000000
vn 0.000000 0.000000 -1.000000
vn 0.411463 0.000000 -0.911426
vn 0.411463 0.000000 -0.911427
vn 0.972276 -0.000000 -0.233837
vn 0.883901 0.000000 -0.467674
vn 0.007468 -0.942858 -0.333110
vn 0.004326 -0.985521 -0.169497
vn -0.367249 -0.916641 -0.157789
vn 0.055855 -0.941413 -0.332599
vn -0.123797 -0.978514 -0.164880
vn -0.314086 -0.895170 -0.316261
vn -0.157325 -0.972366 -0.172492
vn -0.010525 -0.942833 -0.333099
vn -0.203388 -0.965968 -0.159812
vn -0.418116 -0.856512 -0.302601
vn -0.272344 -0.946807 -0.171419
vn -0.112937 -0.936853 -0.330986
vn -0.291967 -0.944000 -0.153683
vn -0.389079 -0.868590 -0.306871
vn -0.172680 -0.969308 -0.174999
vn 0.085013 -0.939470 -0.331916
vn -0.133583 -0.977417 -0.163745
vn -0.372339 -0.875088 -0.309169
vn -0.310665 -0.941184 -0.132892
vn 0.369854 -0.923133 -0.105044
vn -0.369170 -0.921434 0.121130
vn 0.090571 -0.983595 0.156007
vn -0.133261 -0.970854 0.199207
vn -0.148109 -0.970747 0.188984
vn -0.212554 -0.956471 0.199958
vn -0.264214 -0.947422 0.180507
vn -0.299573 -0.933362 0.197716
vn -0.162578 -0.968867 0.186724
vn -0.144082 -0.968945 0.200964
vn -0.181061 -0.965701 0.186113
vn 0.365697 -0.912758 0.182040
vn 0.132534 -0.916111 0.378385
vn -0.295699 -0.882933 0.364681
vn 0.019206 -0.924095 0.381680
vn -0.380619 -0.854698 0.353017
vn -0.096919 -0.919914 0.379954
vn -0.447253 -0.826670 0.341440
vn 0.065879 -0.922256 0.380926
vn -0.343116 -0.868154 0.358581
vn -0.179981 -0.909170 0.375521
vn -0.972276 0.000000 -0.233837
vn -0.883901 0.000000 -0.467674
vn -0.857483 0.000000 0.514513
vn -0.966343 0.000000 0.257256
s 1
g rd_b41c:polySurface7
usemtl rd_b41c:lambert2SG
f 9/1/1 62/2/2 18/3/3
f 18/3/3 62/2/2 20/4/4
f 2/5/5 11/6/6 1/7/7
f 1/7/7 11/6/6 10/8/8
f 3/9/9 12/10/10 2/5/5
f 2/5/5 12/10/10 11/6/6
f 4/11/11 13/12/12 3/9/9
f 3/9/9 13/12/12 12/10/10
f 5/13/13 14/14/14 4/11/11
f 4/11/11 14/14/14 13/12/12
f 6/15/15 15/16/16 5/13/13
f 5/13/13 15/16/16 14/14/14
f 7/17/17 16/18/18 6/15/15
f 6/15/15 16/18/18 15/16/16
f 8/19/19 17/20/20 7/17/17
f 7/17/17 17/20/20 16/18/18
f 9/1/1 18/3/3 8/19/19
f 8/19/19 18/3/3 17/20/20
f 24/21/21 33/22/22 23/23/23
f 23/23/23 33/22/22 32/24/24
f 25/25/25 34/26/26 24/21/21
f 24/21/21 34/26/26 33/22/22
f 26/27/27 35/28/28 25/25/25
f 25/25/25 35/28/28 34/26/26
f 27/29/29 36/30/30 26/27/27
f 26/27/27 36/30/30 35/28/28
f 28/31/31 37/32/32 27/29/29
f 27/29/29 37/32/32 36/30/30
f 29/33/33 38/34/34 28/31/31
f 28/31/31 38/34/34 37/32/32
f 30/35/35 39/36/36 29/33/33
f 29/33/33 39/36/36 38/34/34
f 31/37/37 40/38/38 30/35/35
f 30/35/35 40/38/38 39/36/36
f 51/39/39 40/38/38 22/40/40
f 22/40/40 40/38/38 31/37/37
s 17
f 32/24/41 42/41/42 41/42/43
f 32/24/41 33/22/44 42/41/42
f 42/41/42 33/22/44 43/43/45
f 33/22/44 34/26/46 43/43/45
f 43/43/45 34/26/46 44/44/47
f 34/26/46 35/28/48 44/44/47
f 44/44/47 35/28/48 45/45/49
f 35/28/48 36/30/50 45/45/49
f 45/45/49 36/30/50 46/46/51
f 36/30/50 37/32/52 46/46/51
f 46/46/51 37/32/52 47/47/53
f 37/32/52 38/34/54 47/47/53
f 47/47/53 38/34/54 48/48/55
f 38/34/54 39/36/56 48/48/55
f 48/48/55 39/36/56 49/49/57
f 39/36/56 40/38/58 49/49/57
f 49/49/57 40/38/58 50/50/59
f 40/38/58 51/39/60 50/50/59
f 41/42/43 42/41/42 52/51/61
f 52/51/61 42/41/42 53/52/62
f 42/41/42 43/43/45 53/52/62
f 53/52/62 43/43/45 54/53/63
f 43/43/45 44/44/47 54/53/63
f 54/53/63 44/44/47 55/54/64
f 44/44/47 45/45/49 55/54/64
f 55/54/64 45/45/49 56/55/65
f 45/45/49 46/46/51 56/55/65
f 56/55/65 46/46/51 57/56/66
f 46/46/51 47/47/53 57/56/66
f 57/56/66 47/47/53 58/57/67
f 47/47/53 48/48/55 58/57/67
f 58/57/67 48/48/55 59/58/68
f 48/48/55 49/49/57 59/58/68
f 59/58/68 49/49/57 60/59/69
f 49/49/57 50/50/59 60/59/69
f 60/59/69 50/50/59 61/60/70
f 50/50/59 51/39/60 61/60/70
f 61/60/70 51/39/60 62/2/71
f 52/51/61 53/52/62 1/7/72
f 53/52/62 54/53/63 1/7/72
f 1/7/72 54/53/63 2/5/73
f 54/53/63 55/54/64 2/5/73
f 2/5/73 55/54/64 3/9/74
f 55/54/64 56/55/65 3/9/74
f 3/9/74 56/55/65 4/11/75
f 56/55/65 57/56/66 4/11/75
f 4/11/75 57/56/66 5/13/76
f 57/56/66 58/57/67 5/13/76
f 5/13/76 58/57/67 6/15/77
f 58/57/67 59/58/68 6/15/77
f 6/15/77 59/58/68 7/17/78
f 59/58/68 60/59/69 7/17/78
f 7/17/78 60/59/69 8/19/79
f 60/59/69 61/60/70 8/19/79
f 8/19/79 61/60/70 9/1/80
f 61/60/70 62/2/71 9/1/80
s 1
f 62/2/2 51/39/39 20/4/4
f 20/4/4 51/39/39 22/40/40
f 41/42/81 21/61/82 32/24/24
f 32/24/24 21/61/82 23/23/23
f 52/51/83 19/62/84 41/42/81
f 41/42/81 19/62/84 21/61/82
f 1/7/7 10/8/8 52/51/83
f 52/51/83 10/8/8 19/62/84
