# This file uses centimeters as units for non-parametric coordinates.

mtllib rd_b41b_notop.mtl
g default
v -192.157211 -40.950577 50.000000
v -152.157211 -40.950577 50.000000
v -107.012054 -49.406490 50.000000
v -51.576603 -69.700668 50.000000
v -0.000006 -100.141960 50.000000
v 47.717724 -137.347931 50.000000
v 101.866890 -169.480377 50.000000
v 152.157181 -198.230408 50.000000
v 192.157196 -211.759888 50.000000
v -192.157211 -6.000000 50.000000
v -152.157211 -6.000000 50.000000
v -107.012054 -11.235653 50.000000
v -51.576603 -23.801218 50.000000
v -0.000006 -42.649567 50.000000
v 47.717724 -65.686440 50.000000
v 101.866890 -85.581909 50.000000
v 152.157181 -103.383110 50.000000
v 192.157196 -111.760178 50.000000
v -200.000000 -6.000000 42.392426
v 199.999969 -111.760178 42.392426
v -200.000000 -6.000000 -41.106140
v 199.999969 -111.760178 -41.106140
v -192.157211 -6.000000 -50.000000
v -152.157211 -6.000000 -50.000000
v -107.012054 -11.235653 -50.000000
v -51.576603 -23.801218 -50.000000
v -0.000006 -42.649567 -50.000000
v 47.717724 -65.686440 -50.000000
v 101.866890 -85.581909 -50.000000
v 152.157181 -103.383110 -50.000000
v 192.157196 -111.760178 -50.000000
v -192.157211 -40.950577 -50.000000
v -152.157211 -40.950577 -50.000000
v -107.012054 -49.406490 -50.000000
v -51.576603 -69.700668 -50.000000
v -0.000006 -100.141960 -50.000000
v 47.717724 -137.347931 -50.000000
v 101.866890 -169.480377 -50.000000
v 152.157181 -198.230408 -50.000000
v 192.157196 -211.759888 -50.000000
v -200.000000 -40.950577 -41.106136
v -192.157211 -46.025406 -41.106136
v -152.157211 -46.025406 -41.106136
v -107.012054 -54.481308 -41.106136
v -51.576603 -74.775482 -41.106136
v -0.000006 -105.216766 -41.106136
v 47.717724 -142.422745 -41.106136
v 101.866890 -174.555222 -41.106136
v 152.157181 -203.305298 -41.106136
v 192.157196 -216.834763 -41.106136
v 199.999969 -211.759888 -41.106136
v -200.000000 -40.950577 42.392429
v -192.157211 -46.025406 42.392429
v -152.157211 -46.025406 42.392429
v -107.012054 -54.481308 42.392429
v -51.576603 -74.775482 42.392429
v -0.000006 -105.216766 42.392429
v 47.717724 -142.422745 42.392429
v 101.866890 -174.555222 42.392429
v 152.157181 -203.305298 42.392429
v 192.157196 -216.834763 42.392429
v 199.999969 -211.759888 42.392429
vt 0.856443 -0.125123
vt 0.885575 -0.121224
vt 0.761262 0.586109
vt 0.790393 0.590007
vt -0.523159 0.455921
vt -0.618341 1.167153
vt -0.671737 0.436037
vt -0.766919 1.147269
vt -0.350487 0.441125
vt -0.445668 1.152356
vt -0.132614 0.379311
vt -0.227796 1.090543
vt 0.076904 0.270894
vt -0.018277 0.982125
vt 0.276076 0.130768
vt 0.180895 0.842000
vt 0.496148 0.016183
vt 0.400966 0.727414
vt 0.699892 -0.085426
vt 0.604710 0.625805
vt -0.618341 1.167153
vt -0.523159 0.455921
vt -0.766919 1.147269
vt -0.671737 0.436037
vt -0.445668 1.152356
vt -0.350487 0.441125
vt -0.227796 1.090543
vt -0.132614 0.379311
vt -0.018277 0.982125
vt 0.076904 0.270894
vt 0.180895 0.842000
vt 0.276076 0.130768
vt 0.400966 0.727414
vt 0.496148 0.016183
vt 0.604710 0.625805
vt 0.699892 -0.085426
vt 0.761262 0.586109
vt 0.856443 -0.125123
vt 0.885575 -0.121224
vt 0.790393 0.590007
vt -0.668746 0.413689
vt -0.700869 0.432139
vt -0.520169 0.433573
vt -0.347496 0.418777
vt -0.129624 0.356963
vt 0.079895 0.248546
vt 0.279067 0.108420
vt 0.499138 -0.006166
vt 0.702882 -0.107775
vt 0.859434 -0.147471
vt -0.700869 0.432139
vt -0.668746 0.413689
vt -0.520169 0.433573
vt -0.347496 0.418777
vt -0.129624 0.356963
vt 0.079895 0.248546
vt 0.279067 0.108420
vt 0.499138 -0.006166
vt 0.702882 -0.107775
vt 0.859434 -0.147471
vt -0.796051 1.143371
vt -0.796051 1.143371
vn 0.375641 0.000000 0.926765
vn 0.857483 -0.000000 0.514512
vn 0.375641 0.000000 0.926765
vn 0.966343 -0.000000 0.257256
vn 0.000000 0.000000 1.000000
vn 0.000000 0.000000 1.000000
vn -0.248172 0.000000 0.968716
vn -0.496344 0.000000 0.868126
vn -0.000000 0.000000 1.000000
vn -0.000000 0.000000 1.000000
vn 0.000000 0.000000 1.000000
vn 0.000000 0.000000 1.000000
vn 0.000000 0.000000 1.000000
vn 0.000000 0.000000 1.000000
vn 0.000000 0.000000 1.000000
vn 0.000000 0.000000 1.000000
vn 0.000000 0.000000 1.000000
vn 0.000000 0.000000 1.000000
vn -0.000000 0.000000 1.000000
vn -0.000000 0.000000 1.000000
vn -0.000000 0.000000 -1.000000
vn 0.000000 0.000000 -1.000000
vn -0.271254 0.000000 -0.962508
vn -0.542508 0.000000 -0.840050
vn -0.000000 0.000000 -1.000000
vn 0.000000 0.000000 -1.000000
vn -0.000000 0.000000 -1.000000
vn -0.000000 0.000000 -1.000000
vn 0.000000 0.000000 -1.000000
vn 0.000000 0.000000 -1.000000
vn -0.000000 0.000000 -1.000000
vn 0.000000 0.000000 -1.000000
vn -0.000000 0.000000 -1.000000
vn -0.000000 0.000000 -1.000000
vn 0.000000 0.000000 -1.000000
vn 0.000000 0.000000 -1.000000
vn 0.411463 0.000000 -0.911427
vn 0.411463 0.000000 -0.911426
vn 0.972276 -0.000000 -0.233837
vn 0.883901 0.000000 -0.467674
vn -0.253222 -0.840246 -0.479443
vn -0.281892 -0.925078 -0.254494
vn -0.529761 -0.818707 -0.221523
vn -0.053679 -0.867301 -0.494881
vn -0.087413 -0.962981 -0.255004
vn -0.208552 -0.849455 -0.484698
vn -0.255111 -0.934732 -0.247375
vn -0.355157 -0.811930 -0.463285
vn -0.414808 -0.879574 -0.232990
vn -0.491842 -0.756237 -0.431506
vn -0.548830 -0.807604 -0.215782
vn -0.527370 -0.737955 -0.421075
vn -0.550824 -0.804800 -0.221111
vn -0.453678 -0.774025 -0.441658
vn -0.490276 -0.841394 -0.227344
vn -0.391775 -0.799120 -0.455982
vn -0.400294 -0.884258 -0.240525
vn -0.026431 -0.868247 -0.495427
vn 0.025006 -0.978376 -0.205318
vn 0.537339 -0.830410 -0.147262
vn -0.535564 -0.827676 0.167701
vn -0.219288 -0.949370 0.224965
vn -0.091255 -0.952730 0.289789
vn -0.256400 -0.924000 0.283697
vn -0.414248 -0.868861 0.271071
vn -0.545945 -0.798942 0.252260
vn -0.545515 -0.801143 0.246136
vn -0.486111 -0.834898 0.258152
vn -0.393643 -0.879693 0.266807
vn 0.133133 -0.945609 0.296815
vn 0.525658 -0.812358 0.252504
vn -0.162364 -0.820855 0.547573
vn -0.102913 -0.827476 0.551989
vn -0.246087 -0.806311 0.537870
vn -0.392061 -0.765292 0.510506
vn -0.510504 -0.715325 0.477174
vn -0.477221 -0.731054 0.487668
vn -0.433883 -0.749509 0.499983
vn -0.324770 -0.786796 0.524859
vn 0.109545 -0.826883 0.551602
vn -0.972276 0.000000 -0.233837
vn -0.883901 0.000000 -0.467674
vn -0.857483 0.000000 0.514513
vn -0.966343 0.000000 0.257256
s 1
g rd_b41b:polySurface7
usemtl rd_b41b:lambert2SG
f 9/1/1 62/2/2 18/3/3
f 18/3/3 62/2/2 20/4/4
f 2/5/5 11/6/6 1/7/7
f 1/7/7 11/6/6 10/8/8
f 3/9/9 12/10/10 2/5/5
f 2/5/5 12/10/10 11/6/6
f 4/11/11 13/12/12 3/9/9
f 3/9/9 13/12/12 12/10/10
f 5/13/13 14/14/14 4/11/11
f 4/11/11 14/14/14 13/12/12
f 6/15/15 15/16/16 5/13/13
f 5/13/13 15/16/16 14/14/14
f 7/17/17 16/18/18 6/15/15
f 6/15/15 16/18/18 15/16/16
f 8/19/19 17/20/20 7/17/17
f 7/17/17 17/20/20 16/18/18
f 9/1/1 18/3/3 8/19/19
f 8/19/19 18/3/3 17/20/20
f 24/21/21 33/22/22 23/23/23
f 23/23/23 33/22/22 32/24/24
f 25/25/25 34/26/26 24/21/21
f 24/21/21 34/26/26 33/22/22
f 26/27/27 35/28/28 25/25/25
f 25/25/25 35/28/28 34/26/26
f 27/29/29 36/30/30 26/27/27
f 26/27/27 36/30/30 35/28/28
f 28/31/31 37/32/32 27/29/29
f 27/29/29 37/32/32 36/30/30
f 29/33/33 38/34/34 28/31/31
f 28/31/31 38/34/34 37/32/32
f 30/35/35 39/36/36 29/33/33
f 29/33/33 39/36/36 38/34/34
f 31/37/37 40/38/38 30/35/35
f 30/35/35 40/38/38 39/36/36
f 51/39/39 40/38/38 22/40/40
f 22/40/40 40/38/38 31/37/37
s 17
f 32/24/41 42/41/42 41/42/43
f 32/24/41 33/22/44 42/41/42
f 42/41/42 33/22/44 43/43/45
f 33/22/44 34/26/46 43/43/45
f 43/43/45 34/26/46 44/44/47
f 34/26/46 35/28/48 44/44/47
f 44/44/47 35/28/48 45/45/49
f 35/28/48 36/30/50 45/45/49
f 45/45/49 36/30/50 46/46/51
f 36/30/50 37/32/52 46/46/51
f 46/46/51 37/32/52 47/47/53
f 37/32/52 38/34/54 47/47/53
f 47/47/53 38/34/54 48/48/55
f 38/34/54 39/36/56 48/48/55
f 48/48/55 39/36/56 49/49/57
f 39/36/56 40/38/58 49/49/57
f 49/49/57 40/38/58 50/50/59
f 40/38/58 51/39/60 50/50/59
f 41/42/43 42/41/42 52/51/61
f 52/51/61 42/41/42 53/52/62
f 42/41/42 43/43/45 53/52/62
f 53/52/62 43/43/45 54/53/63
f 43/43/45 44/44/47 54/53/63
f 54/53/63 44/44/47 55/54/64
f 44/44/47 45/45/49 55/54/64
f 55/54/64 45/45/49 56/55/65
f 45/45/49 46/46/51 56/55/65
f 56/55/65 46/46/51 57/56/66
f 46/46/51 47/47/53 57/56/66
f 57/56/66 47/47/53 58/57/67
f 47/47/53 48/48/55 58/57/67
f 58/57/67 48/48/55 59/58/68
f 48/48/55 49/49/57 59/58/68
f 59/58/68 49/49/57 60/59/69
f 49/49/57 50/50/59 60/59/69
f 60/59/69 50/50/59 61/60/70
f 50/50/59 51/39/60 61/60/70
f 61/60/70 51/39/60 62/2/71
f 52/51/61 53/52/62 1/7/72
f 53/52/62 54/53/63 1/7/72
f 1/7/72 54/53/63 2/5/73
f 54/53/63 55/54/64 2/5/73
f 2/5/73 55/54/64 3/9/74
f 55/54/64 56/55/65 3/9/74
f 3/9/74 56/55/65 4/11/75
f 56/55/65 57/56/66 4/11/75
f 4/11/75 57/56/66 5/13/76
f 57/56/66 58/57/67 5/13/76
f 5/13/76 58/57/67 6/15/77
f 58/57/67 59/58/68 6/15/77
f 6/15/77 59/58/68 7/17/78
f 59/58/68 60/59/69 7/17/78
f 7/17/78 60/59/69 8/19/79
f 60/59/69 61/60/70 8/19/79
f 8/19/79 61/60/70 9/1/80
f 61/60/70 62/2/71 9/1/80
s 1
f 62/2/2 51/39/39 20/4/4
f 20/4/4 51/39/39 22/40/40
f 41/42/81 21/61/82 32/24/24
f 32/24/24 21/61/82 23/23/23
f 52/51/83 19/62/84 41/42/81
f 41/42/81 19/62/84 21/61/82
f 1/7/7 10/8/8 52/51/83
f 52/51/83 10/8/8 19/62/84
