# This file uses centimeters as units for non-parametric coordinates.

mtllib rock_1x1.mtl
g default
v 4.537524 20.081378 6.016759
v 4.837459 20.833635 -4.008075
v -0.310199 24.408075 0.592147
v -4.910412 20.833635 -4.555503
v -5.868324 21.062949 5.559183
v 7.702647 7.623057 9.558539
v 6.969682 12.204037 -5.913543
v -6.815888 12.204037 -6.687735
v -8.922287 13.566620 8.771783
v 8.555543 -0.372748 10.512931
v 8.395014 -0.272980 -7.428678
v -7.836972 -0.092983 -7.830330
v -8.561983 -0.508944 10.232469
vn 0.575363 0.601324 0.554406
vn 0.555751 0.680570 -0.477458
vn 0.042300 0.999099 0.003431
vn 0.555751 0.680570 -0.477458
vn -0.485479 0.605909 -0.630226
vn 0.042300 0.999099 0.003431
vn -0.485479 0.605909 -0.630226
vn -0.438804 0.796359 0.416249
vn 0.042300 0.999099 0.003431
vn -0.438804 0.796359 0.416249
vn 0.575363 0.601324 0.554406
vn 0.042300 0.999099 0.003431
vn 0.575363 0.601324 0.554406
vn 0.702196 0.261243 0.662323
vn 0.707387 0.235360 -0.666490
vn 0.575363 0.601324 0.554406
vn 0.707387 0.235360 -0.666490
vn 0.555751 0.680570 -0.477458
vn -0.485479 0.605909 -0.630226
vn 0.555751 0.680570 -0.477458
vn 0.707387 0.235360 -0.666490
vn -0.485479 0.605909 -0.630226
vn 0.707387 0.235360 -0.666490
vn -0.587666 0.220552 -0.778463
vn -0.438804 0.796359 0.416249
vn -0.485479 0.605909 -0.630226
vn -0.702369 0.385346 0.598486
vn -0.702369 0.385346 0.598486
vn -0.485479 0.605909 -0.630226
vn -0.587666 0.220552 -0.778463
vn 0.575363 0.601324 0.554406
vn -0.438804 0.796359 0.416249
vn -0.702369 0.385346 0.598486
vn 0.575363 0.601324 0.554406
vn -0.702369 0.385346 0.598486
vn 0.702196 0.261243 0.662323
vn 0.702196 0.261243 0.662323
vn 0.715005 0.167803 0.678682
vn 0.707387 0.235360 -0.666490
vn 0.707387 0.235360 -0.666490
vn 0.715005 0.167803 0.678682
vn 0.704039 0.164324 -0.690888
vn -0.587666 0.220552 -0.778463
vn 0.707387 0.235360 -0.666490
vn -0.597202 0.149143 -0.788103
vn -0.597202 0.149143 -0.788103
vn 0.707387 0.235360 -0.666490
vn 0.704039 0.164324 -0.690888
vn -0.702369 0.385346 0.598486
vn -0.587666 0.220552 -0.778463
vn -0.597202 0.149143 -0.788103
vn -0.702369 0.385346 0.598486
vn -0.597202 0.149143 -0.788103
vn -0.752391 0.242467 0.612469
vn 0.702196 0.261243 0.662323
vn -0.702369 0.385346 0.598486
vn 0.715005 0.167803 0.678682
vn 0.715005 0.167803 0.678682
vn -0.702369 0.385346 0.598486
vn -0.752391 0.242467 0.612469
s off
g rock1:Mesh
usemtl rock1:rock1
f 1//1 2//2 3//3
f 2//4 4//5 3//6
f 4//7 5//8 3//9
f 5//10 1//11 3//12
f 1//13 6//14 7//15
f 1//16 7//17 2//18
f 4//19 2//20 7//21
f 4//22 7//23 8//24
f 5//25 4//26 9//27
f 9//28 4//29 8//30
f 1//31 5//32 9//33
f 1//34 9//35 6//36
f 6//37 10//38 7//39
f 7//40 10//41 11//42
f 8//43 7//44 12//45
f 12//46 7//47 11//48
f 9//49 8//50 12//51
f 9//52 12//53 13//54
f 6//55 9//56 10//57
f 10//58 9//59 13//60
