# This file uses centimeters as units for non-parametric coordinates.

mtllib transporter.mtl
g default
v 0.072260 5.213597 0.011575
v 20.457079 5.213599 -6.683665
v 17.412622 5.213599 -12.723530
v 12.670771 5.213599 -17.516793
v 6.695690 5.213599 -20.594257
v 0.072260 5.213599 -21.654680
v -6.551169 5.213599 -20.594255
v -12.526250 5.213599 -17.516787
v -17.268102 5.213599 -12.723524
v -20.312554 5.213599 -6.683663
v -21.361604 5.213599 0.011575
v -20.312554 5.213599 6.706812
v -17.268100 5.213599 12.746674
v -12.526246 5.213599 17.539939
v -6.551168 5.213599 20.617396
v 0.072260 5.213599 21.677818
v 6.695685 5.213599 20.617396
v 12.670764 5.213599 17.539939
v 17.412613 5.213599 12.746674
v 20.457066 5.213599 6.706811
v 21.506114 5.213599 0.011574
vt 0.648603 0.892034
vt 0.626409 0.935591
vt 0.500000 0.837500
vt 0.591841 0.970159
vt 0.548284 0.992353
vt 0.500000 1.000000
vt 0.451716 0.992353
vt 0.408159 0.970159
vt 0.373591 0.935591
vt 0.351397 0.892034
vt 0.343750 0.843750
vt 0.351397 0.795466
vt 0.373591 0.751909
vt 0.408159 0.717341
vt 0.451716 0.695147
vt 0.500000 0.687500
vt 0.548284 0.695147
vt 0.591842 0.717341
vt 0.626409 0.751908
vt 0.648603 0.795466
vt 0.656250 0.843750
vn -0.000000 1.000000 0.000000
vn -0.000000 1.000000 0.000000
vn -0.000000 1.000000 -0.000000
vn -0.000000 1.000000 0.000000
vn -0.000000 1.000000 0.000000
vn 0.000000 1.000000 0.000000
vn 0.000000 1.000000 0.000000
vn 0.000000 1.000000 0.000000
vn 0.000000 1.000000 0.000000
vn 0.000000 1.000000 0.000000
vn 0.000000 1.000000 0.000000
vn 0.000000 1.000000 -0.000000
vn 0.000000 1.000000 -0.000000
vn 0.000000 1.000000 -0.000000
vn 0.000000 1.000000 -0.000000
vn -0.000000 1.000000 -0.000000
vn -0.000000 1.000000 -0.000000
vn -0.000000 1.000000 -0.000000
vn -0.000000 1.000000 0.000000
vn -0.000000 1.000000 0.000000
vn -0.000000 1.000000 0.000000
s 1
g polySurface3 pCylinder1
usemtl lambert5SG
f 2/1/1 3/2/2 1/3/3
f 3/2/2 4/4/4 1/3/3
f 4/4/4 5/5/5 1/3/3
f 5/5/5 6/6/6 1/3/3
f 6/6/6 7/7/7 1/3/3
f 7/7/7 8/8/8 1/3/3
f 8/8/8 9/9/9 1/3/3
f 9/9/9 10/10/10 1/3/3
f 10/10/10 11/11/11 1/3/3
f 11/11/11 12/12/12 1/3/3
f 12/12/12 13/13/13 1/3/3
f 13/13/13 14/14/14 1/3/3
f 14/14/14 15/15/15 1/3/3
f 15/15/15 16/16/16 1/3/3
f 16/16/16 17/17/17 1/3/3
f 17/17/17 18/18/18 1/3/3
f 18/18/18 19/19/19 1/3/3
f 19/19/19 20/20/20 1/3/3
f 20/20/20 21/21/21 1/3/3
f 21/21/21 2/1/1 1/3/3
g default
v 11.005690 -5.684145 33.661205
v 20.868876 -5.684145 28.635660
v 28.696342 -5.684145 20.808195
v 8.685748 6.064749 26.521160
v 0.072260 6.064749 27.885405
v 0.072261 -5.684145 35.392891
v 16.456083 6.064749 22.561975
v 22.622658 6.064749 16.395405
v 33.721893 -5.684145 10.945004
v 26.581842 6.064749 8.625060
v 33.721909 -5.684145 -10.921856
v 28.696358 -5.684145 -20.785044
v 20.868885 -5.684145 -28.612520
v 11.005696 -5.684145 -33.638073
v 0.072262 -5.684145 -35.369755
v -10.861168 -5.684145 -33.638073
v -20.724361 -5.684145 -28.612518
v -28.551828 -5.684145 -20.785040
v -33.577374 -5.684145 -10.921853
v -35.309063 -5.684145 0.011577
v -33.577374 -5.684145 10.945004
v -28.551828 -5.684145 20.808197
v -20.724358 -5.684145 28.635660
v -10.861165 -5.684145 33.661205
v 0.072261 -5.684145 35.392891
v 33.721893 -5.684145 10.945004
v 35.453575 -5.684145 0.011577
v 26.581860 6.064749 -8.601916
v 22.622671 6.064749 -16.372255
v 16.456091 6.064749 -22.538836
v 8.685754 6.064749 -26.498020
v 0.072260 6.064749 -27.862265
v -8.541229 6.064749 -26.498020
v -16.311575 6.064749 -22.538832
v -22.478144 6.064749 -16.372250
v -26.437330 6.064749 -8.601913
v -27.801575 6.064749 0.011575
v -26.437330 6.064749 8.625062
v -22.478142 6.064749 16.395407
v -16.311571 6.064749 22.561975
v -8.541226 6.064749 26.521162
v 0.072260 6.064749 27.885405
v 8.685748 6.064749 26.521160
v 16.456083 6.064749 22.561975
v 22.622658 6.064749 16.395405
v 26.581842 6.064749 8.625060
v 27.946081 6.064749 0.011575
v 21.772161 6.064749 -7.115594
v 18.531300 6.064749 -13.545107
v 13.483538 6.064749 -18.647596
v 7.122987 6.064749 -21.923595
v 0.072260 6.064749 -23.052431
v -6.978464 6.064749 -21.923594
v -13.339016 6.064749 -18.647593
v -18.386778 6.064749 -13.545103
v -21.627636 6.064749 -7.115592
v -22.744364 6.064749 0.011575
v -21.627636 6.064749 7.138743
v -18.386776 6.064749 13.568252
v -13.339010 6.064749 18.670744
v -6.978463 6.064749 21.946737
v 0.072260 6.064749 23.075571
v 7.122981 6.064749 21.946735
v 13.483531 6.064749 18.670744
v 18.531288 6.064749 13.568252
v 21.772148 6.064749 7.138741
v 22.888872 6.064749 0.011575
v 20.457079 5.213598 -6.683665
v 17.412621 5.213598 -12.723530
v 12.670772 5.213598 -17.516792
v 6.695690 5.213598 -20.594255
v 0.072260 5.213598 -21.654678
v -6.551169 5.213598 -20.594254
v -12.526250 5.213598 -17.516787
v -17.268103 5.213598 -12.723524
v -20.312553 5.213598 -6.683663
v -21.361605 5.213598 0.011575
v -20.312553 5.213598 6.706812
v -17.268101 5.213598 12.746674
v -12.526245 5.213598 17.539940
v -6.551167 5.213598 20.617395
v 0.072260 5.213598 21.677818
v 6.695684 5.213598 20.617395
v 12.670765 5.213598 17.539940
v 17.412613 5.213598 12.746674
v 20.457066 5.213598 6.706811
v 21.506113 5.213598 0.011574
vt 0.550000 0.312500
vt 0.562500 0.312500
vt 0.562500 0.688440
vt 0.550000 0.688440
vt 0.575000 0.312500
vt 0.575000 0.688440
vt 0.587500 0.312500
vt 0.587500 0.688440
vt 0.600000 0.312500
vt 0.600000 0.688440
vt 0.375000 0.312500
vt 0.387500 0.312500
vt 0.387500 0.688440
vt 0.375000 0.688440
vt 0.400000 0.312500
vt 0.400000 0.688440
vt 0.412500 0.312500
vt 0.412500 0.688440
vt 0.425000 0.312500
vt 0.425000 0.688440
vt 0.437500 0.312500
vt 0.437500 0.688440
vt 0.450000 0.312500
vt 0.450000 0.688440
vt 0.462500 0.312500
vt 0.462500 0.688440
vt 0.475000 0.312500
vt 0.475000 0.688440
vt 0.487500 0.312500
vt 0.487500 0.688440
vt 0.500000 0.312500
vt 0.500000 0.688440
vt 0.512500 0.312500
vt 0.512500 0.688440
vt 0.525000 0.312500
vt 0.525000 0.688440
vt 0.537500 0.312500
vt 0.537500 0.688440
vt 0.550000 0.312500
vt 0.550000 0.688440
vt 0.600000 0.312500
vt 0.612500 0.312500
vt 0.612500 0.688440
vt 0.600000 0.688440
vt 0.625000 0.312500
vt 0.625000 0.688440
vt 0.648603 0.892034
vt 0.626409 0.935591
vt 0.626409 0.935591
vt 0.648603 0.892034
vt 0.591841 0.970159
vt 0.591841 0.970159
vt 0.548284 0.992353
vt 0.548284 0.992353
vt 0.500000 1.000000
vt 0.500000 1.000000
vt 0.451716 0.992353
vt 0.451716 0.992353
vt 0.408159 0.970159
vt 0.408159 0.970159
vt 0.373591 0.935591
vt 0.373591 0.935591
vt 0.351397 0.892034
vt 0.351397 0.892034
vt 0.343750 0.843750
vt 0.343750 0.843750
vt 0.351397 0.795466
vt 0.351397 0.795466
vt 0.373591 0.751909
vt 0.373591 0.751909
vt 0.408159 0.717341
vt 0.408159 0.717341
vt 0.451716 0.695147
vt 0.451716 0.695147
vt 0.500000 0.687500
vt 0.500000 0.687500
vt 0.548284 0.695147
vt 0.548284 0.695147
vt 0.591842 0.717341
vt 0.591842 0.717341
vt 0.626409 0.751908
vt 0.626409 0.751908
vt 0.648603 0.795466
vt 0.648603 0.795466
vt 0.656250 0.843750
vt 0.656250 0.843750
vt 0.626409 0.935591
vt 0.648603 0.892034
vt 0.591841 0.970159
vt 0.548284 0.992353
vt 0.500000 1.000000
vt 0.451716 0.992353
vt 0.408159 0.970159
vt 0.373591 0.935591
vt 0.351397 0.892034
vt 0.343750 0.843750
vt 0.351397 0.795466
vt 0.373591 0.751909
vt 0.408159 0.717341
vt 0.451716 0.695147
vt 0.500000 0.687500
vt 0.548284 0.695147
vt 0.591842 0.717341
vt 0.626409 0.751908
vt 0.648603 0.795466
vt 0.656250 0.843750
vn -0.044444 0.537921 0.841823
vn 0.217869 0.537921 0.814355
vn 0.044444 0.537921 0.841823
vn 0.044444 0.537921 0.841823
vn 0.217869 0.537921 0.814355
vn 0.302406 0.537921 0.786887
vn 0.217869 0.537921 0.814355
vn 0.458855 0.537921 0.707172
vn 0.302406 0.537921 0.786887
vn 0.302406 0.537921 0.786887
vn 0.458855 0.537921 0.707172
vn 0.530767 0.537921 0.654926
vn 0.458855 0.537921 0.707172
vn 0.654926 0.537921 0.530767
vn 0.530767 0.537921 0.654926
vn 0.530767 0.537921 0.654926
vn 0.654926 0.537921 0.530767
vn 0.707172 0.537921 0.458855
vn 0.654926 0.537921 0.530767
vn 0.786887 0.537921 0.302406
vn 0.707172 0.537921 0.458855
vn 0.707172 0.537921 0.458855
vn 0.786887 0.537921 0.302406
vn 0.814355 0.537921 0.217869
vn 0.814355 0.537921 -0.217868
vn 0.707172 0.537921 -0.458855
vn 0.786887 0.537921 -0.302406
vn 0.786887 0.537921 -0.302406
vn 0.707172 0.537921 -0.458855
vn 0.654926 0.537921 -0.530767
vn 0.707172 0.537921 -0.458855
vn 0.530767 0.537921 -0.654925
vn 0.654926 0.537921 -0.530767
vn 0.654926 0.537921 -0.530767
vn 0.530767 0.537921 -0.654925
vn 0.458855 0.537921 -0.707172
vn 0.530767 0.537921 -0.654925
vn 0.302406 0.537921 -0.786887
vn 0.458855 0.537921 -0.707172
vn 0.458855 0.537921 -0.707172
vn 0.302406 0.537921 -0.786887
vn 0.217869 0.537921 -0.814355
vn 0.302406 0.537921 -0.786887
vn 0.044444 0.537921 -0.841823
vn 0.217869 0.537921 -0.814355
vn 0.217869 0.537921 -0.814355
vn 0.044444 0.537921 -0.841823
vn -0.044444 0.537921 -0.841823
vn 0.044444 0.537921 -0.841823
vn -0.217869 0.537921 -0.814355
vn -0.044444 0.537921 -0.841823
vn -0.044444 0.537921 -0.841823
vn -0.217869 0.537921 -0.814355
vn -0.302406 0.537921 -0.786887
vn -0.217869 0.537921 -0.814355
vn -0.458856 0.537921 -0.707172
vn -0.302406 0.537921 -0.786887
vn -0.302406 0.537921 -0.786887
vn -0.458856 0.537921 -0.707172
vn -0.530767 0.537921 -0.654925
vn -0.458856 0.537921 -0.707172
vn -0.654926 0.537921 -0.530767
vn -0.530767 0.537921 -0.654925
vn -0.530767 0.537921 -0.654925
vn -0.654926 0.537921 -0.530767
vn -0.707173 0.537921 -0.458855
vn -0.654926 0.537921 -0.530767
vn -0.786887 0.537921 -0.302406
vn -0.707173 0.537921 -0.458855
vn -0.707173 0.537921 -0.458855
vn -0.786887 0.537921 -0.302406
vn -0.814355 0.537921 -0.217869
vn -0.786887 0.537921 -0.302406
vn -0.841823 0.537921 -0.044444
vn -0.814355 0.537921 -0.217869
vn -0.814355 0.537921 -0.217869
vn -0.841823 0.537921 -0.044444
vn -0.841823 0.537921 0.044444
vn -0.841823 0.537921 -0.044444
vn -0.814355 0.537921 0.217869
vn -0.841823 0.537921 0.044444
vn -0.841823 0.537921 0.044444
vn -0.814355 0.537921 0.217869
vn -0.786887 0.537921 0.302406
vn -0.814355 0.537921 0.217869
vn -0.707173 0.537921 0.458855
vn -0.786887 0.537921 0.302406
vn -0.786887 0.537921 0.302406
vn -0.707173 0.537921 0.458855
vn -0.654925 0.537921 0.530767
vn -0.707173 0.537921 0.458855
vn -0.530767 0.537921 0.654926
vn -0.654925 0.537921 0.530767
vn -0.654925 0.537921 0.530767
vn -0.530767 0.537921 0.654926
vn -0.458855 0.537921 0.707173
vn -0.530767 0.537921 0.654926
vn -0.302406 0.537921 0.786888
vn -0.458855 0.537921 0.707173
vn -0.458855 0.537921 0.707173
vn -0.302406 0.537921 0.786888
vn -0.217869 0.537921 0.814355
vn -0.302406 0.537921 0.786888
vn -0.044444 0.537921 0.841823
vn -0.217869 0.537921 0.814355
vn -0.217869 0.537921 0.814355
vn -0.044444 0.537921 0.841823
vn 0.044444 0.537921 0.841823
vn 0.786887 0.537921 0.302406
vn 0.841823 0.537921 0.044444
vn 0.814355 0.537921 0.217869
vn 0.814355 0.537921 0.217869
vn 0.841823 0.537921 0.044444
vn 0.841823 0.537921 -0.044443
vn 0.841823 0.537921 0.044444
vn 0.814355 0.537921 -0.217868
vn 0.841823 0.537921 -0.044443
vn 0.841823 0.537921 -0.044443
vn 0.814355 0.537921 -0.217868
vn 0.786887 0.537921 -0.302406
vn 0.000000 1.000000 0.000000
vn 0.000000 1.000000 -0.000000
vn 0.000000 1.000000 0.000000
vn 0.000000 1.000000 -0.000000
vn 0.000000 1.000000 -0.000000
vn 0.000000 1.000000 0.000000
vn 0.000000 1.000000 -0.000000
vn 0.000000 1.000000 -0.000000
vn 0.000000 1.000000 0.000000
vn 0.000000 1.000000 0.000000
vn 0.000000 1.000000 0.000000
vn 0.000000 1.000000 0.000000
vn 0.000000 1.000000 0.000000
vn 0.000000 1.000000 0.000000
vn 0.000000 1.000000 0.000000
vn 0.000000 1.000000 0.000000
vn 0.000000 1.000000 0.000000
vn 0.000000 1.000000 0.000000
vn 0.000000 1.000000 0.000000
vn 0.000000 1.000000 0.000000
vn 0.000000 1.000000 -0.000000
vn 0.000000 1.000000 -0.000000
vn 0.000000 1.000000 -0.000000
vn 0.000000 1.000000 -0.000000
vn 0.000000 1.000000 0.000000
vn 0.000000 1.000000 0.000000
vn 0.000000 1.000000 -0.000000
vn 0.000000 1.000000 -0.000000
vn 0.000000 1.000000 -0.000000
vn 0.000000 1.000000 0.000000
vn 0.000000 1.000000 0.000000
vn 0.000000 1.000000 0.000000
vn 0.000000 1.000000 0.000000
vn 0.000000 1.000000 0.000000
vn 0.000000 1.000000 0.000000
vn 0.000000 1.000000 0.000000
vn 0.000000 1.000000 -0.000000
vn 0.000000 1.000000 -0.000000
vn 0.000000 1.000000 0.000000
vn 0.000000 1.000000 -0.000000
vn -0.408117 0.852264 0.327241
vn -0.440547 0.852014 0.282825
vn -0.489979 0.851593 0.186304
vn -0.489979 0.851593 0.186304
vn -0.440547 0.852014 0.282825
vn -0.506992 0.851439 0.134203
vn -0.286182 0.853036 0.436382
vn -0.330939 0.852786 0.404025
vn -0.408117 0.852264 0.327241
vn -0.408117 0.852264 0.327241
vn -0.330939 0.852786 0.404025
vn -0.440547 0.852014 0.282825
vn -0.135967 0.853614 0.502847
vn -0.188698 0.853459 0.485799
vn -0.286182 0.853036 0.436382
vn -0.286182 0.853036 0.436382
vn -0.188698 0.853459 0.485799
vn -0.330939 0.852786 0.404025
vn 0.000000 0.854105 0.520100
vn 0.000000 0.854105 0.520101
vn -0.135967 0.853614 0.502847
vn -0.135967 0.853614 0.502847
vn 0.000000 0.854105 0.520101
vn -0.188698 0.853459 0.485799
vn 0.000000 0.854105 0.520100
vn 0.135968 0.853614 0.502848
vn 0.000000 0.854105 0.520101
vn 0.000000 0.854105 0.520101
vn 0.135968 0.853614 0.502848
vn 0.188699 0.853459 0.485799
vn 0.135968 0.853614 0.502848
vn 0.286182 0.853036 0.436382
vn 0.188699 0.853459 0.485799
vn 0.188699 0.853459 0.485799
vn 0.286182 0.853036 0.436382
vn 0.330939 0.852786 0.404025
vn 0.286182 0.853036 0.436382
vn 0.408117 0.852264 0.327241
vn 0.330939 0.852786 0.404025
vn 0.330939 0.852786 0.404025
vn 0.408117 0.852264 0.327241
vn 0.440548 0.852014 0.282825
vn 0.408117 0.852264 0.327241
vn 0.489980 0.851593 0.186304
vn 0.440548 0.852014 0.282825
vn 0.440548 0.852014 0.282825
vn 0.489980 0.851593 0.186304
vn 0.506992 0.851439 0.134204
vn 0.489980 0.851593 0.186304
vn 0.524195 0.851598 -0.000000
vn 0.506992 0.851439 0.134204
vn 0.506992 0.851439 0.134204
vn 0.524195 0.851598 -0.000000
vn 0.524196 0.851598 -0.000000
vn 0.489979 0.851594 -0.186304
vn 0.506991 0.851439 -0.134204
vn 0.524195 0.851598 -0.000000
vn 0.524195 0.851598 -0.000000
vn 0.506991 0.851439 -0.134204
vn 0.524196 0.851598 -0.000000
vn 0.408117 0.852264 -0.327241
vn 0.440547 0.852014 -0.282825
vn 0.489979 0.851594 -0.186304
vn 0.489979 0.851594 -0.186304
vn 0.440547 0.852014 -0.282825
vn 0.506991 0.851439 -0.134204
vn 0.286182 0.853036 -0.436383
vn 0.330939 0.852786 -0.404025
vn 0.408117 0.852264 -0.327241
vn 0.408117 0.852264 -0.327241
vn 0.330939 0.852786 -0.404025
vn 0.440547 0.852014 -0.282825
vn 0.135967 0.853614 -0.502847
vn 0.188698 0.853459 -0.485799
vn 0.286182 0.853036 -0.436383
vn 0.286182 0.853036 -0.436383
vn 0.188698 0.853459 -0.485799
vn 0.330939 0.852786 -0.404025
vn -0.000000 0.854105 -0.520101
vn -0.000000 0.854105 -0.520101
vn 0.135967 0.853614 -0.502847
vn 0.135967 0.853614 -0.502847
vn -0.000000 0.854105 -0.520101
vn 0.188698 0.853459 -0.485799
vn -0.000000 0.854105 -0.520101
vn -0.135967 0.853614 -0.502848
vn -0.000000 0.854105 -0.520101
vn -0.000000 0.854105 -0.520101
vn -0.135967 0.853614 -0.502848
vn -0.188698 0.853459 -0.485799
vn -0.135967 0.853614 -0.502848
vn -0.286182 0.853036 -0.436383
vn -0.188698 0.853459 -0.485799
vn -0.188698 0.853459 -0.485799
vn -0.286182 0.853036 -0.436383
vn -0.330939 0.852786 -0.404025
vn -0.286182 0.853036 -0.436383
vn -0.408117 0.852264 -0.327241
vn -0.330939 0.852786 -0.404025
vn -0.330939 0.852786 -0.404025
vn -0.408117 0.852264 -0.327241
vn -0.440547 0.852014 -0.282825
vn -0.408117 0.852264 -0.327241
vn -0.489980 0.851593 -0.186304
vn -0.440547 0.852014 -0.282825
vn -0.440547 0.852014 -0.282825
vn -0.489980 0.851593 -0.186304
vn -0.506993 0.851439 -0.134204
vn -0.489980 0.851593 -0.186304
vn -0.524197 0.851597 -0.000001
vn -0.506993 0.851439 -0.134204
vn -0.506993 0.851439 -0.134204
vn -0.524197 0.851597 -0.000001
vn -0.524197 0.851597 -0.000001
vn -0.489979 0.851593 0.186304
vn -0.506992 0.851439 0.134203
vn -0.524197 0.851597 -0.000001
vn -0.524197 0.851597 -0.000001
vn -0.506992 0.851439 0.134203
vn -0.524197 0.851597 -0.000001
s off
g polySurface4
usemtl lambert4SG
f 27/22/22 22/23/23 26/25/24
f 26/25/25 22/23/26 25/24/27
f 22/23/28 23/26/29 25/24/30
f 25/24/31 23/26/32 28/27/33
f 23/26/34 24/28/35 28/27/36
f 28/27/37 24/28/38 29/29/39
f 24/28/40 30/30/41 29/29/42
f 29/29/43 30/30/44 31/31/45
f 32/32/46 33/33/47 49/35/48
f 49/35/49 33/33/50 50/34/51
f 33/33/52 34/36/53 50/34/54
f 50/34/55 34/36/56 51/37/57
f 34/36/58 35/38/59 51/37/60
f 51/37/61 35/38/62 52/39/63
f 35/38/64 36/40/65 52/39/66
f 52/39/67 36/40/68 53/41/69
f 36/40/70 37/42/71 53/41/72
f 53/41/73 37/42/74 54/43/75
f 37/42/76 38/44/77 54/43/78
f 54/43/79 38/44/80 55/45/81
f 38/44/82 39/46/83 55/45/84
f 55/45/85 39/46/86 56/47/87
f 39/46/88 40/48/89 56/47/90
f 56/47/91 40/48/92 57/49/93
f 40/48/94 41/50/95 57/49/96
f 57/49/97 41/50/98 58/51/99
f 41/50/100 42/52/101 58/51/102
f 58/51/103 42/52/104 59/53/105
f 42/52/106 43/54/107 59/53/108
f 59/53/109 43/54/110 60/55/111
f 43/54/112 44/56/113 60/55/114
f 60/55/115 44/56/116 61/57/117
f 44/56/118 45/58/119 61/57/120
f 61/57/121 45/58/122 62/59/123
f 45/58/124 46/60/125 62/59/126
f 62/59/127 46/60/128 63/61/129
f 47/62/130 48/63/131 67/65/132
f 67/65/133 48/63/134 68/64/135
f 48/63/136 32/66/137 68/64/138
f 68/64/139 32/66/140 49/67/141
s 1
f 49/68/142 50/69/143 69/71/144
f 69/71/144 50/69/143 70/70/145
f 50/69/143 51/72/146 70/70/145
f 70/70/145 51/72/146 71/73/147
f 51/72/146 52/74/148 71/73/147
f 71/73/147 52/74/148 72/75/149
f 52/74/148 53/76/150 72/75/149
f 72/75/149 53/76/150 73/77/151
f 54/78/152 74/79/153 53/76/150
f 53/76/150 74/79/153 73/77/151
f 55/80/154 75/81/155 54/78/152
f 54/78/152 75/81/155 74/79/153
f 56/82/156 76/83/157 55/80/154
f 55/80/154 76/83/157 75/81/155
f 57/84/158 77/85/159 56/82/156
f 56/82/156 77/85/159 76/83/157
f 58/86/160 78/87/161 57/84/158
f 57/84/158 78/87/161 77/85/159
f 58/86/160 59/88/162 78/87/161
f 78/87/161 59/88/162 79/89/163
f 59/88/162 60/90/164 79/89/163
f 79/89/163 60/90/164 80/91/165
f 60/90/164 61/92/166 80/91/165
f 80/91/165 61/92/166 81/93/167
f 61/92/166 62/94/168 81/93/167
f 81/93/167 62/94/168 82/95/169
f 62/94/168 63/96/170 82/95/169
f 82/95/169 63/96/170 83/97/171
f 64/98/172 84/99/173 63/96/170
f 63/96/170 84/99/173 83/97/171
f 65/100/174 85/101/175 64/98/172
f 64/98/172 85/101/175 84/99/173
f 66/102/176 86/103/177 65/100/174
f 65/100/174 86/103/177 85/101/175
f 67/104/178 87/105/179 66/102/176
f 66/102/176 87/105/179 86/103/177
f 68/106/180 88/107/181 67/104/178
f 67/104/178 88/107/181 87/105/179
f 68/106/180 49/68/142 88/107/181
f 88/107/181 49/68/142 69/71/144
s off
f 70/70/182 90/108/183 69/71/184
f 69/71/185 90/108/186 89/109/187
f 71/73/188 91/110/189 70/70/190
f 70/70/191 91/110/192 90/108/193
f 72/75/194 92/111/195 71/73/196
f 71/73/197 92/111/198 91/110/199
f 73/77/200 93/112/201 72/75/202
f 72/75/203 93/112/204 92/111/205
f 73/77/206 74/79/207 93/112/208
f 93/112/209 74/79/210 94/113/211
f 74/79/212 75/81/213 94/113/214
f 94/113/215 75/81/216 95/114/217
f 75/81/218 76/83/219 95/114/220
f 95/114/221 76/83/222 96/115/223
f 76/83/224 77/85/225 96/115/226
f 96/115/227 77/85/228 97/116/229
f 77/85/230 78/87/231 97/116/232
f 97/116/233 78/87/234 98/117/235
f 79/89/236 99/118/237 78/87/238
f 78/87/239 99/118/240 98/117/241
f 80/91/242 100/119/243 79/89/244
f 79/89/245 100/119/246 99/118/247
f 81/93/248 101/120/249 80/91/250
f 80/91/251 101/120/252 100/119/253
f 82/95/254 102/121/255 81/93/256
f 81/93/257 102/121/258 101/120/259
f 83/97/260 103/122/261 82/95/262
f 82/95/263 103/122/264 102/121/265
f 83/97/266 84/99/267 103/122/268
f 103/122/269 84/99/270 104/123/271
f 84/99/272 85/101/273 104/123/274
f 104/123/275 85/101/276 105/124/277
f 85/101/278 86/103/279 105/124/280
f 105/124/281 86/103/282 106/125/283
f 86/103/284 87/105/285 106/125/286
f 106/125/287 87/105/288 107/126/289
f 87/105/290 88/107/291 107/126/292
f 107/126/293 88/107/294 108/127/295
f 69/71/296 89/109/297 88/107/298
f 88/107/299 89/109/300 108/127/301
