# This file uses centimeters as units for non-parametric coordinates.

mtllib wall2.mtl
g default
v -56.579717 -161.309586 109.011115
v 61.141306 -161.309586 109.011115
v -56.579717 55.928252 109.011115
v 61.141306 41.025275 109.011115
v -56.579717 34.723235 -111.105462
v 61.141306 24.748244 -111.105462
v -56.579717 -161.309586 -111.105462
v 61.141306 -161.309586 -111.105462
v -115.440240 -128.205155 109.011115
v -115.440240 1.618793 109.011115
v 120.001814 -107.000123 109.011115
v 120.001814 -21.817735 109.011115
v -115.440240 55.928252 53.981971
v -115.440240 55.928252 -56.076321
v 114.137305 18.355872 53.981971
v 114.137305 18.355872 -56.076321
v -115.440240 1.618793 -111.105462
v -115.440240 -107.000123 -111.105462
v 120.001814 -21.817735 -111.105462
v 120.001814 -107.000123 -111.105462
v -115.440240 -161.309586 -56.076321
v -115.440240 -161.309586 53.981971
v 120.001814 -161.309586 -56.076321
v 120.001814 -161.309586 53.981971
vt 0.089261 0.183416
vt 0.294630 0.044630
vt 0.089261 0.044630
vt 0.294630 0.044630
vt 0.089261 0.272315
vt 0.089261 0.044630
vt 0.294630 0.955370
vt 0.089261 0.727685
vt 0.089261 0.955370
vt 0.089261 0.629430
vt 0.294630 0.797853
vt 0.089261 0.892891
vt 0.910739 0.727685
vt 0.705370 0.955370
vt 0.910739 0.866471
vt 0.705370 0.797853
vt 0.910739 0.629430
vt 0.910739 0.824652
vt 0.705370 0.044630
vt 0.910739 0.272315
vt 0.910739 0.044630
vt 0.910739 0.272315
vt 0.705370 0.044630
vt 0.910739 0.044630
vn -0.695349 -0.156300 0.701470
vn -0.773869 -0.624641 0.104645
vn -0.086649 -0.952403 0.292267
vn 0.808534 -0.577075 0.115135
vn 0.317532 -0.121961 0.940372
vn 0.177736 -0.516419 0.837688
vn -0.660408 0.746638 0.079962
vn -0.503961 0.193566 0.841757
vn -0.111081 0.413014 0.903925
vn 0.743669 0.184615 0.642553
vn 0.957797 0.281695 0.057213
vn 0.305911 0.924415 0.227762
vn -0.926216 0.139997 -0.350036
vn -0.374593 0.872668 -0.313259
vn -0.047201 0.262597 -0.963751
vn 0.606492 0.780950 -0.149281
vn 0.839017 0.278562 -0.467390
vn 0.199747 0.831102 -0.519010
vn -0.503133 -0.842902 -0.190721
vn -0.692595 -0.161654 -0.702980
vn -0.177736 -0.516419 -0.837688
vn 0.580056 -0.130813 -0.804004
vn 0.699315 -0.697664 -0.155639
vn 0.103538 -0.866690 -0.487984
s 1
g pCube1
usemtl lambert2SG
f 9/1/1 22/2/2 1/3/3
f 24/4/4 11/5/5 2/6/6
f 13/7/7 10/8/8 3/9/9
f 12/10/10 15/11/11 4/12/12
f 17/13/13 14/14/14 5/15/15
f 1/3/3 2/6/6 9/1/1
f 4/12/12 3/9/9 12/10/10
f 12/10/10 3/9/9 11/5/5
f 2/6/6 11/5/5 9/1/1
f 9/1/1 11/5/5 10/8/8
f 11/5/5 3/9/9 10/8/8
f 16/16/16 19/17/17 6/18/18
f 21/19/19 18/20/20 7/21/21
f 15/11/11 16/16/16 4/12/12
f 5/15/15 14/14/14 6/18/18
f 3/9/9 4/12/12 13/7/7
f 16/16/16 6/18/18 4/12/12
f 4/12/12 6/18/18 13/7/7
f 13/7/7 6/18/18 14/14/14
f 20/22/22 23/23/23 8/24/24
f 21/19/19 22/2/2 18/20/20
f 14/14/14 17/13/13 13/7/7
f 18/20/20 22/2/2 17/13/13
f 10/8/8 13/7/7 9/1/1
f 13/7/7 17/13/13 9/1/1
f 22/2/2 9/1/1 17/13/13
f 16/16/16 15/11/11 19/17/17
f 19/17/17 15/11/11 20/22/22
f 20/22/22 15/11/11 23/23/23
f 23/23/23 15/11/11 24/4/4
f 15/11/11 12/10/10 24/4/4
f 11/5/5 24/4/4 12/10/10
f 2/6/6 1/3/3 24/4/4
f 7/21/21 8/24/24 21/19/19
f 21/19/19 8/24/24 22/2/2
f 24/4/4 1/3/3 23/23/23
f 23/23/23 1/3/3 8/24/24
f 8/24/24 1/3/3 22/2/2
f 17/13/13 5/15/15 18/20/20
f 18/20/20 5/15/15 7/21/21
f 7/21/21 5/15/15 8/24/24
f 8/24/24 5/15/15 20/22/22
f 5/15/15 6/18/18 20/22/22
f 6/18/18 19/17/17 20/22/22
g default
v -56.579717 -161.309586 109.011115
v 61.141306 -161.309586 109.011115
v -56.579717 55.928252 109.011115
v 61.141306 41.025275 109.011115
v -56.579717 34.723235 -111.105462
v 61.141306 24.748244 -111.105462
v -56.579717 -161.309586 -111.105462
v 61.141306 -161.309586 -111.105462
v -115.440240 -128.205155 109.011115
v -115.440240 1.618793 109.011115
v 120.001814 -107.000123 109.011115
v 120.001814 -21.817735 109.011115
v -115.440240 55.928252 53.981971
v -115.440240 55.928252 -56.076321
v 114.137305 18.355872 53.981971
v 114.137305 18.355872 -56.076321
v -115.440240 1.618793 -111.105462
v -115.440240 -107.000123 -111.105462
v 120.001814 -21.817735 -111.105462
v 120.001814 -107.000123 -111.105462
v -115.440240 -161.309586 -56.076321
v -115.440240 -161.309586 53.981971
v 120.001814 -161.309586 -56.076321
v 120.001814 -161.309586 53.981971
vt 0.089261 0.183416
vt 0.294630 0.044630
vt 0.089261 0.044630
vt 0.294630 0.044630
vt 0.089261 0.272315
vt 0.089261 0.044630
vt 0.294630 0.955370
vt 0.089261 0.727685
vt 0.089261 0.955370
vt 0.089261 0.629430
vt 0.294630 0.797853
vt 0.089261 0.892891
vt 0.910739 0.727685
vt 0.705370 0.955370
vt 0.910739 0.866471
vt 0.705370 0.797853
vt 0.910739 0.629430
vt 0.910739 0.824652
vt 0.705370 0.044630
vt 0.910739 0.272315
vt 0.910739 0.044630
vt 0.910739 0.272315
vt 0.705370 0.044630
vt 0.910739 0.044630
vn -0.695349 -0.156300 0.701470
vn -0.773869 -0.624641 0.104645
vn -0.086649 -0.952403 0.292267
vn 0.808534 -0.577075 0.115135
vn 0.317532 -0.121961 0.940372
vn 0.177736 -0.516419 0.837688
vn -0.660408 0.746638 0.079962
vn -0.503961 0.193566 0.841757
vn -0.111081 0.413014 0.903925
vn 0.743669 0.184615 0.642553
vn 0.957797 0.281695 0.057213
vn 0.305911 0.924415 0.227762
vn -0.926216 0.139997 -0.350036
vn -0.374593 0.872668 -0.313259
vn -0.047201 0.262597 -0.963751
vn 0.606492 0.780950 -0.149281
vn 0.839017 0.278562 -0.467390
vn 0.199747 0.831102 -0.519010
vn -0.503133 -0.842902 -0.190721
vn -0.692595 -0.161654 -0.702980
vn -0.177736 -0.516419 -0.837688
vn 0.580056 -0.130813 -0.804004
vn 0.699315 -0.697664 -0.155639
vn 0.103538 -0.866690 -0.487984
s 1
g pCube1
f 33/25/25 46/26/26 25/27/27
f 48/28/28 35/29/29 26/30/30
f 37/31/31 34/32/32 27/33/33
f 36/34/34 39/35/35 28/36/36
f 41/37/37 38/38/38 29/39/39
f 25/27/27 26/30/30 33/25/25
f 28/36/36 27/33/33 36/34/34
f 36/34/34 27/33/33 35/29/29
f 26/30/30 35/29/29 33/25/25
f 33/25/25 35/29/29 34/32/32
f 35/29/29 27/33/33 34/32/32
f 40/40/40 43/41/41 30/42/42
f 45/43/43 42/44/44 31/45/45
f 39/35/35 40/40/40 28/36/36
f 29/39/39 38/38/38 30/42/42
f 27/33/33 28/36/36 37/31/31
f 40/40/40 30/42/42 28/36/36
f 28/36/36 30/42/42 37/31/31
f 37/31/31 30/42/42 38/38/38
f 44/46/46 47/47/47 32/48/48
f 45/43/43 46/26/26 42/44/44
f 38/38/38 41/37/37 37/31/31
f 42/44/44 46/26/26 41/37/37
f 34/32/32 37/31/31 33/25/25
f 37/31/31 41/37/37 33/25/25
f 46/26/26 33/25/25 41/37/37
f 40/40/40 39/35/35 43/41/41
f 43/41/41 39/35/35 44/46/46
f 44/46/46 39/35/35 47/47/47
f 47/47/47 39/35/35 48/28/28
f 39/35/35 36/34/34 48/28/28
f 35/29/29 48/28/28 36/34/34
f 26/30/30 25/27/27 48/28/28
f 31/45/45 32/48/48 45/43/43
f 45/43/43 32/48/48 46/26/26
f 48/28/28 25/27/27 47/47/47
f 47/47/47 25/27/27 32/48/48
f 32/48/48 25/27/27 46/26/26
f 41/37/37 29/39/39 42/44/44
f 42/44/44 29/39/39 31/45/45
f 31/45/45 29/39/39 32/48/48
f 32/48/48 29/39/39 44/46/46
f 29/39/39 30/42/42 44/46/46
f 30/42/42 43/41/41 44/46/46
