# j.c. saved from ObjMesh class
# points
v 0.539453 0.500000 -0.843329
v 0.550000 0.500000 -0.679501
v 0.550000 -0.000000 -0.679500
v 0.539453 -0.000000 -0.843328
v 0.272547 0.500000 -0.625290
v 0.273250 0.500000 -0.720001
v 0.273250 -0.000000 -0.720000
v 0.272547 -0.000000 -0.625289
v 0.507813 0.500000 -0.992814
v 0.507812 -0.000000 -0.992812
v 0.455078 0.500000 -1.127950
v 0.455078 -0.000000 -1.127950
v 0.381250 0.500000 -1.248750
v 0.381250 -0.000000 -1.248750
v 0.297719 0.500000 -1.343250
v 0.297719 -0.000000 -1.343250
v 0.206875 0.500000 -1.410750
v 0.206875 -0.000000 -1.410750
v 0.108719 0.500000 -1.451250
v 0.108719 -0.000000 -1.451250
v 0.003250 0.500000 -1.464750
v 0.003250 -0.000000 -1.464750
v -0.102781 0.500000 -1.451670
v -0.102781 -0.000000 -1.451670
v -0.202625 0.500000 -1.412440
v -0.202625 -0.000000 -1.412440
v -0.296281 0.500000 -1.347050
v -0.296281 -0.000000 -1.347050
v -0.383750 0.500000 -1.255500
v -0.383750 -0.000000 -1.255500
v -0.460531 0.500000 -1.140190
v -0.460531 -0.000000 -1.140190
v -0.515375 0.500000 -1.014750
v -0.515375 -0.000000 -1.014750
v -0.548281 0.500000 -0.879188
v -0.548281 -0.000000 -0.879187
v -0.559250 0.500000 -0.733501
v -0.559250 -0.000000 -0.733500
v -0.542375 0.500000 -0.408376
v -0.542375 -0.000000 -0.408375
v -0.521281 0.500000 -0.290532
v -0.521281 -0.000000 -0.290531
v -0.491750 0.500000 -0.202501
v -0.491750 -0.000000 -0.202500
v -0.427484 0.500000 -0.105470
v -0.427484 -0.000000 -0.105469
v -0.335938 -0.000000 -0.034875
v -0.335937 0.500000 -0.034876
v -0.217109 0.000000 0.009281
v -0.217109 0.500000 0.009280
v -0.071000 0.000000 0.027000
v -0.071000 0.500000 0.026999
v 0.092687 0.000000 0.019266
v 0.092688 0.500000 0.019265
v 0.230500 -0.000000 -0.015188
v 0.230500 0.500000 -0.015188
v 0.342437 -0.000000 -0.076359
v 0.342438 0.500000 -0.076360
v 0.428500 0.500000 -0.164251
v 0.428500 -0.000000 -0.164250
v 0.481656 0.500000 -0.258892
v 0.481656 -0.000000 -0.258891
v 0.519625 0.500000 -0.376314
v 0.519625 -0.000000 -0.376312
v 0.542406 0.500000 -0.516517
v 0.542406 -0.000000 -0.516516
v 0.259188 0.500000 -0.539157
v 0.259187 -0.000000 -0.539156
v 0.233172 0.500000 -0.461602
v 0.233172 -0.000000 -0.461601
v 0.194500 0.500000 -0.392626
v 0.194500 -0.000000 -0.392625
v 0.146125 0.500000 -0.336306
v 0.146125 -0.000000 -0.336305
v 0.091000 0.500000 -0.296720
v 0.091000 -0.000000 -0.296719
v 0.029125 0.500000 -0.273868
v 0.029125 -0.000000 -0.273867
v -0.039500 0.500000 -0.267751
v -0.039500 -0.000000 -0.267750
v -0.102781 0.500000 -0.276751
v -0.102781 -0.000000 -0.276750
v -0.155375 0.500000 -0.299251
v -0.155375 -0.000000 -0.299250
v -0.197281 0.500000 -0.335251
v -0.197281 -0.000000 -0.335250
v -0.228500 0.500000 -0.384751
v -0.228500 -0.000000 -0.384750
v -0.248047 0.500000 -0.441985
v -0.248047 -0.000000 -0.441984
v -0.261687 0.500000 -0.516938
v -0.261688 -0.000000 -0.516937
v -0.271250 0.500000 -0.720001
v -0.271250 -0.000000 -0.720000
v -0.263094 0.500000 -0.825891
v -0.263094 -0.000000 -0.825891
v -0.240875 0.500000 -0.918563
v -0.240875 -0.000000 -0.918562
v -0.204594 0.500000 -0.998016
v -0.204594 -0.000000 -0.998016
v -0.154250 0.500000 -1.064250
v -0.154250 -0.000000 -1.064250
v -0.079438 -0.000000 -1.122190
v -0.079437 0.500000 -1.122190
v 0.005500 -0.000000 -1.152000
v 0.005500 0.500000 -1.152000
v 0.049937 -0.000000 -1.145530
v 0.049938 0.500000 -1.145530
v 0.093250 -0.000000 -1.123880
v 0.093250 0.500000 -1.123880
v 0.135438 -0.000000 -1.087030
v 0.135438 0.500000 -1.087030
v 0.176500 0.500000 -1.035000
v 0.176500 -0.000000 -1.035000
v 0.214610 0.500000 -0.967220
v 0.214609 -0.000000 -0.967219
v 0.243438 0.500000 -0.892126
v 0.243437 -0.000000 -0.892125
v 0.262985 0.500000 -0.809720
v 0.262984 -0.000000 -0.809719
# UVs
vt 0.000000 0.000000
# Normals
vn 0.993695 -0.000000 -0.112114
vn 0.999954 0.000000 0.009627
vn 0.999626 -0.000000 -0.027353
vn 0.987144 -0.000001 -0.159836
vn -0.998421 -0.000000 -0.056170
vn -0.997300 0.000001 0.073430
vn -0.999455 0.000000 0.033000
vn -0.994482 0.000000 -0.104904
vn 0.965608 -0.000002 -0.260001
vn 0.949981 -0.000002 -0.312307
vn 0.908619 -0.000001 -0.417626
vn 0.882423 0.000000 -0.470456
vn 0.821395 0.000000 -0.570360
vn 0.786606 0.000000 -0.617455
vn 0.701673 0.000000 -0.712499
vn 0.650481 0.000000 -0.759522
vn 0.528344 0.000000 -0.849030
vn 0.456187 0.000000 -0.889884
vn 0.298910 0.000000 -0.954281
vn 0.213432 0.000000 -0.976958
vn 0.044139 0.000000 -0.999025
vn -0.039574 0.000000 -0.999217
vn -0.204960 0.000000 -0.978770
vn -0.286623 0.000000 -0.958044
vn -0.437304 0.000000 -0.899314
vn -0.506652 0.000000 -0.862151
vn -0.625398 0.000000 -0.780306
vn -0.675809 0.000000 -0.737077
vn -0.762074 0.000000 -0.647490
vn -0.798638 0.000000 -0.601812
vn -0.863267 0.000000 -0.504747
vn -0.891329 0.000000 -0.453358
vn -0.937917 0.000000 -0.346861
vn -0.956488 -0.000000 -0.291772
vn -0.983146 -0.000000 -0.182823
vn -0.991637 -0.000000 -0.129062
vn -0.999461 -0.000000 -0.032834
vn -0.999954 0.000000 0.009546
vn -0.995624 0.000000 0.093451
vn -0.990848 0.000000 0.134979
vn -0.974586 0.000000 0.224015
vn -0.962464 0.000001 0.271409
vn -0.916901 0.000001 0.399115
vn -0.878490 0.000001 0.477760
vn -0.732063 0.000002 0.681236
vn -0.732064 0.000001 0.681236
vn -0.528521 0.000002 0.848921
vn -0.440189 0.000002 0.897905
vn -0.274026 0.000002 0.961722
vn -0.197580 0.000002 0.980287
vn -0.064731 0.000002 0.997903
vn -0.008693 0.000002 0.999962
vn 0.112801 0.000002 0.993618
vn 0.178198 0.000001 0.983995
vn 0.323878 0.000000 0.946099
vn 0.403455 0.000000 0.914999
vn 0.603611 0.000001 0.797279
vn 0.603613 0.000000 0.797278
vn 0.772898 0.000001 0.634531
vn 0.825766 0.000001 0.564013
vn 0.902390 0.000001 0.430920
vn 0.929042 0.000001 0.369975
vn 0.965814 0.000001 0.259237
vn 0.977698 0.000001 0.210015
vn 0.992454 0.000000 0.122614
vn 0.996414 0.000000 0.084612
vn -0.977945 0.000001 -0.208861
vn -0.964535 0.000001 -0.263956
vn -0.926417 -0.000000 -0.376500
vn -0.901045 -0.000001 -0.433725
vn -0.838040 -0.000001 -0.545608
vn -0.799982 -0.000001 -0.600024
vn -0.704597 -0.000001 -0.709608
vn -0.645796 -0.000002 -0.763510
vn -0.508427 -0.000002 -0.861105
vn -0.428841 -0.000002 -0.903380
vn -0.262606 -0.000002 -0.964903
vn -0.176044 -0.000002 -0.984382
vn -0.012327 -0.000002 -0.999924
vn 0.064656 -0.000002 -0.997908
vn 0.226717 -0.000002 -0.973961
vn 0.311541 -0.000002 -0.950233
vn 0.484437 -0.000002 -0.874826
vn 0.571439 -0.000002 -0.820644
vn 0.723504 -0.000001 -0.690320
vn 0.788882 -0.000001 -0.614545
vn 0.884685 -0.000001 -0.466190
vn 0.918389 -0.000001 -0.395678
vn 0.961207 -0.000001 -0.275827
vn 0.973741 -0.000001 -0.227659
vn 0.990803 -0.000002 -0.135311
vn 0.995830 -0.000001 -0.091223
vn 0.999983 -0.000001 -0.005771
vn 0.999367 0.000000 0.035579
vn 0.991609 0.000000 0.129275
vn 0.983384 0.000000 0.181540
vn 0.955462 0.000000 0.295115
vn 0.934445 0.000000 0.356108
vn 0.876584 0.000000 0.481249
vn 0.838536 0.000000 0.544846
vn 0.710299 -0.000000 0.703900
vn 0.710300 0.000000 0.703899
vn 0.524598 -0.000001 0.851350
vn 0.429796 -0.000001 0.902926
vn 0.177296 -0.000000 0.984158
vn 0.014713 0.000000 0.999892
vn -0.247881 0.000000 0.968791
vn -0.350044 0.000000 0.936733
vn -0.521099 0.000000 0.853497
vn -0.591855 0.000000 0.806044
vn -0.724508 0.000000 0.689267
vn -0.724508 0.000000 0.689266
vn -0.816083 0.000000 0.577935
vn -0.845057 0.000001 0.534677
vn -0.894410 0.000002 0.447247
vn -0.915094 0.000003 0.403240
vn -0.948596 0.000003 0.316488
vn -0.961766 0.000002 0.273873
vn -0.981383 0.000002 0.192059
vn -0.988233 0.000002 0.152958
vn 0.000000 1.000000 0.000000
vn -0.000000 -1.000000 0.000000
g font3d/01.obj
mtllib default.mtl
usemtl default
# Faces
f 1/1/1 2/1/2 3/1/3 
f 1/1/1 3/1/3 4/1/4 
f 5/1/5 6/1/6 7/1/7 
f 5/1/5 7/1/7 8/1/8 
f 9/1/9 1/1/1 4/1/4 
f 9/1/9 4/1/4 10/1/10 
f 11/1/11 9/1/9 10/1/10 
f 11/1/11 10/1/10 12/1/12 
f 13/1/13 11/1/11 12/1/12 
f 13/1/13 12/1/12 14/1/14 
f 15/1/15 13/1/13 14/1/14 
f 15/1/15 14/1/14 16/1/16 
f 15/1/15 16/1/16 17/1/17 
f 17/1/17 16/1/16 18/1/18 
f 17/1/17 18/1/18 19/1/19 
f 19/1/19 18/1/18 20/1/20 
f 19/1/19 20/1/20 21/1/21 
f 21/1/21 20/1/20 22/1/22 
f 21/1/21 22/1/22 23/1/23 
f 23/1/23 22/1/22 24/1/24 
f 23/1/23 24/1/24 25/1/25 
f 25/1/25 24/1/24 26/1/26 
f 25/1/25 26/1/26 27/1/27 
f 27/1/27 26/1/26 28/1/28 
f 29/1/29 27/1/27 28/1/28 
f 29/1/29 28/1/28 30/1/30 
f 31/1/31 29/1/29 30/1/30 
f 31/1/31 30/1/30 32/1/32 
f 33/1/33 31/1/31 32/1/32 
f 33/1/33 32/1/32 34/1/34 
f 35/1/35 33/1/33 34/1/34 
f 35/1/35 34/1/34 36/1/36 
f 37/1/37 35/1/35 36/1/36 
f 37/1/37 36/1/36 38/1/38 
f 39/1/39 37/1/37 38/1/38 
f 39/1/39 38/1/38 40/1/40 
f 41/1/41 39/1/39 40/1/40 
f 41/1/41 40/1/40 42/1/42 
f 43/1/43 41/1/41 42/1/42 
f 43/1/43 42/1/42 44/1/44 
f 45/1/45 43/1/43 44/1/44 
f 45/1/45 44/1/44 46/1/46 
f 47/1/47 48/1/48 45/1/45 
f 47/1/47 45/1/45 46/1/46 
f 49/1/49 50/1/50 48/1/48 
f 49/1/49 48/1/48 47/1/47 
f 51/1/51 52/1/52 50/1/50 
f 51/1/51 50/1/50 49/1/49 
f 53/1/53 54/1/54 52/1/52 
f 53/1/53 52/1/52 51/1/51 
f 55/1/55 56/1/56 54/1/54 
f 55/1/55 54/1/54 53/1/53 
f 57/1/57 58/1/58 56/1/56 
f 57/1/57 56/1/56 55/1/55 
f 59/1/59 58/1/58 57/1/57 
f 59/1/59 57/1/57 60/1/60 
f 61/1/61 59/1/59 60/1/60 
f 61/1/61 60/1/60 62/1/62 
f 63/1/63 61/1/61 62/1/62 
f 63/1/63 62/1/62 64/1/64 
f 65/1/65 63/1/63 64/1/64 
f 65/1/65 64/1/64 66/1/66 
f 2/1/2 65/1/65 66/1/66 
f 2/1/2 66/1/66 3/1/3 
f 67/1/67 5/1/5 8/1/8 
f 67/1/67 8/1/8 68/1/68 
f 69/1/69 67/1/67 68/1/68 
f 69/1/69 68/1/68 70/1/70 
f 71/1/71 69/1/69 70/1/70 
f 71/1/71 70/1/70 72/1/72 
f 73/1/73 71/1/71 72/1/72 
f 73/1/73 72/1/72 74/1/74 
f 73/1/73 74/1/74 75/1/75 
f 75/1/75 74/1/74 76/1/76 
f 75/1/75 76/1/76 77/1/77 
f 77/1/77 76/1/76 78/1/78 
f 77/1/77 78/1/78 79/1/79 
f 79/1/79 78/1/78 80/1/80 
f 79/1/79 80/1/80 81/1/81 
f 81/1/81 80/1/80 82/1/82 
f 81/1/81 82/1/82 83/1/83 
f 83/1/83 82/1/82 84/1/84 
f 83/1/83 84/1/84 85/1/85 
f 85/1/85 84/1/84 86/1/86 
f 87/1/87 85/1/85 86/1/86 
f 87/1/87 86/1/86 88/1/88 
f 89/1/89 87/1/87 88/1/88 
f 89/1/89 88/1/88 90/1/90 
f 91/1/91 89/1/89 90/1/90 
f 91/1/91 90/1/90 92/1/92 
f 93/1/93 91/1/91 92/1/92 
f 93/1/93 92/1/92 94/1/94 
f 95/1/95 93/1/93 94/1/94 
f 95/1/95 94/1/94 96/1/96 
f 97/1/97 95/1/95 96/1/96 
f 97/1/97 96/1/96 98/1/98 
f 99/1/99 97/1/97 98/1/98 
f 99/1/99 98/1/98 100/1/100 
f 101/1/101 99/1/99 100/1/100 
f 101/1/101 100/1/100 102/1/102 
f 103/1/103 104/1/104 101/1/101 
f 103/1/103 101/1/101 102/1/102 
f 105/1/105 106/1/106 104/1/104 
f 105/1/105 104/1/104 103/1/103 
f 107/1/107 108/1/108 106/1/106 
f 107/1/107 106/1/106 105/1/105 
f 109/1/109 110/1/110 108/1/108 
f 109/1/109 108/1/108 107/1/107 
f 111/1/111 112/1/112 110/1/110 
f 111/1/111 110/1/110 109/1/109 
f 113/1/113 112/1/112 111/1/111 
f 113/1/113 111/1/111 114/1/114 
f 115/1/115 113/1/113 114/1/114 
f 115/1/115 114/1/114 116/1/116 
f 117/1/117 115/1/115 116/1/116 
f 117/1/117 116/1/116 118/1/118 
f 119/1/119 117/1/117 118/1/118 
f 119/1/119 118/1/118 120/1/120 
f 6/1/6 119/1/119 120/1/120 
f 6/1/6 120/1/120 7/1/7 
g font3d/02.obj
mtllib default.mtl
usemtl default
# Faces
f 13/1/121 106/1/121 108/1/121 
f 13/1/121 108/1/121 11/1/121 
f 11/1/121 108/1/121 110/1/121 
f 11/1/121 110/1/121 112/1/121 
f 11/1/121 112/1/121 113/1/121 
f 11/1/121 113/1/121 9/1/121 
f 9/1/121 113/1/121 115/1/121 
f 9/1/121 115/1/121 117/1/121 
f 9/1/121 117/1/121 1/1/121 
f 1/1/121 117/1/121 119/1/121 
f 1/1/121 119/1/121 6/1/121 
f 1/1/121 6/1/121 2/1/121 
f 2/1/121 6/1/121 5/1/121 
f 2/1/121 5/1/121 67/1/121 
f 2/1/121 67/1/121 65/1/121 
f 65/1/121 67/1/121 69/1/121 
f 65/1/121 69/1/121 71/1/121 
f 65/1/121 71/1/121 63/1/121 
f 63/1/121 71/1/121 73/1/121 
f 63/1/121 73/1/121 75/1/121 
f 63/1/121 75/1/121 77/1/121 
f 63/1/121 77/1/121 61/1/121 
f 77/1/121 79/1/121 61/1/121 
f 21/1/121 23/1/121 19/1/121 
f 19/1/121 23/1/121 25/1/121 
f 19/1/121 25/1/121 17/1/121 
f 17/1/121 25/1/121 27/1/121 
f 17/1/121 27/1/121 15/1/121 
f 15/1/121 27/1/121 29/1/121 
f 15/1/121 29/1/121 13/1/121 
f 13/1/121 29/1/121 106/1/121 
f 106/1/121 29/1/121 31/1/121 
f 106/1/121 31/1/121 104/1/121 
f 104/1/121 31/1/121 101/1/121 
f 101/1/121 31/1/121 33/1/121 
f 101/1/121 33/1/121 99/1/121 
f 99/1/121 33/1/121 97/1/121 
f 97/1/121 33/1/121 35/1/121 
f 97/1/121 35/1/121 95/1/121 
f 95/1/121 35/1/121 37/1/121 
f 95/1/121 37/1/121 93/1/121 
f 93/1/121 37/1/121 91/1/121 
f 91/1/121 37/1/121 89/1/121 
f 89/1/121 37/1/121 39/1/121 
f 89/1/121 39/1/121 87/1/121 
f 87/1/121 39/1/121 85/1/121 
f 85/1/121 39/1/121 83/1/121 
f 83/1/121 39/1/121 41/1/121 
f 83/1/121 41/1/121 81/1/121 
f 81/1/121 41/1/121 79/1/121 
f 79/1/121 41/1/121 43/1/121 
f 61/1/121 79/1/121 43/1/121 
f 61/1/121 43/1/121 59/1/121 
f 59/1/121 43/1/121 45/1/121 
f 59/1/121 45/1/121 58/1/121 
f 58/1/121 45/1/121 48/1/121 
f 58/1/121 48/1/121 56/1/121 
f 56/1/121 48/1/121 50/1/121 
f 56/1/121 50/1/121 54/1/121 
f 54/1/121 50/1/121 52/1/121 
f 105/1/122 14/1/122 107/1/122 
f 107/1/122 14/1/122 12/1/122 
f 107/1/122 12/1/122 109/1/122 
f 109/1/122 12/1/122 111/1/122 
f 111/1/122 12/1/122 114/1/122 
f 114/1/122 12/1/122 10/1/122 
f 114/1/122 10/1/122 116/1/122 
f 116/1/122 10/1/122 118/1/122 
f 118/1/122 10/1/122 4/1/122 
f 118/1/122 4/1/122 120/1/122 
f 120/1/122 4/1/122 7/1/122 
f 7/1/122 4/1/122 3/1/122 
f 7/1/122 3/1/122 8/1/122 
f 8/1/122 3/1/122 68/1/122 
f 68/1/122 3/1/122 66/1/122 
f 68/1/122 66/1/122 70/1/122 
f 70/1/122 66/1/122 72/1/122 
f 72/1/122 66/1/122 64/1/122 
f 72/1/122 64/1/122 74/1/122 
f 74/1/122 64/1/122 76/1/122 
f 76/1/122 64/1/122 78/1/122 
f 78/1/122 64/1/122 62/1/122 
f 80/1/122 78/1/122 62/1/122 
f 24/1/122 22/1/122 20/1/122 
f 24/1/122 20/1/122 26/1/122 
f 26/1/122 20/1/122 18/1/122 
f 26/1/122 18/1/122 28/1/122 
f 28/1/122 18/1/122 16/1/122 
f 28/1/122 16/1/122 30/1/122 
f 30/1/122 16/1/122 14/1/122 
f 30/1/122 14/1/122 105/1/122 
f 30/1/122 105/1/122 32/1/122 
f 32/1/122 105/1/122 103/1/122 
f 32/1/122 103/1/122 102/1/122 
f 32/1/122 102/1/122 34/1/122 
f 34/1/122 102/1/122 100/1/122 
f 34/1/122 100/1/122 98/1/122 
f 34/1/122 98/1/122 36/1/122 
f 36/1/122 98/1/122 96/1/122 
f 36/1/122 96/1/122 38/1/122 
f 38/1/122 96/1/122 94/1/122 
f 38/1/122 94/1/122 92/1/122 
f 38/1/122 92/1/122 90/1/122 
f 38/1/122 90/1/122 40/1/122 
f 40/1/122 90/1/122 88/1/122 
f 40/1/122 88/1/122 86/1/122 
f 40/1/122 86/1/122 84/1/122 
f 40/1/122 84/1/122 42/1/122 
f 42/1/122 84/1/122 82/1/122 
f 42/1/122 82/1/122 80/1/122 
f 42/1/122 80/1/122 44/1/122 
f 80/1/122 62/1/122 44/1/122 
f 44/1/122 62/1/122 60/1/122 
f 44/1/122 60/1/122 46/1/122 
f 46/1/122 60/1/122 57/1/122 
f 46/1/122 57/1/122 47/1/122 
f 47/1/122 57/1/122 55/1/122 
f 47/1/122 55/1/122 49/1/122 
f 49/1/122 55/1/122 53/1/122 
f 49/1/122 53/1/122 51/1/122 
