# j.c. saved from ObjMesh class
# points
v 0.101563 0.500000 -0.965812
v 0.278750 0.500000 -1.147500
v 0.278750 -0.000000 -1.147500
v 0.101562 -0.000000 -0.965812
v -0.052000 0.500000 -0.780750
v -0.052000 -0.000000 -0.780750
v -0.204859 0.500000 -0.559125
v -0.204859 -0.000000 -0.559125
v -0.321437 0.500000 -0.342000
v -0.321437 -0.000000 -0.342000
v -0.401734 0.500000 -0.129375
v -0.401734 -0.000000 -0.129375
v -0.445750 0.500000 0.078750
v -0.445750 0.000000 0.078750
v -0.035125 0.500000 -0.029813
v -0.058750 0.500000 0.184500
v -0.058750 0.000000 0.184500
v -0.035125 -0.000000 -0.029812
v 0.017750 0.500000 -0.240750
v 0.017750 -0.000000 -0.240750
v 0.113797 0.500000 -0.483047
v 0.113797 -0.000000 -0.483047
v 0.242188 0.500000 -0.710438
v 0.242187 -0.000000 -0.710437
v 0.402922 0.500000 -0.922922
v 0.402922 -0.000000 -0.922922
v 0.596000 0.500000 -1.120500
v 0.596000 -0.000000 -1.120500
v 0.528500 0.500000 -1.491750
v -0.445750 0.500000 -1.464750
v -0.430000 0.500000 -1.044000
v 0.528500 -0.000000 -1.491750
v -0.445750 -0.000000 -1.464750
v -0.430000 -0.000000 -1.044000
# UVs
vt 0.000000 0.000000
# Normals
vn -0.734324 0.000001 -0.678800
vn -0.715919 0.000000 -0.698183
vn -0.715918 0.000001 -0.698184
vn -0.752217 0.000001 -0.658915
vn -0.788128 0.000001 -0.615512
vn -0.806020 0.000000 -0.591889
vn -0.843627 0.000000 -0.536929
vn -0.862937 0.000000 -0.505311
vn -0.900931 0.000000 -0.433962
vn -0.919124 0.000000 -0.393968
vn -0.952260 0.000000 -0.305289
vn -0.966579 0.000000 -0.256369
vn -0.978360 0.000000 -0.206912
vn 0.988006 0.000000 0.154413
vn 0.993979 0.000000 0.109572
vn 0.979994 0.000000 0.199028
vn 0.958384 0.000000 0.285482
vn 0.944903 0.000000 0.327350
vn 0.911901 0.000000 0.410410
vn 0.892247 -0.000000 0.451549
vn 0.848045 -0.000000 0.529925
vn 0.823576 -0.000000 0.567206
vn 0.771449 -0.000000 0.636291
vn 0.743961 0.000000 0.668223
vn 0.715204 0.000000 0.698915
vn 0.000000 1.000000 0.000000
vn 0.983870 0.000000 -0.178885
vn -0.027703 -0.000000 -0.999616
vn -0.999300 0.000000 0.037407
vn 0.144499 -0.000000 0.989505
vn -0.263592 0.000000 0.964634
vn 0.000000 -1.000000 0.000000
g font3d/71.obj
mtllib default.mtl
usemtl default
# Faces
f 1/1/1 2/1/2 3/1/3 
f 1/1/1 3/1/3 4/1/4 
f 5/1/5 1/1/1 4/1/4 
f 5/1/5 4/1/4 6/1/6 
f 7/1/7 5/1/5 6/1/6 
f 7/1/7 6/1/6 8/1/8 
f 9/1/9 7/1/7 8/1/8 
f 9/1/9 8/1/8 10/1/10 
f 11/1/11 9/1/9 10/1/10 
f 11/1/11 10/1/10 12/1/12 
f 13/1/13 11/1/11 12/1/12 
f 13/1/13 12/1/12 14/1/13 
f 15/1/14 16/1/15 17/1/15 
f 15/1/14 17/1/15 18/1/16 
f 19/1/17 15/1/14 18/1/16 
f 19/1/17 18/1/16 20/1/18 
f 21/1/19 19/1/17 20/1/18 
f 21/1/19 20/1/18 22/1/20 
f 23/1/21 21/1/19 22/1/20 
f 23/1/21 22/1/20 24/1/22 
f 25/1/23 23/1/21 24/1/22 
f 25/1/23 24/1/22 26/1/24 
f 27/1/25 25/1/23 26/1/24 
f 27/1/25 26/1/24 28/1/25 
g font3d/72.obj
mtllib default.mtl
usemtl default
# Faces
f 29/1/26 30/1/26 2/1/26 
f 29/1/26 2/1/26 27/1/26 
f 27/1/26 2/1/26 1/1/26 
f 27/1/26 1/1/26 25/1/26 
f 25/1/26 1/1/26 5/1/26 
f 25/1/26 5/1/26 23/1/26 
f 23/1/26 5/1/26 7/1/26 
f 23/1/26 7/1/26 21/1/26 
f 21/1/26 7/1/26 9/1/26 
f 21/1/26 9/1/26 19/1/26 
f 19/1/26 9/1/26 11/1/26 
f 19/1/26 11/1/26 15/1/26 
f 15/1/26 11/1/26 13/1/26 
f 15/1/26 13/1/26 16/1/26 
f 30/1/26 31/1/26 2/1/26 
f 29/1/27 27/1/27 28/1/27 
f 29/1/27 28/1/27 32/1/27 
f 29/1/28 32/1/28 33/1/28 
f 29/1/28 33/1/28 30/1/28 
f 31/1/29 30/1/29 33/1/29 
f 31/1/29 33/1/29 34/1/29 
f 3/1/30 2/1/30 34/1/30 
f 34/1/30 2/1/30 31/1/30 
f 17/1/31 16/1/31 13/1/31 
f 17/1/31 13/1/31 14/1/31 
f 33/1/32 32/1/32 3/1/32 
f 3/1/32 32/1/32 28/1/32 
f 3/1/32 28/1/32 4/1/32 
f 4/1/32 28/1/32 26/1/32 
f 4/1/32 26/1/32 6/1/32 
f 6/1/32 26/1/32 24/1/32 
f 6/1/32 24/1/32 8/1/32 
f 8/1/32 24/1/32 22/1/32 
f 8/1/32 22/1/32 10/1/32 
f 10/1/32 22/1/32 20/1/32 
f 10/1/32 20/1/32 12/1/32 
f 12/1/32 20/1/32 18/1/32 
f 12/1/32 18/1/32 14/1/32 
f 14/1/32 18/1/32 17/1/32 
f 3/1/32 34/1/32 33/1/32 
