# j.c. saved from ObjMesh class
# points
v 0.729000 -0.000000 -1.154250
v 0.729000 0.500000 -1.154250
v 0.695250 0.500000 -1.152000
v 0.695250 -0.000000 -1.152000
v 1.033740 0.500000 -0.450844
v 1.068750 0.500000 -0.517500
v 1.068750 -0.000000 -0.517500
v 1.033740 -0.000000 -0.450844
v 0.991688 0.500000 -0.397125
v 0.991688 -0.000000 -0.397125
v 0.942610 0.500000 -0.356344
v 0.942610 -0.000000 -0.356344
v 0.886500 0.500000 -0.328500
v 0.886500 -0.000000 -0.328500
v 0.802688 0.500000 -0.304875
v 0.802688 -0.000000 -0.304875
v 0.726750 0.500000 -0.297000
v 0.726750 -0.000000 -0.297000
v 0.665227 0.500000 -0.302590
v 0.665227 -0.000000 -0.302590
v 0.611156 0.500000 -0.319359
v 0.611156 -0.000000 -0.319359
v 0.564539 0.500000 -0.347309
v 0.564539 -0.000000 -0.347309
v 0.525375 0.500000 -0.386438
v 0.525375 -0.000000 -0.386438
v 0.493664 0.500000 -0.436746
v 0.493664 -0.000000 -0.436746
v 0.469406 0.500000 -0.498234
v 0.469406 -0.000000 -0.498234
v 0.443250 0.500000 -0.654750
v 0.443250 -0.000000 -0.654750
v 1.303310 0.500000 -0.931500
v 1.323000 0.500000 -0.731250
v 1.323000 -0.000000 -0.731250
v 1.303310 -0.000000 -0.931500
v 1.257750 0.500000 -1.100250
v 1.257750 -0.000000 -1.100250
v 1.218550 0.500000 -1.186740
v 1.218550 -0.000000 -1.186740
v 1.171830 0.500000 -1.261690
v 1.171830 -0.000000 -1.261690
v 1.117580 0.500000 -1.325110
v 1.117580 -0.000000 -1.325110
v 1.055810 0.500000 -1.377000
v 1.055810 -0.000000 -1.377000
v 0.986520 0.500000 -1.417360
v 0.986520 -0.000000 -1.417360
v 0.909704 0.500000 -1.446190
v 0.909703 -0.000000 -1.446190
v 0.825364 0.500000 -1.463490
v 0.825363 -0.000000 -1.463480
v 0.733500 0.500000 -1.469250
v 0.733500 -0.000000 -1.469250
v 0.639000 0.500000 -1.464750
v 0.639000 -0.000000 -1.464750
v 0.517641 0.500000 -1.434800
v 0.517641 -0.000000 -1.434800
v 0.410063 0.500000 -1.371940
v 0.410063 -0.000000 -1.371940
v 0.316266 0.500000 -1.276170
v 0.316266 -0.000000 -1.276170
v 0.236250 0.500000 -1.147500
v 0.236250 -0.000000 -1.147500
v 0.183938 0.500000 -1.015310
v 0.183938 -0.000000 -1.015310
v 0.144000 0.500000 -0.861750
v 0.144000 -0.000000 -0.861750
v 0.128250 0.500000 -0.670500
v 0.128250 -0.000000 -0.670500
v 0.133453 0.500000 -0.558984
v 0.133453 -0.000000 -0.558984
v 0.149063 0.500000 -0.456188
v 0.149063 -0.000000 -0.456188
v 0.175078 0.500000 -0.362109
v 0.175078 -0.000000 -0.362109
v 0.211500 0.500000 -0.276750
v 0.211500 -0.000000 -0.276750
v 0.279281 0.500000 -0.174234
v 0.279281 -0.000000 -0.174234
v 0.365625 -0.000000 -0.093938
v 0.365625 0.500000 -0.093938
v 0.470531 -0.000000 -0.035859
v 0.470531 0.500000 -0.035859
v 0.594000 0.000000 0.000000
v 0.594000 0.500000 -0.000000
v 0.724500 0.000000 0.013500
v 0.724500 0.500000 0.013500
v 0.817313 0.000000 0.007383
v 0.817313 0.500000 0.007383
v 0.905625 -0.000000 -0.010969
v 0.905625 0.500000 -0.010969
v 0.989438 -0.000000 -0.041555
v 0.989438 0.500000 -0.041555
v 1.068750 -0.000000 -0.084375
v 1.068750 0.500000 -0.084375
v 1.143560 -0.000000 -0.139430
v 1.143560 0.500000 -0.139430
v 1.213880 -0.000000 -0.206719
v 1.213880 0.500000 -0.206719
v 1.279690 0.500000 -0.286242
v 1.279690 -0.000000 -0.286242
v 1.341000 0.500000 -0.378000
v 1.341000 -0.000000 -0.378000
v 0.800578 -0.000000 -1.141590
v 0.800578 0.500000 -1.141590
v 0.857813 -0.000000 -1.103630
v 0.857813 0.500000 -1.103630
v 0.900704 0.500000 -1.040340
v 0.900703 -0.000000 -1.040340
v 0.929250 0.500000 -0.951750
v 0.929250 -0.000000 -0.951750
v 0.507516 0.500000 -1.001390
v 0.486000 0.500000 -0.902250
v 0.486000 -0.000000 -0.902250
v 0.507516 -0.000000 -1.001390
v 0.549563 0.500000 -1.076060
v 0.549563 -0.000000 -1.076060
v 0.612141 -0.000000 -1.126270
v 0.612141 0.500000 -1.126270
# UVs
vt 0.000000 0.000000
# Normals
vn -0.013798 0.000000 0.999905
vn -0.094550 0.000000 0.995520
vn 0.143800 0.000000 0.989607
vn 0.220673 0.000000 0.975348
vn -0.855781 0.000000 -0.517339
vn -0.885313 0.000000 -0.464996
vn -0.823033 0.000000 -0.567993
vn -0.741728 0.000000 -0.670700
vn -0.692035 0.000000 -0.721864
vn -0.577708 0.000000 -0.816243
vn -0.512456 0.000000 -0.858714
vn -0.388270 0.000000 -0.921546
vn -0.330311 0.000000 -0.943872
vn -0.215960 0.000000 -0.976402
vn -0.159724 0.000000 -0.987162
vn -0.038766 0.000000 -0.999248
vn 0.026051 0.000000 -0.999661
vn 0.159845 0.000000 -0.987142
vn 0.228758 0.000000 -0.973483
vn 0.371242 0.000000 -0.928536
vn 0.444377 0.000000 -0.895840
vn 0.582284 0.000000 -0.812985
vn 0.646903 0.000000 -0.762572
vn 0.757376 0.000000 -0.652979
vn 0.804025 0.000000 -0.594595
vn 0.877444 0.000000 -0.479679
vn 0.905640 0.000000 -0.424046
vn 0.953600 0.000000 -0.301078
vn 0.972391 0.000000 -0.233359
vn 0.986322 0.000000 -0.164828
vn 0.988290 0.000000 -0.152586
vn 0.995201 0.000000 -0.097855
vn 0.978337 0.000000 -0.207018
vn 0.949990 0.000000 -0.312280
vn 0.931732 0.000000 -0.363148
vn 0.891809 0.000000 -0.452411
vn 0.871040 0.000000 -0.491213
vn 0.821112 0.000000 -0.570768
vn 0.791464 0.000000 -0.611216
vn 0.723182 0.000000 -0.690657
vn 0.684167 0.000000 -0.729325
vn 0.598532 0.000000 -0.801099
vn 0.551748 0.000000 -0.834011
vn 0.454103 0.000000 -0.890949
vn 0.403295 -0.000000 -0.915070
vn 0.302056 -0.000000 -0.953290
vn 0.251734 -0.000007 -0.967796
vn 0.155117 -0.000014 -0.987896
vn 0.108933 -0.000013 -0.994049
vn 0.025935 -0.000007 -0.999664
vn -0.010828 0.000000 -0.999941
vn -0.112046 0.000000 -0.993703
vn -0.176328 0.000000 -0.984331
vn -0.330921 0.000000 -0.943658
vn -0.420036 0.000000 -0.907507
vn -0.579058 0.000000 -0.815286
vn -0.649589 0.000000 -0.760286
vn -0.763398 0.000000 -0.645928
vn -0.808559 0.000000 -0.588415
vn -0.879219 0.000000 -0.476418
vn -0.906198 0.000000 -0.422854
vn -0.944064 0.000000 -0.329763
vn -0.956740 0.000000 -0.290945
vn -0.980642 0.000000 -0.195808
vn -0.990282 0.000000 -0.139077
vn -0.999229 0.000000 -0.039254
vn -0.999993 0.000000 0.003719
vn -0.996697 0.000000 0.081213
vn -0.993277 0.000000 0.115763
vn -0.981933 0.000000 0.189227
vn -0.973642 0.000000 0.228084
vn -0.951026 0.000000 0.309112
vn -0.936310 0.000000 0.351174
vn -0.894482 0.000000 0.447104
vn -0.865841 0.000000 0.500320
vn -0.762949 0.000000 0.646458
vn -0.619523 0.000000 0.784979
vn -0.553542 0.000000 0.832821
vn -0.418178 0.000000 0.908365
vn -0.349315 0.000000 0.937005
vn -0.221027 0.000000 0.975268
vn -0.162148 0.000000 0.986767
vn -0.046826 0.000000 0.998903
vn 0.009573 0.000000 0.999954
vn 0.111904 0.000000 0.993719
vn 0.157902 0.000000 0.987455
vn 0.250499 0.000000 0.968117
vn 0.297059 0.000000 0.954859
vn 0.387811 0.000000 0.921739
vn 0.432000 0.000000 0.901873
vn 0.515404 0.000000 0.856947
vn 0.554704 0.000000 0.832048
vn 0.626761 0.000000 0.779212
vn 0.659702 0.000000 0.751527
vn 0.732118 0.000000 0.681178
vn 0.791680 0.000000 0.610936
vn 0.812060 0.000000 0.583574
vn 0.831473 0.000000 0.555565
vn -0.306055 0.000000 0.952014
vn -0.434635 0.000000 0.900606
vn -0.703573 0.000000 0.710623
vn -0.703571 0.000000 0.710625
vn -0.876982 0.000001 0.480523
vn -0.918684 0.000001 0.394994
vn -0.951806 0.000001 0.306702
vn -0.951804 0.000000 0.306707
vn 0.951386 0.000000 0.308001
vn 0.977250 0.000000 0.212089
vn 0.915733 0.000000 0.401788
vn 0.762432 0.000000 0.647069
vn 0.523988 0.000000 0.851726
vn 0.412216 0.000000 0.911086
vn 0.000000 1.000000 -0.000000
vn 0.456018 0.000000 -0.889971
vn 0.086630 -0.000000 0.996241
vn 0.000000 -1.000000 0.000000
vn -0.110985 -0.000000 -0.993822
g font3d/e1.obj
mtllib default.mtl
usemtl default
# Faces
f 1/1/1 2/1/2 3/1/3 
f 1/1/1 3/1/3 4/1/4 
f 5/1/5 6/1/6 7/1/6 
f 5/1/5 7/1/6 8/1/7 
f 9/1/8 5/1/5 8/1/7 
f 9/1/8 8/1/7 10/1/9 
f 9/1/8 10/1/9 11/1/10 
f 11/1/10 10/1/9 12/1/11 
f 11/1/10 12/1/11 13/1/12 
f 13/1/12 12/1/11 14/1/13 
f 13/1/12 14/1/13 15/1/14 
f 15/1/14 14/1/13 16/1/15 
f 15/1/14 16/1/15 17/1/16 
f 17/1/16 16/1/15 18/1/17 
f 17/1/16 18/1/17 19/1/18 
f 19/1/18 18/1/17 20/1/19 
f 19/1/18 20/1/19 21/1/20 
f 21/1/20 20/1/19 22/1/21 
f 21/1/20 22/1/21 23/1/22 
f 23/1/22 22/1/21 24/1/23 
f 23/1/22 24/1/23 25/1/24 
f 25/1/24 24/1/23 26/1/25 
f 27/1/26 25/1/24 26/1/25 
f 27/1/26 26/1/25 28/1/27 
f 29/1/28 27/1/26 28/1/27 
f 29/1/28 28/1/27 30/1/29 
f 31/1/30 29/1/28 30/1/29 
f 31/1/30 30/1/29 32/1/30 
f 33/1/31 34/1/32 35/1/32 
f 33/1/31 35/1/32 36/1/33 
f 37/1/34 33/1/31 36/1/33 
f 37/1/34 36/1/33 38/1/35 
f 39/1/36 37/1/34 38/1/35 
f 39/1/36 38/1/35 40/1/37 
f 41/1/38 39/1/36 40/1/37 
f 41/1/38 40/1/37 42/1/39 
f 43/1/40 41/1/38 42/1/39 
f 43/1/40 42/1/39 44/1/41 
f 43/1/40 44/1/41 45/1/42 
f 45/1/42 44/1/41 46/1/43 
f 45/1/42 46/1/43 47/1/44 
f 47/1/44 46/1/43 48/1/45 
f 47/1/44 48/1/45 49/1/46 
f 49/1/46 48/1/45 50/1/47 
f 49/1/46 50/1/47 51/1/48 
f 51/1/48 50/1/47 52/1/49 
f 51/1/48 52/1/49 53/1/50 
f 53/1/50 52/1/49 54/1/51 
f 53/1/50 54/1/51 55/1/52 
f 55/1/52 54/1/51 56/1/53 
f 55/1/52 56/1/53 57/1/54 
f 57/1/54 56/1/53 58/1/55 
f 57/1/54 58/1/55 59/1/56 
f 59/1/56 58/1/55 60/1/57 
f 61/1/58 59/1/56 60/1/57 
f 61/1/58 60/1/57 62/1/59 
f 63/1/60 61/1/58 62/1/59 
f 63/1/60 62/1/59 64/1/61 
f 65/1/62 63/1/60 64/1/61 
f 65/1/62 64/1/61 66/1/63 
f 67/1/64 65/1/62 66/1/63 
f 67/1/64 66/1/63 68/1/65 
f 69/1/66 67/1/64 68/1/65 
f 69/1/66 68/1/65 70/1/67 
f 71/1/68 69/1/66 70/1/67 
f 71/1/68 70/1/67 72/1/69 
f 73/1/70 71/1/68 72/1/69 
f 73/1/70 72/1/69 74/1/71 
f 75/1/72 73/1/70 74/1/71 
f 75/1/72 74/1/71 76/1/73 
f 77/1/74 75/1/72 76/1/73 
f 77/1/74 76/1/73 78/1/75 
f 79/1/76 77/1/74 78/1/75 
f 79/1/76 78/1/75 80/1/76 
f 81/1/77 82/1/78 79/1/76 
f 81/1/77 79/1/76 80/1/76 
f 83/1/79 84/1/80 82/1/78 
f 83/1/79 82/1/78 81/1/77 
f 85/1/81 86/1/82 84/1/80 
f 85/1/81 84/1/80 83/1/79 
f 87/1/83 88/1/84 86/1/82 
f 87/1/83 86/1/82 85/1/81 
f 89/1/85 90/1/86 88/1/84 
f 89/1/85 88/1/84 87/1/83 
f 91/1/87 92/1/88 90/1/86 
f 91/1/87 90/1/86 89/1/85 
f 93/1/89 94/1/90 92/1/88 
f 93/1/89 92/1/88 91/1/87 
f 95/1/91 96/1/92 94/1/90 
f 95/1/91 94/1/90 93/1/89 
f 97/1/93 98/1/94 96/1/92 
f 97/1/93 96/1/92 95/1/91 
f 99/1/95 100/1/95 98/1/94 
f 99/1/95 98/1/94 97/1/93 
f 101/1/96 100/1/95 99/1/95 
f 101/1/96 99/1/95 102/1/97 
f 103/1/98 101/1/96 102/1/97 
f 103/1/98 102/1/97 104/1/98 
f 105/1/99 106/1/100 2/1/2 
f 105/1/99 2/1/2 1/1/1 
f 107/1/101 108/1/102 106/1/100 
f 107/1/101 106/1/100 105/1/99 
f 109/1/103 108/1/102 107/1/101 
f 109/1/103 107/1/101 110/1/104 
f 111/1/105 109/1/103 110/1/104 
f 111/1/105 110/1/104 112/1/106 
f 113/1/107 114/1/108 115/1/108 
f 113/1/107 115/1/108 116/1/109 
f 117/1/110 113/1/107 116/1/109 
f 117/1/110 116/1/109 118/1/110 
f 119/1/111 120/1/112 117/1/110 
f 119/1/111 117/1/110 118/1/110 
f 4/1/4 3/1/3 120/1/112 
f 4/1/4 120/1/112 119/1/111 
g font3d/e2.obj
mtllib default.mtl
usemtl default
# Faces
f 6/1/113 5/1/113 103/1/113 
f 5/1/113 9/1/113 103/1/113 
f 103/1/113 9/1/113 11/1/113 
f 103/1/113 11/1/113 13/1/113 
f 103/1/113 13/1/113 15/1/113 
f 103/1/113 15/1/113 101/1/113 
f 15/1/113 17/1/113 101/1/113 
f 53/1/113 55/1/113 51/1/113 
f 51/1/113 55/1/113 49/1/113 
f 49/1/113 55/1/113 57/1/113 
f 49/1/113 57/1/113 47/1/113 
f 47/1/113 57/1/113 45/1/113 
f 45/1/113 57/1/113 59/1/113 
f 45/1/113 59/1/113 43/1/113 
f 43/1/113 59/1/113 61/1/113 
f 43/1/113 61/1/113 41/1/113 
f 41/1/113 61/1/113 39/1/113 
f 39/1/113 61/1/113 2/1/113 
f 2/1/113 61/1/113 3/1/113 
f 3/1/113 61/1/113 63/1/113 
f 3/1/113 63/1/113 120/1/113 
f 120/1/113 63/1/113 117/1/113 
f 117/1/113 63/1/113 65/1/113 
f 117/1/113 65/1/113 113/1/113 
f 113/1/113 65/1/113 114/1/113 
f 114/1/113 65/1/113 67/1/113 
f 39/1/113 2/1/113 106/1/113 
f 39/1/113 106/1/113 108/1/113 
f 39/1/113 108/1/113 37/1/113 
f 37/1/113 108/1/113 109/1/113 
f 37/1/113 109/1/113 111/1/113 
f 37/1/113 111/1/113 33/1/113 
f 33/1/113 111/1/113 114/1/113 
f 33/1/113 114/1/113 67/1/113 
f 33/1/113 67/1/113 34/1/113 
f 34/1/113 67/1/113 69/1/113 
f 34/1/113 69/1/113 31/1/113 
f 31/1/113 69/1/113 71/1/113 
f 31/1/113 71/1/113 29/1/113 
f 29/1/113 71/1/113 73/1/113 
f 29/1/113 73/1/113 27/1/113 
f 27/1/113 73/1/113 25/1/113 
f 25/1/113 73/1/113 75/1/113 
f 25/1/113 75/1/113 23/1/113 
f 23/1/113 75/1/113 21/1/113 
f 21/1/113 75/1/113 19/1/113 
f 19/1/113 75/1/113 77/1/113 
f 17/1/113 19/1/113 77/1/113 
f 101/1/113 17/1/113 77/1/113 
f 101/1/113 77/1/113 100/1/113 
f 100/1/113 77/1/113 79/1/113 
f 100/1/113 79/1/113 98/1/113 
f 98/1/113 79/1/113 82/1/113 
f 98/1/113 82/1/113 96/1/113 
f 96/1/113 82/1/113 94/1/113 
f 94/1/113 82/1/113 84/1/113 
f 94/1/113 84/1/113 92/1/113 
f 92/1/113 84/1/113 86/1/113 
f 92/1/113 86/1/113 90/1/113 
f 90/1/113 86/1/113 88/1/113 
f 103/1/114 104/1/114 6/1/114 
f 6/1/114 104/1/114 7/1/114 
f 35/1/115 34/1/115 31/1/115 
f 35/1/115 31/1/115 32/1/115 
f 8/1/116 7/1/116 104/1/116 
f 10/1/116 8/1/116 104/1/116 
f 10/1/116 104/1/116 12/1/116 
f 12/1/116 104/1/116 14/1/116 
f 14/1/116 104/1/116 16/1/116 
f 16/1/116 104/1/116 102/1/116 
f 18/1/116 16/1/116 102/1/116 
f 56/1/116 54/1/116 52/1/116 
f 56/1/116 52/1/116 50/1/116 
f 56/1/116 50/1/116 58/1/116 
f 58/1/116 50/1/116 48/1/116 
f 58/1/116 48/1/116 46/1/116 
f 58/1/116 46/1/116 60/1/116 
f 60/1/116 46/1/116 44/1/116 
f 60/1/116 44/1/116 62/1/116 
f 62/1/116 44/1/116 42/1/116 
f 62/1/116 42/1/116 40/1/116 
f 62/1/116 40/1/116 1/1/116 
f 62/1/116 1/1/116 4/1/116 
f 62/1/116 4/1/116 64/1/116 
f 64/1/116 4/1/116 119/1/116 
f 64/1/116 119/1/116 118/1/116 
f 64/1/116 118/1/116 66/1/116 
f 66/1/116 118/1/116 116/1/116 
f 66/1/116 116/1/116 115/1/116 
f 66/1/116 115/1/116 68/1/116 
f 1/1/116 40/1/116 105/1/116 
f 105/1/116 40/1/116 107/1/116 
f 107/1/116 40/1/116 38/1/116 
f 107/1/116 38/1/116 110/1/116 
f 110/1/116 38/1/116 112/1/116 
f 112/1/116 38/1/116 36/1/116 
f 112/1/116 36/1/116 115/1/116 
f 115/1/116 36/1/116 68/1/116 
f 68/1/116 36/1/116 35/1/116 
f 68/1/116 35/1/116 70/1/116 
f 70/1/116 35/1/116 32/1/116 
f 70/1/116 32/1/116 72/1/116 
f 72/1/116 32/1/116 30/1/116 
f 72/1/116 30/1/116 74/1/116 
f 74/1/116 30/1/116 28/1/116 
f 74/1/116 28/1/116 26/1/116 
f 74/1/116 26/1/116 76/1/116 
f 76/1/116 26/1/116 24/1/116 
f 76/1/116 24/1/116 22/1/116 
f 76/1/116 22/1/116 20/1/116 
f 76/1/116 20/1/116 78/1/116 
f 20/1/116 18/1/116 78/1/116 
f 18/1/116 102/1/116 78/1/116 
f 78/1/116 102/1/116 99/1/116 
f 78/1/116 99/1/116 80/1/116 
f 80/1/116 99/1/116 97/1/116 
f 80/1/116 97/1/116 81/1/116 
f 81/1/116 97/1/116 95/1/116 
f 81/1/116 95/1/116 93/1/116 
f 81/1/116 93/1/116 83/1/116 
f 83/1/116 93/1/116 91/1/116 
f 83/1/116 91/1/116 85/1/116 
f 85/1/116 91/1/116 89/1/116 
f 85/1/116 89/1/116 87/1/116 
f 111/1/117 112/1/117 114/1/117 
f 114/1/117 112/1/117 115/1/117 
