# This file uses centimeters as units for non-parametric coordinates.

v 0.609750 0.500000 -1.932750
v 0.575156 0.500000 -1.925720
v 0.646875 0.500000 -1.925440
v 0.543375 0.500000 -1.904630
v 0.681750 0.500000 -1.903500
v 0.514406 0.500000 -1.869470
v 0.729000 0.500000 -1.845560
v 0.488250 0.500000 -1.820250
v 0.744750 0.500000 -1.766250
v 0.224438 0.500000 -1.806750
v 0.216000 0.500000 -1.746000
v 0.729985 0.500000 -1.677090
v 0.234281 0.500000 -1.655580
v 0.685688 0.500000 -1.591870
v 0.289125 0.500000 -1.573310
v 0.611860 0.500000 -1.510590
v 0.380531 0.500000 -1.499200
v 0.508500 0.500000 -1.433250
v 0.381094 0.500000 -1.904630
v 0.344250 0.500000 -1.910250
v 0.293625 0.500000 -1.899560
v 0.417375 0.500000 -1.887750
v 0.249750 0.500000 -1.867500
v 0.681750 0.000000 -1.903500
v 0.646875 0.000000 -1.925440
v 0.609750 0.000000 -1.932750
v 0.575156 0.000000 -1.925720
v 0.543375 0.000000 -1.904630
v 0.514406 0.000000 -1.869470
v 0.488250 0.000000 -1.820250
v 0.417375 0.000000 -1.887750
v 0.381094 0.000000 -1.904630
v 0.344250 0.000000 -1.910250
v 0.293625 0.000000 -1.899560
v 0.249750 0.000000 -1.867500
v 0.224438 0.000000 -1.806750
v 0.216000 0.000000 -1.746000
v 0.234281 0.000000 -1.655580
v 0.289125 0.000000 -1.573310
v 0.380531 0.000000 -1.499200
v 0.508500 0.000000 -1.433250
v 0.611859 0.000000 -1.510590
v 0.685688 0.000000 -1.591870
v 0.729985 0.000000 -1.677090
v 0.744750 0.000000 -1.766250
v 0.729000 0.000000 -1.845560
vt 0.000000 0.000000
vt 0.000000 0.000000
vt 0.000000 0.000000
vt 0.000000 0.000000
vt 0.000000 0.000000
vt 0.000000 0.000000
vt 0.000000 0.000000
vt 0.000000 0.000000
vt 0.000000 0.000000
vt 0.000000 0.000000
vt 0.000000 0.000000
vt 0.000000 0.000000
vt 0.000000 0.000000
vt 0.000000 0.000000
vt 0.000000 0.000000
vt 0.000000 0.000000
vt 0.000000 0.000000
vt 0.000000 0.000000
vt 0.000000 0.000000
vt 0.000000 0.000000
vt 0.000000 0.000000
vt 0.000000 0.000000
vt 0.000000 0.000000
vt 0.000000 0.000000
vt 0.000000 0.000000
vt 0.000000 0.000000
vt 0.000000 0.000000
vt 0.000000 0.000000
vt 0.000000 0.000000
vt 0.000000 0.000000
vt 0.000000 0.000000
vt 0.000000 0.000000
vt 0.000000 0.000000
vt 0.000000 0.000000
vt 0.000000 0.000000
vt 0.000000 0.000000
vt 0.000000 0.000000
vt 0.000000 0.000000
vt 0.000000 0.000000
vt 0.000000 0.000000
vt 0.000000 0.000000
vt 0.000000 0.000000
vt 0.000000 0.000000
vt 0.000000 0.000000
vt 0.000000 0.000000
vt 0.000000 0.000000
vt 0.000000 0.000000
vt 0.000000 0.000000
vt 0.000000 0.000000
vt 0.000000 0.000000
vt 0.000000 0.000000
vt 0.000000 0.000000
vt 0.000000 0.000000
vt 0.000000 0.000000
vt 0.000000 0.000000
vt 0.000000 0.000000
vt 0.000000 0.000000
vt 0.000000 0.000000
vt 0.000000 0.000000
vt 0.000000 0.000000
vt 0.000000 0.000000
vt 0.000000 0.000000
vt 0.000000 0.000000
vt 0.000000 0.000000
vt 0.000000 0.000000
vt 0.000000 0.000000
vt 0.000000 0.000000
vt 0.000000 0.000000
vt 0.000000 0.000000
vt 0.000000 0.000000
vt 0.000000 0.000000
vt 0.000000 0.000000
vt 0.000000 0.000000
vt 0.000000 0.000000
vt 0.000000 0.000000
vt 0.000000 0.000000
vt 0.000000 0.000000
vt 0.000000 0.000000
vt 0.000000 0.000000
vt 0.000000 0.000000
vt 0.000000 0.000000
vt 0.000000 0.000000
vt 0.000000 0.000000
vt 0.000000 0.000000
vt 0.000000 0.000000
vt 0.000000 0.000000
vt 0.000000 0.000000
vt 0.000000 0.000000
vt 0.000000 0.000000
vt 0.000000 0.000000
vt 0.000000 0.000000
vt 0.000000 0.000000
vt 0.000000 0.000000
vt 0.000000 0.000000
vt 0.000000 0.000000
vt 0.000000 0.000000
vt 0.000000 0.000000
vt 0.000000 0.000000
vt 0.000000 0.000000
vt 0.000000 0.000000
vt 0.000000 0.000000
vt 0.000000 0.000000
vt 0.000000 0.000000
vt 0.000000 0.000000
vt 0.000000 0.000000
vt 0.000000 0.000000
vt 0.000000 0.000000
vt 0.000000 0.000000
vt 0.000000 0.000000
vt 0.000000 0.000000
vt 0.000000 0.000000
vt 0.000000 0.000000
vt 0.000000 0.000000
vt 0.000000 0.000000
vt 0.000000 0.000000
vt 0.000000 0.000000
vt 0.000000 0.000000
vt 0.000000 0.000000
vt 0.000000 0.000000
vt 0.000000 0.000000
vt 0.000000 0.000000
vt 0.000000 0.000000
vt 0.000000 0.000000
vt 0.000000 0.000000
vt 0.000000 0.000000
vt 0.000000 0.000000
vt 0.000000 0.000000
vt 0.000000 0.000000
vt 0.000000 0.000000
vt 0.000000 0.000000
vt 0.000000 0.000000
vt 0.000000 0.000000
vt 0.000000 0.000000
vt 0.000000 0.000000
vt 0.000000 0.000000
vt 0.000000 0.000000
vt 0.000000 0.000000
vt 0.000000 0.000000
vt 0.000000 0.000000
vt 0.000000 0.000000
vt 0.000000 0.000000
vt 0.000000 0.000000
vt 0.000000 0.000000
vt 0.000000 0.000000
vt 0.000000 0.000000
vt 0.000000 0.000000
vt 0.000000 0.000000
vt 0.000000 0.000000
vt 0.000000 0.000000
vt 0.000000 0.000000
vt 0.000000 0.000000
vt 0.000000 0.000000
vt 0.000000 0.000000
vt 0.000000 0.000000
vt 0.000000 0.000000
vt 0.000000 0.000000
vt 0.000000 0.000000
vt 0.000000 0.000000
vt 0.000000 0.000000
vt 0.000000 0.000000
vt 0.000000 0.000000
vt 0.000000 0.000000
vt 0.000000 0.000000
vt 0.000000 0.000000
vt 0.000000 0.000000
vt 0.000000 0.000000
vt 0.000000 0.000000
vt 0.000000 0.000000
vt 0.000000 0.000000
vt 0.000000 0.000000
vt 0.000000 0.000000
vt 0.000000 0.000000
vt 0.000000 0.000000
vt 0.000000 0.000000
vt 0.000000 0.000000
vt 0.000000 0.000000
vt 0.000000 0.000000
vt 0.000000 0.000000
vt 0.000000 0.000000
vt 0.000000 0.000000
vt 0.000000 0.000000
vt 0.000000 0.000000
vt 0.000000 0.000000
vt 0.000000 0.000000
vt 0.000000 0.000000
vt 0.000000 0.000000
vt 0.000000 0.000000
vt 0.000000 0.000000
vt 0.000000 0.000000
vt 0.000000 0.000000
vt 0.000000 0.000000
vt 0.000000 0.000000
vt 0.000000 0.000000
vt 0.000000 0.000000
vt 0.000000 0.000000
vt 0.000000 0.000000
vt 0.000000 0.000000
vt 0.000000 0.000000
vt 0.000000 0.000000
vt 0.000000 0.000000
vt 0.000000 0.000000
vt 0.000000 0.000000
vt 0.000000 0.000000
vt 0.000000 0.000000
vt 0.000000 0.000000
vt 0.000000 0.000000
vt 0.000000 0.000000
vt 0.000000 0.000000
vt 0.000000 0.000000
vt 0.000000 0.000000
vt 0.000000 0.000000
vt 0.000000 0.000000
vt 0.000000 0.000000
vt 0.000000 0.000000
vt 0.000000 0.000000
vt 0.000000 0.000000
vt 0.000000 0.000000
vt 0.000000 0.000000
vt 0.000000 0.000000
vt 0.000000 0.000000
vt 0.000000 0.000000
vt 0.000000 0.000000
vt 0.000000 0.000000
vt 0.000000 0.000000
vt 0.000000 0.000000
vt 0.000000 0.000000
vt 0.000000 0.000000
vt 0.000000 0.000000
vt 0.000000 0.000000
vt 0.000000 0.000000
vt 0.000000 0.000000
vt 0.000000 0.000000
vt 0.000000 0.000000
vt 0.000000 0.000000
vt 0.000000 0.000000
vt 0.000000 0.000000
vt 0.000000 0.000000
vt 0.000000 0.000000
vt 0.000000 0.000000
vt 0.000000 0.000000
vt 0.000000 0.000000
vt 0.000000 0.000000
vt 0.000000 0.000000
vt 0.000000 0.000000
vt 0.000000 0.000000
vt 0.000000 0.000000
vt 0.000000 0.000000
vt 0.000000 0.000000
vt 0.000000 0.000000
vt 0.000000 0.000000
vt 0.000000 0.000000
vt 0.000000 0.000000
vt 0.000000 0.000000
vt 0.000000 0.000000
vt 0.000000 0.000000
vt 0.000000 0.000000
vt 0.000000 0.000000
vt 0.000000 0.000000
vt 0.000000 0.000000
vt 0.000000 0.000000
vt 0.000000 0.000000
vn 0.000000 1.000000 0.000000
vn 0.000000 1.000000 0.000000
vn 0.000000 1.000000 0.000000
vn 0.000000 1.000000 0.000000
vn 0.000000 1.000000 0.000000
vn 0.000000 1.000000 0.000000
vn 0.000000 1.000000 0.000000
vn 0.000000 1.000000 0.000000
vn 0.000000 1.000000 0.000000
vn 0.000000 1.000000 0.000000
vn 0.000000 1.000000 0.000000
vn 0.000000 1.000000 0.000000
vn 0.000000 1.000000 0.000000
vn 0.000000 1.000000 0.000000
vn 0.000000 1.000000 0.000000
vn 0.000000 1.000000 0.000000
vn 0.000000 1.000000 0.000000
vn 0.000000 1.000000 0.000000
vn 0.000000 1.000000 0.000000
vn 0.000000 1.000000 0.000000
vn 0.000000 1.000000 0.000000
vn 0.000000 1.000000 0.000002
vn 0.000000 1.000000 0.000002
vn 0.000000 1.000000 0.000002
vn 0.000000 1.000000 0.000000
vn 0.000000 1.000000 0.000000
vn 0.000000 1.000000 0.000000
vn 0.000000 1.000000 0.000000
vn 0.000000 1.000000 0.000000
vn 0.000000 1.000000 0.000000
vn 0.000000 1.000000 0.000000
vn 0.000000 1.000000 0.000000
vn 0.000000 1.000000 0.000000
vn 0.000000 1.000000 0.000000
vn 0.000000 1.000000 0.000000
vn 0.000000 1.000000 0.000000
vn 0.000000 1.000000 0.000000
vn 0.000000 1.000000 0.000000
vn 0.000000 1.000000 0.000000
vn 0.000000 1.000000 0.000000
vn 0.000000 1.000000 0.000000
vn 0.000000 1.000000 0.000000
vn 0.000000 1.000000 0.000000
vn 0.000000 1.000000 0.000000
vn 0.000000 1.000000 0.000000
vn 0.000000 1.000000 0.000000
vn 0.000000 1.000000 0.000000
vn 0.000000 1.000000 0.000000
vn 0.000000 1.000000 0.000000
vn 0.000000 1.000000 0.000000
vn 0.000000 1.000000 0.000000
vn 0.000000 1.000000 0.000000
vn 0.000000 1.000000 0.000000
vn 0.000000 1.000000 0.000000
vn 0.000000 1.000000 0.000000
vn 0.000000 1.000000 0.000000
vn 0.000000 1.000000 0.000000
vn 0.000000 1.000000 0.000000
vn 0.000000 1.000000 0.000000
vn 0.000000 1.000000 0.000000
vn 0.000000 1.000000 0.000000
vn 0.000000 1.000000 0.000000
vn 0.000000 1.000000 0.000000
vn 0.054434 0.000000 -0.998517
vn 0.470590 0.000000 -0.882352
vn 0.054434 0.000000 -0.998517
vn 0.054434 0.000000 -0.998517
vn 0.470590 0.000000 -0.882352
vn 0.470590 0.000000 -0.882352
vn 0.054434 0.000000 -0.998517
vn 0.470590 0.000000 -0.882352
vn 0.054434 0.000000 -0.998517
vn 0.054434 0.000000 -0.998517
vn 0.470590 0.000000 -0.882352
vn 0.470590 0.000000 -0.882352
vn 0.054434 0.000000 -0.998517
vn 0.470590 0.000000 -0.882352
vn 0.054434 0.000000 -0.998517
vn 0.054434 0.000000 -0.998517
vn 0.470590 0.000000 -0.882352
vn -0.684488 0.000000 -0.729024
vn 0.054434 0.000000 -0.998517
vn -0.684488 0.000000 -0.729024
vn 0.054434 0.000000 -0.998517
vn 0.054434 0.000000 -0.998517
vn -0.684488 0.000000 -0.729024
vn -0.684488 0.000000 -0.729024
vn -0.283425 0.000000 -0.958994
vn 0.054434 0.000000 -0.998517
vn -0.684488 0.000000 -0.729024
vn -0.283425 0.000000 -0.958994
vn -0.684488 0.000000 -0.729024
vn -0.684488 0.000000 -0.729024
vn -0.283425 0.000000 -0.958994
vn -0.283425 0.000000 -0.958994
vn -0.684488 0.000000 -0.729024
vn -0.283425 0.000000 -0.958994
vn -0.684488 0.000000 -0.729024
vn 0.414576 0.000000 -0.910015
vn -0.283425 0.000000 -0.958994
vn 0.414576 0.000000 -0.910015
vn -0.283425 0.000000 -0.958994
vn -0.283425 0.000000 -0.958994
vn 0.414576 0.000000 -0.910015
vn 0.414576 0.000000 -0.910015
vn -0.283425 0.000000 -0.958994
vn 0.414576 0.000000 -0.910015
vn 0.010120 0.000000 -0.999949
vn 0.010120 0.000000 -0.999949
vn 0.414576 0.000000 -0.910015
vn -0.109236 0.000000 -0.994016
vn 0.010120 0.000000 -0.999949
vn -0.109236 0.000000 -0.994016
vn 0.010120 0.000000 -0.999949
vn 0.010120 0.000000 -0.999949
vn -0.109236 0.000000 -0.994016
vn -0.109236 0.000000 -0.994016
vn 0.010120 0.000000 -0.999949
vn -0.109236 0.000000 -0.994016
vn 0.010120 0.000000 -0.999949
vn 0.010120 0.000000 -0.999949
vn -0.109236 0.000000 -0.994016
vn -0.109236 0.000000 -0.994016
vn 0.010120 0.000000 -0.999949
vn -0.109236 0.000000 -0.994016
vn -0.935533 0.000000 -0.353240
vn -0.935533 0.000000 -0.353240
vn -0.109236 0.000000 -0.994016
vn -0.922382 0.000000 -0.386279
vn -0.935533 0.000000 -0.353240
vn -0.935533 0.000000 -0.353240
vn -0.922382 0.000000 -0.386279
vn -0.935533 0.000000 -0.353240
vn -0.922382 0.000000 -0.386279
vn -0.922382 0.000000 -0.386279
vn -0.935533 0.000000 -0.353240
vn -0.935533 0.000000 -0.353240
vn -0.922382 0.000000 -0.386279
vn -0.935533 0.000000 -0.353240
vn -0.922382 0.000000 -0.386279
vn -0.962979 0.000000 0.269576
vn -0.845239 0.000000 0.534389
vn -0.935533 0.000000 -0.353240
vn -0.962979 0.000000 0.269576
vn -0.845239 0.000000 0.534389
vn -0.962979 0.000000 0.269576
vn -0.962979 0.000000 0.269576
vn -0.845239 0.000000 0.534389
vn -0.845239 0.000000 0.534389
vn -0.962979 0.000000 0.269576
vn -0.845239 0.000000 0.534389
vn -0.962979 0.000000 0.269576
vn -0.739311 0.000000 0.673364
vn -0.575253 0.000000 0.817976
vn -0.517755 0.000000 0.855529
vn -0.845239 0.000000 0.534389
vn -0.575253 0.000000 0.817976
vn -0.845239 0.000000 0.534389
vn -0.739311 0.000000 0.673364
vn -0.122058 0.000000 0.992523
vn 0.284891 -0.000000 0.958560
vn -0.517755 0.000000 0.855529
vn -0.122058 0.000000 0.992523
vn -0.517755 0.000000 0.855529
vn -0.575253 0.000000 0.817976
vn 0.672732 -0.000001 0.739887
vn 0.672732 -0.000001 0.739886
vn 0.284891 -0.000000 0.958560
vn 0.672732 -0.000001 0.739887
vn 0.284891 -0.000000 0.958560
vn -0.122058 0.000000 0.992523
vn 0.871087 -0.000000 0.491129
vn 0.672732 -0.000001 0.739886
vn 0.672732 -0.000001 0.739887
vn 0.871087 -0.000000 0.491129
vn 0.672732 -0.000001 0.739887
vn 0.914205 0.000000 0.405252
vn 0.871087 -0.000000 0.491129
vn 0.871087 -0.000000 0.491129
vn 0.914205 0.000000 0.405252
vn 0.871087 -0.000000 0.491129
vn 0.914205 0.000000 0.405252
vn 0.914205 0.000000 0.405252
vn 0.988001 0.000000 -0.154450
vn 0.871087 -0.000000 0.491129
vn 0.914205 0.000000 0.405252
vn 0.988001 0.000000 -0.154450
vn 0.914205 0.000000 0.405252
vn 0.997070 0.000000 -0.076496
vn 0.988001 0.000000 -0.154450
vn 0.988001 0.000000 -0.154450
vn 0.997070 0.000000 -0.076496
vn 0.988001 0.000000 -0.154450
vn 0.997070 0.000000 -0.076496
vn 0.470590 0.000000 -0.882352
vn 0.054434 0.000000 -0.998517
vn 0.988001 0.000000 -0.154450
vn 0.470590 0.000000 -0.882352
vn 0.054434 0.000000 -0.998517
vn 0.470590 0.000000 -0.882352
vn 0.470590 0.000000 -0.882352
vn 0.000000 -1.000000 0.000000
vn 0.000000 -1.000000 0.000000
vn 0.000000 -1.000000 0.000000
vn 0.000000 -1.000000 0.000000
vn 0.000000 -1.000000 0.000000
vn 0.000000 -1.000000 0.000000
vn 0.000000 -1.000000 0.000000
vn 0.000000 -1.000000 0.000000
vn 0.000000 -1.000000 0.000000
vn 0.000000 -1.000000 0.000000
vn 0.000000 -1.000000 0.000000
vn 0.000000 -1.000000 0.000000
vn 0.000000 -1.000000 0.000000
vn 0.000000 -1.000000 0.000000
vn 0.000000 -1.000000 0.000000
vn 0.000000 -1.000000 0.000000
vn 0.000000 -1.000000 0.000000
vn 0.000000 -1.000000 0.000000
vn 0.000000 -1.000000 0.000000
vn 0.000000 -1.000000 0.000000
vn 0.000000 -1.000000 0.000000
vn 0.000000 -1.000000 0.000000
vn 0.000000 -1.000000 0.000000
vn 0.000000 -1.000000 0.000000
vn 0.000000 -1.000000 0.000000
vn 0.000000 -1.000000 0.000000
vn 0.000000 -1.000000 0.000000
vn 0.000000 -1.000000 0.000000
vn 0.000000 -1.000000 0.000000
vn 0.000000 -1.000000 0.000000
vn 0.000000 -1.000000 0.000000
vn 0.000000 -1.000000 0.000000
vn 0.000000 -1.000000 0.000000
vn 0.000000 -1.000000 0.000000
vn 0.000000 -1.000000 0.000000
vn 0.000000 -1.000000 0.000000
vn 0.000000 -1.000000 0.000000
vn 0.000000 -1.000000 0.000000
vn 0.000000 -1.000000 0.000000
vn 0.000000 -1.000000 0.000000
vn 0.000000 -1.000000 0.000000
vn 0.000000 -1.000000 0.000000
vn 0.000000 -1.000000 0.000000
vn 0.000000 -1.000000 0.000000
vn 0.000000 -1.000000 0.000000
vn 0.000000 -1.000000 0.000000
vn 0.000000 -1.000000 0.000000
vn 0.000000 -1.000000 0.000000
vn 0.000000 -1.000000 0.000000
vn 0.000000 -1.000000 0.000000
vn 0.000000 -1.000000 0.000000
vn 0.000000 -1.000000 0.000000
vn 0.000000 -1.000000 0.000000
vn 0.000000 -1.000000 0.000000
vn 0.000000 -1.000000 0.000000
vn 0.000000 -1.000000 0.000000
vn 0.000000 -1.000000 0.000000
vn 0.000000 -1.000000 0.000000
vn 0.000000 -1.000000 0.000000
vn 0.000000 -1.000000 0.000000
vn 0.000000 -1.000000 0.000000
vn 0.000000 -1.000000 0.000000
vn 0.000000 -1.000000 0.000000
s off
g _i_:font3d_i1_obj
mtllib default.mtl
usemtl default
f 1/1/1 2/2/2 3/3/3
f 3/4/4 2/5/5 4/6/6
f 3/7/7 4/8/8 5/9/9
f 5/10/10 4/11/11 6/12/12
f 5/13/13 6/14/14 7/15/15
f 7/16/16 6/17/17 8/18/18
f 7/19/19 8/20/20 9/21/21
f 8/22/22 10/23/23 9/24/24
f 9/25/25 10/26/26 11/27/27
f 9/28/28 11/29/29 12/30/30
f 12/31/31 11/32/32 13/33/33
f 12/34/34 13/35/35 14/36/36
f 14/37/37 13/38/38 15/39/39
f 14/40/40 15/41/41 16/42/42
f 16/43/43 15/44/44 17/45/45
f 16/46/46 17/47/47 18/48/48
f 19/49/49 20/50/50 21/51/51
f 19/52/52 21/53/53 22/54/54
f 22/55/55 21/56/56 23/57/57
f 22/58/58 23/59/59 8/60/60
f 8/61/61 23/62/62 10/63/63
f 5/64/64 24/65/65 3/66/66
f 3/67/67 24/68/68 25/69/69
f 3/70/70 25/71/71 1/1/72
f 1/1/73 25/72/74 26/73/75
f 1/1/76 26/74/77 2/75/78
f 2/76/79 26/77/80 27/78/81
f 2/79/82 27/80/83 4/81/84
f 4/82/85 27/83/86 28/84/87
f 6/85/88 4/86/89 28/87/90
f 6/88/91 28/89/92 29/90/93
f 8/91/94 6/92/95 29/93/96
f 8/94/97 29/95/98 30/96/99
f 8/97/100 30/98/101 22/99/102
f 22/100/103 30/101/104 31/102/105
f 22/103/106 31/104/107 19/105/108
f 19/106/109 31/107/110 32/108/111
f 19/109/112 32/110/113 20/111/114
f 20/112/115 32/113/116 33/114/117
f 20/115/118 33/116/119 21/117/120
f 21/118/121 33/119/122 34/120/123
f 21/121/124 34/122/125 23/123/126
f 23/124/127 34/125/128 35/126/129
f 10/127/130 23/128/131 35/129/132
f 10/130/133 35/131/134 36/132/135
f 11/133/136 10/134/137 36/135/138
f 11/136/139 36/137/140 37/138/141
f 13/139/142 11/140/143 37/141/144
f 13/142/145 37/143/146 38/144/147
f 15/145/148 13/146/149 38/147/150
f 15/148/151 38/149/152 39/150/153
f 40/151/154 17/152/155 15/153/156
f 40/154/157 15/155/158 39/156/159
f 41/157/160 18/158/161 17/159/162
f 41/160/163 17/161/164 40/162/165
f 42/163/166 16/164/167 18/165/168
f 42/166/169 18/167/170 41/168/171
f 14/169/172 16/170/173 42/171/174
f 14/172/175 42/173/176 43/174/177
f 12/175/178 14/176/179 43/177/180
f 12/178/181 43/179/182 44/180/183
f 9/181/184 12/182/185 44/183/186
f 9/184/187 44/185/188 45/186/189
f 7/187/190 9/188/191 45/189/192
f 7/190/193 45/191/194 46/192/195
f 5/193/196 7/194/197 46/195/198
f 5/196/199 46/197/200 24/198/201
f 27/199/202 26/200/203 25/201/204
f 27/202/205 25/203/206 28/204/207
f 28/205/208 25/206/209 24/207/210
f 28/208/211 24/209/212 29/210/213
f 29/211/214 24/212/215 46/213/216
f 29/214/217 46/215/218 30/216/219
f 30/217/220 46/218/221 45/219/222
f 36/220/223 30/221/224 45/222/225
f 36/223/226 45/224/227 37/225/228
f 37/226/229 45/227/230 44/228/231
f 37/229/232 44/230/233 38/231/234
f 38/232/235 44/233/236 43/234/237
f 38/235/238 43/236/239 39/237/240
f 39/238/241 43/239/242 42/240/243
f 39/241/244 42/242/245 40/243/246
f 40/244/247 42/245/248 41/246/249
f 33/247/250 32/248/251 34/249/252
f 34/250/253 32/251/254 31/252/255
f 34/253/256 31/254/257 35/255/258
f 35/256/259 31/257/260 30/258/261
f 35/259/262 30/260/263 36/261/264
v 0.704250 0.500000 -1.354500
v 0.290250 0.500000 -1.300500
v 0.245250 0.500000 -0.015750
v 0.778500 0.500000 0.002250
v 0.778500 0.000000 0.002250
v 0.704250 0.000000 -1.354500
v 0.290250 0.000000 -1.300500
v 0.245250 0.000000 -0.015750
vt 0.000000 0.000000
vt 0.000000 0.000000
vt 0.000000 0.000000
vt 0.000000 0.000000
vt 0.000000 0.000000
vt 0.000000 0.000000
vt 0.000000 0.000000
vt 0.000000 0.000000
vt 0.000000 0.000000
vt 0.000000 0.000000
vt 0.000000 0.000000
vt 0.000000 0.000000
vt 0.000000 0.000000
vt 0.000000 0.000000
vt 0.000000 0.000000
vt 0.000000 0.000000
vt 0.000000 0.000000
vt 0.000000 0.000000
vt 0.000000 0.000000
vt 0.000000 0.000000
vt 0.000000 0.000000
vt 0.000000 0.000000
vt 0.000000 0.000000
vt 0.000000 0.000000
vt 0.000000 0.000000
vt 0.000000 0.000000
vt 0.000000 0.000000
vt 0.000000 0.000000
vt 0.000000 0.000000
vt 0.000000 0.000000
vt 0.000000 0.000000
vt 0.000000 0.000000
vn 0.000000 1.000000 0.000000
vn 0.000000 1.000000 0.000000
vn 0.000000 1.000000 0.000000
vn 0.000000 1.000000 0.000000
vn 0.000000 1.000000 0.000000
vn 0.000000 1.000000 0.000000
vn 0.998506 0.000000 -0.054645
vn 0.998506 0.000000 -0.054645
vn 0.998506 0.000000 -0.054645
vn 0.998506 0.000000 -0.054645
vn 0.998506 0.000000 -0.054645
vn 0.998506 0.000000 -0.054645
vn -0.129339 0.000000 -0.991600
vn -0.129339 0.000000 -0.991600
vn -0.129339 0.000000 -0.991600
vn -0.129339 0.000000 -0.991600
vn -0.129339 0.000000 -0.991600
vn -0.129339 0.000000 -0.991600
vn -0.999387 0.000000 -0.035005
vn -0.999387 0.000000 -0.035005
vn -0.999387 0.000000 -0.035005
vn -0.999387 0.000000 -0.035005
vn -0.999387 0.000000 -0.035005
vn -0.999387 0.000000 -0.035005
vn -0.033736 0.000000 0.999431
vn -0.033736 0.000000 0.999431
vn -0.033736 0.000000 0.999431
vn -0.033736 0.000000 0.999431
vn -0.033736 0.000000 0.999431
vn -0.033736 0.000000 0.999431
vn 0.000000 -1.000000 0.000000
vn 0.000000 -1.000000 0.000000
vn 0.000000 -1.000000 0.000000
vn 0.000000 -1.000000 0.000000
vn 0.000000 -1.000000 0.000000
vn 0.000000 -1.000000 0.000000
s off
g _i_:font3d_i2_obj
f 47/262/265 48/263/266 49/264/267
f 47/262/268 49/265/269 50/266/270
f 47/262/271 50/267/272 51/268/273
f 47/262/274 51/269/275 52/270/276
f 47/262/277 52/271/278 48/272/279
f 48/273/280 52/274/281 53/275/282
f 49/276/283 48/277/284 53/278/285
f 49/279/286 53/280/287 54/281/288
f 51/282/289 50/283/290 49/284/291
f 51/285/292 49/286/293 54/287/294
f 53/288/295 52/289/296 54/290/297
f 54/291/298 52/292/299 51/293/300
