# Wavefront OBJ exported by MilkShape 3D

v 0.730158 0.500000 -2.122017
v 0.281492 0.500000 -2.049317
v 0.297849 0.500000 0.008278
v 0.681085 0.500000 0.039885
v 0.730158 0.000000 -2.122017
v 0.281492 0.000000 -2.049317
v 0.297849 0.000000 0.008278
v 0.681085 0.000000 0.039885
# 8 vertices

vt 0.000000 1.000000
# 1 texture coordinates

vn 0.000000 1.000000 0.000000
vn -0.142288 -0.000000 -0.989825
vn -0.999960 0.000000 0.008960
vn -0.072976 0.000000 0.997334
vn 0.999673 0.000000 0.025576
vn 0.000000 -1.000000 -0.000000
# 6 normals

g font3d/l.obj
mtllib default.mtl
usemtl default

f 1/1/1 2/1/1 3/1/1
f 1/1/1 3/1/1 4/1/1
f 1/1/2 5/1/2 6/1/2
f 1/1/2 6/1/2 2/1/2
f 3/1/3 2/1/3 6/1/3
f 3/1/3 6/1/3 7/1/3
f 8/1/4 4/1/4 3/1/4
f 8/1/4 3/1/4 7/1/4
f 1/1/5 4/1/5 8/1/5
f 1/1/5 8/1/5 5/1/5
f 6/1/6 5/1/6 7/1/6
f 7/1/6 5/1/6 8/1/6
# 12 triangles in group

# 12 triangles total

