# j.c. saved from ObjMesh class
# points
v 1.371660 0.500000 -1.006300
v 1.417790 0.500000 -0.805491
v 1.417790 0.000000 -0.805491
v 1.371660 0.000000 -1.006300
v 1.314290 0.500000 -1.176740
v 1.314290 0.000000 -1.176740
v 1.232720 0.500000 -1.339160
v 1.232720 0.000000 -1.339160
v 1.141040 0.500000 -1.455180
v 1.141040 0.000000 -1.455180
v 1.091400 0.000000 -1.495780
v 1.091400 0.500000 -1.495780
v 1.039220 0.000000 -1.524790
v 1.039220 0.500000 -1.524790
v 0.984521 0.000000 -1.542190
v 0.984521 0.500000 -1.542190
v 0.927286 0.000000 -1.547990
v 0.927286 0.500000 -1.547990
v 0.837286 0.000000 -1.534490
v 0.837286 0.500000 -1.534490
v 0.719161 0.000000 -1.488370
v 0.719161 0.500000 -1.488370
v 0.616786 0.000000 -1.421990
v 0.616786 0.500000 -1.421990
v 0.657286 0.500000 -0.965241
v 0.691036 0.500000 -0.011241
v 0.691036 -0.000000 -0.011241
v 0.657286 0.000000 -0.965241
v 0.669099 0.500000 -1.072960
v 0.669099 0.000000 -1.072960
v 0.704536 0.500000 -1.144120
v 0.704536 0.000000 -1.144120
v 0.765849 0.000000 -1.183770
v 0.765849 0.500000 -1.183770
v 0.855286 0.000000 -1.196990
v 0.855286 0.500000 -1.196990
v 0.881337 0.000000 -1.189220
v 0.881337 0.500000 -1.189220
v 0.905489 0.000000 -1.165910
v 0.905489 0.500000 -1.165910
v 0.948099 0.500000 -1.072680
v 0.948099 0.000000 -1.072680
v 0.983114 0.500000 -0.917288
v 0.983114 0.000000 -0.917288
v 1.010540 0.500000 -0.699741
v 1.010540 0.000000 -0.699741
v 0.603286 0.500000 -1.536740
v 0.263536 0.500000 -1.475990
v 0.279286 0.500000 -0.011241
v 0.603286 0.000000 -1.536740
v 0.263536 0.000000 -1.475990
v 0.279286 -0.000000 -0.011241
# UVs
vt 0.000000 0.000000
# Normals
vn 0.966710 0.000000 -0.255875
vn 0.974615 0.000000 -0.223890
vn 0.957745 0.000000 -0.287617
vn 0.931761 0.000000 -0.363072
vn 0.913682 0.000000 -0.406430
vn 0.861241 0.000000 -0.508197
vn 0.824730 0.000000 -0.565527
vn 0.713026 0.000000 -0.701138
vn 0.586104 0.000000 -0.810236
vn 0.536868 0.000000 -0.843666
vn 0.426872 0.000000 -0.904312
vn 0.365676 0.000000 -0.930742
vn 0.236823 0.000000 -0.971553
vn 0.169063 0.000000 -0.985605
vn 0.017891 0.000000 -0.999840
vn -0.065742 0.000000 -0.997837
vn -0.221351 0.000000 -0.975194
vn -0.293536 0.000000 -0.955948
vn -0.425760 0.000000 -0.904836
vn -0.486152 0.000000 -0.873874
vn -0.544044 0.000000 -0.839057
vn 0.999918 0.000000 0.012797
vn 0.999375 0.000000 -0.035355
vn 0.998136 0.000000 0.061031
vn 0.974507 0.000000 0.224358
vn 0.941081 0.000000 0.338181
vn 0.745575 0.000000 0.666421
vn 0.419222 0.000000 0.907884
vn 0.284230 0.000000 0.958756
vn 0.002258 0.000000 0.999997
vn -0.144857 0.000000 0.989452
vn -0.432943 0.000000 0.901421
vn -0.572675 0.000000 0.819782
vn -0.816244 0.000000 0.577707
vn -0.935973 0.000000 0.352071
vn -0.958089 0.000000 0.286472
vn -0.982086 0.000000 0.188435
vn -0.987627 0.000000 0.156821
vn -0.992147 0.000000 0.125079
vn 0.000000 1.000000 0.000000
vn 0.993151 0.000000 -0.116841
vn -0.176016 -0.000000 -0.984387
vn -0.999942 0.000000 0.010752
vn 0.000000 -0.000000 1.000000
vn 0.251333 -0.000000 0.967901
vn 0.000000 -1.000000 -0.000000
g font3d/r1.obj
mtllib default.mtl
usemtl default
# Faces
f 1/1/1 2/1/2 3/1/2 
f 1/1/1 3/1/2 4/1/3 
f 5/1/4 1/1/1 4/1/3 
f 5/1/4 4/1/3 6/1/5 
f 7/1/6 5/1/4 6/1/5 
f 7/1/6 6/1/5 8/1/7 
f 9/1/8 7/1/6 8/1/7 
f 9/1/8 8/1/7 10/1/8 
f 9/1/8 10/1/8 11/1/9 
f 9/1/8 11/1/9 12/1/10 
f 12/1/10 11/1/9 13/1/11 
f 12/1/10 13/1/11 14/1/12 
f 14/1/12 13/1/11 15/1/13 
f 14/1/12 15/1/13 16/1/14 
f 16/1/14 15/1/13 17/1/15 
f 16/1/14 17/1/15 18/1/16 
f 18/1/16 17/1/15 19/1/17 
f 18/1/16 19/1/17 20/1/18 
f 20/1/18 19/1/17 21/1/19 
f 20/1/18 21/1/19 22/1/20 
f 22/1/20 21/1/19 23/1/21 
f 22/1/20 23/1/21 24/1/21 
f 25/1/22 26/1/23 27/1/23 
f 25/1/22 27/1/23 28/1/24 
f 29/1/25 25/1/22 28/1/24 
f 29/1/25 28/1/24 30/1/26 
f 31/1/27 29/1/25 30/1/26 
f 31/1/27 30/1/26 32/1/27 
f 33/1/28 34/1/29 31/1/27 
f 33/1/28 31/1/27 32/1/27 
f 35/1/30 36/1/31 34/1/29 
f 35/1/30 34/1/29 33/1/28 
f 37/1/32 38/1/33 36/1/31 
f 37/1/32 36/1/31 35/1/30 
f 39/1/34 40/1/34 38/1/33 
f 39/1/34 38/1/33 37/1/32 
f 41/1/35 40/1/34 39/1/34 
f 41/1/35 39/1/34 42/1/36 
f 43/1/37 41/1/35 42/1/36 
f 43/1/37 42/1/36 44/1/38 
f 45/1/39 43/1/37 44/1/38 
f 45/1/39 44/1/38 46/1/39 
g font3d/r2.obj
mtllib default.mtl
usemtl default
# Faces
f 7/1/40 36/1/40 38/1/40 
f 7/1/40 38/1/40 5/1/40 
f 5/1/40 38/1/40 40/1/40 
f 5/1/40 40/1/40 41/1/40 
f 5/1/40 41/1/40 1/1/40 
f 1/1/40 41/1/40 43/1/40 
f 1/1/40 43/1/40 2/1/40 
f 2/1/40 43/1/40 45/1/40 
f 47/1/40 48/1/40 24/1/40 
f 7/1/40 24/1/40 36/1/40 
f 24/1/40 48/1/40 36/1/40 
f 36/1/40 48/1/40 34/1/40 
f 34/1/40 48/1/40 31/1/40 
f 31/1/40 48/1/40 29/1/40 
f 29/1/40 48/1/40 25/1/40 
f 25/1/40 48/1/40 49/1/40 
f 25/1/40 49/1/40 26/1/40 
f 16/1/40 18/1/40 20/1/40 
f 16/1/40 20/1/40 14/1/40 
f 14/1/40 20/1/40 12/1/40 
f 12/1/40 20/1/40 22/1/40 
f 12/1/40 22/1/40 9/1/40 
f 9/1/40 22/1/40 24/1/40 
f 9/1/40 24/1/40 7/1/40 
f 47/1/41 24/1/41 23/1/41 
f 47/1/41 23/1/41 50/1/41 
f 47/1/42 50/1/42 51/1/42 
f 47/1/42 51/1/42 48/1/42 
f 49/1/43 48/1/43 51/1/43 
f 49/1/43 51/1/43 52/1/43 
f 27/1/44 26/1/44 49/1/44 
f 27/1/44 49/1/44 52/1/44 
f 3/1/45 2/1/45 45/1/45 
f 3/1/45 45/1/45 46/1/45 
f 35/1/46 8/1/46 37/1/46 
f 37/1/46 8/1/46 6/1/46 
f 37/1/46 6/1/46 39/1/46 
f 39/1/46 6/1/46 42/1/46 
f 42/1/46 6/1/46 4/1/46 
f 42/1/46 4/1/46 44/1/46 
f 44/1/46 4/1/46 3/1/46 
f 44/1/46 3/1/46 46/1/46 
f 51/1/46 50/1/46 23/1/46 
f 23/1/46 8/1/46 35/1/46 
f 51/1/46 23/1/46 35/1/46 
f 51/1/46 35/1/46 33/1/46 
f 51/1/46 33/1/46 32/1/46 
f 51/1/46 32/1/46 30/1/46 
f 51/1/46 30/1/46 28/1/46 
f 51/1/46 28/1/46 27/1/46 
f 51/1/46 27/1/46 52/1/46 
f 17/1/46 15/1/46 19/1/46 
f 19/1/46 15/1/46 13/1/46 
f 19/1/46 13/1/46 11/1/46 
f 19/1/46 11/1/46 21/1/46 
f 21/1/46 11/1/46 10/1/46 
f 21/1/46 10/1/46 23/1/46 
f 23/1/46 10/1/46 8/1/46 
