# j.c. saved from ObjMesh class
# points
v 0.816957 0.500000 -1.590630
v 0.388842 0.500000 -1.486520
v 1.048780 0.500000 -1.170960
v 1.327810 0.500000 -0.870563
v 0.787389 0.500000 -0.835528
v 1.026840 0.500000 -0.564745
v 1.773320 0.500000 -0.214350
v 1.410840 0.500000 0.024924
v 1.745490 0.500000 -1.451240
v 1.331290 0.500000 -1.594610
v 0.264855 0.500000 -0.105769
v 0.633158 0.500000 0.023443
v 1.773320 -0.000000 -0.214350
v 1.327810 -0.000000 -0.870562
v 1.745490 -0.000000 -1.451240
v 1.331290 -0.000000 -1.594610
v 1.048780 -0.000000 -1.170960
v 0.816957 -0.000000 -1.590630
v 0.388842 -0.000000 -1.486520
v 0.787389 -0.000000 -0.835528
v 0.264855 -0.000000 -0.105769
v 0.633158 -0.000000 0.023443
v 1.026840 -0.000000 -0.564745
v 1.410840 -0.000000 0.024924
# UVs
vt 0.000000 0.000000
# Normals
vn 0.000000 1.000000 -0.000000
vn 0.827345 0.000000 -0.561693
vn 0.827345 -0.000001 -0.561694
vn 0.811804 0.000001 0.583929
vn 0.811805 0.000000 0.583929
vn 0.327097 0.000000 -0.944991
vn -0.831981 0.000000 -0.554804
vn 0.875330 0.000000 -0.483526
vn -0.236296 -0.000000 -0.971681
vn -0.852863 0.000000 0.522135
vn -0.813060 0.000000 -0.582180
vn -0.331050 0.000000 0.943613
vn 0.831034 0.000000 0.556221
vn -0.837979 0.000000 0.545703
vn 0.550901 -0.000000 0.834570
vn -0.000000 -1.000000 -0.000000
g font3d/x1.obj
mtllib default.mtl
usemtl default
# Faces
f 1/1/1 2/1/1 3/1/1 
f 3/1/1 2/1/1 4/1/1 
f 4/1/1 2/1/1 5/1/1 
f 4/1/1 5/1/1 6/1/1 
f 4/1/1 6/1/1 7/1/1 
f 7/1/1 6/1/1 8/1/1 
f 9/1/1 10/1/1 3/1/1 
f 9/1/1 3/1/1 4/1/1 
f 6/1/1 5/1/1 11/1/1 
f 6/1/1 11/1/1 12/1/1 
f 4/1/2 7/1/2 13/1/2 
f 4/1/3 13/1/3 14/1/3 
f 9/1/4 4/1/4 14/1/4 
f 9/1/5 14/1/5 15/1/5 
f 9/1/6 15/1/6 16/1/6 
f 9/1/6 16/1/6 10/1/6 
f 3/1/7 10/1/7 16/1/7 
f 3/1/7 16/1/7 17/1/7 
f 1/1/8 3/1/8 17/1/8 
f 1/1/8 17/1/8 18/1/8 
f 1/1/9 18/1/9 19/1/9 
f 1/1/9 19/1/9 2/1/9 
f 5/1/10 2/1/10 19/1/10 
f 5/1/10 19/1/10 20/1/10 
f 11/1/11 5/1/11 20/1/11 
f 11/1/11 20/1/11 21/1/11 
f 22/1/12 12/1/12 21/1/12 
f 21/1/12 12/1/12 11/1/12 
f 6/1/13 12/1/13 22/1/13 
f 6/1/13 22/1/13 23/1/13 
f 8/1/14 6/1/14 23/1/14 
f 8/1/14 23/1/14 24/1/14 
f 13/1/15 7/1/15 24/1/15 
f 24/1/15 7/1/15 8/1/15 
f 19/1/16 18/1/16 17/1/16 
f 19/1/16 17/1/16 14/1/16 
f 19/1/16 14/1/16 20/1/16 
f 20/1/16 14/1/16 23/1/16 
f 23/1/16 14/1/16 13/1/16 
f 23/1/16 13/1/16 24/1/16 
f 20/1/16 23/1/16 21/1/16 
f 21/1/16 23/1/16 22/1/16 
f 16/1/16 15/1/16 17/1/16 
f 17/1/16 15/1/16 14/1/16 
