# j.c. saved from ObjMesh class
# points
v 1.344340 0.500000 -0.667109
v 1.333430 0.500000 -0.565182
v 1.333430 0.000000 -0.565181
v 1.344340 0.000000 -0.667109
v 1.035450 0.500000 -0.516786
v 1.055640 0.500000 -0.632265
v 1.055640 0.000000 -0.632265
v 1.035450 0.000000 -0.516786
v 1.343000 0.500000 -0.768428
v 1.343000 0.000000 -0.768427
v 1.329430 0.500000 -0.869122
v 1.329430 0.000000 -0.869121
v 1.303620 0.500000 -0.969193
v 1.303620 0.000000 -0.969192
v 1.267820 0.500000 -1.060250
v 1.267820 0.000000 -1.060250
v 1.221560 0.500000 -1.139890
v 1.221560 0.000000 -1.139890
v 1.164830 0.500000 -1.208100
v 1.164830 0.000000 -1.208100
v 1.097630 0.500000 -1.264870
v 1.097630 0.000000 -1.264870
v 1.019970 0.500000 -1.310220
v 1.019970 0.000000 -1.310220
v 0.931842 0.500000 -1.344140
v 0.931842 0.000000 -1.344140
v 0.833244 0.500000 -1.366620
v 0.833244 0.000000 -1.366620
v 0.724186 0.500000 -1.377670
v 0.724186 0.000000 -1.377670
v 0.500309 0.000000 0.005561
v 0.500309 0.500000 0.005561
v 0.238673 0.500000 -0.043887
v 0.238673 0.000000 -0.043887
v 0.620574 0.000000 0.013904
v 0.620567 0.500000 0.013897
v 0.732007 0.000000 0.011210
v 0.732007 0.500000 0.011210
v 0.834630 0.000000 -0.002500
v 0.834630 0.500000 -0.002500
v 0.928427 0.000000 -0.027242
v 0.928427 0.500000 -0.027242
v 1.013400 0.000000 -0.063001
v 1.013400 0.500000 -0.063001
v 1.089560 0.000000 -0.109790
v 1.089560 0.500000 -0.109790
v 1.156900 0.500000 -0.167610
v 1.156900 0.000000 -0.167610
v 1.215410 0.500000 -0.236454
v 1.215410 0.000000 -0.236454
v 1.264060 0.500000 -0.315233
v 1.264060 0.000000 -0.315233
v 1.299950 0.500000 -0.396280
v 1.299950 0.000000 -0.396279
v 1.323080 0.500000 -0.479593
v 1.323080 0.000000 -0.479593
v 0.998247 0.500000 -0.421313
v 0.998247 0.000000 -0.421313
v 0.934805 0.500000 -0.334268
v 0.934805 0.000000 -0.334268
v 0.853078 0.500000 -0.276144
v 0.853078 0.000000 -0.276144
v 0.753058 0.500000 -0.246933
v 0.753058 0.000000 -0.246933
v 0.634730 0.500000 -0.246636
v 0.634730 0.000000 -0.246636
v 0.572371 0.500000 -0.255836
v 0.572371 0.000000 -0.255836
v 0.811767 0.000000 -1.077600
v 0.811760 0.500000 -1.077610
v 0.693377 0.500000 -1.100380
v 0.693377 0.000000 -1.100380
v 0.907377 0.000000 -1.029060
v 0.907377 0.500000 -1.029060
v 0.980214 0.000000 -0.954752
v 0.980214 0.500000 -0.954753
v 1.030270 0.500000 -0.854676
v 1.030270 0.000000 -0.854676
v 1.053010 0.500000 -0.751975
v 1.053010 0.000000 -0.751975
v 0.784560 0.500000 -1.778460
v 0.444409 0.500000 -1.834360
v 0.784560 0.000000 -1.778460
v 0.444409 0.000000 -1.834360
# UVs
vt 0.000000 0.000000
# Normals
vn 0.997776 0.000000 0.066651
vn 0.993306 0.000000 0.115515
vn 0.993823 0.000000 0.110973
vn 0.999643 -0.000000 0.026703
vn -0.971539 0.000000 -0.236878
vn -0.999077 0.000000 -0.042947
vn -0.994156 0.000000 -0.107951
vn -0.953695 0.000000 -0.300775
vn 0.998572 -0.000000 -0.053422
vn 0.995610 -0.000000 -0.093598
vn 0.985000 -0.000000 -0.172556
vn 0.977412 -0.000000 -0.211345
vn 0.957347 -0.000001 -0.288941
vn 0.944775 -0.000000 -0.327721
vn 0.910999 -0.000000 -0.412409
vn 0.888960 0.000000 -0.457985
vn 0.835354 0.000000 -0.549712
vn 0.803299 0.000000 -0.595576
vn 0.730170 0.000000 -0.683265
vn 0.688861 0.000000 -0.724893
vn 0.600308 0.000000 -0.799769
vn 0.553130 0.000000 -0.833095
vn 0.457235 0.000000 -0.889346
vn 0.408740 0.000000 -0.912651
vn 0.314284 0.000000 -0.949329
vn 0.268542 0.000000 -0.963268
vn 0.182103 0.000000 -0.983279
vn 0.141540 0.000000 -0.989932
vn 0.100807 0.000000 -0.994906
vn -0.147102 0.000000 0.989121
vn -0.108192 0.000004 0.994130
vn -0.185708 0.000000 0.982605
vn -0.038104 0.000009 0.999274
vn -0.006968 0.000009 0.999976
vn 0.060313 0.000005 0.998179
vn 0.096446 0.000000 0.995338
vn 0.173604 0.000000 0.984816
vn 0.214552 0.000000 0.976713
vn 0.299986 0.000000 0.953944
vn 0.344357 0.000000 0.938839
vn 0.434194 0.000000 0.900819
vn 0.479506 0.000000 0.877539
vn 0.589302 0.000000 0.807913
vn 0.690173 0.000000 0.723644
vn 0.727121 0.000000 0.686510
vn 0.793613 0.000000 0.608423
vn 0.823307 0.000000 0.567597
vn 0.873813 0.000000 0.486261
vn 0.895031 0.000000 0.446003
vn 0.932968 0.000000 0.359960
vn 0.949406 0.000000 0.314052
vn 0.975746 0.000000 0.218906
vn 0.985508 0.000000 0.169631
vn -0.897186 0.000000 -0.441653
vn -0.855670 0.000000 -0.517521
vn -0.740492 0.000000 -0.672065
vn -0.663415 0.000000 -0.748252
vn -0.485832 0.000000 -0.874052
vn -0.384841 0.000000 -0.922983
vn -0.189396 0.000000 -0.981901
vn -0.095964 0.000000 -0.995385
vn 0.047094 0.000000 -0.998890
vn 0.096704 0.000000 -0.995313
vn 0.145953 0.000000 -0.989292
vn -0.279261 0.000010 0.960215
vn -0.367962 0.000010 0.929841
vn -0.188914 0.000009 0.981994
vn -0.188948 0.000000 0.981987
vn -0.546270 0.000004 0.837609
vn -0.634454 0.000000 0.772961
vn -0.814113 0.000001 0.580707
vn -0.814112 0.000001 0.580708
vn -0.927916 0.000000 0.372788
vn -0.955430 0.000000 0.295216
vn -0.988366 0.000000 0.152092
vn -0.996202 0.000000 0.087075
vn 0.000000 1.000000 0.000000
vn 0.988844 0.000000 0.148957
vn 0.162164 0.000000 -0.986764
vn -0.993463 0.000000 -0.114155
vn -0.000000 -1.000000 -0.000000
vn 0.989891 0.000000 0.141831
g font3d/b1.obj
mtllib default.mtl
usemtl default
# Faces
f 1/1/1 2/1/2 3/1/3 
f 1/1/1 3/1/3 4/1/4 
f 5/1/5 6/1/6 7/1/7 
f 5/1/5 7/1/7 8/1/8 
f 9/1/9 1/1/1 4/1/4 
f 9/1/9 4/1/4 10/1/10 
f 11/1/11 9/1/9 10/1/10 
f 11/1/11 10/1/10 12/1/12 
f 13/1/13 11/1/11 12/1/12 
f 13/1/13 12/1/12 14/1/14 
f 15/1/15 13/1/13 14/1/14 
f 15/1/15 14/1/14 16/1/16 
f 17/1/17 15/1/15 16/1/16 
f 17/1/17 16/1/16 18/1/18 
f 17/1/17 18/1/18 19/1/19 
f 19/1/19 18/1/18 20/1/20 
f 19/1/19 20/1/20 21/1/21 
f 21/1/21 20/1/20 22/1/22 
f 21/1/21 22/1/22 23/1/23 
f 23/1/23 22/1/22 24/1/24 
f 23/1/23 24/1/24 25/1/25 
f 25/1/25 24/1/24 26/1/26 
f 25/1/25 26/1/26 27/1/27 
f 27/1/27 26/1/26 28/1/28 
f 27/1/27 28/1/28 29/1/29 
f 29/1/29 28/1/28 30/1/29 
f 31/1/30 32/1/31 33/1/32 
f 31/1/30 33/1/32 34/1/32 
f 35/1/33 36/1/34 32/1/31 
f 35/1/33 32/1/31 31/1/30 
f 37/1/35 38/1/36 36/1/34 
f 37/1/35 36/1/34 35/1/33 
f 39/1/37 40/1/38 38/1/36 
f 39/1/37 38/1/36 37/1/35 
f 41/1/39 42/1/40 40/1/38 
f 41/1/39 40/1/38 39/1/37 
f 43/1/41 44/1/42 42/1/40 
f 43/1/41 42/1/40 41/1/39 
f 45/1/43 46/1/43 44/1/42 
f 45/1/43 44/1/42 43/1/41 
f 47/1/44 46/1/43 45/1/43 
f 47/1/44 45/1/43 48/1/45 
f 49/1/46 47/1/44 48/1/45 
f 49/1/46 48/1/45 50/1/47 
f 51/1/48 49/1/46 50/1/47 
f 51/1/48 50/1/47 52/1/49 
f 53/1/50 51/1/48 52/1/49 
f 53/1/50 52/1/49 54/1/51 
f 55/1/52 53/1/50 54/1/51 
f 55/1/52 54/1/51 56/1/53 
f 2/1/2 55/1/52 56/1/53 
f 2/1/2 56/1/53 3/1/3 
f 57/1/54 5/1/5 8/1/8 
f 57/1/54 8/1/8 58/1/55 
f 59/1/56 57/1/54 58/1/55 
f 59/1/56 58/1/55 60/1/57 
f 59/1/56 60/1/57 61/1/58 
f 61/1/58 60/1/57 62/1/59 
f 61/1/58 62/1/59 63/1/60 
f 63/1/60 62/1/59 64/1/61 
f 63/1/60 64/1/61 65/1/62 
f 65/1/62 64/1/61 66/1/63 
f 65/1/62 66/1/63 67/1/64 
f 67/1/64 66/1/63 68/1/64 
f 69/1/65 70/1/66 71/1/67 
f 69/1/65 71/1/67 72/1/68 
f 73/1/69 74/1/70 70/1/66 
f 73/1/69 70/1/66 69/1/65 
f 75/1/71 76/1/72 74/1/70 
f 75/1/71 74/1/70 73/1/69 
f 77/1/73 76/1/72 75/1/71 
f 77/1/73 75/1/71 78/1/74 
f 79/1/75 77/1/73 78/1/74 
f 79/1/75 78/1/74 80/1/76 
f 6/1/6 79/1/75 80/1/76 
f 6/1/6 80/1/76 7/1/7 
g font3d/b2.obj
mtllib default.mtl
usemtl default
# Faces
f 25/1/77 27/1/77 29/1/77 
f 15/1/77 71/1/77 70/1/77 
f 15/1/77 70/1/77 74/1/77 
f 15/1/77 74/1/77 13/1/77 
f 13/1/77 74/1/77 76/1/77 
f 13/1/77 76/1/77 11/1/77 
f 11/1/77 76/1/77 77/1/77 
f 11/1/77 77/1/77 9/1/77 
f 9/1/77 77/1/77 79/1/77 
f 9/1/77 79/1/77 1/1/77 
f 1/1/77 79/1/77 6/1/77 
f 1/1/77 6/1/77 2/1/77 
f 2/1/77 6/1/77 5/1/77 
f 2/1/77 5/1/77 55/1/77 
f 55/1/77 5/1/77 53/1/77 
f 53/1/77 5/1/77 57/1/77 
f 53/1/77 57/1/77 51/1/77 
f 51/1/77 57/1/77 59/1/77 
f 51/1/77 59/1/77 49/1/77 
f 49/1/77 59/1/77 61/1/77 
f 49/1/77 61/1/77 63/1/77 
f 49/1/77 63/1/77 65/1/77 
f 49/1/77 65/1/77 47/1/77 
f 81/1/77 82/1/77 29/1/77 
f 25/1/77 29/1/77 23/1/77 
f 23/1/77 29/1/77 21/1/77 
f 21/1/77 29/1/77 19/1/77 
f 19/1/77 29/1/77 17/1/77 
f 17/1/77 29/1/77 15/1/77 
f 15/1/77 29/1/77 71/1/77 
f 29/1/77 82/1/77 71/1/77 
f 71/1/77 82/1/77 67/1/77 
f 65/1/77 67/1/77 47/1/77 
f 47/1/77 67/1/77 46/1/77 
f 46/1/77 67/1/77 44/1/77 
f 44/1/77 67/1/77 42/1/77 
f 42/1/77 67/1/77 40/1/77 
f 67/1/77 82/1/77 33/1/77 
f 40/1/77 67/1/77 33/1/77 
f 40/1/77 33/1/77 38/1/77 
f 38/1/77 33/1/77 36/1/77 
f 36/1/77 33/1/77 32/1/77 
f 81/1/78 29/1/78 30/1/78 
f 81/1/78 30/1/78 83/1/78 
f 81/1/79 83/1/79 82/1/79 
f 82/1/79 83/1/79 84/1/79 
f 33/1/80 82/1/80 84/1/80 
f 33/1/80 84/1/80 34/1/80 
f 30/1/81 28/1/81 26/1/81 
f 72/1/81 16/1/81 69/1/81 
f 69/1/81 16/1/81 73/1/81 
f 73/1/81 16/1/81 14/1/81 
f 73/1/81 14/1/81 75/1/81 
f 75/1/81 14/1/81 12/1/81 
f 75/1/81 12/1/81 78/1/81 
f 78/1/81 12/1/81 10/1/81 
f 78/1/81 10/1/81 80/1/81 
f 80/1/81 10/1/81 4/1/81 
f 80/1/81 4/1/81 7/1/81 
f 7/1/81 4/1/81 3/1/81 
f 7/1/81 3/1/81 8/1/81 
f 8/1/81 3/1/81 56/1/81 
f 8/1/81 56/1/81 54/1/81 
f 8/1/81 54/1/81 58/1/81 
f 58/1/81 54/1/81 52/1/81 
f 58/1/81 52/1/81 60/1/81 
f 60/1/81 52/1/81 50/1/81 
f 60/1/81 50/1/81 62/1/81 
f 62/1/81 50/1/81 64/1/81 
f 64/1/81 50/1/81 66/1/81 
f 66/1/81 50/1/81 48/1/81 
f 84/1/81 83/1/81 30/1/81 
f 30/1/81 26/1/81 24/1/81 
f 30/1/81 24/1/81 22/1/81 
f 30/1/81 22/1/81 20/1/81 
f 30/1/81 20/1/81 18/1/81 
f 30/1/81 18/1/81 16/1/81 
f 30/1/81 16/1/81 72/1/81 
f 84/1/81 30/1/81 72/1/81 
f 84/1/81 72/1/81 68/1/81 
f 68/1/81 66/1/81 48/1/81 
f 68/1/81 48/1/81 45/1/81 
f 68/1/81 45/1/81 43/1/81 
f 68/1/81 43/1/81 41/1/81 
f 68/1/81 41/1/81 39/1/81 
f 84/1/81 68/1/81 34/1/81 
f 68/1/81 39/1/81 34/1/81 
f 34/1/81 39/1/81 37/1/81 
f 34/1/81 37/1/81 35/1/81 
f 34/1/81 35/1/81 31/1/81 
f 71/1/82 67/1/82 68/1/82 
f 71/1/82 68/1/82 72/1/82 
