# j.c. saved from ObjMesh class
# points
v 0.256500 0.500000 -0.279000
v 0.220500 0.500000 -0.441000
v 0.220500 -0.000000 -0.441000
v 0.256500 -0.000000 -0.279000
v 0.319500 0.500000 -0.144000
v 0.319500 -0.000000 -0.144000
v 0.409500 0.500000 -0.036000
v 0.409500 -0.000000 -0.036000
v 0.526500 0.000000 0.045000
v 0.526500 0.500000 0.045000
v 0.645188 0.000000 0.087750
v 0.645188 0.500000 0.087750
v 0.780750 0.000000 0.108000
v 0.780750 0.500000 0.108000
v 0.860203 0.000000 0.097594
v 0.860203 0.500000 0.097594
v 0.932063 0.000000 0.066375
v 0.932063 0.500000 0.066375
v 0.996328 0.000000 0.014344
v 0.996329 0.500000 0.014344
v 1.053000 0.500000 -0.058500
v 1.053000 -0.000000 -0.058500
v 1.095330 0.500000 -0.137109
v 1.095330 -0.000000 -0.137109
v 1.125560 0.500000 -0.222188
v 1.125560 -0.000000 -0.222188
v 1.143700 0.500000 -0.313734
v 1.143700 -0.000000 -0.313734
v 1.149750 0.500000 -0.411750
v 1.149750 -0.000000 -0.411750
v 1.135690 0.500000 -0.550688
v 1.135690 -0.000000 -0.550688
v 1.093500 0.500000 -0.670500
v 1.093500 -0.000000 -0.670500
v 1.058910 0.500000 -0.725203
v 1.058910 -0.000000 -0.725203
v 1.018130 0.500000 -0.770063
v 1.018130 -0.000000 -0.770063
v 0.971157 0.500000 -0.805078
v 0.971156 -0.000000 -0.805078
v 0.918000 0.500000 -0.830250
v 0.918000 -0.000000 -0.830250
v 0.775125 0.500000 -0.891000
v 0.775125 -0.000000 -0.891000
v 0.670500 0.500000 -0.965250
v 0.670500 -0.000000 -0.965250
v 0.614813 0.500000 -1.036690
v 0.614813 -0.000000 -1.036690
v 0.596250 0.500000 -1.107000
v 0.596250 -0.000000 -1.107000
v 0.609750 0.500000 -1.161280
v 0.609750 -0.000000 -1.161280
v 0.650250 0.500000 -1.202630
v 0.650250 -0.000000 -1.202630
v 0.713250 -0.000000 -1.226530
v 0.713250 0.500000 -1.226530
v 0.794250 -0.000000 -1.228500
v 0.794250 0.500000 -1.228500
v 0.847266 -0.000000 -1.216900
v 0.847266 0.500000 -1.216900
v 0.896063 -0.000000 -1.195590
v 0.896063 0.500000 -1.195590
v 0.940641 -0.000000 -1.164590
v 0.940641 0.500000 -1.164590
v 0.981000 0.500000 -1.123880
v 0.981000 -0.000000 -1.123880
v 1.049060 0.500000 -1.013340
v 1.049060 -0.000000 -1.013340
v 1.100250 0.500000 -0.864000
v 1.100250 -0.000000 -0.864000
v 1.232440 0.500000 -1.323420
v 1.388250 0.500000 -1.149750
v 1.388250 -0.000000 -1.149750
v 1.232440 -0.000000 -1.323420
v 1.086750 0.500000 -1.450690
v 1.086750 -0.000000 -1.450690
v 0.951188 0.500000 -1.531550
v 0.951188 -0.000000 -1.531550
v 0.887204 0.500000 -1.554570
v 0.887203 -0.000000 -1.554570
v 0.825750 0.500000 -1.566000
v 0.825750 -0.000000 -1.566000
v 0.726610 0.500000 -1.566140
v 0.726610 -0.000000 -1.566140
v 0.631688 0.500000 -1.546310
v 0.631688 -0.000000 -1.546310
v 0.540985 0.500000 -1.506520
v 0.540984 -0.000000 -1.506520
v 0.454500 0.500000 -1.446750
v 0.454500 -0.000000 -1.446750
v 0.385594 0.500000 -1.381080
v 0.385594 -0.000000 -1.381080
v 0.334125 0.500000 -1.312310
v 0.334125 -0.000000 -1.312310
v 0.300094 0.500000 -1.240450
v 0.300094 -0.000000 -1.240450
v 0.283500 0.500000 -1.165500
v 0.283500 -0.000000 -1.165500
v 0.279000 0.500000 -1.091250
v 0.279000 -0.000000 -1.091250
v 0.284203 0.500000 -1.003390
v 0.284203 -0.000000 -1.003390
v 0.299813 0.500000 -0.923203
v 0.299813 -0.000000 -0.923203
v 0.325828 0.500000 -0.850676
v 0.325828 -0.000000 -0.850676
v 0.362250 0.500000 -0.785813
v 0.362250 -0.000000 -0.785813
v 0.409078 0.500000 -0.728613
v 0.409078 -0.000000 -0.728613
v 0.466313 -0.000000 -0.679078
v 0.466313 0.500000 -0.679078
v 0.533953 -0.000000 -0.637207
v 0.533953 0.500000 -0.637207
v 0.612000 -0.000000 -0.603000
v 0.612000 0.500000 -0.603000
v 0.717188 -0.000000 -0.550688
v 0.717188 0.500000 -0.550688
v 0.794250 -0.000000 -0.479250
v 0.794250 0.500000 -0.479250
v 0.834750 0.500000 -0.405563
v 0.834750 -0.000000 -0.405563
v 0.848250 0.500000 -0.328500
v 0.848250 -0.000000 -0.328500
v 0.840094 0.500000 -0.274500
v 0.840094 -0.000000 -0.274500
v 0.815625 0.500000 -0.229500
v 0.815625 -0.000000 -0.229500
v 0.777094 0.500000 -0.199125
v 0.777094 -0.000000 -0.199125
v 0.726750 0.500000 -0.189000
v 0.726750 -0.000000 -0.189000
v 0.669657 0.500000 -0.206719
v 0.669656 -0.000000 -0.206719
v 0.628875 0.500000 -0.246375
v 0.628875 -0.000000 -0.246375
v 0.604406 0.500000 -0.307969
v 0.604406 -0.000000 -0.307969
v 0.596250 0.500000 -0.391500
v 0.596250 -0.000000 -0.391500
v 0.605250 0.500000 -0.481500
v 0.605250 -0.000000 -0.481500
# UVs
vt 0.000000 0.000000
# Normals
vn -0.957902 0.000000 0.287096
vn -0.976187 0.000000 0.216930
vn -0.934444 0.000000 0.356111
vn -0.866599 0.000000 0.499005
vn -0.820269 0.000000 0.571978
vn -0.674879 0.000000 0.737928
vn -0.496147 0.000000 0.868239
vn -0.418790 0.000000 0.908083
vn -0.276359 0.000000 0.961054
vn -0.212370 0.000000 0.977189
vn -0.055684 0.000000 0.998448
vn 0.037652 0.000000 0.999291
vn 0.221314 0.000000 0.975203
vn 0.311631 0.000000 0.950203
vn 0.479288 0.000000 0.877658
vn 0.556844 -0.000000 0.830617
vn 0.713936 -0.000001 0.700211
vn 0.822222 -0.000001 0.569168
vn 0.852711 0.000000 0.522382
vn 0.903404 0.000000 0.428790
vn 0.924065 0.000000 0.382234
vn 0.957426 0.000000 0.288679
vn 0.970337 0.000000 0.241755
vn 0.988623 0.000000 0.150417
vn 0.994358 0.000000 0.106074
vn 0.999972 0.000000 0.007533
vn 0.998908 0.000000 -0.046723
vn 0.983857 0.000000 -0.178958
vn 0.966518 0.000000 -0.256599
vn 0.915710 0.000000 -0.401839
vn 0.882850 0.000000 -0.469654
vn 0.812852 0.000000 -0.582471
vn 0.777650 0.000000 -0.628697
vn 0.695379 0.000000 -0.718643
vn 0.647746 -0.000000 -0.761856
vn 0.543464 -0.000001 -0.839432
vn 0.486661 -0.000001 -0.873591
vn 0.415828 -0.000000 -0.909443
vn 0.403597 0.000000 -0.914937
vn 0.456121 0.000000 -0.889918
vn 0.518928 0.000000 -0.854818
vn 0.654898 0.000000 -0.755717
vn 0.725547 0.000000 -0.688173
vn 0.863678 0.000000 -0.504044
vn 0.924161 0.000000 -0.382003
vn 0.995732 0.000000 -0.092293
vn 0.996955 0.000000 0.077982
vn 0.913516 0.000000 0.406803
vn 0.825434 0.000000 0.564499
vn 0.547343 0.000000 0.836908
vn 0.247710 0.000000 0.968834
vn 0.136168 0.000000 0.990686
vn -0.055392 0.000000 0.998465
vn -0.135254 0.000000 0.990811
vn -0.277085 0.000000 0.960845
vn -0.339507 0.000000 0.940604
vn -0.459071 0.000000 0.888399
vn -0.516222 0.000000 0.856455
vn -0.643210 0.000000 0.765690
vn -0.761725 0.000000 0.647900
vn -0.809127 0.000000 0.587634
vn -0.887855 0.000000 0.460123
vn -0.919505 0.000000 0.393078
vn -0.945970 0.000000 0.324255
vn 0.716703 0.000000 -0.697379
vn 0.744344 0.000000 -0.667796
vn 0.687839 0.000000 -0.725864
vn 0.611557 0.000000 -0.791200
vn 0.562841 0.000000 -0.826566
vn 0.456234 0.000000 -0.889860
vn 0.398081 -0.000000 -0.917350
vn 0.287471 -0.000000 -0.957789
vn 0.235430 -0.000000 -0.971891
vn 0.122831 -0.000000 -0.992428
vn 0.062125 0.000000 -0.998068
vn -0.067545 0.000000 -0.997716
vn -0.136510 0.000000 -0.990639
vn -0.271536 0.000000 -0.962428
vn -0.337595 0.000000 -0.941291
vn -0.459197 0.000001 -0.888335
vn -0.515029 0.000001 -0.857173
vn -0.610659 0.000000 -0.791893
vn -0.651225 0.000000 -0.758885
vn -0.729061 0.000000 -0.684449
vn -0.766076 0.000000 -0.642750
vn -0.838727 0.000000 -0.544551
vn -0.873271 0.000000 -0.487235
vn -0.933184 0.000000 -0.359400
vn -0.957513 0.000000 -0.288391
vn -0.986339 0.000000 -0.164729
vn -0.993630 0.000000 -0.112695
vn -0.999787 0.000000 -0.020657
vn -0.999814 0.000000 0.019276
vn -0.994649 0.000000 0.103308
vn -0.989079 0.000000 0.147384
vn -0.970637 0.000000 0.240551
vn -0.957170 0.000000 0.289526
vn -0.921026 0.000000 0.389501
vn -0.897841 0.000000 0.440320
vn -0.842060 0.000000 0.539385
vn -0.809226 0.000000 0.587498
vn -0.716721 0.000000 0.697360
vn -0.613447 0.000000 0.789736
vn -0.570636 0.000000 0.821203
vn -0.485779 0.000000 0.874082
vn -0.444047 0.000000 0.896004
vn -0.416155 0.000000 0.909294
vn -0.430781 0.000000 0.902456
vn -0.528266 0.000000 0.849079
vn -0.607165 0.000000 0.794576
vn -0.788209 0.000000 0.615407
vn -0.923655 0.000000 0.383226
vn -0.960309 0.000000 0.278938
vn -0.997818 0.000000 0.066019
vn -0.999095 0.000000 -0.042537
vn -0.964982 0.000000 -0.262316
vn -0.927728 0.000000 -0.373258
vn -0.806692 0.000000 -0.590971
vn -0.718615 0.000000 -0.695408
vn -0.490366 0.000000 -0.871517
vn -0.346223 0.000000 -0.938152
vn -0.033567 0.000000 -0.999436
vn 0.135612 -0.000000 -0.990762
vn 0.440756 -0.000001 -0.897627
vn 0.577684 -0.000001 -0.816260
vn 0.790047 -0.000000 -0.613047
vn 0.868999 0.000000 -0.494814
vn 0.959713 0.000000 -0.280980
vn 0.981879 0.000000 -0.189508
vn 0.999496 0.000000 -0.031754
vn 0.999419 0.000000 0.034090
vn 0.995037 0.000000 0.099504
vn 0.000000 1.000000 0.000000
vn 0.704328 -0.000000 0.709874
vn -0.104685 -0.000000 -0.994505
vn -0.000000 -1.000000 0.000000
g font3d/s1.obj
mtllib default.mtl
usemtl default
# Faces
f 1/1/1 2/1/2 3/1/2 
f 1/1/1 3/1/2 4/1/3 
f 5/1/4 1/1/1 4/1/3 
f 5/1/4 4/1/3 6/1/5 
f 7/1/6 5/1/4 6/1/5 
f 7/1/6 6/1/5 8/1/6 
f 9/1/7 10/1/8 7/1/6 
f 9/1/7 7/1/6 8/1/6 
f 11/1/9 12/1/10 10/1/8 
f 11/1/9 10/1/8 9/1/7 
f 13/1/11 14/1/12 12/1/10 
f 13/1/11 12/1/10 11/1/9 
f 15/1/13 16/1/14 14/1/12 
f 15/1/13 14/1/12 13/1/11 
f 17/1/15 18/1/16 16/1/14 
f 17/1/15 16/1/14 15/1/13 
f 19/1/17 20/1/17 18/1/16 
f 19/1/17 18/1/16 17/1/15 
f 21/1/18 20/1/17 19/1/17 
f 21/1/18 19/1/17 22/1/19 
f 23/1/20 21/1/18 22/1/19 
f 23/1/20 22/1/19 24/1/21 
f 25/1/22 23/1/20 24/1/21 
f 25/1/22 24/1/21 26/1/23 
f 27/1/24 25/1/22 26/1/23 
f 27/1/24 26/1/23 28/1/25 
f 29/1/26 27/1/24 28/1/25 
f 29/1/26 28/1/25 30/1/27 
f 31/1/28 29/1/26 30/1/27 
f 31/1/28 30/1/27 32/1/29 
f 33/1/30 31/1/28 32/1/29 
f 33/1/30 32/1/29 34/1/31 
f 35/1/32 33/1/30 34/1/31 
f 35/1/32 34/1/31 36/1/33 
f 37/1/34 35/1/32 36/1/33 
f 37/1/34 36/1/33 38/1/35 
f 37/1/34 38/1/35 39/1/36 
f 39/1/36 38/1/35 40/1/37 
f 39/1/36 40/1/37 41/1/38 
f 41/1/38 40/1/37 42/1/39 
f 41/1/38 42/1/39 43/1/40 
f 43/1/40 42/1/39 44/1/41 
f 43/1/40 44/1/41 45/1/42 
f 45/1/42 44/1/41 46/1/43 
f 47/1/44 45/1/42 46/1/43 
f 47/1/44 46/1/43 48/1/45 
f 49/1/46 47/1/44 48/1/45 
f 49/1/46 48/1/45 50/1/47 
f 51/1/48 49/1/46 50/1/47 
f 51/1/48 50/1/47 52/1/49 
f 53/1/50 51/1/48 52/1/49 
f 53/1/50 52/1/49 54/1/50 
f 55/1/51 56/1/52 53/1/50 
f 55/1/51 53/1/50 54/1/50 
f 57/1/53 58/1/54 56/1/52 
f 57/1/53 56/1/52 55/1/51 
f 59/1/55 60/1/56 58/1/54 
f 59/1/55 58/1/54 57/1/53 
f 61/1/57 62/1/58 60/1/56 
f 61/1/57 60/1/56 59/1/55 
f 63/1/59 64/1/59 62/1/58 
f 63/1/59 62/1/58 61/1/57 
f 65/1/60 64/1/59 63/1/59 
f 65/1/60 63/1/59 66/1/61 
f 67/1/62 65/1/60 66/1/61 
f 67/1/62 66/1/61 68/1/63 
f 69/1/64 67/1/62 68/1/63 
f 69/1/64 68/1/63 70/1/64 
f 71/1/65 72/1/66 73/1/66 
f 71/1/65 73/1/66 74/1/67 
f 71/1/65 74/1/67 75/1/68 
f 75/1/68 74/1/67 76/1/69 
f 75/1/68 76/1/69 77/1/70 
f 77/1/70 76/1/69 78/1/71 
f 77/1/70 78/1/71 79/1/72 
f 79/1/72 78/1/71 80/1/73 
f 79/1/72 80/1/73 81/1/74 
f 81/1/74 80/1/73 82/1/75 
f 81/1/74 82/1/75 83/1/76 
f 83/1/76 82/1/75 84/1/77 
f 83/1/76 84/1/77 85/1/78 
f 85/1/78 84/1/77 86/1/79 
f 85/1/78 86/1/79 87/1/80 
f 87/1/80 86/1/79 88/1/81 
f 87/1/80 88/1/81 89/1/82 
f 89/1/82 88/1/81 90/1/83 
f 89/1/82 90/1/83 91/1/84 
f 91/1/84 90/1/83 92/1/85 
f 93/1/86 91/1/84 92/1/85 
f 93/1/86 92/1/85 94/1/87 
f 95/1/88 93/1/86 94/1/87 
f 95/1/88 94/1/87 96/1/89 
f 97/1/90 95/1/88 96/1/89 
f 97/1/90 96/1/89 98/1/91 
f 99/1/92 97/1/90 98/1/91 
f 99/1/92 98/1/91 100/1/93 
f 101/1/94 99/1/92 100/1/93 
f 101/1/94 100/1/93 102/1/95 
f 103/1/96 101/1/94 102/1/95 
f 103/1/96 102/1/95 104/1/97 
f 105/1/98 103/1/96 104/1/97 
f 105/1/98 104/1/97 106/1/99 
f 107/1/100 105/1/98 106/1/99 
f 107/1/100 106/1/99 108/1/101 
f 109/1/102 107/1/100 108/1/101 
f 109/1/102 108/1/101 110/1/102 
f 111/1/103 112/1/104 109/1/102 
f 111/1/103 109/1/102 110/1/102 
f 113/1/105 114/1/106 112/1/104 
f 113/1/105 112/1/104 111/1/103 
f 115/1/107 116/1/108 114/1/106 
f 115/1/107 114/1/106 113/1/105 
f 117/1/109 118/1/110 116/1/108 
f 117/1/109 116/1/108 115/1/107 
f 119/1/111 120/1/111 118/1/110 
f 119/1/111 118/1/110 117/1/109 
f 121/1/112 120/1/111 119/1/111 
f 121/1/112 119/1/111 122/1/113 
f 123/1/114 121/1/112 122/1/113 
f 123/1/114 122/1/113 124/1/115 
f 125/1/116 123/1/114 124/1/115 
f 125/1/116 124/1/115 126/1/117 
f 127/1/118 125/1/116 126/1/117 
f 127/1/118 126/1/117 128/1/119 
f 127/1/118 128/1/119 129/1/120 
f 129/1/120 128/1/119 130/1/121 
f 129/1/120 130/1/121 131/1/122 
f 131/1/122 130/1/121 132/1/123 
f 131/1/122 132/1/123 133/1/124 
f 133/1/124 132/1/123 134/1/125 
f 133/1/124 134/1/125 135/1/126 
f 135/1/126 134/1/125 136/1/127 
f 137/1/128 135/1/126 136/1/127 
f 137/1/128 136/1/127 138/1/129 
f 139/1/130 137/1/128 138/1/129 
f 139/1/130 138/1/129 140/1/131 
f 141/1/132 139/1/130 140/1/131 
f 141/1/132 140/1/131 142/1/132 
g font3d/s2.obj
mtllib default.mtl
usemtl default
# Faces
f 141/1/133 2/1/133 139/1/133 
f 139/1/133 2/1/133 137/1/133 
f 137/1/133 2/1/133 1/1/133 
f 137/1/133 1/1/133 135/1/133 
f 135/1/133 1/1/133 133/1/133 
f 133/1/133 1/1/133 131/1/133 
f 131/1/133 1/1/133 5/1/133 
f 58/1/133 95/1/133 56/1/133 
f 56/1/133 95/1/133 53/1/133 
f 53/1/133 95/1/133 97/1/133 
f 53/1/133 97/1/133 51/1/133 
f 51/1/133 97/1/133 49/1/133 
f 49/1/133 97/1/133 99/1/133 
f 49/1/133 99/1/133 47/1/133 
f 47/1/133 99/1/133 101/1/133 
f 47/1/133 101/1/133 45/1/133 
f 45/1/133 101/1/133 103/1/133 
f 45/1/133 103/1/133 43/1/133 
f 43/1/133 103/1/133 105/1/133 
f 43/1/133 105/1/133 41/1/133 
f 41/1/133 105/1/133 39/1/133 
f 39/1/133 105/1/133 107/1/133 
f 39/1/133 107/1/133 37/1/133 
f 37/1/133 107/1/133 109/1/133 
f 37/1/133 109/1/133 35/1/133 
f 35/1/133 109/1/133 112/1/133 
f 35/1/133 112/1/133 33/1/133 
f 33/1/133 112/1/133 114/1/133 
f 33/1/133 114/1/133 116/1/133 
f 33/1/133 116/1/133 118/1/133 
f 33/1/133 118/1/133 31/1/133 
f 31/1/133 118/1/133 120/1/133 
f 31/1/133 120/1/133 29/1/133 
f 29/1/133 120/1/133 121/1/133 
f 29/1/133 121/1/133 123/1/133 
f 29/1/133 123/1/133 27/1/133 
f 27/1/133 123/1/133 125/1/133 
f 27/1/133 125/1/133 127/1/133 
f 27/1/133 127/1/133 25/1/133 
f 25/1/133 127/1/133 129/1/133 
f 25/1/133 129/1/133 131/1/133 
f 25/1/133 131/1/133 5/1/133 
f 25/1/133 5/1/133 23/1/133 
f 23/1/133 5/1/133 21/1/133 
f 21/1/133 5/1/133 7/1/133 
f 21/1/133 7/1/133 20/1/133 
f 20/1/133 7/1/133 10/1/133 
f 20/1/133 10/1/133 18/1/133 
f 18/1/133 10/1/133 12/1/133 
f 18/1/133 12/1/133 16/1/133 
f 16/1/133 12/1/133 14/1/133 
f 81/1/133 83/1/133 79/1/133 
f 79/1/133 83/1/133 85/1/133 
f 79/1/133 85/1/133 77/1/133 
f 77/1/133 85/1/133 87/1/133 
f 77/1/133 87/1/133 75/1/133 
f 75/1/133 87/1/133 89/1/133 
f 75/1/133 89/1/133 91/1/133 
f 75/1/133 91/1/133 71/1/133 
f 71/1/133 91/1/133 93/1/133 
f 71/1/133 93/1/133 95/1/133 
f 71/1/133 95/1/133 58/1/133 
f 71/1/133 58/1/133 60/1/133 
f 71/1/133 60/1/133 62/1/133 
f 71/1/133 62/1/133 64/1/133 
f 71/1/133 64/1/133 72/1/133 
f 72/1/133 64/1/133 65/1/133 
f 72/1/133 65/1/133 67/1/133 
f 72/1/133 67/1/133 69/1/133 
f 73/1/134 72/1/134 69/1/134 
f 73/1/134 69/1/134 70/1/134 
f 141/1/135 142/1/135 2/1/135 
f 2/1/135 142/1/135 3/1/135 
f 3/1/136 142/1/136 140/1/136 
f 3/1/136 140/1/136 138/1/136 
f 3/1/136 138/1/136 4/1/136 
f 4/1/136 138/1/136 136/1/136 
f 4/1/136 136/1/136 134/1/136 
f 4/1/136 134/1/136 132/1/136 
f 4/1/136 132/1/136 6/1/136 
f 96/1/136 57/1/136 55/1/136 
f 96/1/136 55/1/136 54/1/136 
f 96/1/136 54/1/136 98/1/136 
f 98/1/136 54/1/136 52/1/136 
f 98/1/136 52/1/136 50/1/136 
f 98/1/136 50/1/136 100/1/136 
f 100/1/136 50/1/136 48/1/136 
f 100/1/136 48/1/136 102/1/136 
f 102/1/136 48/1/136 46/1/136 
f 102/1/136 46/1/136 104/1/136 
f 104/1/136 46/1/136 44/1/136 
f 104/1/136 44/1/136 106/1/136 
f 106/1/136 44/1/136 42/1/136 
f 106/1/136 42/1/136 40/1/136 
f 106/1/136 40/1/136 108/1/136 
f 108/1/136 40/1/136 38/1/136 
f 108/1/136 38/1/136 110/1/136 
f 110/1/136 38/1/136 36/1/136 
f 110/1/136 36/1/136 111/1/136 
f 111/1/136 36/1/136 34/1/136 
f 111/1/136 34/1/136 113/1/136 
f 113/1/136 34/1/136 115/1/136 
f 115/1/136 34/1/136 32/1/136 
f 115/1/136 32/1/136 117/1/136 
f 117/1/136 32/1/136 119/1/136 
f 119/1/136 32/1/136 30/1/136 
f 119/1/136 30/1/136 122/1/136 
f 122/1/136 30/1/136 124/1/136 
f 124/1/136 30/1/136 28/1/136 
f 124/1/136 28/1/136 126/1/136 
f 126/1/136 28/1/136 128/1/136 
f 128/1/136 28/1/136 26/1/136 
f 128/1/136 26/1/136 130/1/136 
f 130/1/136 26/1/136 132/1/136 
f 132/1/136 26/1/136 6/1/136 
f 6/1/136 26/1/136 24/1/136 
f 6/1/136 24/1/136 22/1/136 
f 6/1/136 22/1/136 8/1/136 
f 8/1/136 22/1/136 19/1/136 
f 8/1/136 19/1/136 9/1/136 
f 9/1/136 19/1/136 17/1/136 
f 9/1/136 17/1/136 11/1/136 
f 11/1/136 17/1/136 15/1/136 
f 11/1/136 15/1/136 13/1/136 
f 84/1/136 82/1/136 80/1/136 
f 84/1/136 80/1/136 86/1/136 
f 86/1/136 80/1/136 78/1/136 
f 86/1/136 78/1/136 88/1/136 
f 88/1/136 78/1/136 76/1/136 
f 88/1/136 76/1/136 90/1/136 
f 90/1/136 76/1/136 92/1/136 
f 92/1/136 76/1/136 74/1/136 
f 92/1/136 74/1/136 94/1/136 
f 94/1/136 74/1/136 96/1/136 
f 96/1/136 74/1/136 57/1/136 
f 57/1/136 74/1/136 59/1/136 
f 59/1/136 74/1/136 61/1/136 
f 61/1/136 74/1/136 63/1/136 
f 63/1/136 74/1/136 73/1/136 
f 63/1/136 73/1/136 66/1/136 
f 66/1/136 73/1/136 68/1/136 
f 68/1/136 73/1/136 70/1/136 
