# This file uses centimeters as units for non-parametric coordinates.

mtllib plat_rect_2x2_std.mtl
g default
v -100.000000 10.000000 -100.000000
v -100.000000 10.000000 100.000000
v 100.000000 10.000000 -100.000000
v 100.000000 10.000000 100.000000
v 100.000000 0.000000 -100.000000
v 100.000000 0.000000 100.000000
v -100.000000 0.000000 -100.000000
v -100.000000 0.000000 100.000000
vt 0.500000 1.000000
vt 0.003906 1.000000
vt 0.500000 0.503906
vt 0.003906 0.503906
vt 0.988281 0.500000
vt 0.496094 0.500000
vt 0.988281 0.011719
vt 0.496094 0.011719
vt 0.988281 0.996094
vt 0.585938 0.996094
vt 0.988281 0.597656
vt 0.585938 0.597656
vt 0.500000 0.011719
vt 0.988281 0.503906
vt 0.003906 0.011719
vt 0.496094 0.503906
vt 0.988281 0.011719
vt 0.500000 0.503906
vt 0.988281 0.011719
vt 0.500000 0.503906
vt 0.003906 0.503906
vt 0.496094 0.011719
vt 0.003906 0.503906
vt 0.496094 0.011719
vt 0.496094 0.503906
vt 0.496094 0.011719
vt 0.496094 0.011719
vt 0.003906 0.011719
vn -0.080448 0.994388 -0.068711
vn -0.019086 0.999341 0.030881
vn 0.019086 0.999341 -0.030881
vn -0.019086 0.999341 0.030881
vn 0.080448 0.994388 0.068711
vn 0.019086 0.999341 -0.030881
vn 0.019086 0.999341 -0.030881
vn 0.080448 0.994388 0.068711
vn 0.080448 -0.994388 -0.068711
vn 0.080448 0.994388 0.068711
vn 0.019086 -0.999341 0.030881
vn 0.080448 -0.994388 -0.068711
vn 0.080448 -0.994388 -0.068711
vn 0.019086 -0.999341 0.030881
vn -0.019086 -0.999341 -0.030881
vn 0.019086 -0.999341 0.030881
vn -0.080448 -0.994388 0.068711
vn -0.019086 -0.999341 -0.030881
vn -0.019086 -0.999341 -0.030881
vn -0.080448 -0.994388 0.068711
vn -0.080448 0.994388 -0.068711
vn -0.080448 -0.994388 0.068711
vn -0.019086 0.999341 0.030881
vn -0.080448 0.994388 -0.068711
vn -0.019086 -0.999341 -0.030881
vn -0.080448 0.994388 -0.068711
vn 0.080448 -0.994388 -0.068711
vn -0.080448 0.994388 -0.068711
vn 0.019086 0.999341 -0.030881
vn 0.080448 -0.994388 -0.068711
vn -0.019086 0.999341 0.030881
vn -0.080448 -0.994388 0.068711
vn 0.080448 0.994388 0.068711
vn -0.080448 -0.994388 0.068711
vn 0.019086 -0.999341 0.030881
vn 0.080448 0.994388 0.068711
s off
g crate3:_Users_jason_box_md2
usemtl crate3:Material01
f 1/1/1 2/2/2 3/3/3
f 2/2/4 4/4/5 3/3/6
f 3/5/7 4/6/8 5/7/9
f 4/6/10 6/8/11 5/7/12
f 5/9/13 6/10/14 7/11/15
f 6/10/16 8/12/17 7/11/18
f 7/13/19 8/17/20 1/18/21
f 8/19/22 2/14/23 1/20/24
f 7/15/25 1/21/26 5/22/27
f 1/23/28 3/16/29 5/24/30
f 2/25/31 8/26/32 4/4/33
f 8/27/34 6/28/35 4/4/36
