# This file uses centimeters as units for non-parametric coordinates.

mtllib ramp_3x1.mtl
g default
v -150.000000 0.903475 50.000000
v 150.000000 0.903475 50.000000
v -150.000000 12.589861 50.000000
v 150.000000 50.903475 50.000000
v -150.000000 12.589861 -50.000000
v 150.000000 50.903475 -50.000000
v -150.000000 0.903475 -50.000000
v 150.000000 0.903475 -50.000000
v 50.526312 50.903475 -50.000000
v 50.526312 50.903475 0.000000
v 50.526312 50.903475 50.000000
vt 0.203064 0.007562
vt 0.805179 0.007562
vt 0.203064 0.271046
vt 0.805179 0.271046
vt 0.203064 0.992123
vt 0.805179 0.992123
vt 0.012233 0.501335
vt 0.152420 0.501335
vt 0.012233 0.986422
vt 0.152420 0.986422
vt 0.850348 0.505416
vt 0.979245 0.505416
vt 0.850348 0.983311
vt 0.979245 0.983311
vt 0.993949 0.007562
vt 0.993949 0.271046
vt 0.006051 0.007562
vt 0.006051 0.271046
vt 0.496404 0.992123
vt 0.082327 0.501335
vt 0.496404 0.617436
vt 0.496404 0.271046
vn 0.000000 0.000000 1.000000
vn 0.000000 0.000000 1.000000
vn 0.000000 0.000000 1.000000
vn 0.000000 0.000000 1.000000
vn 0.000000 0.000000 1.000000
vn 0.000000 0.000000 1.000000
vn 0.000000 0.000000 1.000000
vn 0.000000 1.000000 0.000000
vn 0.000000 1.000000 0.000000
vn 0.000000 1.000000 0.000000
vn 0.000000 1.000000 0.000000
vn 0.000000 1.000000 0.000000
vn 0.000000 1.000000 0.000000
vn 0.000000 1.000000 0.000000
vn 0.000000 0.000000 -1.000000
vn 0.000000 0.000000 -1.000000
vn 0.000000 0.000000 -1.000000
vn 0.000000 0.000000 -1.000000
vn 0.000000 0.000000 -1.000000
vn 0.000000 0.000000 -1.000000
vn 0.000000 0.000000 -1.000000
vn 0.000000 -1.000000 0.000000
vn 0.000000 -1.000000 0.000000
vn 0.000000 -1.000000 0.000000
vn 0.000000 -1.000000 0.000000
vn 0.000000 -1.000000 0.000000
vn 0.000000 -1.000000 0.000000
vn 1.000000 0.000000 0.000000
vn 1.000000 0.000000 0.000000
vn 1.000000 0.000000 0.000000
vn 1.000000 0.000000 0.000000
vn 1.000000 0.000000 0.000000
vn 1.000000 0.000000 0.000000
vn -1.000000 0.000000 0.000000
vn -1.000000 0.000000 0.000000
vn -1.000000 0.000000 0.000000
vn -1.000000 0.000000 0.000000
vn -1.000000 0.000000 0.000000
vn -1.000000 0.000000 0.000000
vn 0.000000 1.000000 0.000000
vn -0.187670 0.982232 0.000000
vn -0.187670 0.982232 0.000000
vn -0.187670 0.982232 0.000000
vn -0.187670 0.982232 0.000000
vn 0.000000 1.000000 0.000000
vn 0.000000 1.000000 0.000000
s off
g pCube1
usemtl lambert3SG
f 1/1/1 2/2/2 3/3/3
s 2
f 3/3/4 2/2/5 11/22/6
f 11/22/6 2/2/5 4/4/7
s off
f 11/22/8 4/4/9 10/21/10
s 4
f 4/4/11 6/6/12 10/21/13
f 10/21/13 6/6/12 9/19/14
s 5
f 5/7/15 9/20/16 7/9/17
f 7/9/17 9/20/16 6/8/18
s off
f 7/9/19 6/8/20 8/10/21
f 7/11/22 8/12/23 1/13/24
f 1/13/25 8/12/26 2/14/27
f 2/2/28 8/15/29 4/4/30
f 4/4/31 8/15/32 6/16/33
f 7/17/34 1/1/35 5/18/36
f 5/18/37 1/1/38 3/3/39
f 5/5/40 10/21/41 9/19/42
s 14
f 11/22/43 10/21/44 3/3/45
f 3/3/45 10/21/44 5/5/46
