# j.c. saved from ObjMesh class
# points
v 1.339480 0.500000 -0.806182
v 1.359730 0.500000 0.186068
v 1.359730 0.000000 0.186068
v 1.339480 0.000000 -0.806182
v 1.331600 0.500000 -0.919244
v 1.331600 0.000000 -0.919244
v 1.312480 0.500000 -1.024430
v 1.312480 0.000000 -1.024430
v 1.282100 0.500000 -1.121740
v 1.282100 0.000000 -1.121740
v 1.240480 0.500000 -1.211180
v 1.240480 0.000000 -1.211180
v 1.162850 0.500000 -1.319460
v 1.162850 0.000000 -1.319460
v 1.067230 0.000000 -1.396810
v 1.067230 0.500000 -1.396810
v 0.953604 0.000000 -1.443210
v 0.953604 0.500000 -1.443210
v 0.821979 0.000000 -1.458680
v 0.821979 0.500000 -1.458680
v 0.700760 0.000000 -1.444620
v 0.700760 0.500000 -1.444620
v 0.595854 0.000000 -1.402430
v 0.595854 0.500000 -1.402430
v 0.507260 0.000000 -1.332120
v 0.507260 0.500000 -1.332120
v 0.434979 0.500000 -1.233680
v 0.434979 0.000000 -1.233680
v 0.393354 0.500000 -1.150150
v 0.393354 0.000000 -1.150150
v 0.360729 0.500000 -1.054810
v 0.360729 0.000000 -1.054810
v 0.337104 0.500000 -0.947650
v 0.337104 0.000000 -0.947650
v 0.322479 0.500000 -0.828682
v 0.322479 0.000000 -0.828682
v 0.678682 0.500000 -0.921775
v 0.668979 0.500000 -0.799432
v 0.668979 0.000000 -0.799432
v 0.678682 0.000000 -0.921775
v 0.710041 0.500000 -1.009810
v 0.710041 0.000000 -1.009810
v 0.763057 0.500000 -1.063520
v 0.763057 0.000000 -1.063520
v 0.837729 0.000000 -1.082930
v 0.837729 0.500000 -1.082930
v 0.888776 0.000000 -1.075480
v 0.888776 0.500000 -1.075480
v 0.931666 0.000000 -1.050870
v 0.931666 0.500000 -1.050870
v 0.966401 0.500000 -1.009100
v 0.966401 0.000000 -1.009100
v 0.992979 0.500000 -0.950182
v 0.992979 0.000000 -0.950182
v 1.015480 0.500000 -0.836557
v 1.015480 0.000000 -0.836557
v 1.019980 0.500000 -0.693682
v 1.019980 0.000000 -0.693682
v 0.850666 0.000000 -0.720682
v 0.850666 0.500000 -0.720682
v 0.689229 0.000000 -0.729682
v 0.689229 0.500000 -0.729682
v 0.575885 0.000000 -0.724373
v 0.575885 0.500000 -0.724373
v 0.476604 0.000000 -0.708447
v 0.476604 0.500000 -0.708447
v 0.391385 0.000000 -0.681904
v 0.391385 0.500000 -0.681904
v 0.320229 0.000000 -0.644744
v 0.320229 0.500000 -0.644744
v 0.263135 0.000000 -0.596967
v 0.263135 0.500000 -0.596967
v 0.220104 0.500000 -0.538572
v 0.220104 0.000000 -0.538572
v 0.191135 0.500000 -0.469560
v 0.191135 0.000000 -0.469560
v 0.176229 0.500000 -0.389932
v 0.176229 0.000000 -0.389932
v 0.183963 0.500000 -0.277432
v 0.183963 0.000000 -0.277432
v 0.202069 0.500000 -0.227932
v 0.202069 0.000000 -0.227932
v 0.229666 0.500000 -0.182932
v 0.229666 0.000000 -0.182932
v 0.313338 0.000000 -0.106432
v 0.313338 0.500000 -0.106432
v 0.434979 0.000000 -0.047932
v 0.434979 0.500000 -0.047932
v 0.538901 0.000000 -0.018822
v 0.538901 0.500000 -0.018822
v 0.657166 0.000000 0.001006
v 0.657166 0.500000 0.001006
v 0.936729 0.000000 0.012818
v 0.936729 0.500000 0.012818
v 0.977229 0.500000 -0.259432
v 0.977229 0.000000 -0.259432
v 0.851229 0.000000 -0.239182
v 0.851229 0.500000 -0.239182
v 0.734229 0.000000 -0.232432
v 0.734229 0.500000 -0.232432
v 0.623416 0.000000 -0.241572
v 0.623416 0.500000 -0.241572
v 0.545229 0.000000 -0.268994
v 0.545229 0.500000 -0.268994
v 0.499667 0.500000 -0.314697
v 0.499667 0.000000 -0.314697
v 0.486729 0.500000 -0.378682
v 0.486729 0.000000 -0.378682
v 0.502620 0.500000 -0.427900
v 0.502620 0.000000 -0.427900
v 0.545791 0.000000 -0.463057
v 0.545791 0.500000 -0.463057
v 0.616245 0.000000 -0.484150
v 0.616245 0.500000 -0.484150
v 0.713979 0.000000 -0.491182
v 0.713979 0.500000 -0.491182
v 0.845041 0.000000 -0.483307
v 0.845041 0.500000 -0.483307
v 0.990729 0.000000 -0.459682
v 0.990729 0.500000 -0.459682
v 0.920979 0.500000 0.132068
v 0.920979 0.000000 0.132068
# UVs
vt 0.000000 0.000000
# Normals
vn 0.999323 0.000000 -0.036789
vn 0.999792 0.000000 -0.020404
vn 0.998586 0.000000 -0.053168
vn 0.994354 0.000000 -0.106110
vn 0.989781 0.000000 -0.142597
vn 0.975740 0.000000 -0.218932
vn 0.965952 0.000000 -0.258723
vn 0.940435 0.000000 -0.339975
vn 0.924430 0.000000 -0.381351
vn 0.878725 0.000000 -0.477329
vn 0.847294 0.000000 -0.531125
vn 0.727368 0.000000 -0.686248
vn 0.550517 0.000000 -0.834824
vn 0.466093 0.000000 -0.884736
vn 0.293326 0.000000 -0.956012
vn 0.205505 0.000000 -0.978656
vn 0.039651 0.000000 -0.999214
vn -0.038130 0.000000 -0.999273
vn -0.202788 0.000000 -0.979223
vn -0.289442 0.000000 -0.957196
vn -0.460210 0.000000 -0.887810
vn -0.543821 0.000000 -0.839201
vn -0.720235 0.000000 -0.693730
vn -0.838430 0.000000 -0.545009
vn -0.868187 0.000000 -0.496238
vn -0.913848 0.000000 -0.406056
vn -0.930918 0.000000 -0.365227
vn -0.957626 0.000000 -0.288015
vn -0.967778 0.000000 -0.251807
vn -0.982854 0.000000 -0.184385
vn -0.988186 0.000000 -0.153260
vn -0.992528 0.000000 -0.122014
vn 0.986154 0.000000 0.165833
vn 0.996870 0.000000 0.079062
vn 0.967729 0.000000 0.251992
vn 0.883873 0.000000 0.467728
vn 0.805443 0.000000 0.592674
vn 0.499572 0.000000 0.866272
vn 0.121726 0.000000 0.992564
vn -0.012640 0.000000 0.999920
vn -0.266338 0.000000 0.963880
vn -0.385967 0.000000 0.922512
vn -0.643461 0.000000 0.765479
vn -0.823088 0.000000 0.567913
vn -0.871029 0.000000 0.491231
vn -0.940115 0.000000 0.340856
vn -0.963385 0.000000 0.268121
vn -0.990092 0.000000 0.140417
vn -0.996296 0.000000 0.085996
vn -0.660942 0.000000 -0.750437
vn 0.123683 0.000000 -0.992322
vn 0.089706 0.000000 -0.995968
vn 0.021537 0.000000 -0.999768
vn -0.012653 0.000000 -0.999920
vn -0.084106 0.000000 -0.996457
vn -0.121358 0.000000 -0.992609
vn -0.205183 0.000000 -0.978724
vn -0.251618 0.000000 -0.967827
vn -0.353818 0.000000 -0.935314
vn -0.409193 0.000000 -0.912448
vn -0.525233 0.000000 -0.850958
vn -0.585158 0.000000 -0.810919
vn -0.728590 0.000000 -0.684950
vn -0.849364 0.000000 -0.527808
vn -0.888618 0.000000 -0.458649
vn -0.947088 0.000000 -0.320973
vn -0.967480 0.000000 -0.252949
vn -0.994935 0.000000 -0.100522
vn -0.999876 0.000000 -0.015722
vn -0.986847 0.000000 0.161655
vn -0.967174 0.000000 0.254115
vn -0.914289 0.000000 0.405063
vn -0.885266 0.000000 0.465084
vn -0.771162 0.000000 0.636638
vn -0.600000 0.000000 0.800000
vn -0.518777 0.000000 0.854910
vn -0.380144 0.000000 0.924928
vn -0.325399 0.000000 0.945577
vn -0.235237 0.000000 0.971938
vn -0.200399 -0.000000 0.979715
vn -0.124517 -0.000000 0.992217
vn -0.083401 -0.000000 0.996516
vn -0.042214 -0.000000 0.999109
vn -0.158678 0.000000 -0.987330
vn -0.125128 0.000000 -0.992141
vn -0.091395 0.000000 -0.995815
vn -0.011021 0.000000 -0.999939
vn 0.035680 0.000000 -0.999363
vn 0.166321 0.000000 -0.986072
vn 0.249842 0.000000 -0.968287
vn 0.532990 0.000000 -0.846121
vn 0.830045 0.000000 -0.557697
vn 0.924239 0.000000 -0.381814
vn 0.999532 0.000000 -0.030595
vn 0.989737 0.000000 0.142899
vn 0.825432 0.000000 0.564502
vn 0.525538 0.000000 0.850770
vn 0.408661 0.000000 0.912686
vn 0.216279 0.000000 0.976332
vn 0.144214 0.000000 0.989546
vn 0.027905 0.000000 0.999611
vn -0.016095 0.000000 0.999870
vn -0.093448 0.000000 0.995624
vn -0.126849 0.000000 0.991922
vn -0.160071 0.000000 0.987106
vn 0.000000 1.000000 -0.000000
vn -0.997735 0.000000 -0.067263
vn -0.084116 0.000000 0.996456
vn -0.991391 0.000000 -0.130938
vn -0.122155 0.000000 0.992511
vn 0.000000 -1.000000 -0.000000
g font3d/a1.obj
mtllib default.mtl
usemtl default
# Faces
f 1/1/1 2/1/2 3/1/2 
f 1/1/1 3/1/2 4/1/3 
f 5/1/4 1/1/1 4/1/3 
f 5/1/4 4/1/3 6/1/5 
f 7/1/6 5/1/4 6/1/5 
f 7/1/6 6/1/5 8/1/7 
f 9/1/8 7/1/6 8/1/7 
f 9/1/8 8/1/7 10/1/9 
f 11/1/10 9/1/8 10/1/9 
f 11/1/10 10/1/9 12/1/11 
f 13/1/12 11/1/10 12/1/11 
f 13/1/12 12/1/11 14/1/12 
f 13/1/12 14/1/12 15/1/13 
f 13/1/12 15/1/13 16/1/14 
f 16/1/14 15/1/13 17/1/15 
f 16/1/14 17/1/15 18/1/16 
f 18/1/16 17/1/15 19/1/17 
f 18/1/16 19/1/17 20/1/18 
f 20/1/18 19/1/17 21/1/19 
f 20/1/18 21/1/19 22/1/20 
f 22/1/20 21/1/19 23/1/21 
f 22/1/20 23/1/21 24/1/22 
f 24/1/22 23/1/21 25/1/23 
f 24/1/22 25/1/23 26/1/23 
f 27/1/24 26/1/23 25/1/23 
f 27/1/24 25/1/23 28/1/25 
f 29/1/26 27/1/24 28/1/25 
f 29/1/26 28/1/25 30/1/27 
f 31/1/28 29/1/26 30/1/27 
f 31/1/28 30/1/27 32/1/29 
f 33/1/30 31/1/28 32/1/29 
f 33/1/30 32/1/29 34/1/31 
f 35/1/32 33/1/30 34/1/31 
f 35/1/32 34/1/31 36/1/32 
f 37/1/33 38/1/34 39/1/34 
f 37/1/33 39/1/34 40/1/35 
f 41/1/36 37/1/33 40/1/35 
f 41/1/36 40/1/35 42/1/37 
f 43/1/38 41/1/36 42/1/37 
f 43/1/38 42/1/37 44/1/38 
f 45/1/39 46/1/40 43/1/38 
f 45/1/39 43/1/38 44/1/38 
f 47/1/41 48/1/42 46/1/40 
f 47/1/41 46/1/40 45/1/39 
f 49/1/43 50/1/43 48/1/42 
f 49/1/43 48/1/42 47/1/41 
f 51/1/44 50/1/43 49/1/43 
f 51/1/44 49/1/43 52/1/45 
f 53/1/46 51/1/44 52/1/45 
f 53/1/46 52/1/45 54/1/47 
f 55/1/48 53/1/46 54/1/47 
f 55/1/48 54/1/47 56/1/49 
f 57/1/50 55/1/48 56/1/49 
f 57/1/50 56/1/49 58/1/50 
f 57/1/50 58/1/50 59/1/51 
f 57/1/50 59/1/51 60/1/52 
f 60/1/52 59/1/51 61/1/53 
f 60/1/52 61/1/53 62/1/54 
f 62/1/54 61/1/53 63/1/55 
f 62/1/54 63/1/55 64/1/56 
f 64/1/56 63/1/55 65/1/57 
f 64/1/56 65/1/57 66/1/58 
f 66/1/58 65/1/57 67/1/59 
f 66/1/58 67/1/59 68/1/60 
f 68/1/60 67/1/59 69/1/61 
f 68/1/60 69/1/61 70/1/62 
f 70/1/62 69/1/61 71/1/63 
f 70/1/62 71/1/63 72/1/63 
f 73/1/64 72/1/63 71/1/63 
f 73/1/64 71/1/63 74/1/65 
f 75/1/66 73/1/64 74/1/65 
f 75/1/66 74/1/65 76/1/67 
f 77/1/68 75/1/66 76/1/67 
f 77/1/68 76/1/67 78/1/69 
f 79/1/70 77/1/68 78/1/69 
f 79/1/70 78/1/69 80/1/71 
f 81/1/72 79/1/70 80/1/71 
f 81/1/72 80/1/71 82/1/73 
f 83/1/74 81/1/72 82/1/73 
f 83/1/74 82/1/73 84/1/74 
f 85/1/75 86/1/76 83/1/74 
f 85/1/75 83/1/74 84/1/74 
f 87/1/77 88/1/78 86/1/76 
f 87/1/77 86/1/76 85/1/75 
f 89/1/79 90/1/80 88/1/78 
f 89/1/79 88/1/78 87/1/77 
f 91/1/81 92/1/82 90/1/80 
f 91/1/81 90/1/80 89/1/79 
f 93/1/83 94/1/83 92/1/82 
f 93/1/83 92/1/82 91/1/81 
f 95/1/84 96/1/84 97/1/85 
f 95/1/84 97/1/85 98/1/86 
f 98/1/86 97/1/85 99/1/87 
f 98/1/86 99/1/87 100/1/88 
f 100/1/88 99/1/87 101/1/89 
f 100/1/88 101/1/89 102/1/90 
f 102/1/90 101/1/89 103/1/91 
f 102/1/90 103/1/91 104/1/91 
f 105/1/92 104/1/91 103/1/91 
f 105/1/92 103/1/91 106/1/93 
f 107/1/94 105/1/92 106/1/93 
f 107/1/94 106/1/93 108/1/95 
f 109/1/96 107/1/94 108/1/95 
f 109/1/96 108/1/95 110/1/96 
f 111/1/97 112/1/98 109/1/96 
f 111/1/97 109/1/96 110/1/96 
f 113/1/99 114/1/100 112/1/98 
f 113/1/99 112/1/98 111/1/97 
f 115/1/101 116/1/102 114/1/100 
f 115/1/101 114/1/100 113/1/99 
f 117/1/103 118/1/104 116/1/102 
f 117/1/103 116/1/102 115/1/101 
f 119/1/105 120/1/105 118/1/104 
f 119/1/105 118/1/104 117/1/103 
g font3d/a2.obj
mtllib default.mtl
usemtl default
# Faces
f 20/1/106 22/1/106 18/1/106 
f 18/1/106 22/1/106 24/1/106 
f 18/1/106 24/1/106 16/1/106 
f 16/1/106 24/1/106 26/1/106 
f 16/1/106 26/1/106 13/1/106 
f 13/1/106 26/1/106 27/1/106 
f 13/1/106 27/1/106 11/1/106 
f 11/1/106 27/1/106 29/1/106 
f 11/1/106 29/1/106 9/1/106 
f 9/1/106 29/1/106 46/1/106 
f 46/1/106 29/1/106 43/1/106 
f 43/1/106 29/1/106 31/1/106 
f 43/1/106 31/1/106 41/1/106 
f 41/1/106 31/1/106 33/1/106 
f 41/1/106 33/1/106 37/1/106 
f 37/1/106 33/1/106 35/1/106 
f 37/1/106 35/1/106 38/1/106 
f 62/1/106 64/1/106 60/1/106 
f 60/1/106 64/1/106 66/1/106 
f 60/1/106 66/1/106 57/1/106 
f 57/1/106 66/1/106 68/1/106 
f 9/1/106 46/1/106 48/1/106 
f 9/1/106 48/1/106 50/1/106 
f 9/1/106 50/1/106 7/1/106 
f 7/1/106 50/1/106 51/1/106 
f 7/1/106 51/1/106 53/1/106 
f 7/1/106 53/1/106 5/1/106 
f 5/1/106 53/1/106 55/1/106 
f 5/1/106 55/1/106 1/1/106 
f 1/1/106 55/1/106 57/1/106 
f 57/1/106 68/1/106 70/1/106 
f 57/1/106 70/1/106 72/1/106 
f 57/1/106 72/1/106 73/1/106 
f 57/1/106 73/1/106 116/1/106 
f 1/1/106 57/1/106 116/1/106 
f 1/1/106 116/1/106 118/1/106 
f 1/1/106 118/1/106 120/1/106 
f 1/1/106 120/1/106 95/1/106 
f 100/1/106 81/1/106 83/1/106 
f 98/1/106 100/1/106 83/1/106 
f 98/1/106 83/1/106 86/1/106 
f 95/1/106 98/1/106 86/1/106 
f 95/1/106 86/1/106 88/1/106 
f 95/1/106 88/1/106 90/1/106 
f 95/1/106 90/1/106 92/1/106 
f 95/1/106 92/1/106 94/1/106 
f 1/1/106 95/1/106 94/1/106 
f 1/1/106 94/1/106 121/1/106 
f 1/1/106 121/1/106 2/1/106 
f 116/1/106 73/1/106 114/1/106 
f 114/1/106 73/1/106 75/1/106 
f 114/1/106 75/1/106 112/1/106 
f 112/1/106 75/1/106 109/1/106 
f 109/1/106 75/1/106 77/1/106 
f 109/1/106 77/1/106 107/1/106 
f 107/1/106 77/1/106 105/1/106 
f 105/1/106 77/1/106 79/1/106 
f 105/1/106 79/1/106 104/1/106 
f 104/1/106 79/1/106 102/1/106 
f 102/1/106 79/1/106 100/1/106 
f 100/1/106 79/1/106 81/1/106 
f 95/1/107 120/1/107 119/1/107 
f 95/1/107 119/1/107 96/1/107 
f 39/1/108 38/1/108 35/1/108 
f 39/1/108 35/1/108 36/1/108 
f 121/1/109 94/1/109 93/1/109 
f 121/1/109 93/1/109 122/1/109 
f 3/1/110 2/1/110 121/1/110 
f 3/1/110 121/1/110 122/1/110 
f 63/1/111 61/1/111 59/1/111 
f 63/1/111 59/1/111 65/1/111 
f 65/1/111 59/1/111 58/1/111 
f 65/1/111 58/1/111 67/1/111 
f 21/1/111 19/1/111 17/1/111 
f 21/1/111 17/1/111 23/1/111 
f 23/1/111 17/1/111 15/1/111 
f 23/1/111 15/1/111 25/1/111 
f 25/1/111 15/1/111 14/1/111 
f 25/1/111 14/1/111 28/1/111 
f 28/1/111 14/1/111 12/1/111 
f 28/1/111 12/1/111 30/1/111 
f 30/1/111 12/1/111 10/1/111 
f 30/1/111 10/1/111 45/1/111 
f 30/1/111 45/1/111 44/1/111 
f 30/1/111 44/1/111 32/1/111 
f 32/1/111 44/1/111 42/1/111 
f 32/1/111 42/1/111 34/1/111 
f 34/1/111 42/1/111 40/1/111 
f 34/1/111 40/1/111 36/1/111 
f 36/1/111 40/1/111 39/1/111 
f 45/1/111 10/1/111 47/1/111 
f 47/1/111 10/1/111 49/1/111 
f 49/1/111 10/1/111 8/1/111 
f 49/1/111 8/1/111 52/1/111 
f 52/1/111 8/1/111 54/1/111 
f 54/1/111 8/1/111 6/1/111 
f 54/1/111 6/1/111 56/1/111 
f 56/1/111 6/1/111 4/1/111 
f 56/1/111 4/1/111 58/1/111 
f 67/1/111 58/1/111 69/1/111 
f 69/1/111 58/1/111 71/1/111 
f 71/1/111 58/1/111 74/1/111 
f 74/1/111 58/1/111 115/1/111 
f 58/1/111 4/1/111 115/1/111 
f 115/1/111 4/1/111 117/1/111 
f 117/1/111 4/1/111 119/1/111 
f 119/1/111 4/1/111 96/1/111 
f 82/1/111 99/1/111 84/1/111 
f 99/1/111 97/1/111 84/1/111 
f 84/1/111 97/1/111 85/1/111 
f 97/1/111 96/1/111 85/1/111 
f 85/1/111 96/1/111 87/1/111 
f 87/1/111 96/1/111 89/1/111 
f 89/1/111 96/1/111 91/1/111 
f 91/1/111 96/1/111 93/1/111 
f 96/1/111 4/1/111 93/1/111 
f 93/1/111 4/1/111 122/1/111 
f 122/1/111 4/1/111 3/1/111 
f 74/1/111 115/1/111 113/1/111 
f 74/1/111 113/1/111 76/1/111 
f 76/1/111 113/1/111 111/1/111 
f 76/1/111 111/1/111 110/1/111 
f 76/1/111 110/1/111 78/1/111 
f 78/1/111 110/1/111 108/1/111 
f 78/1/111 108/1/111 106/1/111 
f 78/1/111 106/1/111 80/1/111 
f 80/1/111 106/1/111 103/1/111 
f 80/1/111 103/1/111 101/1/111 
f 80/1/111 101/1/111 99/1/111 
f 80/1/111 99/1/111 82/1/111 
