# j.c. saved from ObjMesh class
# points
v 1.480500 0.500000 -0.875250
v 1.507500 0.500000 0.076500
v 1.507500 0.000000 0.076500
v 1.480500 -0.000000 -0.875250
v 1.471500 0.500000 -0.983110
v 1.471500 -0.000000 -0.983109
v 1.449000 0.500000 -1.086190
v 1.449000 -0.000000 -1.086190
v 1.413000 0.500000 -1.184480
v 1.413000 -0.000000 -1.184480
v 1.363500 0.500000 -1.278000
v 1.363500 -0.000000 -1.278000
v 1.279830 0.500000 -1.385300
v 1.279830 -0.000000 -1.385300
v 1.179560 0.500000 -1.461940
v 1.179560 -0.000000 -1.461940
v 1.062700 0.500000 -1.507920
v 1.062700 -0.000000 -1.507920
v 0.929250 0.500000 -1.523250
v 0.929250 -0.000000 -1.523250
v 0.835453 0.500000 -1.515380
v 0.835453 -0.000000 -1.515380
v 0.747563 0.500000 -1.491750
v 0.747563 -0.000000 -1.491750
v 0.665578 0.500000 -1.452380
v 0.665578 -0.000000 -1.452380
v 0.589500 0.500000 -1.397250
v 0.589500 -0.000000 -1.397250
v 0.648000 0.500000 -0.414000
v 0.686250 0.500000 0.020250
v 0.686250 0.000000 0.020250
v 0.648000 -0.000000 -0.414000
v 0.636750 0.500000 -0.708750
v 0.636750 -0.000000 -0.708750
v 0.649011 0.500000 -0.863438
v 0.649011 -0.000000 -0.863438
v 0.685793 0.500000 -0.994500
v 0.685793 -0.000000 -0.994500
v 0.731624 0.500000 -1.080420
v 0.731624 -0.000000 -1.080420
v 0.791104 0.500000 -1.142440
v 0.791104 -0.000000 -1.142440
v 0.864233 -0.000000 -1.180550
v 0.864233 0.500000 -1.180550
v 0.951012 -0.000000 -1.194750
v 0.951012 0.500000 -1.194750
v 0.989611 -0.000000 -1.186560
v 0.989611 0.500000 -1.186560
v 1.022910 -0.000000 -1.159730
v 1.022910 0.500000 -1.159730
v 1.050920 0.500000 -1.114280
v 1.050920 -0.000000 -1.114280
v 1.073630 0.500000 -1.050190
v 1.073630 -0.000000 -1.050190
v 1.103160 0.500000 -0.866110
v 1.103160 -0.000000 -0.866109
v 1.111500 0.500000 -0.607500
v 1.111500 -0.000000 -0.607500
v 1.111500 0.500000 0.117000
v 1.111500 0.000000 0.117000
v 0.580500 0.500000 -1.514250
v 0.254250 0.500000 -1.464750
v 0.319500 0.500000 0.074250
v 0.580500 -0.000000 -1.514250
v 0.254250 -0.000000 -1.464750
v 0.319500 0.000000 0.074250
# UVs
vt 0.000000 0.000000
# Normals
vn 0.998912 0.000000 -0.046638
vn 0.999598 0.000000 -0.028357
vn 0.997891 -0.000000 -0.064909
vn 0.991933 -0.000000 -0.126764
vn 0.985407 -0.000000 -0.170215
vn 0.966321 -0.000000 -0.257340
vn 0.953629 0.000000 -0.300985
vn 0.922496 0.000000 -0.386007
vn 0.904069 0.000000 -0.427387
vn 0.855005 0.000000 -0.518620
vn 0.823149 0.000000 -0.567826
vn 0.733474 0.000000 -0.679718
vn 0.672591 0.000000 -0.740015
vn 0.531436 0.000000 -0.847099
vn 0.450367 0.000000 -0.892843
vn 0.284274 0.000000 -0.958743
vn 0.199631 0.000000 -0.979871
vn 0.048423 0.000000 -0.998827
vn -0.017776 0.000000 -0.999842
vn -0.142794 0.000000 -0.989752
vn -0.201680 0.000000 -0.979451
vn -0.318599 0.000000 -0.947890
vn -0.376568 0.000000 -0.926389
vn -0.485920 0.000000 -0.874003
vn -0.537403 0.000000 -0.843326
vn -0.586782 0.000000 -0.809745
vn 0.997460 0.000000 -0.071228
vn 0.996143 0.000000 -0.087743
vn 0.998503 0.000000 -0.054690
vn 1.000000 0.000000 0.000913
vn 0.999199 0.000000 0.040024
vn 0.989672 0.000000 0.143348
vn 0.978268 0.000000 0.207347
vn 0.940866 0.000000 0.338780
vn 0.913899 0.000000 0.405941
vn 0.835774 0.000000 0.549074
vn 0.781792 0.000000 0.623539
vn 0.599884 0.000000 0.800087
vn 0.366032 0.000000 0.930602
vn 0.264675 0.000000 0.964338
vn 0.039067 0.000000 0.999237
vn -0.085854 0.000000 0.996308
vn -0.356167 0.000000 0.934422
vn -0.499605 0.000000 0.866253
vn -0.750196 0.000000 0.661215
vn -0.886146 0.000000 0.463406
vn -0.916717 0.000000 0.399536
vn -0.961022 0.000000 0.276473
vn -0.976010 0.000000 0.217724
vn -0.993185 0.000000 0.116548
vn -0.997227 0.000000 0.074419
vn -0.999769 0.000000 0.021491
vn -0.999942 0.000000 0.010745
vn -1.000000 0.000000 0.000000
vn 0.000000 1.000000 0.000000
vn 0.997055 0.000000 -0.076697
vn -0.150007 -0.000000 -0.988685
vn -0.999102 0.000000 0.042360
vn 0.145669 -0.000000 0.989333
vn 0.101742 -0.000000 0.994811
vn 0.000000 -1.000000 0.000000
g font3d/n1.obj
mtllib default.mtl
usemtl default
# Faces
f 1/1/1 2/1/2 3/1/2 
f 1/1/1 3/1/2 4/1/3 
f 5/1/4 1/1/1 4/1/3 
f 5/1/4 4/1/3 6/1/5 
f 7/1/6 5/1/4 6/1/5 
f 7/1/6 6/1/5 8/1/7 
f 9/1/8 7/1/6 8/1/7 
f 9/1/8 8/1/7 10/1/9 
f 11/1/10 9/1/8 10/1/9 
f 11/1/10 10/1/9 12/1/11 
f 13/1/12 11/1/10 12/1/11 
f 13/1/12 12/1/11 14/1/13 
f 13/1/12 14/1/13 15/1/14 
f 15/1/14 14/1/13 16/1/15 
f 15/1/14 16/1/15 17/1/16 
f 17/1/16 16/1/15 18/1/17 
f 17/1/16 18/1/17 19/1/18 
f 19/1/18 18/1/17 20/1/19 
f 19/1/18 20/1/19 21/1/20 
f 21/1/20 20/1/19 22/1/21 
f 21/1/20 22/1/21 23/1/22 
f 23/1/22 22/1/21 24/1/23 
f 23/1/22 24/1/23 25/1/24 
f 25/1/24 24/1/23 26/1/25 
f 25/1/24 26/1/25 27/1/26 
f 27/1/26 26/1/25 28/1/26 
f 29/1/27 30/1/28 31/1/28 
f 29/1/27 31/1/28 32/1/29 
f 33/1/30 29/1/27 32/1/29 
f 33/1/30 32/1/29 34/1/31 
f 35/1/32 33/1/30 34/1/31 
f 35/1/32 34/1/31 36/1/33 
f 37/1/34 35/1/32 36/1/33 
f 37/1/34 36/1/33 38/1/35 
f 39/1/36 37/1/34 38/1/35 
f 39/1/36 38/1/35 40/1/37 
f 41/1/38 39/1/36 40/1/37 
f 41/1/38 40/1/37 42/1/38 
f 43/1/39 44/1/40 41/1/38 
f 43/1/39 41/1/38 42/1/38 
f 45/1/41 46/1/42 44/1/40 
f 45/1/41 44/1/40 43/1/39 
f 47/1/43 48/1/44 46/1/42 
f 47/1/43 46/1/42 45/1/41 
f 49/1/45 50/1/45 48/1/44 
f 49/1/45 48/1/44 47/1/43 
f 51/1/46 50/1/45 49/1/45 
f 51/1/46 49/1/45 52/1/47 
f 53/1/48 51/1/46 52/1/47 
f 53/1/48 52/1/47 54/1/49 
f 55/1/50 53/1/48 54/1/49 
f 55/1/50 54/1/49 56/1/51 
f 57/1/52 55/1/50 56/1/51 
f 57/1/52 56/1/51 58/1/53 
f 59/1/54 57/1/52 58/1/53 
f 59/1/54 58/1/53 60/1/54 
g font3d/n2.obj
mtllib default.mtl
usemtl default
# Faces
f 11/1/55 46/1/55 48/1/55 
f 11/1/55 48/1/55 9/1/55 
f 9/1/55 48/1/55 50/1/55 
f 9/1/55 50/1/55 51/1/55 
f 9/1/55 51/1/55 7/1/55 
f 7/1/55 51/1/55 53/1/55 
f 7/1/55 53/1/55 5/1/55 
f 5/1/55 53/1/55 1/1/55 
f 1/1/55 53/1/55 55/1/55 
f 1/1/55 55/1/55 57/1/55 
f 1/1/55 57/1/55 2/1/55 
f 2/1/55 57/1/55 59/1/55 
f 61/1/55 62/1/55 27/1/55 
f 13/1/55 27/1/55 11/1/55 
f 11/1/55 27/1/55 46/1/55 
f 27/1/55 62/1/55 46/1/55 
f 46/1/55 62/1/55 44/1/55 
f 44/1/55 62/1/55 41/1/55 
f 41/1/55 62/1/55 39/1/55 
f 39/1/55 62/1/55 37/1/55 
f 37/1/55 62/1/55 35/1/55 
f 35/1/55 62/1/55 33/1/55 
f 33/1/55 62/1/55 29/1/55 
f 29/1/55 62/1/55 30/1/55 
f 30/1/55 62/1/55 63/1/55 
f 19/1/55 21/1/55 17/1/55 
f 17/1/55 21/1/55 23/1/55 
f 17/1/55 23/1/55 15/1/55 
f 15/1/55 23/1/55 25/1/55 
f 15/1/55 25/1/55 27/1/55 
f 15/1/55 27/1/55 13/1/55 
f 61/1/56 27/1/56 28/1/56 
f 61/1/56 28/1/56 64/1/56 
f 61/1/57 64/1/57 62/1/57 
f 62/1/57 64/1/57 65/1/57 
f 63/1/58 62/1/58 65/1/58 
f 63/1/58 65/1/58 66/1/58 
f 31/1/59 30/1/59 63/1/59 
f 31/1/59 63/1/59 66/1/59 
f 3/1/60 2/1/60 59/1/60 
f 3/1/60 59/1/60 60/1/60 
f 45/1/61 12/1/61 47/1/61 
f 47/1/61 12/1/61 10/1/61 
f 47/1/61 10/1/61 49/1/61 
f 49/1/61 10/1/61 52/1/61 
f 52/1/61 10/1/61 8/1/61 
f 52/1/61 8/1/61 54/1/61 
f 54/1/61 8/1/61 6/1/61 
f 54/1/61 6/1/61 4/1/61 
f 54/1/61 4/1/61 56/1/61 
f 56/1/61 4/1/61 58/1/61 
f 58/1/61 4/1/61 3/1/61 
f 58/1/61 3/1/61 60/1/61 
f 65/1/61 64/1/61 28/1/61 
f 28/1/61 14/1/61 12/1/61 
f 28/1/61 12/1/61 45/1/61 
f 65/1/61 28/1/61 45/1/61 
f 65/1/61 45/1/61 43/1/61 
f 65/1/61 43/1/61 42/1/61 
f 65/1/61 42/1/61 40/1/61 
f 65/1/61 40/1/61 38/1/61 
f 65/1/61 38/1/61 36/1/61 
f 65/1/61 36/1/61 34/1/61 
f 65/1/61 34/1/61 32/1/61 
f 65/1/61 32/1/61 31/1/61 
f 65/1/61 31/1/61 66/1/61 
f 22/1/61 20/1/61 18/1/61 
f 22/1/61 18/1/61 24/1/61 
f 24/1/61 18/1/61 16/1/61 
f 24/1/61 16/1/61 26/1/61 
f 26/1/61 16/1/61 28/1/61 
f 28/1/61 16/1/61 14/1/61 
