# j.c. saved from ObjMesh class
# points
v 1.309860 0.500000 -0.829988
v 1.320690 0.500000 -0.662784
v 1.320690 0.000000 -0.662784
v 1.309860 0.000000 -0.829988
v 0.792926 0.000000 -1.100690
v 0.792926 0.500000 -1.100690
v 0.755942 0.500000 -1.108280
v 0.755942 0.000000 -1.108280
v 1.277380 0.500000 -0.982847
v 1.277380 0.000000 -0.982847
v 1.223240 0.500000 -1.121360
v 1.223240 0.000000 -1.121360
v 1.147440 0.500000 -1.245530
v 1.147440 0.000000 -1.245530
v 1.061100 0.500000 -1.343970
v 1.061100 0.000000 -1.343970
v 0.966317 0.000000 -1.414280
v 0.966317 0.500000 -1.414280
v 0.863098 0.000000 -1.456470
v 0.863098 0.500000 -1.456470
v 0.751442 0.000000 -1.470530
v 0.751442 0.500000 -1.470530
v 0.640067 0.000000 -1.456890
v 0.640067 0.500000 -1.456890
v 0.535442 0.000000 -1.415970
v 0.535442 0.500000 -1.415970
v 0.437567 0.000000 -1.347770
v 0.437567 0.500000 -1.347770
v 0.346442 0.500000 -1.252280
v 0.346442 0.000000 -1.252280
v 0.267692 0.500000 -1.134440
v 0.267692 0.000000 -1.134440
v 0.211442 0.500000 -1.005910
v 0.211442 0.000000 -1.005910
v 0.177692 0.500000 -0.866691
v 0.177692 0.000000 -0.866691
v 0.166442 0.500000 -0.716784
v 0.166442 0.000000 -0.716784
v 0.170801 0.500000 -0.537066
v 0.170801 0.000000 -0.537066
v 0.183879 0.500000 -0.387159
v 0.183879 0.000000 -0.387159
v 0.205676 0.500000 -0.267066
v 0.205676 -0.000000 -0.267066
v 0.236192 0.500000 -0.176784
v 0.236192 -0.000000 -0.176784
v 0.304254 0.500000 -0.074691
v 0.304254 -0.000000 -0.074691
v 0.400442 -0.000000 -0.000159
v 0.400442 0.500000 -0.000159
v 0.524754 -0.000000 0.046809
v 0.524754 0.500000 0.046809
v 0.677192 -0.000000 0.066216
v 0.677192 0.500000 0.066216
v 0.846223 -0.000000 0.057919
v 0.846223 0.500000 0.057919
v 0.988816 -0.000000 0.021778
v 0.988816 0.500000 0.021778
v 1.104970 -0.000000 -0.042206
v 1.104970 0.500000 -0.042206
v 1.194690 0.500000 -0.134034
v 1.194690 -0.000000 -0.134034
v 1.249820 0.500000 -0.232050
v 1.249820 -0.000000 -0.232050
v 1.289190 0.500000 -0.352847
v 1.289190 0.000000 -0.352847
v 1.312820 0.500000 -0.496425
v 1.312820 0.000000 -0.496425
v 0.829629 0.000000 -1.080160
v 0.829629 0.500000 -1.080160
v 0.902192 0.500000 -1.000280
v 0.902192 0.000000 -1.000280
v 0.938332 0.500000 -0.936863
v 0.938332 0.000000 -0.936863
v 0.965754 0.500000 -0.865847
v 0.965754 0.000000 -0.865847
v 0.994442 0.500000 -0.701034
v 0.994442 0.000000 -0.701034
v 0.994090 0.500000 -0.611808
v 0.994090 0.000000 -0.611808
v 0.981785 0.500000 -0.530878
v 0.981785 0.000000 -0.530878
v 0.957528 0.500000 -0.458245
v 0.957528 0.000000 -0.458245
v 0.921317 0.500000 -0.393909
v 0.921317 0.000000 -0.393909
v 0.876387 0.500000 -0.341527
v 0.876387 0.000000 -0.341527
v 0.825973 0.000000 -0.304753
v 0.825973 0.500000 -0.304753
v 0.770074 -0.000000 -0.283589
v 0.770074 0.500000 -0.283589
v 0.708692 -0.000000 -0.278034
v 0.708692 0.500000 -0.278034
v 0.653848 -0.000000 -0.285909
v 0.653848 0.500000 -0.285909
v 0.608567 0.000000 -0.305034
v 0.608567 0.500000 -0.305034
v 0.572848 0.000000 -0.335409
v 0.572848 0.500000 -0.335409
v 0.546692 0.500000 -0.377034
v 0.546692 0.000000 -0.377034
v 0.514629 0.500000 -0.505847
v 0.514629 0.000000 -0.505847
v 0.503942 0.500000 -0.703284
v 0.503942 0.000000 -0.703284
v 0.511535 0.500000 -0.802706
v 0.511535 0.000000 -0.802706
v 0.532067 0.500000 -0.889472
v 0.532067 0.000000 -0.889472
v 0.565535 0.500000 -0.963581
v 0.565535 0.000000 -0.963581
v 0.611942 0.500000 -1.025030
v 0.611942 0.000000 -1.025030
v 0.679442 0.000000 -1.078470
v 0.679442 0.500000 -1.078470
# UVs
vt 0.000000 0.000000
# Normals
vn 0.993637 0.000000 -0.112634
vn 0.999950 0.000000 0.009972
vn 0.999625 0.000000 -0.027377
vn 0.987039 0.000000 -0.160481
vn -0.299891 0.000000 0.953974
vn -0.396619 0.000000 0.917983
vn -0.013484 0.000000 0.999909
vn 0.181631 0.000000 0.983367
vn 0.965425 0.000000 -0.260682
vn 0.949785 0.000000 -0.312904
vn 0.908537 0.000000 -0.417805
vn 0.882498 0.000000 -0.470317
vn 0.822320 0.000000 -0.569025
vn 0.788298 0.000000 -0.615294
vn 0.677612 0.000000 -0.735420
vn 0.526963 0.000000 -0.849888
vn 0.453982 0.000000 -0.891011
vn 0.296150 0.000000 -0.955141
vn 0.211025 0.000000 -0.977481
vn 0.043062 0.000000 -0.999072
vn -0.039664 0.000000 -0.999213
vn -0.203880 0.000000 -0.978996
vn -0.285343 0.000000 -0.958426
vn -0.436086 0.000000 -0.899905
vn -0.505668 0.000000 -0.862728
vn -0.650834 0.000000 -0.759220
vn -0.761971 0.000000 -0.647611
vn -0.798085 0.000000 -0.602544
vn -0.862644 0.000000 -0.505812
vn -0.890968 0.000000 -0.454066
vn -0.937867 0.000000 -0.346994
vn -0.956511 0.000000 -0.291697
vn -0.983197 0.000000 -0.182550
vn -0.991670 0.000000 -0.128803
vn -0.999124 0.000000 -0.041854
vn -0.999961 0.000000 -0.008790
vn -0.998980 0.000000 0.045155
vn -0.997816 0.000000 0.066052
vn -0.993063 0.000000 0.117580
vn -0.988962 0.000000 0.148167
vn -0.974050 0.000000 0.226331
vn -0.961829 0.000000 0.273653
vn -0.915890 0.000000 0.401431
vn -0.877163 -0.000000 0.480194
vn -0.731833 -0.000000 0.681484
vn -0.531376 -0.000000 0.847136
vn -0.444163 -0.000000 0.895946
vn -0.279429 -0.000000 0.960167
vn -0.203248 -0.000000 0.979127
vn -0.068086 -0.000000 0.997679
vn -0.009445 -0.000000 0.999955
vn 0.115087 -0.000000 0.993355
vn 0.180930 0.000000 0.983496
vn 0.326986 0.000000 0.945029
vn 0.406496 0.000000 0.913653
vn 0.605389 0.000000 0.795930
vn 0.773237 0.000000 0.634117
vn 0.825742 0.000000 0.564048
vn 0.901883 0.000000 0.431981
vn 0.928393 0.000000 0.371601
vn 0.965234 0.000000 0.261386
vn 0.977248 0.000000 0.212099
vn 0.992257 0.000000 0.124200
vn 0.996316 0.000000 0.085763
vn -0.622301 0.000000 0.782778
vn -0.787278 0.000000 0.616598
vn -0.830384 0.000000 0.557191
vn -0.892385 0.000000 0.451274
vn -0.913787 0.000000 0.406193
vn -0.954384 0.000000 0.298581
vn -0.971898 0.000000 0.235401
vn -0.993549 0.000000 0.113400
vn -0.998502 0.000000 0.054721
vn -0.998602 0.000000 -0.052862
vn -0.994808 0.000000 -0.101771
vn -0.978452 0.000000 -0.206475
vn -0.965030 0.000000 -0.262140
vn -0.926544 0.000000 -0.376187
vn -0.900755 0.000000 -0.434328
vn -0.837560 0.000000 -0.546346
vn -0.799927 0.000000 -0.600097
vn -0.678721 0.000000 -0.734396
vn -0.515015 0.000000 -0.857181
vn -0.435974 0.000000 -0.899960
vn -0.268295 0.000000 -0.963337
vn -0.179584 0.000000 -0.983743
vn -0.012787 0.000000 -0.999918
vn 0.065102 0.000000 -0.997879
vn 0.226105 0.000000 -0.974103
vn 0.309029 0.000000 -0.951053
vn 0.480282 0.000000 -0.877114
vn 0.567427 0.000000 -0.823424
vn 0.756044 0.000000 -0.654521
vn 0.897941 0.000000 -0.440117
vn 0.939631 0.000000 -0.342189
vn 0.983710 0.000000 -0.179763
vn 0.993130 0.000000 -0.117015
vn 0.999943 0.000000 -0.010670
vn 0.999462 0.000000 0.032812
vn 0.991791 0.000000 0.127871
vn 0.983779 0.000000 0.179387
vn 0.956448 0.000000 0.291904
vn 0.935779 0.000000 0.352586
vn 0.878413 0.000000 0.477902
vn 0.840413 0.000000 0.541947
vn 0.715133 0.000000 0.698988
vn 0.540160 0.000000 0.841562
vn 0.453426 0.000000 0.891294
vn 0.000000 1.000000 -0.000000
vn -0.000000 -1.000000 -0.000000
g font3d/o1.obj
mtllib default.mtl
usemtl default
# Faces
f 1/1/1 2/1/2 3/1/3 
f 1/1/1 3/1/3 4/1/4 
f 5/1/5 6/1/6 7/1/7 
f 5/1/5 7/1/7 8/1/8 
f 9/1/9 1/1/1 4/1/4 
f 9/1/9 4/1/4 10/1/10 
f 11/1/11 9/1/9 10/1/10 
f 11/1/11 10/1/10 12/1/12 
f 13/1/13 11/1/11 12/1/12 
f 13/1/13 12/1/12 14/1/14 
f 15/1/15 13/1/13 14/1/14 
f 15/1/15 14/1/14 16/1/15 
f 15/1/15 16/1/15 17/1/16 
f 15/1/15 17/1/16 18/1/17 
f 18/1/17 17/1/16 19/1/18 
f 18/1/17 19/1/18 20/1/19 
f 20/1/19 19/1/18 21/1/20 
f 20/1/19 21/1/20 22/1/21 
f 22/1/21 21/1/20 23/1/22 
f 22/1/21 23/1/22 24/1/23 
f 24/1/23 23/1/22 25/1/24 
f 24/1/23 25/1/24 26/1/25 
f 26/1/25 25/1/24 27/1/26 
f 26/1/25 27/1/26 28/1/26 
f 29/1/27 28/1/26 27/1/26 
f 29/1/27 27/1/26 30/1/28 
f 31/1/29 29/1/27 30/1/28 
f 31/1/29 30/1/28 32/1/30 
f 33/1/31 31/1/29 32/1/30 
f 33/1/31 32/1/30 34/1/32 
f 35/1/33 33/1/31 34/1/32 
f 35/1/33 34/1/32 36/1/34 
f 37/1/35 35/1/33 36/1/34 
f 37/1/35 36/1/34 38/1/36 
f 39/1/37 37/1/35 38/1/36 
f 39/1/37 38/1/36 40/1/38 
f 41/1/39 39/1/37 40/1/38 
f 41/1/39 40/1/38 42/1/40 
f 43/1/41 41/1/39 42/1/40 
f 43/1/41 42/1/40 44/1/42 
f 45/1/43 43/1/41 44/1/42 
f 45/1/43 44/1/42 46/1/44 
f 47/1/45 45/1/43 46/1/44 
f 47/1/45 46/1/44 48/1/45 
f 49/1/46 50/1/47 47/1/45 
f 49/1/46 47/1/45 48/1/45 
f 51/1/48 52/1/49 50/1/47 
f 51/1/48 50/1/47 49/1/46 
f 53/1/50 54/1/51 52/1/49 
f 53/1/50 52/1/49 51/1/48 
f 55/1/52 56/1/53 54/1/51 
f 55/1/52 54/1/51 53/1/50 
f 57/1/54 58/1/55 56/1/53 
f 57/1/54 56/1/53 55/1/52 
f 59/1/56 60/1/56 58/1/55 
f 59/1/56 58/1/55 57/1/54 
f 61/1/57 60/1/56 59/1/56 
f 61/1/57 59/1/56 62/1/58 
f 63/1/59 61/1/57 62/1/58 
f 63/1/59 62/1/58 64/1/60 
f 65/1/61 63/1/59 64/1/60 
f 65/1/61 64/1/60 66/1/62 
f 67/1/63 65/1/61 66/1/62 
f 67/1/63 66/1/62 68/1/64 
f 2/1/2 67/1/63 68/1/64 
f 2/1/2 68/1/64 3/1/3 
f 69/1/65 70/1/65 6/1/6 
f 69/1/65 6/1/6 5/1/5 
f 71/1/66 70/1/65 69/1/65 
f 71/1/66 69/1/65 72/1/67 
f 73/1/68 71/1/66 72/1/67 
f 73/1/68 72/1/67 74/1/69 
f 75/1/70 73/1/68 74/1/69 
f 75/1/70 74/1/69 76/1/71 
f 77/1/72 75/1/70 76/1/71 
f 77/1/72 76/1/71 78/1/73 
f 79/1/74 77/1/72 78/1/73 
f 79/1/74 78/1/73 80/1/75 
f 81/1/76 79/1/74 80/1/75 
f 81/1/76 80/1/75 82/1/77 
f 83/1/78 81/1/76 82/1/77 
f 83/1/78 82/1/77 84/1/79 
f 85/1/80 83/1/78 84/1/79 
f 85/1/80 84/1/79 86/1/81 
f 87/1/82 85/1/80 86/1/81 
f 87/1/82 86/1/81 88/1/82 
f 87/1/82 88/1/82 89/1/83 
f 87/1/82 89/1/83 90/1/84 
f 90/1/84 89/1/83 91/1/85 
f 90/1/84 91/1/85 92/1/86 
f 92/1/86 91/1/85 93/1/87 
f 92/1/86 93/1/87 94/1/88 
f 94/1/88 93/1/87 95/1/89 
f 94/1/88 95/1/89 96/1/90 
f 96/1/90 95/1/89 97/1/91 
f 96/1/90 97/1/91 98/1/92 
f 98/1/92 97/1/91 99/1/93 
f 98/1/92 99/1/93 100/1/93 
f 101/1/94 100/1/93 99/1/93 
f 101/1/94 99/1/93 102/1/95 
f 103/1/96 101/1/94 102/1/95 
f 103/1/96 102/1/95 104/1/97 
f 105/1/98 103/1/96 104/1/97 
f 105/1/98 104/1/97 106/1/99 
f 107/1/100 105/1/98 106/1/99 
f 107/1/100 106/1/99 108/1/101 
f 109/1/102 107/1/100 108/1/101 
f 109/1/102 108/1/101 110/1/103 
f 111/1/104 109/1/102 110/1/103 
f 111/1/104 110/1/103 112/1/105 
f 113/1/106 111/1/104 112/1/105 
f 113/1/106 112/1/105 114/1/106 
f 115/1/107 116/1/108 113/1/106 
f 115/1/107 113/1/106 114/1/106 
f 8/1/8 7/1/7 116/1/108 
f 8/1/8 116/1/108 115/1/107 
g font3d/o2.obj
mtllib default.mtl
usemtl default
# Faces
f 22/1/109 24/1/109 20/1/109 
f 20/1/109 24/1/109 26/1/109 
f 20/1/109 26/1/109 18/1/109 
f 18/1/109 26/1/109 28/1/109 
f 18/1/109 28/1/109 15/1/109 
f 15/1/109 28/1/109 29/1/109 
f 15/1/109 29/1/109 13/1/109 
f 13/1/109 29/1/109 31/1/109 
f 13/1/109 31/1/109 11/1/109 
f 11/1/109 31/1/109 7/1/109 
f 7/1/109 31/1/109 116/1/109 
f 116/1/109 31/1/109 113/1/109 
f 113/1/109 31/1/109 33/1/109 
f 113/1/109 33/1/109 111/1/109 
f 111/1/109 33/1/109 109/1/109 
f 109/1/109 33/1/109 35/1/109 
f 109/1/109 35/1/109 107/1/109 
f 107/1/109 35/1/109 37/1/109 
f 107/1/109 37/1/109 105/1/109 
f 105/1/109 37/1/109 39/1/109 
f 105/1/109 39/1/109 103/1/109 
f 103/1/109 39/1/109 41/1/109 
f 103/1/109 41/1/109 101/1/109 
f 101/1/109 41/1/109 100/1/109 
f 100/1/109 41/1/109 98/1/109 
f 98/1/109 41/1/109 96/1/109 
f 96/1/109 41/1/109 43/1/109 
f 94/1/109 96/1/109 43/1/109 
f 11/1/109 7/1/109 6/1/109 
f 11/1/109 6/1/109 70/1/109 
f 11/1/109 70/1/109 71/1/109 
f 11/1/109 71/1/109 9/1/109 
f 9/1/109 71/1/109 73/1/109 
f 9/1/109 73/1/109 75/1/109 
f 9/1/109 75/1/109 1/1/109 
f 1/1/109 75/1/109 77/1/109 
f 1/1/109 77/1/109 2/1/109 
f 2/1/109 77/1/109 79/1/109 
f 2/1/109 79/1/109 81/1/109 
f 2/1/109 81/1/109 67/1/109 
f 67/1/109 81/1/109 83/1/109 
f 67/1/109 83/1/109 85/1/109 
f 67/1/109 85/1/109 65/1/109 
f 65/1/109 85/1/109 87/1/109 
f 65/1/109 87/1/109 90/1/109 
f 65/1/109 90/1/109 92/1/109 
f 65/1/109 92/1/109 63/1/109 
f 92/1/109 94/1/109 63/1/109 
f 94/1/109 43/1/109 63/1/109 
f 63/1/109 43/1/109 45/1/109 
f 63/1/109 45/1/109 61/1/109 
f 61/1/109 45/1/109 47/1/109 
f 61/1/109 47/1/109 60/1/109 
f 60/1/109 47/1/109 50/1/109 
f 60/1/109 50/1/109 58/1/109 
f 58/1/109 50/1/109 52/1/109 
f 58/1/109 52/1/109 56/1/109 
f 56/1/109 52/1/109 54/1/109 
f 23/1/110 21/1/110 19/1/110 
f 23/1/110 19/1/110 25/1/110 
f 25/1/110 19/1/110 17/1/110 
f 25/1/110 17/1/110 27/1/110 
f 27/1/110 17/1/110 16/1/110 
f 27/1/110 16/1/110 30/1/110 
f 30/1/110 16/1/110 14/1/110 
f 30/1/110 14/1/110 32/1/110 
f 32/1/110 14/1/110 12/1/110 
f 32/1/110 12/1/110 8/1/110 
f 32/1/110 8/1/110 115/1/110 
f 32/1/110 115/1/110 114/1/110 
f 32/1/110 114/1/110 34/1/110 
f 34/1/110 114/1/110 112/1/110 
f 34/1/110 112/1/110 110/1/110 
f 34/1/110 110/1/110 36/1/110 
f 36/1/110 110/1/110 108/1/110 
f 36/1/110 108/1/110 38/1/110 
f 38/1/110 108/1/110 106/1/110 
f 38/1/110 106/1/110 40/1/110 
f 40/1/110 106/1/110 104/1/110 
f 40/1/110 104/1/110 42/1/110 
f 42/1/110 104/1/110 102/1/110 
f 42/1/110 102/1/110 99/1/110 
f 42/1/110 99/1/110 97/1/110 
f 42/1/110 97/1/110 95/1/110 
f 42/1/110 95/1/110 44/1/110 
f 95/1/110 93/1/110 44/1/110 
f 8/1/110 12/1/110 5/1/110 
f 5/1/110 12/1/110 69/1/110 
f 69/1/110 12/1/110 72/1/110 
f 72/1/110 12/1/110 10/1/110 
f 72/1/110 10/1/110 74/1/110 
f 74/1/110 10/1/110 76/1/110 
f 76/1/110 10/1/110 4/1/110 
f 76/1/110 4/1/110 78/1/110 
f 78/1/110 4/1/110 3/1/110 
f 78/1/110 3/1/110 80/1/110 
f 80/1/110 3/1/110 82/1/110 
f 82/1/110 3/1/110 68/1/110 
f 82/1/110 68/1/110 84/1/110 
f 84/1/110 68/1/110 86/1/110 
f 86/1/110 68/1/110 66/1/110 
f 86/1/110 66/1/110 88/1/110 
f 88/1/110 66/1/110 89/1/110 
f 89/1/110 66/1/110 91/1/110 
f 91/1/110 66/1/110 64/1/110 
f 93/1/110 91/1/110 64/1/110 
f 44/1/110 93/1/110 64/1/110 
f 44/1/110 64/1/110 46/1/110 
f 46/1/110 64/1/110 62/1/110 
f 46/1/110 62/1/110 48/1/110 
f 48/1/110 62/1/110 59/1/110 
f 48/1/110 59/1/110 49/1/110 
f 49/1/110 59/1/110 57/1/110 
f 49/1/110 57/1/110 51/1/110 
f 51/1/110 57/1/110 55/1/110 
f 51/1/110 55/1/110 53/1/110 
