# j.c. saved from ObjMesh class
# points
v 0.954353 0.500000 -0.496361
v 0.956341 0.500000 -0.697623
v 0.956341 -0.000000 -0.697623
v 0.954353 -0.000000 -0.496361
v 0.930754 0.500000 -0.378859
v 0.930754 -0.000000 -0.378859
v 0.890021 0.500000 -0.296934
v 0.890021 -0.000000 -0.296934
v 0.832156 0.500000 -0.250587
v 0.832156 -0.000000 -0.250587
v 0.757156 -0.000000 -0.239820
v 0.757156 0.500000 -0.239820
v 0.715478 -0.000000 -0.249049
v 0.715478 0.500000 -0.249049
v 0.680682 -0.000000 -0.268974
v 0.680682 0.500000 -0.268974
v 0.652768 -0.000000 -0.299596
v 0.652768 0.500000 -0.299596
v 0.631737 0.500000 -0.340913
v 0.631737 -0.000000 -0.340913
v 0.610320 0.500000 -0.455636
v 0.610320 -0.000000 -0.455636
v 0.616433 0.500000 -0.613143
v 0.616433 -0.000000 -0.613143
v 0.647954 0.500000 -0.795276
v 0.647954 -0.000000 -0.795277
v 0.681179 0.500000 -0.931942
v 0.681179 -0.000000 -0.931943
v 0.287954 0.500000 -0.570406
v 0.377404 0.500000 -1.558820
v 0.377404 0.000000 -1.558820
v 0.287954 -0.000000 -0.570406
v 0.283296 0.500000 -0.457166
v 0.283296 -0.000000 -0.457166
v 0.290688 0.500000 -0.350510
v 0.290687 -0.000000 -0.350509
v 0.310130 0.500000 -0.250437
v 0.310130 -0.000000 -0.250437
v 0.341624 0.500000 -0.156950
v 0.341624 -0.000000 -0.156950
v 0.406816 0.500000 -0.040760
v 0.406816 -0.000000 -0.040760
v 0.493315 -0.000000 0.046671
v 0.493315 0.500000 0.046671
v 0.601121 -0.000000 0.105341
v 0.601121 0.500000 0.105341
v 0.730232 -0.000000 0.135251
v 0.730232 0.500000 0.135251
v 0.814938 -0.000000 0.138225
v 0.814938 0.500000 0.138225
v 0.893509 -0.000000 0.127641
v 0.893509 0.500000 0.127641
v 0.965946 -0.000000 0.103501
v 0.965946 0.500000 0.103501
v 1.032250 -0.000000 0.065803
v 1.032250 0.500000 0.065803
v 1.092420 0.500000 0.014549
v 1.092420 -0.000000 0.014549
v 1.146450 0.500000 -0.050264
v 1.146450 -0.000000 -0.050264
v 1.194350 0.500000 -0.128632
v 1.194350 -0.000000 -0.128632
v 1.236120 0.500000 -0.220559
v 1.236120 -0.000000 -0.220559
v 1.288730 0.500000 -0.403744
v 1.288730 -0.000000 -0.403744
v 1.319360 0.500000 -0.623330
v 1.319360 -0.000000 -0.623330
v 0.813967 0.500000 -1.474090
v 0.752843 0.500000 -1.229600
v 1.351160 0.500000 -1.133690
v 1.276480 0.500000 -0.786564
v 1.276480 -0.000000 -0.786564
v 1.351160 -0.000000 -1.133690
v 0.752843 -0.000000 -1.229600
v 0.813967 -0.000000 -1.474090
# UVs
vt 0.000000 0.000000
# Normals
vn -0.997368 0.000000 -0.072506
vn -0.999951 0.000000 -0.009877
vn -0.990833 0.000000 -0.135096
vn -0.959462 0.000000 -0.281838
vn -0.930911 0.000000 -0.365245
vn -0.822463 0.000000 -0.568819
vn -0.730453 0.000000 -0.682963
vn -0.397649 0.000000 -0.917538
vn -0.023000 0.000000 -0.999735
vn 0.098177 0.000000 -0.995169
vn 0.312938 0.000000 -0.949773
vn 0.407469 0.000000 -0.913219
vn 0.583905 0.000000 -0.811822
vn 0.665485 0.000000 -0.746411
vn 0.822501 0.000000 -0.568763
vn 0.930250 0.000000 -0.366925
vn 0.961140 0.000000 -0.276061
vn 0.993929 0.000000 -0.110024
vn 0.999369 0.000000 -0.035513
vn 0.996561 0.000000 0.082860
vn 0.991920 -0.000000 0.126862
vn 0.981292 -0.000000 0.192527
vn 0.976738 -0.000000 0.214437
vn 0.971697 -0.000000 0.236230
vn -0.997273 0.000000 -0.073806
vn -0.995930 0.000000 -0.090130
vn -0.998348 0.000000 -0.057458
vn -0.999990 0.000000 -0.004358
vn -0.999474 0.000001 0.032435
vn -0.993949 0.000002 0.109845
vn -0.988619 0.000002 0.150441
vn -0.972231 0.000001 0.234023
vn -0.960883 0.000000 0.276954
vn -0.926052 0.000000 0.377396
vn -0.900766 0.000000 0.434305
vn -0.798694 0.000000 0.601738
vn -0.639319 0.000000 0.768942
vn -0.560952 0.000000 0.827848
vn -0.397132 0.000000 0.917762
vn -0.312333 0.000000 0.949973
vn -0.162822 0.000000 0.986655
vn -0.099028 0.000000 0.995085
vn 0.021175 0.000000 0.999776
vn 0.077550 0.000000 0.996988
vn 0.195151 0.000000 0.980773
vn 0.256277 0.000000 0.966603
vn 0.377123 0.000000 0.926163
vn 0.436740 0.000000 0.899588
vn 0.573906 0.000000 0.818921
vn 0.690564 0.000000 0.723271
vn 0.730577 0.000000 0.682830
vn 0.798383 0.000000 0.602150
vn 0.826828 0.000000 0.562454
vn 0.873749 0.000000 0.486376
vn 0.892841 0.000000 0.450371
vn 0.929556 0.000000 0.368682
vn 0.946504 0.000000 0.322691
vn 0.973052 0.000000 0.230585
vn 0.982828 0.000000 0.184522
vn 0.990411 0.000000 0.138152
vn 0.000000 1.000000 0.000000
vn 0.200498 0.000000 -0.979694
vn -0.237237 0.000000 0.971452
vn -0.237239 -0.000002 0.971451
vn 0.977631 0.000000 0.210326
vn 0.158279 0.000000 -0.987394
vn 0.970141 0.000000 0.242541
vn 0.190529 0.000000 -0.981682
vn -0.000000 -1.000000 -0.000000
g font3d/t1.obj
mtllib default.mtl
usemtl default
# Faces
f 1/1/1 2/1/2 3/1/2 
f 1/1/1 3/1/2 4/1/3 
f 5/1/4 1/1/1 4/1/3 
f 5/1/4 4/1/3 6/1/5 
f 7/1/6 5/1/4 6/1/5 
f 7/1/6 6/1/5 8/1/7 
f 9/1/8 7/1/6 8/1/7 
f 9/1/8 8/1/7 10/1/8 
f 9/1/8 10/1/8 11/1/9 
f 9/1/8 11/1/9 12/1/10 
f 12/1/10 11/1/9 13/1/11 
f 12/1/10 13/1/11 14/1/12 
f 14/1/12 13/1/11 15/1/13 
f 14/1/12 15/1/13 16/1/14 
f 16/1/14 15/1/13 17/1/15 
f 16/1/14 17/1/15 18/1/15 
f 19/1/16 18/1/15 17/1/15 
f 19/1/16 17/1/15 20/1/17 
f 21/1/18 19/1/16 20/1/17 
f 21/1/18 20/1/17 22/1/19 
f 23/1/20 21/1/18 22/1/19 
f 23/1/20 22/1/19 24/1/21 
f 25/1/22 23/1/20 24/1/21 
f 25/1/22 24/1/21 26/1/23 
f 27/1/24 25/1/22 26/1/23 
f 27/1/24 26/1/23 28/1/24 
f 29/1/25 30/1/26 31/1/26 
f 29/1/25 31/1/26 32/1/27 
f 33/1/28 29/1/25 32/1/27 
f 33/1/28 32/1/27 34/1/29 
f 35/1/30 33/1/28 34/1/29 
f 35/1/30 34/1/29 36/1/31 
f 37/1/32 35/1/30 36/1/31 
f 37/1/32 36/1/31 38/1/33 
f 39/1/34 37/1/32 38/1/33 
f 39/1/34 38/1/33 40/1/35 
f 41/1/36 39/1/34 40/1/35 
f 41/1/36 40/1/35 42/1/36 
f 43/1/37 44/1/38 41/1/36 
f 43/1/37 41/1/36 42/1/36 
f 45/1/39 46/1/40 44/1/38 
f 45/1/39 44/1/38 43/1/37 
f 47/1/41 48/1/42 46/1/40 
f 47/1/41 46/1/40 45/1/39 
f 49/1/43 50/1/44 48/1/42 
f 49/1/43 48/1/42 47/1/41 
f 51/1/45 52/1/46 50/1/44 
f 51/1/45 50/1/44 49/1/43 
f 53/1/47 54/1/48 52/1/46 
f 53/1/47 52/1/46 51/1/45 
f 55/1/49 56/1/49 54/1/48 
f 55/1/49 54/1/48 53/1/47 
f 57/1/50 56/1/49 55/1/49 
f 57/1/50 55/1/49 58/1/51 
f 59/1/52 57/1/50 58/1/51 
f 59/1/52 58/1/51 60/1/53 
f 61/1/54 59/1/52 60/1/53 
f 61/1/54 60/1/53 62/1/55 
f 63/1/56 61/1/54 62/1/55 
f 63/1/56 62/1/55 64/1/57 
f 65/1/58 63/1/56 64/1/57 
f 65/1/58 64/1/57 66/1/59 
f 67/1/60 65/1/58 66/1/59 
f 67/1/60 66/1/59 68/1/60 
g font3d/t2.obj
mtllib default.mtl
usemtl default
# Faces
f 67/1/61 2/1/61 1/1/61 
f 67/1/61 1/1/61 65/1/61 
f 65/1/61 1/1/61 5/1/61 
f 65/1/61 5/1/61 7/1/61 
f 65/1/61 7/1/61 63/1/61 
f 63/1/61 7/1/61 9/1/61 
f 63/1/61 9/1/61 12/1/61 
f 63/1/61 12/1/61 37/1/61 
f 63/1/61 37/1/61 61/1/61 
f 61/1/61 37/1/61 39/1/61 
f 61/1/61 39/1/61 59/1/61 
f 59/1/61 39/1/61 57/1/61 
f 57/1/61 39/1/61 41/1/61 
f 57/1/61 41/1/61 56/1/61 
f 56/1/61 41/1/61 44/1/61 
f 56/1/61 44/1/61 54/1/61 
f 54/1/61 44/1/61 52/1/61 
f 52/1/61 44/1/61 46/1/61 
f 52/1/61 46/1/61 50/1/61 
f 50/1/61 46/1/61 48/1/61 
f 69/1/61 30/1/61 70/1/61 
f 71/1/61 70/1/61 27/1/61 
f 70/1/61 30/1/61 27/1/61 
f 27/1/61 30/1/61 25/1/61 
f 25/1/61 30/1/61 23/1/61 
f 23/1/61 30/1/61 29/1/61 
f 23/1/61 29/1/61 21/1/61 
f 21/1/61 29/1/61 33/1/61 
f 21/1/61 33/1/61 19/1/61 
f 19/1/61 33/1/61 35/1/61 
f 19/1/61 35/1/61 18/1/61 
f 18/1/61 35/1/61 16/1/61 
f 16/1/61 35/1/61 14/1/61 
f 14/1/61 35/1/61 37/1/61 
f 12/1/61 14/1/61 37/1/61 
f 27/1/61 72/1/61 71/1/61 
f 67/1/62 68/1/62 3/1/62 
f 67/1/62 3/1/62 2/1/62 
f 73/1/63 72/1/63 27/1/63 
f 73/1/64 27/1/64 28/1/64 
f 71/1/65 72/1/65 73/1/65 
f 71/1/65 73/1/65 74/1/65 
f 71/1/66 74/1/66 70/1/66 
f 70/1/66 74/1/66 75/1/66 
f 69/1/67 70/1/67 75/1/67 
f 69/1/67 75/1/67 76/1/67 
f 69/1/68 76/1/68 30/1/68 
f 30/1/68 76/1/68 31/1/68 
f 3/1/69 68/1/69 4/1/69 
f 4/1/69 68/1/69 66/1/69 
f 4/1/69 66/1/69 6/1/69 
f 6/1/69 66/1/69 8/1/69 
f 8/1/69 66/1/69 64/1/69 
f 8/1/69 64/1/69 10/1/69 
f 10/1/69 64/1/69 11/1/69 
f 11/1/69 64/1/69 38/1/69 
f 38/1/69 64/1/69 62/1/69 
f 38/1/69 62/1/69 40/1/69 
f 40/1/69 62/1/69 60/1/69 
f 40/1/69 60/1/69 58/1/69 
f 40/1/69 58/1/69 42/1/69 
f 42/1/69 58/1/69 55/1/69 
f 42/1/69 55/1/69 43/1/69 
f 43/1/69 55/1/69 53/1/69 
f 43/1/69 53/1/69 51/1/69 
f 43/1/69 51/1/69 45/1/69 
f 45/1/69 51/1/69 49/1/69 
f 45/1/69 49/1/69 47/1/69 
f 31/1/69 76/1/69 75/1/69 
f 75/1/69 74/1/69 28/1/69 
f 31/1/69 75/1/69 28/1/69 
f 31/1/69 28/1/69 26/1/69 
f 31/1/69 26/1/69 24/1/69 
f 31/1/69 24/1/69 32/1/69 
f 32/1/69 24/1/69 22/1/69 
f 32/1/69 22/1/69 34/1/69 
f 34/1/69 22/1/69 20/1/69 
f 34/1/69 20/1/69 36/1/69 
f 36/1/69 20/1/69 17/1/69 
f 36/1/69 17/1/69 15/1/69 
f 36/1/69 15/1/69 13/1/69 
f 36/1/69 13/1/69 38/1/69 
f 13/1/69 11/1/69 38/1/69 
f 74/1/69 73/1/69 28/1/69 
