# This file uses centimeters as units for non-parametric coordinates.

v 1.103190 0.500316 -1.228030
v 0.745442 0.500316 -1.300030
v 0.509192 0.500316 -0.584534
v 0.275192 0.500316 0.061216
v 0.594692 0.500316 0.065716
v 0.439442 0.500316 -1.437280
v 0.045692 0.500316 -1.439530
v 1.103190 0.000316 -1.228030
v 0.745442 0.000316 -1.300030
v 0.509192 0.000316 -0.584534
v 0.439442 0.000316 -1.437280
v 0.045692 0.000316 -1.439530
v 0.275192 0.000316 0.061216
v 0.594692 0.000316 0.065716
vt 0.000000 0.000000
vt 0.000000 0.000000
vt 0.000000 0.000000
vt 0.000000 0.000000
vt 0.000000 0.000000
vt 0.000000 0.000000
vt 0.000000 0.000000
vt 0.000000 0.000000
vt 0.000000 0.000000
vt 0.000000 0.000000
vt 0.000000 0.000000
vt 0.000000 0.000000
vt 0.000000 0.000000
vt 0.000000 0.000000
vt 0.000000 0.000000
vt 0.000000 0.000000
vt 0.000000 0.000000
vt 0.000000 0.000000
vt 0.000000 0.000000
vt 0.000000 0.000000
vt 0.000000 0.000000
vt 0.000000 0.000000
vt 0.000000 0.000000
vt 0.000000 0.000000
vt 0.000000 0.000000
vt 0.000000 0.000000
vt 0.000000 0.000000
vt 0.000000 0.000000
vt 0.000000 0.000000
vt 0.000000 0.000000
vt 0.000000 0.000000
vt 0.000000 0.000000
vt 0.000000 0.000000
vt 0.000000 0.000000
vt 0.000000 0.000000
vt 0.000000 0.000000
vt 0.000000 0.000000
vt 0.000000 0.000000
vt 0.000000 0.000000
vt 0.000000 0.000000
vt 0.000000 0.000000
vt 0.000000 0.000000
vt 0.000000 0.000000
vt 0.000000 0.000000
vt 0.000000 0.000000
vt 0.000000 0.000000
vt 0.000000 0.000000
vt 0.000000 0.000000
vt 0.000000 0.000000
vt 0.000000 0.000000
vt 0.000000 0.000000
vt 0.000000 0.000000
vt 0.000000 0.000000
vt 0.000000 0.000000
vt 0.000000 0.000000
vt 0.000000 0.000000
vt 0.000000 0.000000
vt 0.000000 0.000000
vt 0.000000 0.000000
vt 0.000000 0.000000
vt 0.000000 0.000000
vt 0.000000 0.000000
vt 0.000000 0.000000
vt 0.000000 0.000000
vt 0.000000 0.000000
vt 0.000000 0.000000
vn 0.000000 1.000000 0.000000
vn 0.000000 1.000000 0.000000
vn 0.000000 1.000000 0.000000
vn 0.000000 1.000000 0.000000
vn 0.000000 1.000000 0.000000
vn 0.000000 1.000000 0.000000
vn 0.000000 1.000000 0.000000
vn 0.000000 1.000000 0.000000
vn 0.000000 1.000000 0.000000
vn 0.000000 1.000000 0.000000
vn 0.000000 1.000000 0.000000
vn 0.000000 1.000000 0.000000
vn 0.000000 1.000000 0.000000
vn 0.000000 1.000000 0.000000
vn 0.000000 1.000000 0.000000
vn 0.197303 0.000000 -0.980343
vn 0.197303 0.000000 -0.980343
vn 0.197303 0.000000 -0.980343
vn 0.197303 0.000000 -0.980343
vn 0.197303 0.000000 -0.980343
vn 0.197303 0.000000 -0.980343
vn -0.949575 0.000000 -0.313541
vn -0.949575 0.000000 -0.313541
vn -0.949575 0.000000 -0.313541
vn -0.949575 0.000000 -0.313541
vn -0.949575 0.000000 -0.313541
vn -0.949575 0.000000 -0.313541
vn 0.996672 0.000000 -0.081522
vn 0.996672 0.000000 -0.081522
vn 0.996672 0.000000 -0.081522
vn 0.996672 0.000000 -0.081522
vn 0.996672 0.000000 -0.081522
vn 0.996672 0.000000 -0.081522
vn 0.005714 0.000000 -0.999984
vn 0.005714 0.000000 -0.999984
vn 0.005714 0.000000 -0.999984
vn 0.005714 0.000000 -0.999984
vn 0.005714 0.000000 -0.999984
vn 0.005714 0.000000 -0.999984
vn -0.988508 0.000000 0.151167
vn -0.988508 0.000000 0.151167
vn -0.988508 0.000000 0.151167
vn -0.988508 0.000000 0.151167
vn -0.988508 0.000000 0.151167
vn -0.988508 0.000000 0.151167
vn -0.014083 0.000000 0.999901
vn -0.014083 0.000000 0.999901
vn -0.014083 0.000000 0.999901
vn -0.014083 0.000000 0.999901
vn -0.014083 0.000000 0.999901
vn -0.014083 0.000000 0.999901
vn 0.930693 0.000000 0.365802
vn 0.930693 0.000000 0.365802
vn 0.930693 0.000000 0.365802
vn 0.930693 0.000000 0.365802
vn 0.930693 0.000000 0.365802
vn 0.930693 0.000000 0.365802
vn 0.000000 -1.000000 0.000000
vn 0.000000 -1.000000 0.000000
vn 0.000000 -1.000000 0.000000
vn 0.000000 -1.000000 0.000000
vn 0.000000 -1.000000 0.000000
vn 0.000000 -1.000000 0.000000
vn 0.000000 -1.000000 0.000000
vn 0.000000 -1.000000 0.000000
vn 0.000000 -1.000000 0.000000
vn 0.000000 -1.000000 0.000000
vn 0.000000 -1.000000 0.000000
vn 0.000000 -1.000000 0.000000
vn 0.000000 -1.000000 0.000000
vn 0.000000 -1.000000 0.000000
vn 0.000000 -1.000000 0.000000
f 1/1/1 2/2/2 3/3/3
f 1/1/4 3/4/5 4/5/6
f 1/1/7 4/6/8 5/7/9
f 6/8/10 7/9/11 3/10/12
f 3/11/13 7/12/14 4/13/15
f 1/1/16 8/14/17 9/15/18
f 1/1/19 9/16/20 2/17/21
f 3/18/22 2/19/23 9/20/24
f 3/21/25 9/22/26 10/23/27
f 6/24/28 3/25/29 10/26/30
f 6/27/31 10/28/32 11/29/33
f 6/30/34 11/31/35 12/32/36
f 6/33/37 12/34/38 7/35/39
f 4/36/40 7/37/41 12/38/42
f 4/39/43 12/40/44 13/41/45
f 14/42/46 5/43/47 4/44/48
f 14/45/49 4/46/50 13/47/51
f 1/1/52 5/48/53 14/49/54
f 1/1/55 14/50/56 8/51/57
f 9/52/58 8/53/59 10/54/60
f 10/55/61 8/56/62 13/57/63
f 13/58/64 8/59/65 14/60/66
f 12/61/67 11/62/68 10/63/69
f 12/64/70 10/65/71 13/66/72
