# j.c. saved from ObjMesh class
# points
v 2.065440 0.500000 -1.278320
v 1.654960 0.500000 -1.373660
v 1.379410 0.500000 -0.625583
v 1.153450 0.500000 0.083080
v 1.484450 0.500000 0.151340
v 1.271320 0.500000 -1.221590
v 1.011680 0.500000 -0.686073
v 0.917742 0.500000 -1.319740
v 0.630013 0.500000 -0.625015
v 0.666953 0.500000 0.028778
v 0.625540 0.500000 -1.481250
v 0.230720 0.500000 -1.513800
v 0.347920 0.500000 0.002420
v 2.065440 -0.000000 -1.278320
v 1.654960 0.000000 -1.373660
v 1.379410 -0.000000 -0.625583
v 1.271320 0.000000 -1.221590
v 0.917742 0.000000 -1.319740
v 0.630013 0.000000 -0.625015
v 0.625540 0.000000 -1.481250
v 0.230720 0.000000 -1.513800
v 0.347920 0.000000 0.002420
v 0.666953 -0.000000 0.028778
v 1.011680 0.000000 -0.686073
v 1.153450 -0.000000 0.083080
v 1.484450 -0.000000 0.151340
# UVs
vt 0.000000 0.000000
# Normals
vn 0.000000 1.000000 0.000000
vn 0.226242 0.000000 -0.974071
vn -0.938366 0.000000 -0.345642
vn 0.983950 0.000000 -0.178446
vn 0.267477 0.000000 -0.963564
vn -0.923896 0.000000 -0.382643
vn 0.999986 0.000000 -0.005224
vn 0.082164 0.000000 -0.996619
vn -0.997026 0.000000 0.077068
vn -0.082338 0.000000 0.996604
vn -0.082336 0.000001 0.996605
vn 0.900736 0.000000 0.434368
vn -0.983434 0.000000 0.181266
vn -0.201974 0.000000 0.979391
vn 0.926423 0.000000 0.376483
vn -0.000000 -1.000000 -0.000000
g font3d/w1.obj
mtllib default.mtl
usemtl default
# Faces
f 1/1/1 2/1/1 3/1/1 
f 1/1/1 3/1/1 4/1/1 
f 1/1/1 4/1/1 5/1/1 
f 6/1/1 7/1/1 3/1/1 
f 3/1/1 7/1/1 4/1/1 
f 6/1/1 8/1/1 7/1/1 
f 7/1/1 8/1/1 9/1/1 
f 7/1/1 9/1/1 10/1/1 
f 11/1/1 12/1/1 9/1/1 
f 9/1/1 12/1/1 10/1/1 
f 10/1/1 12/1/1 13/1/1 
f 1/1/2 14/1/2 15/1/2 
f 1/1/2 15/1/2 2/1/2 
f 3/1/3 2/1/3 15/1/3 
f 3/1/3 15/1/3 16/1/3 
f 6/1/4 3/1/4 16/1/4 
f 6/1/4 16/1/4 17/1/4 
f 6/1/5 17/1/5 8/1/5 
f 8/1/5 17/1/5 18/1/5 
f 9/1/6 8/1/6 18/1/6 
f 9/1/6 18/1/6 19/1/6 
f 11/1/7 9/1/7 19/1/7 
f 11/1/7 19/1/7 20/1/7 
f 11/1/8 20/1/8 12/1/8 
f 12/1/8 20/1/8 21/1/8 
f 13/1/9 12/1/9 21/1/9 
f 13/1/9 21/1/9 22/1/9 
f 23/1/10 10/1/10 13/1/10 
f 23/1/11 13/1/11 22/1/11 
f 7/1/12 10/1/12 23/1/12 
f 7/1/12 23/1/12 24/1/12 
f 4/1/13 7/1/13 24/1/13 
f 4/1/13 24/1/13 25/1/13 
f 26/1/14 5/1/14 4/1/14 
f 26/1/14 4/1/14 25/1/14 
f 1/1/15 5/1/15 26/1/15 
f 1/1/15 26/1/15 14/1/15 
f 15/1/16 14/1/16 16/1/16 
f 16/1/16 14/1/16 25/1/16 
f 25/1/16 14/1/16 26/1/16 
f 24/1/16 17/1/16 16/1/16 
f 24/1/16 16/1/16 25/1/16 
f 18/1/16 17/1/16 24/1/16 
f 18/1/16 24/1/16 19/1/16 
f 19/1/16 24/1/16 23/1/16 
f 21/1/16 20/1/16 19/1/16 
f 21/1/16 19/1/16 23/1/16 
f 21/1/16 23/1/16 22/1/16 
