# Wavefront OBJ exported by MilkShape 3D

mtllib crate.mtl

v 25.000000 50.000000 -25.000000
v -25.000000 50.000000 25.000000
v -25.000000 50.000000 -25.000000
v 25.000000 50.000000 25.000000
v 25.000000 0.000000 -25.000000
v 25.000000 0.000000 25.000000
v -25.000000 0.000000 -25.000000
v -25.000000 0.000000 25.000000
# 8 vertices

vt 0.500000 1.000000
vt 0.003906 1.000000
vt 0.500000 0.503906
vt 0.003906 0.503906
vt 0.988281 0.500000
vt 0.496094 0.500000
vt 0.988281 0.011719
vt 0.496094 0.011719
vt 0.988281 0.996094
vt 0.585938 0.996094
vt 0.988281 0.597656
vt 0.585938 0.597656
vt 0.500000 0.011719
vt 0.988281 0.503906
vt 0.003906 0.011719
vt 0.496094 0.503906
# 16 texture coordinates

vn -0.688191 0.425325 -0.587785
vn -0.309017 0.809017 0.500000
vn 0.309017 0.809017 -0.500000
vn 0.688191 0.425325 0.587785
vn 0.688191 -0.425325 -0.587785
vn 0.309017 -0.809017 0.500000
vn -0.309017 -0.809017 -0.500000
vn -0.688191 -0.425325 0.587785
# 8 normals

g C:\Users\jason\box.md2
usemtl Material01
s 1
f 3/1/1 2/2/2 1/3/3
f 2/2/2 4/4/4 1/3/3
f 1/5/3 4/6/4 5/7/5
f 4/6/4 6/8/6 5/7/5
f 5/9/5 6/10/6 7/11/7
f 6/10/6 8/12/8 7/11/7
f 7/13/7 8/7/8 3/3/1
f 8/7/8 2/14/2 3/3/1
f 7/15/7 3/4/1 5/8/5
f 3/4/1 1/16/3 5/8/5
f 2/16/2 8/8/8 4/4/4
f 8/8/8 6/15/6 4/4/4
# 12 triangles in group

# 12 triangles total

