# This file uses centimeters as units for non-parametric coordinates.

mtllib block_rect_curved_1x1.mtl
g default
v -100.000000 -7.718175 100.000000
v 100.000000 -7.718175 100.000000
v -75.000000 12.679120 100.000000
v -100.000000 12.679120 100.000000
v -50.000000 12.679120 100.000000
v -25.000000 12.679120 100.000000
v 0.000000 12.679120 100.000000
v 25.000000 12.679120 100.000000
v 50.000000 12.679120 100.000000
v 75.000000 12.679120 100.000000
v 100.000000 12.679120 100.000000
v 75.000000 12.679120 -100.000000
v 100.000000 12.679120 -100.000000
v 50.000000 12.679120 -100.000000
v 25.000000 12.679120 -100.000000
v -0.000000 12.679120 -100.000000
v -25.000000 12.679120 -100.000000
v -50.000000 12.679120 -100.000000
v -75.000000 12.679120 -100.000000
v -100.000000 12.679120 -100.000000
v 100.000000 -7.718175 -100.000000
v -100.000000 -7.718175 -100.000000
v 100.000000 12.679120 75.000000
v 100.000000 12.679120 50.000000
v 100.000000 12.679120 25.000000
v 100.000000 12.679120 -0.000000
v 100.000000 12.679120 -25.000000
v 100.000000 12.679120 -50.000000
v 100.000000 12.679120 -75.000000
v -100.000000 12.679120 -75.000000
v -100.000000 12.679120 -50.000000
v -100.000000 12.679120 -25.000000
v -100.000000 12.679120 0.000000
v -100.000000 12.679120 25.000000
v -100.000000 12.679120 50.000000
v -100.000000 12.679120 75.000000
vt -2.946138 0.000000
vt 1.815422 0.000000
vt -2.946138 1.000000
vt -2.516005 1.000000
vt -1.970814 1.000000
vt -1.307962 1.000000
vt -0.565358 1.000000
vt 0.177247 1.000000
vt 0.840098 1.000000
vt 1.385289 1.000000
vt 1.815422 1.000000
vt 6.576981 1.000000
vt -7.707697 0.000000
vt -10.088478 1.000000
vt -9.345873 1.000000
vt -8.683021 1.000000
vt -8.137831 1.000000
vt -7.707697 1.000000
vt 2.245554 1.000000
vt 2.790745 1.000000
vt 3.453597 1.000000
vt 4.196201 1.000000
vt 4.938807 1.000000
vt 5.601657 1.000000
vt 6.146849 1.000000
vt -7.277565 1.000000
vt -6.732373 1.000000
vt -6.069523 1.000000
vt -5.326918 1.000000
vt -4.584313 1.000000
vt -3.921461 1.000000
vt -3.376271 1.000000
vt 7.007114 1.000000
vt 7.552305 1.000000
vt 8.215156 1.000000
vt 11.338541 0.000000
vt 8.957760 1.000000
vt 6.576981 0.000000
vn 0.000000 0.000000 1.000000
vn 0.000000 0.000000 1.000000
vn 0.000000 0.000000 1.000000
vn 0.000000 0.000000 1.000000
vn 0.000000 0.000000 1.000000
vn 0.000000 0.000000 1.000000
vn 0.000000 0.000000 1.000000
vn 0.000000 0.000000 1.000000
vn 0.000000 0.000000 1.000000
vn 0.000000 0.000000 1.000000
vn 0.000000 0.000000 1.000000
vn 0.000000 0.000000 1.000000
vn 0.000000 0.000000 1.000000
vn 0.000000 0.000000 1.000000
vn 0.000000 0.000000 1.000000
vn 0.000000 0.000000 1.000000
vn 0.000000 0.000000 1.000000
vn 0.000000 0.000000 1.000000
vn 0.000000 0.000000 1.000000
vn 0.000000 0.000000 1.000000
vn 0.000000 0.000000 1.000000
vn 0.000000 0.000000 1.000000
vn 0.000000 0.000000 1.000000
vn 0.000000 0.000000 1.000000
vn 0.000000 0.000000 1.000000
vn 0.000000 0.000000 1.000000
vn 0.000000 0.000000 1.000000
vn 0.000000 0.000000 -1.000000
vn 0.000000 0.000000 -1.000000
vn 0.000000 0.000000 -1.000000
vn 0.000000 0.000000 -1.000000
vn 0.000000 0.000000 -1.000000
vn 0.000000 0.000000 -1.000000
vn 0.000000 0.000000 -1.000000
vn 0.000000 0.000000 -1.000000
vn 0.000000 0.000000 -1.000000
vn 0.000000 0.000000 -1.000000
vn 0.000000 0.000000 -1.000000
vn 0.000000 0.000000 -1.000000
vn 0.000000 0.000000 -1.000000
vn 0.000000 0.000000 -1.000000
vn 0.000000 0.000000 -1.000000
vn 0.000000 0.000000 -1.000000
vn 0.000000 0.000000 -1.000000
vn 0.000000 0.000000 -1.000000
vn 0.000000 0.000000 -1.000000
vn 0.000000 0.000000 -1.000000
vn 0.000000 0.000000 -1.000000
vn 0.000000 0.000000 -1.000000
vn 0.000000 0.000000 -1.000000
vn 0.000000 0.000000 -1.000000
vn 0.000000 0.000000 -1.000000
vn 0.000000 0.000000 -1.000000
vn 0.000000 0.000000 -1.000000
vn 1.000000 0.000000 0.000000
vn 1.000000 0.000000 0.000000
vn 1.000000 0.000000 0.000000
vn 1.000000 0.000000 0.000000
vn 1.000000 0.000000 0.000000
vn 1.000000 0.000000 0.000000
vn 1.000000 0.000000 0.000000
vn 1.000000 0.000000 0.000000
vn 1.000000 0.000000 0.000000
vn 1.000000 0.000000 0.000000
vn 1.000000 0.000000 0.000000
vn 1.000000 0.000000 0.000000
vn 1.000000 0.000000 0.000000
vn 1.000000 0.000000 0.000000
vn 1.000000 0.000000 0.000000
vn 1.000000 0.000000 0.000000
vn 1.000000 0.000000 0.000000
vn 1.000000 0.000000 0.000000
vn 1.000000 0.000000 0.000000
vn 1.000000 0.000000 0.000000
vn 1.000000 0.000000 0.000000
vn 1.000000 0.000000 0.000000
vn 1.000000 0.000000 0.000000
vn 1.000000 0.000000 0.000000
vn 1.000000 0.000000 0.000000
vn 1.000000 0.000000 0.000000
vn 1.000000 0.000000 0.000000
vn -1.000000 0.000000 0.000000
vn -1.000000 0.000000 0.000000
vn -1.000000 0.000000 0.000000
vn -1.000000 0.000000 0.000000
vn -1.000000 0.000000 0.000000
vn -1.000000 0.000000 0.000000
vn -1.000000 0.000000 0.000000
vn -1.000000 0.000000 0.000000
vn -1.000000 0.000000 0.000000
vn -1.000000 0.000000 0.000000
vn -1.000000 0.000000 0.000000
vn -1.000000 0.000000 0.000000
vn -1.000000 0.000000 0.000000
vn -1.000000 0.000000 0.000000
vn -1.000000 0.000000 0.000000
vn -1.000000 0.000000 0.000000
vn -1.000000 0.000000 0.000000
vn -1.000000 0.000000 0.000000
vn -1.000000 0.000000 0.000000
vn -1.000000 0.000000 0.000000
vn -1.000000 0.000000 0.000000
vn -1.000000 0.000000 0.000000
vn -1.000000 0.000000 0.000000
vn -1.000000 0.000000 0.000000
vn -1.000000 0.000000 0.000000
vn -1.000000 0.000000 0.000000
vn -1.000000 0.000000 0.000000
s off
g polySurface1 block_rect_curved_1x1:plat_rect_1x1_std:Mesh
usemtl lambert4SG
f 1/1/1 2/2/2 4/3/3
f 4/3/4 2/2/5 3/4/6
f 3/4/7 2/2/8 5/5/9
f 5/5/10 2/2/11 6/6/12
f 6/6/13 2/2/14 7/7/15
f 7/7/16 2/2/17 8/8/18
f 8/8/19 2/2/20 9/9/21
f 9/9/22 2/2/23 10/10/24
f 2/2/25 11/11/26 10/10/27
f 13/12/28 22/36/29 12/33/30
f 12/33/31 22/36/32 14/34/33
f 14/34/34 22/36/35 15/35/36
f 15/35/37 22/36/38 16/37/39
f 16/14/40 22/13/41 17/15/42
f 17/15/43 22/13/44 18/16/45
f 18/16/46 22/13/47 19/17/48
f 20/18/49 19/17/50 22/13/51
f 22/36/52 13/12/53 21/38/54
f 2/2/55 21/38/56 11/11/57
f 11/11/58 21/38/59 23/19/60
f 23/19/61 21/38/62 24/20/63
f 24/20/64 21/38/65 25/21/66
f 25/21/67 21/38/68 26/22/69
f 26/22/70 21/38/71 27/23/72
f 27/23/73 21/38/74 28/24/75
f 28/24/76 21/38/77 29/25/78
f 21/38/79 13/12/80 29/25/81
f 22/13/82 1/1/83 20/18/84
f 20/18/85 1/1/86 30/26/87
f 30/26/88 1/1/89 31/27/90
f 31/27/91 1/1/92 32/28/93
f 32/28/94 1/1/95 33/29/96
f 33/29/97 1/1/98 34/30/99
f 34/30/100 1/1/101 35/31/102
f 35/31/103 1/1/104 36/32/105
f 1/1/106 4/3/107 36/32/108
g default
v -100.000000 12.679124 100.000000
v 100.000000 12.679124 100.000000
v -100.000000 12.679124 -100.000000
v 100.000000 12.679124 -100.000000
v 0.000000 99.219729 0.000000
v -100.000000 12.679124 0.000000
v 0.000000 12.679124 100.000000
v 100.000000 12.679124 0.000000
v 0.000000 12.679124 -100.000000
v -50.000000 55.938450 -50.000000
v -50.000000 12.679124 -100.000000
v -100.000000 12.679124 -50.000000
v -50.000000 73.211754 0.000000
v 0.000000 73.211754 -50.000000
v -50.000000 55.938450 50.000000
v -100.000000 12.679124 50.000000
v -50.000000 12.679124 100.000000
v 0.000000 73.211754 50.000000
v 50.000000 55.938450 50.000000
v 50.000000 12.679124 100.000000
v 100.000000 12.679124 50.000000
v 50.000000 73.211754 0.000000
v 50.000000 55.938450 -50.000000
v 100.000000 12.679124 -50.000000
v 50.000000 12.679124 -100.000000
v -25.000000 42.667886 -75.000000
v 0.000000 44.806260 -75.000000
v -25.000000 12.679124 -100.000000
v -50.000000 36.358164 -75.000000
v -25.000000 68.759313 -50.000000
v -75.000000 42.667886 25.000000
v -75.000000 44.806260 0.000000
v -100.000000 12.679124 25.000000
v -75.000000 36.358164 50.000000
v -50.000000 68.759313 25.000000
v 25.000000 42.667886 75.000000
v 0.000000 44.806260 75.000000
v 25.000000 12.679124 100.000000
v 50.000000 36.358164 75.000000
v 25.000000 68.759313 50.000000
v 75.000000 42.667886 -25.000000
v 75.000000 44.806260 0.000000
v 100.000000 12.679124 -25.000000
v 75.000000 36.358164 -50.000000
v 50.000000 68.759313 -25.000000
v -75.000000 26.193298 -75.000000
v -75.000000 12.679124 -100.000000
v -100.000000 12.679124 -75.000000
v -75.000000 36.358164 -50.000000
v -75.000000 42.667886 -25.000000
v -100.000000 12.679124 -25.000000
v -50.000000 68.759313 -25.000000
v -25.000000 86.288593 -25.000000
v -25.000000 92.444093 0.000000
v 0.000000 92.444093 -25.000000
v -75.000000 26.193298 75.000000
v -100.000000 12.679124 75.000000
v -75.000000 12.679124 100.000000
v -50.000000 36.358164 75.000000
v -25.000000 42.667886 75.000000
v -25.000000 12.679124 100.000000
v -25.000000 68.759313 50.000000
v -25.000000 86.288593 25.000000
v 0.000000 92.444093 25.000000
v 75.000000 26.193298 75.000000
v 75.000000 12.679124 100.000000
v 100.000000 12.679124 75.000000
v 75.000000 36.358164 50.000000
v 75.000000 42.667886 25.000000
v 100.000000 12.679124 25.000000
v 50.000000 68.759313 25.000000
v 25.000000 86.288593 25.000000
v 25.000000 92.444093 0.000000
v 75.000000 26.193298 -75.000000
v 100.000000 12.679124 -75.000000
v 75.000000 12.679124 -100.000000
v 50.000000 36.358164 -75.000000
v 25.000000 42.667886 -75.000000
v 25.000000 12.679124 -100.000000
v 25.000000 68.759313 -50.000000
v 25.000000 86.288593 -25.000000
vt 0.500631 0.749937
vt 0.500631 0.874353
vt 0.378880 0.749937
vt 0.378880 0.874353
vt 0.257130 0.501105
vt 0.135379 0.501105
vt 0.257130 0.376689
vt 0.135379 0.376689
vt 0.500631 0.252273
vt 0.500631 0.127857
vt 0.622382 0.252273
vt 0.622382 0.127857
vt 0.744133 0.501105
vt 0.865884 0.501105
vt 0.744133 0.625521
vt 0.865884 0.625521
vt 0.257130 0.874353
vt 0.257130 0.998769
vt 0.135379 0.874353
vt 0.135379 0.998769
vt 0.013628 0.749937
vt 0.013628 0.625521
vt 0.135379 0.749937
vt 0.135379 0.625521
vt 0.257130 0.625521
vt 0.378880 0.625521
vt 0.378880 0.501105
vt 0.135379 0.252273
vt 0.013628 0.252273
vt 0.135379 0.127857
vt 0.013628 0.127857
vt 0.257130 0.003441
vt 0.378880 0.003441
vt 0.257130 0.127857
vt 0.378880 0.127857
vt 0.378880 0.252273
vt 0.378880 0.376689
vt 0.500631 0.376689
vt 0.744133 0.127857
vt 0.744133 0.003441
vt 0.865884 0.127857
vt 0.865884 0.003441
vt 0.987635 0.252273
vt 0.987635 0.376689
vt 0.865884 0.252273
vt 0.865884 0.376689
vt 0.744133 0.376689
vt 0.622382 0.376689
vt 0.622382 0.501105
vt 0.865884 0.749937
vt 0.987635 0.749937
vt 0.865884 0.874353
vt 0.987635 0.874353
vt 0.744133 0.998769
vt 0.622382 0.998769
vt 0.744133 0.874353
vt 0.622382 0.874353
vt 0.622382 0.749937
vt 0.622382 0.625521
vt 0.500631 0.625521
vt 0.500631 0.998769
vt 0.378880 0.998769
vt 0.257130 0.749937
vt 0.013628 0.501105
vt 0.013628 0.376689
vt 0.257130 0.252273
vt 0.500631 0.003441
vt 0.622382 0.003441
vt 0.744133 0.252273
vt 0.987635 0.501105
vt 0.987635 0.625521
vt 0.744133 0.749937
vt 0.013628 0.998769
vt 0.013628 0.874353
vt 0.500631 0.501105
vt 0.013628 0.003441
vt 0.135379 0.003441
vt 0.987635 0.003441
vt 0.987635 0.127857
vt 0.987635 0.998769
vt 0.865884 0.998769
vn 0.000000 0.757427 -0.652919
vn -0.000000 0.655266 -0.755398
vn -0.265838 0.734801 -0.624018
vn -0.133471 0.670884 -0.729452
vn -0.652919 0.757428 0.000000
vn -0.755398 0.655266 0.000000
vn -0.624018 0.734801 0.265838
vn -0.729452 0.670884 0.133471
vn -0.000000 0.757427 0.652919
vn 0.000000 0.655266 0.755398
vn 0.265838 0.734801 0.624018
vn 0.133471 0.670884 0.729452
vn 0.652919 0.757428 0.000000
vn 0.755398 0.655266 0.000000
vn 0.624018 0.734801 -0.265838
vn 0.729452 0.670884 -0.133471
vn -0.258522 0.741106 -0.619620
vn 0.000000 1.000000 0.000000
vn -0.390006 0.834141 -0.390006
vn 0.000000 1.000000 0.000000
vn 0.000000 1.000000 0.000000
vn 0.000000 1.000000 0.000000
vn -0.619620 0.741106 -0.258522
vn -0.729452 0.670884 -0.133471
vn -0.624018 0.734801 -0.265838
vn -0.391316 0.832913 -0.391316
vn -0.388806 0.921320 -0.000000
vn -0.619619 0.741106 0.258522
vn 0.000000 1.000000 0.000000
vn -0.390006 0.834141 0.390006
vn 0.000000 1.000000 0.000000
vn 0.000000 1.000000 0.000000
vn 0.000000 1.000000 0.000000
vn -0.258522 0.741106 0.619620
vn -0.133471 0.670884 0.729452
vn -0.265838 0.734801 0.624018
vn -0.391316 0.832913 0.391316
vn 0.000000 0.921320 0.388806
vn 0.258522 0.741106 0.619620
vn 0.000000 1.000000 0.000000
vn 0.390006 0.834141 0.390006
vn 0.000000 1.000000 0.000000
vn 0.000000 1.000000 0.000000
vn 0.000000 1.000000 0.000000
vn 0.619620 0.741106 0.258522
vn 0.729452 0.670884 0.133471
vn 0.624018 0.734801 0.265838
vn 0.391316 0.832913 0.391316
vn 0.388806 0.921320 0.000000
vn 0.619619 0.741106 -0.258522
vn 0.000000 1.000000 0.000000
vn 0.390006 0.834141 -0.390006
vn 0.000000 1.000000 0.000000
vn 0.000000 1.000000 0.000000
vn 0.000000 1.000000 0.000000
vn 0.258522 0.741106 -0.619620
vn 0.133471 0.670884 -0.729452
vn 0.265838 0.734801 -0.624018
vn 0.391316 0.832913 -0.391316
vn -0.000000 0.921320 -0.388806
vn 0.000000 1.000000 0.000000
vn 0.000000 1.000000 0.000000
vn -0.475869 0.739661 -0.475869
vn 0.000000 1.000000 0.000000
vn 0.000000 1.000000 0.000000
vn -0.475869 0.739661 0.475869
vn 0.000000 1.000000 0.000000
vn 0.000000 1.000000 0.000000
vn 0.475869 0.739661 0.475869
vn 0.000000 1.000000 0.000000
vn 0.000000 1.000000 0.000000
vn 0.475869 0.739661 -0.475869
vn 0.000000 1.000000 0.000000
vn 0.000000 1.000000 0.000000
vn 0.000000 1.000000 0.000000
vn 0.000000 1.000000 0.000000
vn 0.000000 1.000000 0.000000
vn 0.000000 1.000000 0.000000
vn 0.000000 1.000000 0.000000
vn 0.000000 1.000000 0.000000
vn 0.000000 1.000000 0.000000
vn 0.000000 1.000000 0.000000
vn 0.000000 1.000000 0.000000
vn 0.000000 1.000000 0.000000
vn 0.000000 1.000000 0.000000
vn 0.000000 1.000000 0.000000
vn 0.000000 1.000000 0.000000
vn 0.000000 1.000000 0.000000
vn 0.000000 1.000000 0.000000
s 1
g block_rect_curved_1x1:plat_rect_1x1_std:Mesh polySurface3 polySurface2
usemtl lambert2SG
f 50/39/109 63/40/110 66/41/111
f 66/41/111 63/40/110 62/42/112
f 49/43/113 68/44/114 71/45/115
f 71/45/115 68/44/114 67/46/116
f 54/47/117 73/48/118 76/49/119
f 76/49/119 73/48/118 72/50/120
f 58/51/121 78/52/122 81/53/123
f 81/53/123 78/52/122 77/54/124
f 65/55/125 47/56/126 82/57/127
f 82/57/127 47/56/126 83/58/128
f 48/59/129 87/60/130 85/61/131
f 85/61/131 87/60/130 86/62/132
f 88/63/133 49/43/113 89/64/134
f 89/64/134 49/43/113 90/65/135
f 70/66/136 52/67/137 92/68/138
f 92/68/138 52/67/137 93/69/139
f 53/70/140 97/71/141 95/72/142
f 95/72/142 97/71/141 96/73/143
f 98/74/144 54/47/117 99/75/145
f 99/75/145 54/47/117 100/76/146
f 75/77/147 56/78/148 101/79/149
f 101/79/149 56/78/148 102/80/150
f 57/81/151 106/82/152 104/83/153
f 104/83/153 106/82/152 105/84/154
f 107/85/155 58/51/121 108/86/156
f 108/86/156 58/51/121 109/87/157
f 80/88/158 60/89/159 110/90/160
f 110/90/160 60/89/159 111/91/161
f 61/92/162 115/93/163 113/94/164
f 113/94/164 115/93/163 114/95/165
f 116/96/166 50/39/109 117/97/167
f 117/97/167 50/39/109 91/98/168
f 63/40/110 45/99/169 62/42/112
f 62/42/112 45/99/169 64/100/170
f 47/56/126 65/55/125 64/100/170
f 64/100/170 65/55/125 62/42/112
f 65/55/125 46/101/171 62/42/112
f 62/42/112 46/101/171 66/41/111
f 68/44/114 42/102/172 67/46/116
f 67/46/116 42/102/172 69/103/173
f 52/67/137 70/66/136 69/103/173
f 69/103/173 70/66/136 67/46/116
f 70/66/136 51/104/174 67/46/116
f 67/46/116 51/104/174 71/45/115
f 73/48/118 43/105/175 72/50/120
f 72/50/120 43/105/175 74/106/176
f 56/78/148 75/77/147 74/106/176
f 74/106/176 75/77/147 72/50/120
f 75/77/147 55/107/177 72/50/120
f 72/50/120 55/107/177 76/49/119
f 78/52/122 44/108/178 77/54/124
f 77/54/124 44/108/178 79/109/179
f 60/89/159 80/88/158 79/109/179
f 79/109/179 80/88/158 77/54/124
f 80/88/158 59/110/180 77/54/124
f 77/54/124 59/110/180 81/53/123
s off
f 39/111/181 84/112/182 83/58/183
s 1
f 83/58/128 84/112/184 82/57/127
f 84/112/184 48/59/129 82/57/127
f 82/57/127 48/59/129 85/61/131
f 46/101/171 65/55/125 85/61/131
f 85/61/131 65/55/125 82/57/127
f 87/60/130 42/102/172 86/62/132
f 86/62/132 42/102/172 68/44/114
f 49/43/113 88/63/133 68/44/114
f 68/44/114 88/63/133 86/62/132
f 88/63/133 46/101/171 86/62/132
f 86/62/132 46/101/171 85/61/131
f 41/113/185 91/98/168 90/65/135
f 90/65/135 91/98/168 89/64/134
f 91/98/168 50/39/109 89/64/134
f 89/64/134 50/39/109 66/41/111
f 46/101/171 88/63/133 66/41/111
f 66/41/111 88/63/133 89/64/134
s off
f 37/114/186 94/115/187 93/69/188
s 1
f 93/69/139 94/115/189 92/68/138
f 94/115/189 53/70/140 92/68/138
f 92/68/138 53/70/140 95/72/142
f 51/104/174 70/66/136 95/72/142
f 95/72/142 70/66/136 92/68/138
f 97/71/141 43/105/175 96/73/143
f 96/73/143 43/105/175 73/48/118
f 54/47/117 98/74/144 73/48/118
f 73/48/118 98/74/144 96/73/143
f 98/74/144 51/104/174 96/73/143
f 96/73/143 51/104/174 95/72/142
f 41/113/185 90/65/135 100/76/146
f 100/76/146 90/65/135 99/75/145
f 90/65/135 49/43/113 99/75/145
f 99/75/145 49/43/113 71/45/115
f 51/104/174 98/74/144 71/45/115
f 71/45/115 98/74/144 99/75/145
s off
f 38/116/190 103/117/191 102/80/192
s 1
f 102/80/150 103/117/193 101/79/149
f 103/117/193 57/81/151 101/79/149
f 101/79/149 57/81/151 104/83/153
f 55/107/177 75/77/147 104/83/153
f 104/83/153 75/77/147 101/79/149
f 106/82/152 44/108/178 105/84/154
f 105/84/154 44/108/178 78/52/122
f 58/51/121 107/85/155 78/52/122
f 78/52/122 107/85/155 105/84/154
f 107/85/155 55/107/177 105/84/154
f 105/84/154 55/107/177 104/83/153
f 41/113/185 100/76/146 109/87/157
f 109/87/157 100/76/146 108/86/156
f 100/76/146 54/47/117 108/86/156
f 108/86/156 54/47/117 76/49/119
f 55/107/177 107/85/155 76/49/119
f 76/49/119 107/85/155 108/86/156
s off
f 40/118/194 112/119/195 111/91/196
s 1
f 111/91/161 112/119/197 110/90/160
f 112/119/197 61/92/162 110/90/160
f 110/90/160 61/92/162 113/94/164
f 59/110/180 80/88/158 113/94/164
f 113/94/164 80/88/158 110/90/160
f 115/93/163 45/99/169 114/95/165
f 114/95/165 45/99/169 63/40/110
f 50/39/109 116/96/166 63/40/110
f 63/40/110 116/96/166 114/95/165
f 116/96/166 59/110/180 114/95/165
f 114/95/165 59/110/180 113/94/164
f 41/113/185 109/87/157 91/98/168
f 91/98/168 109/87/157 117/97/167
f 109/87/157 58/51/121 117/97/167
f 117/97/167 58/51/121 81/53/123
f 59/110/180 116/96/166 81/53/123
f 81/53/123 116/96/166 117/97/167
g default
v -100.000000 -7.718171 100.000000
v 100.000000 -7.718171 100.000000
v -100.000000 -7.718171 -100.000000
v 100.000000 -7.718171 -100.000000
v 100.000000 -193.393830 -100.000000
v -100.000000 -193.393830 -100.000000
v -100.000000 -193.393830 100.000000
v 100.000000 -193.393830 100.000000
vt -0.249968 0.000000
vt 1.250032 0.000000
vt 0.250032 0.000000
vt 0.750032 0.000000
vt -0.249968 1.000000
vt 1.250032 1.000000
vt 0.250032 1.000000
vt 0.750032 1.000000
vt 1.750032 1.000000
vt 1.750032 0.000000
vn 0.000000 -1.000000 0.000000
vn 0.000000 -1.000000 0.000000
vn 0.000000 -1.000000 0.000000
vn 0.000000 -1.000000 0.000000
vn 0.000000 -1.000000 0.000000
vn 0.000000 -1.000000 0.000000
vn 0.000000 0.000000 -1.000000
vn 0.000000 0.000000 -1.000000
vn 0.000000 0.000000 -1.000000
vn 0.000000 0.000000 -1.000000
vn -1.000000 0.000000 0.000000
vn -1.000000 0.000000 0.000000
vn -1.000000 0.000000 0.000000
vn -1.000000 0.000000 0.000000
vn 1.000000 0.000000 0.000000
vn 1.000000 0.000000 0.000000
vn 1.000000 0.000000 0.000000
vn 1.000000 0.000000 0.000000
vn 0.000000 0.000000 1.000000
vn 0.000000 0.000000 1.000000
vn 0.000000 0.000000 1.000000
vn 0.000000 0.000000 1.000000
s off
g block_rect_curved_1x1:plat_rect_1x1_std:Mesh polySurface2 polySurface4
usemtl lambert5SG
f 123/129/198 122/121/199 124/122/200
f 124/122/201 122/121/202 125/123/203
s 1
f 120/128/204 121/125/205 123/129/206
f 123/129/206 121/125/205 122/121/207
s 2
f 118/126/208 120/124/209 124/122/210
f 124/122/210 120/124/209 123/120/211
s 3
f 121/125/212 119/127/213 122/121/214
f 122/121/214 119/127/213 125/123/215
s 4
f 119/127/216 118/126/217 125/123/218
f 125/123/218 118/126/217 124/122/219
