# This file uses centimeters as units for non-parametric coordinates.

mtllib blood_pool.mtl
g default
v 53.481978 0.095691 -17.233873
v 45.491133 0.095691 -32.916793
v 33.045097 0.095691 -45.362824
v 17.362176 0.095691 -53.353670
v -0.022472 0.095691 -56.107122
v -17.407120 0.095691 -53.353666
v -33.090034 0.095691 -45.362817
v -45.536062 0.095691 -32.916782
v -53.526903 0.095691 -17.233866
v -56.280359 0.095691 0.150776
v -53.526903 0.095691 17.535419
v -45.536058 0.095691 33.218331
v -33.090027 0.095691 45.664359
v -17.407114 0.095691 53.655201
v -0.022474 0.095691 56.408660
v 17.362165 0.095691 53.655201
v 33.045075 0.095691 45.664355
v 45.491104 0.095691 33.218327
v 53.481945 0.095691 17.535415
v 56.235401 0.095691 0.150776
v 49.915595 3.930342 -16.075086
v 42.457385 3.930342 -30.712649
v 30.840954 3.930342 -42.329080
v 16.203389 3.930342 -49.787290
v -0.022472 3.930342 -52.357208
v -16.248333 3.930342 -49.787287
v -30.885883 3.930342 -42.329073
v -42.502318 3.930342 -30.712639
v -49.960524 3.930342 -16.075079
v -52.530446 3.930342 0.150776
v -49.960524 3.930342 16.376632
v -42.502314 3.930342 31.014188
v -30.885883 3.930342 42.630615
v -16.248327 3.930342 50.088821
v -0.022474 3.930342 52.658747
v 16.203378 3.930342 50.088818
v 30.840925 3.930342 42.630612
v 42.457360 3.930342 31.014181
v 49.915566 3.930342 16.376628
v 52.485488 3.930342 0.150776
v 41.990304 7.216259 -13.500003
v 35.715730 7.216259 -25.814551
v -0.022473 7.216259 0.150775
v 25.942852 7.216259 -35.587425
v 13.628304 7.216259 -41.861999
v -0.022473 7.216259 -44.024067
v -13.673251 7.216259 -41.861995
v -25.987787 7.216259 -35.587418
v -35.760663 7.216259 -25.814540
v -42.035233 7.216259 -13.499998
v -44.197305 7.216259 0.150775
v -42.035233 7.216259 13.801548
v -35.760663 7.216259 26.116089
v -25.987787 7.216259 35.888960
v -13.673246 7.216259 42.163530
v -0.022475 7.216259 44.325606
v 13.628295 7.216259 42.163530
v 25.942828 7.216259 35.888956
v 35.715704 7.216259 26.116080
v 41.990274 7.216259 13.801545
v 44.152346 7.216259 0.150775
vt 0.375000 0.312500
vt 0.387500 0.312500
vt 0.400000 0.312500
vt 0.412500 0.312500
vt 0.425000 0.312500
vt 0.437500 0.312500
vt 0.450000 0.312500
vt 0.462500 0.312500
vt 0.475000 0.312500
vt 0.487500 0.312500
vt 0.500000 0.312500
vt 0.512500 0.312500
vt 0.525000 0.312500
vt 0.537500 0.312500
vt 0.550000 0.312500
vt 0.562500 0.312500
vt 0.575000 0.312500
vt 0.587500 0.312500
vt 0.600000 0.312500
vt 0.612500 0.312500
vt 0.625000 0.312500
vt 0.375000 0.688440
vt 0.387500 0.688440
vt 0.400000 0.688440
vt 0.412500 0.688440
vt 0.425000 0.688440
vt 0.437500 0.688440
vt 0.450000 0.688440
vt 0.462500 0.688440
vt 0.475000 0.688440
vt 0.487500 0.688440
vt 0.500000 0.688440
vt 0.512500 0.688440
vt 0.525000 0.688440
vt 0.537500 0.688440
vt 0.550000 0.688440
vt 0.562500 0.688440
vt 0.575000 0.688440
vt 0.587500 0.688440
vt 0.600000 0.688440
vt 0.612500 0.688440
vt 0.625000 0.688440
vt 0.648603 0.795466
vt 0.626409 0.751908
vt 0.591842 0.717341
vt 0.548284 0.695147
vt 0.500000 0.687500
vt 0.451716 0.695147
vt 0.408159 0.717341
vt 0.373591 0.751909
vt 0.351397 0.795466
vt 0.343750 0.843750
vt 0.351397 0.892034
vt 0.373591 0.935591
vt 0.408159 0.970159
vt 0.451716 0.992353
vt 0.500000 1.000000
vt 0.548284 0.992353
vt 0.591841 0.970159
vt 0.626409 0.935591
vt 0.648603 0.892034
vt 0.656250 0.843750
vt 0.500000 0.837500
vt 0.648603 0.892034
vt 0.626409 0.935591
vt 0.591841 0.970159
vt 0.548284 0.992353
vt 0.500000 1.000000
vt 0.451716 0.992353
vt 0.408159 0.970159
vt 0.373591 0.935591
vt 0.351397 0.892034
vt 0.343750 0.843750
vt 0.351397 0.795466
vt 0.373591 0.751909
vt 0.408159 0.717341
vt 0.451716 0.695147
vt 0.500000 0.687500
vt 0.548284 0.695147
vt 0.591842 0.717341
vt 0.626409 0.751908
vt 0.648603 0.795466
vt 0.656250 0.843750
vn 0.679970 0.699163 -0.220935
vn 0.578417 0.699163 -0.420244
vn 0.447470 0.833113 -0.325106
vn 0.526033 0.833113 -0.170918
vn 0.420244 0.699163 -0.578417
vn 0.325106 0.833113 -0.447470
vn 0.220935 0.699163 -0.679970
vn 0.170918 0.833113 -0.526033
vn 0.000000 0.699163 -0.714962
vn -0.000000 0.833113 -0.553104
vn -0.220936 0.699163 -0.679969
vn -0.170918 0.833113 -0.526033
vn -0.420244 0.699163 -0.578416
vn -0.325106 0.833113 -0.447470
vn -0.578417 0.699163 -0.420244
vn -0.447470 0.833113 -0.325106
vn -0.679969 0.699163 -0.220935
vn -0.526033 0.833113 -0.170918
vn -0.714962 0.699163 -0.000000
vn -0.553103 0.833113 -0.000000
vn -0.679969 0.699163 0.220936
vn -0.526033 0.833113 0.170918
vn -0.578417 0.699163 0.420244
vn -0.447470 0.833113 0.325106
vn -0.420244 0.699163 0.578417
vn -0.325106 0.833113 0.447470
vn -0.220936 0.699163 0.679970
vn -0.170918 0.833113 0.526033
vn -0.000000 0.699163 0.714962
vn 0.000000 0.833113 0.553104
vn 0.220936 0.699163 0.679969
vn 0.170918 0.833113 0.526033
vn 0.420244 0.699163 0.578416
vn 0.325106 0.833113 0.447470
vn 0.578417 0.699163 0.420244
vn 0.447470 0.833113 0.325106
vn 0.679969 0.699163 0.220936
vn 0.526033 0.833113 0.170918
vn 0.714962 0.699163 0.000001
vn 0.553104 0.833113 0.000001
vn 0.177560 0.982417 -0.057693
vn 0.151042 0.982417 -0.109738
vn 0.000000 1.000000 -0.000000
vn 0.109738 0.982417 -0.151042
vn 0.057693 0.982417 -0.177560
vn -0.000000 0.982417 -0.186698
vn -0.057693 0.982417 -0.177560
vn -0.109738 0.982417 -0.151042
vn -0.151042 0.982417 -0.109738
vn -0.177560 0.982417 -0.057693
vn -0.186698 0.982417 0.000000
vn -0.177560 0.982417 0.057693
vn -0.151042 0.982417 0.109738
vn -0.109738 0.982417 0.151042
vn -0.057693 0.982417 0.177560
vn 0.000000 0.982417 0.186698
vn 0.057693 0.982417 0.177560
vn 0.109738 0.982417 0.151042
vn 0.151042 0.982417 0.109738
vn 0.177560 0.982417 0.057693
vn 0.186698 0.982417 0.000000
vn 0.526033 0.833113 -0.170918
vn 0.447470 0.833113 -0.325106
vn 0.151042 0.982417 -0.109738
vn 0.177560 0.982417 -0.057693
vn 0.325106 0.833113 -0.447470
vn 0.109738 0.982417 -0.151042
vn 0.170918 0.833113 -0.526033
vn 0.057693 0.982417 -0.177560
vn -0.000000 0.833113 -0.553104
vn -0.000000 0.982417 -0.186698
vn -0.170918 0.833113 -0.526033
vn -0.057693 0.982417 -0.177560
vn -0.325106 0.833113 -0.447470
vn -0.109738 0.982417 -0.151042
vn -0.447470 0.833113 -0.325106
vn -0.151042 0.982417 -0.109738
vn -0.526033 0.833113 -0.170918
vn -0.177560 0.982417 -0.057693
vn -0.553103 0.833113 -0.000000
vn -0.186698 0.982417 0.000000
vn -0.526033 0.833113 0.170918
vn -0.177560 0.982417 0.057693
vn -0.447470 0.833113 0.325106
vn -0.151042 0.982417 0.109738
vn -0.325106 0.833113 0.447470
vn -0.109738 0.982417 0.151042
vn -0.170918 0.833113 0.526033
vn -0.057693 0.982417 0.177560
vn 0.000000 0.833113 0.553104
vn 0.000000 0.982417 0.186698
vn 0.170918 0.833113 0.526033
vn 0.057693 0.982417 0.177560
vn 0.325106 0.833113 0.447470
vn 0.109738 0.982417 0.151042
vn 0.447470 0.833113 0.325106
vn 0.151042 0.982417 0.109738
vn 0.526033 0.833113 0.170918
vn 0.177560 0.982417 0.057693
vn 0.553104 0.833113 0.000001
vn 0.186698 0.982417 0.000000
s 1
g pCylinder1
usemtl lambert2SG
f 1/1/1 2/2/2 22/23/3 21/22/4
f 2/2/2 3/3/5 23/24/6 22/23/3
f 3/3/5 4/4/7 24/25/8 23/24/6
f 4/4/7 5/5/9 25/26/10 24/25/8
f 5/5/9 6/6/11 26/27/12 25/26/10
f 6/6/11 7/7/13 27/28/14 26/27/12
f 7/7/13 8/8/15 28/29/16 27/28/14
f 8/8/15 9/9/17 29/30/18 28/29/16
f 9/9/17 10/10/19 30/31/20 29/30/18
f 10/10/19 11/11/21 31/32/22 30/31/20
f 11/11/21 12/12/23 32/33/24 31/32/22
f 12/12/23 13/13/25 33/34/26 32/33/24
f 13/13/25 14/14/27 34/35/28 33/34/26
f 14/14/27 15/15/29 35/36/30 34/35/28
f 15/15/29 16/16/31 36/37/32 35/36/30
f 16/16/31 17/17/33 37/38/34 36/37/32
f 17/17/33 18/18/35 38/39/36 37/38/34
f 18/18/35 19/19/37 39/40/38 38/39/36
f 19/19/37 20/20/39 40/41/40 39/40/38
f 20/20/39 1/21/1 21/42/4 40/41/40
s 2
f 41/64/41 42/65/42 43/63/43
f 42/65/42 44/66/44 43/63/43
f 44/66/44 45/67/45 43/63/43
f 45/67/45 46/68/46 43/63/43
f 46/68/46 47/69/47 43/63/43
f 47/69/47 48/70/48 43/63/43
f 48/70/48 49/71/49 43/63/43
f 49/71/49 50/72/50 43/63/43
f 50/72/50 51/73/51 43/63/43
f 51/73/51 52/74/52 43/63/43
f 52/74/52 53/75/53 43/63/43
f 53/75/53 54/76/54 43/63/43
f 54/76/54 55/77/55 43/63/43
f 55/77/55 56/78/56 43/63/43
f 56/78/56 57/79/57 43/63/43
f 57/79/57 58/80/58 43/63/43
f 58/80/58 59/81/59 43/63/43
f 59/81/59 60/82/60 43/63/43
f 60/82/60 61/83/61 43/63/43
f 61/83/61 41/64/41 43/63/43
s 3
f 21/61/62 22/60/63 42/65/64 41/64/65
f 22/60/63 23/59/66 44/66/67 42/65/64
f 23/59/66 24/58/68 45/67/69 44/66/67
f 24/58/68 25/57/70 46/68/71 45/67/69
f 25/57/70 26/56/72 47/69/73 46/68/71
f 26/56/72 27/55/74 48/70/75 47/69/73
f 27/55/74 28/54/76 49/71/77 48/70/75
f 28/54/76 29/53/78 50/72/79 49/71/77
f 29/53/78 30/52/80 51/73/81 50/72/79
f 30/52/80 31/51/82 52/74/83 51/73/81
f 31/51/82 32/50/84 53/75/85 52/74/83
f 32/50/84 33/49/86 54/76/87 53/75/85
f 33/49/86 34/48/88 55/77/89 54/76/87
f 34/48/88 35/47/90 56/78/91 55/77/89
f 35/47/90 36/46/92 57/79/93 56/78/91
f 36/46/92 37/45/94 58/80/95 57/79/93
f 37/45/94 38/44/96 59/81/97 58/80/95
f 38/44/96 39/43/98 60/82/99 59/81/97
f 39/43/98 40/62/100 61/83/101 60/82/99
f 40/62/100 21/61/62 41/64/65 61/83/101
