# This file uses centimeters as units for non-parametric coordinates.

mtllib field_2x2.mtl
g default
v -200.000000 -850.060181 200.000000
v 200.000000 -850.060181 200.000000
v -200.000000 0.000000 200.000000
v 200.000000 0.000000 200.000000
v -200.000000 0.000000 -200.000000
v 200.000000 0.000000 -200.000000
v -200.000000 -850.060181 -200.000000
v 200.000000 -850.060181 -200.000000
vt 0.005811 -0.008422
vt 0.498918 -0.008422
vt 0.005811 0.504434
vt 0.498918 0.504434
vt 0.506026 -0.008422
vt 0.999133 -0.008422
vt 0.506026 0.504434
vt 0.999133 0.504434
vt 0.505976 0.507499
vt 1.008957 0.507499
vt 0.505976 1.000606
vt 1.008957 1.000606
vt -0.003809 0.507499
vt 0.499172 0.507499
vt -0.003809 1.000606
vt 0.499172 1.000606
vn 0.000000 0.000000 1.000000
vn 0.000000 0.000000 1.000000
vn 0.000000 0.000000 1.000000
vn 0.000000 0.000000 1.000000
vn 0.000000 0.000000 -1.000000
vn 0.000000 0.000000 -1.000000
vn 0.000000 0.000000 -1.000000
vn 0.000000 0.000000 -1.000000
vn 1.000000 0.000000 0.000000
vn 1.000000 0.000000 0.000000
vn 1.000000 0.000000 0.000000
vn 1.000000 0.000000 0.000000
vn -1.000000 0.000000 0.000000
vn -1.000000 0.000000 0.000000
vn -1.000000 0.000000 0.000000
vn -1.000000 0.000000 0.000000
s 1
g polySurface11 polySurface10
usemtl lambert6SG
f 1/1/1 2/2/2 3/3/3
f 3/3/3 2/2/2 4/4/4
s 2
f 5/5/5 6/6/6 7/7/7
f 7/7/7 6/6/6 8/8/8
s 3
f 2/9/9 8/10/10 4/11/11
f 4/11/11 8/10/10 6/12/12
s 4
f 7/13/13 1/14/14 5/15/15
f 5/15/15 1/14/14 3/16/16
g default
v -200.000000 0.000001 200.000000
v 200.000000 0.000001 200.000000
v -200.000015 0.000001 -200.000000
v 200.000000 0.000001 -200.000000
vt -0.032893 -0.004532
vt 0.940571 -0.004532
vt -0.032893 0.962257
vt 0.940571 0.962257
vn 0.000000 1.000000 -0.000000
vn 0.000000 1.000000 -0.000000
vn 0.000000 1.000000 -0.000000
vn 0.000000 1.000000 0.000000
s 1
g polySurface10 polySurface12
usemtl lambert2SG
f 9/17/17 10/18/18 11/19/19
f 11/19/19 10/18/18 12/20/20
