# This file uses centimeters as units for non-parametric coordinates.

mtllib grave1.mtl
g default
v -10.458034 0.109476 -3.165358
v -10.458034 0.109476 4.677782
v -8.662534 22.446409 4.677782
v -8.662534 22.446409 -3.165358
v 11.878897 -1.686025 4.677782
v 11.878897 -1.686025 -3.165358
v 13.674399 20.650885 -3.165358
v 13.674399 20.650885 4.677782
v 13.146976 25.057304 -3.165358
v 13.146976 25.057304 4.677782
v 11.067065 28.795048 -3.165358
v 11.067065 28.795048 4.677782
v 7.588714 31.587244 4.677782
v 7.588714 31.587244 -3.165358
v 3.359909 32.720637 4.677782
v 3.359909 32.720637 -3.165358
v -0.908077 32.270255 4.677782
v -0.908077 32.270255 -3.165358
v -4.787789 30.069523 4.677782
v -4.787789 30.069523 -3.165358
v -7.438038 26.711991 -3.165358
v -7.438038 26.711991 4.677782
vt -0.164063 0.156250
vt -0.007813 0.156250
vt -0.007813 0.054688
vt -0.164063 0.054688
vt -0.007813 0.031250
vt -0.164063 0.031250
vt -0.007813 0.015625
vt -0.164063 0.015625
vt -0.164063 0.000000
vt -0.007813 0.000000
vt -0.007813 0.007813
vt -0.164063 0.007813
vt -0.992188 0.976563
vt -0.992188 0.320313
vt -0.960938 0.203125
vt -0.875000 0.093750
vt -0.742188 0.023438
vt -0.593750 0.000000
vt -0.437500 0.023438
vt -0.304688 0.093750
vt -0.218750 0.203125
vt -0.187500 0.320313
vt -0.187500 0.976563
vt -0.015625 0.226563
vt -0.015625 0.296875
vt -0.015625 0.218750
vt -0.023438 0.203125
vt -0.039063 0.195313
vt -0.054688 0.195313
vt -0.070313 0.195313
vt -0.078125 0.203125
vt -0.093750 0.218750
vt -0.093750 0.296875
vt -0.093750 0.226563
vt -0.164063 0.156250
vt -0.007813 0.156250
vt -0.007813 0.054688
vt -0.164063 0.156250
vt -0.007813 0.054688
vt -0.164063 0.054688
vt -0.164063 0.054688
vt -0.007813 0.054688
vt -0.164063 0.054688
vt -0.164063 0.000000
vt -0.164063 0.000000
vt -0.007813 0.000000
vt -0.007813 0.000000
vt -0.164063 0.000000
vt -0.164063 0.000000
vt -0.007813 0.015625
vt -0.007813 0.015625
vt -0.164063 0.015625
vt -0.164063 0.031250
vt -0.007813 0.031250
vt -0.007813 0.015625
vt -0.164063 0.031250
vt -0.007813 0.015625
vt -0.164063 0.015625
vt -0.007813 0.031250
vt -0.007813 0.031250
vt -0.164063 0.031250
vn -0.891551 0.071665 -0.447214
vn -0.996785 0.080124 0.000000
vn -0.989280 0.146034 0.000000
vn -0.926793 0.200641 -0.317488
vn 0.216232 -0.017382 0.976187
vn 0.123637 -0.009938 -0.992278
vn 0.948171 -0.013145 -0.317488
vn 0.216232 -0.017382 0.976187
vn 0.948171 -0.013145 -0.317488
vn 0.946942 0.050027 0.317488
vn 0.946942 0.050027 0.317488
vn 0.948171 -0.013145 -0.317488
vn 0.802383 0.203130 -0.561177
vn 0.946942 0.050027 0.317488
vn 0.802383 0.203130 -0.561177
vn 0.768968 0.306218 0.561177
vn 0.768968 0.306218 0.561177
vn 0.802383 0.203130 -0.561177
vn 0.680864 0.574752 -0.453965
vn 0.768968 0.306218 0.561177
vn 0.680864 0.574752 -0.453965
vn 0.535226 0.451812 0.713722
vn 0.424609 0.709776 0.562073
vn 0.535226 0.451812 0.713722
vn 0.680864 0.574752 -0.453965
vn 0.424609 0.709776 0.562073
vn 0.680864 0.574752 -0.453965
vn 0.321435 0.762072 -0.562073
vn 0.115684 0.820054 0.560472
vn 0.424609 0.709776 0.562073
vn 0.321435 0.762072 -0.562073
vn 0.115684 0.820054 0.560472
vn 0.321435 0.762072 -0.562073
vn 0.013729 0.828060 -0.560472
vn -0.197601 0.803229 0.561941
vn 0.115684 0.820054 0.560472
vn 0.013729 0.828060 -0.560472
vn -0.197601 0.803229 0.561941
vn 0.013729 0.828060 -0.560472
vn -0.306744 0.768200 -0.561941
vn -0.580314 0.676130 0.453965
vn -0.197601 0.803229 0.561941
vn -0.306744 0.768200 -0.561941
vn -0.580314 0.676130 0.453965
vn -0.306744 0.768200 -0.561941
vn -0.456184 0.531504 -0.713722
vn -0.601579 0.360106 -0.713040
vn -0.759635 0.328688 0.561177
vn -0.580314 0.676130 0.453965
vn -0.601579 0.360106 -0.713040
vn -0.580314 0.676130 0.453965
vn -0.456184 0.531504 -0.713722
vn -0.759635 0.328688 0.561177
vn -0.601579 0.360106 -0.713040
vn 0.000000 0.000000 1.000000
vn 0.000000 0.000000 1.000000
vn 0.000000 0.000000 1.000000
vn 0.000000 0.000000 1.000000
vn 0.000000 0.000000 1.000000
vn 0.000000 0.000000 1.000000
vn 0.000001 0.000000 1.000000
vn 0.000001 0.000000 1.000000
vn 0.000001 0.000000 1.000000
vn -0.000002 -0.000000 1.000000
vn -0.000002 -0.000000 1.000000
vn -0.000002 -0.000000 1.000000
vn 0.000001 0.000000 1.000000
vn 0.000001 0.000000 1.000000
vn 0.000001 0.000000 1.000000
vn 0.000000 0.000000 1.000000
vn 0.000000 0.000000 1.000000
vn 0.000000 0.000000 1.000000
vn 0.000000 0.000000 1.000000
vn 0.000000 0.000000 1.000000
vn 0.000000 0.000000 1.000000
vn -0.000001 -0.000000 1.000000
vn -0.000001 -0.000000 1.000000
vn -0.000001 -0.000000 1.000000
vn 0.000000 0.000000 1.000000
vn 0.000000 0.000000 1.000000
vn 0.000000 0.000000 1.000000
vn -0.000002 -0.000000 -1.000000
vn -0.000002 -0.000000 -1.000000
vn -0.000002 -0.000000 -1.000000
vn 0.000001 0.000000 -1.000000
vn 0.000001 0.000000 -1.000000
vn 0.000001 0.000000 -1.000000
vn -0.000001 -0.000000 -1.000000
vn -0.000001 -0.000000 -1.000000
vn -0.000001 -0.000000 -1.000000
vn 0.000001 0.000000 -1.000000
vn 0.000001 0.000000 -1.000000
vn 0.000001 0.000000 -1.000000
vn -0.000001 -0.000000 -1.000000
vn -0.000001 -0.000000 -1.000000
vn -0.000001 -0.000000 -1.000000
vn 0.000000 0.000000 -1.000000
vn 0.000000 0.000000 -1.000000
vn 0.000000 0.000000 -1.000000
vn -0.000000 -0.000000 -1.000000
vn -0.000000 -0.000000 -1.000000
vn -0.000000 -0.000000 -1.000000
vn 0.000000 0.000000 -1.000000
vn 0.000000 0.000000 -1.000000
vn 0.000000 0.000000 -1.000000
vn 0.000000 0.000000 -1.000000
s 1
g grave1_comp:grave1_obj
usemtl grave1_comp:grave1
f 1/1/1 2/2/2 3/3/3
f 1/1/1 3/3/3 4/4/4
s off
f 5/35/5 6/36/6 7/37/7
f 5/38/8 7/39/9 8/40/10
f 8/41/11 7/42/12 9/5/13
f 8/43/14 9/5/15 10/6/16
f 10/6/17 9/5/18 11/7/19
f 10/6/20 11/7/21 12/8/22
f 13/9/23 12/8/24 11/7/25
f 13/9/26 11/7/27 14/10/28
f 15/44/29 13/9/30 14/10/31
f 15/45/32 14/10/33 16/46/34
f 17/11/35 15/47/36 16/48/37
f 17/11/38 16/49/39 18/12/40
f 19/50/41 17/11/42 18/12/43
f 19/51/44 18/12/45 20/52/46
f 21/53/47 22/54/48 19/55/49
f 21/56/50 19/57/51 20/58/52
s 1
f 4/4/4 3/3/3 22/59/53
f 4/4/4 22/60/53 21/61/54
s off
f 5/13/55 8/14/56 10/15/57
f 5/13/58 10/15/59 12/16/60
f 5/13/61 12/16/62 13/17/63
f 5/13/64 13/17/65 15/18/66
f 5/13/67 15/18/68 17/19/69
f 5/13/70 17/19/71 19/20/72
f 5/13/73 19/20/74 22/21/75
f 5/13/76 22/21/77 3/22/78
f 5/13/79 3/22/80 2/23/81
f 7/24/82 6/25/83 9/26/84
f 9/26/85 6/25/86 11/27/87
f 11/27/88 6/25/89 14/28/90
f 14/28/91 6/25/92 16/29/93
f 16/29/94 6/25/95 18/30/96
f 18/30/97 6/25/98 20/31/99
f 20/31/100 6/25/101 21/32/102
f 21/32/103 6/25/104 1/33/105
s 1
f 21/32/106 1/33/1 4/34/4
