# This file uses centimeters as units for non-parametric coordinates.

mtllib quarter_pipe_sloping_2.mtl
g default
v 0.001015 -56.157390 -199.987917
v -31.285889 -66.254679 -197.525589
v -61.802406 -76.351938 -190.199225
v -90.797115 -86.449156 -178.189211
v -117.556072 -96.546451 -161.791293
v -141.420389 -106.643710 -141.409235
v -161.802436 -116.740988 -117.544930
v -178.200341 -126.838205 -90.785967
v -190.210343 -136.935423 -61.791258
v -197.536708 -147.032807 -31.274740
v -199.999035 -157.130025 0.012164
v 0.001015 43.373146 -199.987917
v -31.285889 33.377205 -197.525589
v -61.802406 23.381259 -190.199225
v -90.797115 13.385310 -178.189211
v -117.556072 3.389337 -161.791293
v -141.420389 -6.606630 -141.409235
v -161.802436 -16.602514 -117.544930
v -178.200341 -26.598588 -90.785967
v -190.210343 -36.594460 -61.791258
v -197.536708 -46.590350 -31.274740
v -199.999035 -56.586395 0.012164
v 0.000995 43.373146 -399.987964
v -62.572814 33.377205 -395.063309
v -123.605848 23.381259 -380.410580
v -181.595267 13.385310 -356.390552
v -235.113181 3.389337 -323.594718
v -282.841814 -6.606630 -282.830600
v -323.605908 -16.602514 -235.101990
v -356.401719 -26.598588 -181.584065
v -380.421723 -36.594460 -123.594646
v -395.074452 -46.590350 -62.561612
v -399.999107 -56.586395 0.012197
v 0.000995 -56.157390 -399.987964
v -62.572814 -66.254679 -395.063309
v -123.605848 -76.351938 -380.410580
v -181.595267 -86.449156 -356.390552
v -235.113181 -96.546451 -323.594718
v -282.841814 -106.643710 -282.830600
v -323.605908 -116.740988 -235.101990
v -356.401719 -126.838205 -181.584065
v -380.421723 -136.935423 -123.594646
v -395.074452 -147.032807 -62.561612
v -399.999107 -157.130025 0.012197
vt 0.250000 1.000000
vt 0.275000 1.000000
vt 0.300000 1.000000
vt 0.325000 1.000000
vt 0.350000 1.000000
vt 0.375000 1.000000
vt 0.400000 1.000000
vt 0.425000 1.000000
vt 0.450000 1.000000
vt 0.475000 1.000000
vt 0.500000 1.000000
vt 0.250000 0.750000
vt 0.275000 0.750000
vt 0.300000 0.750000
vt 0.325000 0.750000
vt 0.350000 0.750000
vt 0.375000 0.750000
vt 0.400000 0.750000
vt 0.425000 0.750000
vt 0.450000 0.750000
vt 0.475000 0.750000
vt 0.500000 0.750000
vt 0.250000 0.500000
vt 0.275000 0.500000
vt 0.300000 0.500000
vt 0.325000 0.500000
vt 0.350000 0.500000
vt 0.375000 0.500000
vt 0.400000 0.500000
vt 0.425000 0.500000
vt 0.450000 0.500000
vt 0.475000 0.500000
vt 0.500000 0.500000
vt 0.250000 0.250000
vt 0.275000 0.250000
vt 0.300000 0.250000
vt 0.325000 0.250000
vt 0.350000 0.250000
vt 0.375000 0.250000
vt 0.400000 0.250000
vt 0.425000 0.250000
vt 0.450000 0.250000
vt 0.475000 0.250000
vt 0.500000 0.250000
vt 0.250000 0.000000
vt 0.275000 0.000000
vt 0.300000 0.000000
vt 0.325000 0.000000
vt 0.350000 0.000000
vt 0.375000 0.000000
vt 0.400000 0.000000
vt 0.425000 0.000000
vt 0.450000 0.000000
vt 0.475000 0.000000
vt 0.500000 0.000000
vn 0.182282 0.000000 0.983246
vn 0.078459 0.000000 0.996917
vn 0.130478 0.000000 0.991451
vn 0.078460 0.000000 0.996917
vn 0.333852 0.000000 0.942625
vn 0.283969 0.000000 0.958833
vn 0.477201 0.000000 0.878794
vn 0.430468 0.000000 0.902606
vn 0.608800 0.000000 0.793324
vn 0.566367 0.000000 0.824153
vn 0.725407 0.000000 0.688320
vn 0.688320 0.000000 0.725407
vn 0.824153 0.000000 0.566367
vn 0.793324 0.000000 0.608800
vn 0.902606 0.000000 0.430468
vn 0.878794 0.000000 0.477201
vn 0.958833 0.000000 0.283969
vn 0.942626 0.000000 0.333852
vn 0.991451 0.000000 0.130479
vn 0.983246 0.000000 0.182283
vn 0.996917 0.000000 0.078459
vn 0.996917 0.000000 0.078459
vn -0.249290 0.966832 0.055595
vn -0.229856 0.972932 0.023876
vn -0.205253 0.978411 0.024159
vn -0.157746 0.987480 0.000000
vn -0.237524 0.966832 0.093908
vn -0.198947 0.978411 0.055970
vn -0.219910 0.966832 0.129909
vn -0.187742 0.978411 0.086403
vn -0.196880 0.966832 0.162711
vn -0.171914 0.978411 0.114709
vn -0.169002 0.966832 0.191506
vn -0.151853 0.978411 0.140189
vn -0.136964 0.966831 0.215588
vn -0.128053 0.978411 0.162218
vn -0.101552 0.966832 0.234358
vn -0.101101 0.978410 0.180255
vn -0.063640 0.966832 0.247357
vn -0.071657 0.978411 0.193848
vn -0.024161 0.966832 0.254270
vn -0.040450 0.978411 0.202672
vn 0.000000 0.952563 0.304341
vn -0.012376 0.972931 0.230763
vn -0.078460 0.000000 -0.996917
vn -0.078459 0.000000 -0.996917
vn -0.130478 0.000000 -0.991451
vn -0.182282 0.000000 -0.983246
vn -0.283969 0.000000 -0.958833
vn -0.333852 0.000000 -0.942625
vn -0.430468 0.000000 -0.902606
vn -0.477201 0.000000 -0.878794
vn -0.566367 0.000000 -0.824153
vn -0.608800 0.000000 -0.793324
vn -0.688320 0.000000 -0.725407
vn -0.725407 0.000000 -0.688320
vn -0.793324 0.000000 -0.608800
vn -0.824153 0.000000 -0.566367
vn -0.878794 0.000000 -0.477201
vn -0.902606 0.000000 -0.430468
vn -0.942626 0.000000 -0.333852
vn -0.958833 0.000000 -0.283969
vn -0.983246 0.000000 -0.182283
vn -0.991451 0.000000 -0.130479
vn -0.996917 0.000000 -0.078459
vn -0.996917 0.000000 -0.078459
vn 0.204615 -0.977990 -0.040841
vn 0.232948 -0.972409 -0.012499
vn 0.256653 -0.966196 -0.024390
vn 0.307133 -0.951666 0.000000
vn 0.195706 -0.977990 -0.072347
vn 0.249677 -0.966196 -0.064239
vn 0.181980 -0.977990 -0.102071
vn 0.236554 -0.966196 -0.102506
vn 0.163772 -0.977990 -0.129283
vn 0.217607 -0.966196 -0.138250
vn 0.141531 -0.977990 -0.153311
vn 0.193301 -0.966196 -0.170589
vn 0.115805 -0.977990 -0.173563
vn 0.164235 -0.966196 -0.198727
vn 0.087228 -0.977990 -0.189542
vn 0.131125 -0.966196 -0.221972
vn 0.056504 -0.977990 -0.200856
vn 0.094787 -0.966196 -0.239753
vn 0.024388 -0.977990 -0.207221
vn 0.056114 -0.966195 -0.251630
vn -0.000000 -0.987230 -0.159304
vn 0.024096 -0.972409 -0.232034
s 1
g pPipe2
usemtl initialShadingGroup
f 2/2/1 1/1/2 13/13/3
f 13/13/3 1/1/2 12/12/4
f 3/3/5 2/2/1 14/14/6
f 14/14/6 2/2/1 13/13/3
f 4/4/7 3/3/5 15/15/8
f 15/15/8 3/3/5 14/14/6
f 5/5/9 4/4/7 16/16/10
f 16/16/10 4/4/7 15/15/8
f 6/6/11 5/5/9 17/17/12
f 17/17/12 5/5/9 16/16/10
f 7/7/13 6/6/11 18/18/14
f 18/18/14 6/6/11 17/17/12
f 8/8/15 7/7/13 19/19/16
f 19/19/16 7/7/13 18/18/14
f 9/9/17 8/8/15 20/20/18
f 20/20/18 8/8/15 19/19/16
f 10/10/19 9/9/17 21/21/20
f 21/21/20 9/9/17 20/20/18
f 11/11/21 10/10/19 22/22/22
f 22/22/22 10/10/19 21/21/20
s 2
f 13/13/23 12/12/24 24/24/25
f 24/24/25 12/12/24 23/23/26
f 14/14/27 13/13/23 25/25/28
f 25/25/28 13/13/23 24/24/25
f 15/15/29 14/14/27 26/26/30
f 26/26/30 14/14/27 25/25/28
f 16/16/31 15/15/29 27/27/32
f 27/27/32 15/15/29 26/26/30
f 17/17/33 16/16/31 28/28/34
f 28/28/34 16/16/31 27/27/32
f 18/18/35 17/17/33 29/29/36
f 29/29/36 17/17/33 28/28/34
f 19/19/37 18/18/35 30/30/38
f 30/30/38 18/18/35 29/29/36
f 20/20/39 19/19/37 31/31/40
f 31/31/40 19/19/37 30/30/38
f 21/21/41 20/20/39 32/32/42
f 32/32/42 20/20/39 31/31/40
f 22/22/43 21/21/41 33/33/44
f 33/33/44 21/21/41 32/32/42
s 3
f 23/23/45 34/34/46 24/24/47
f 24/24/47 34/34/46 35/35/48
f 24/24/47 35/35/48 25/25/49
f 25/25/49 35/35/48 36/36/50
f 25/25/49 36/36/50 26/26/51
f 26/26/51 36/36/50 37/37/52
f 26/26/51 37/37/52 27/27/53
f 27/27/53 37/37/52 38/38/54
f 27/27/53 38/38/54 28/28/55
f 28/28/55 38/38/54 39/39/56
f 28/28/55 39/39/56 29/29/57
f 29/29/57 39/39/56 40/40/58
f 29/29/57 40/40/58 30/30/59
f 30/30/59 40/40/58 41/41/60
f 30/30/59 41/41/60 31/31/61
f 31/31/61 41/41/60 42/42/62
f 31/31/61 42/42/62 32/32/63
f 32/32/63 42/42/62 43/43/64
f 32/32/63 43/43/64 33/33/65
f 33/33/65 43/43/64 44/44/66
s 4
f 35/35/67 34/34/68 2/46/69
f 2/46/69 34/34/68 1/45/70
f 36/36/71 35/35/67 3/47/72
f 3/47/72 35/35/67 2/46/69
f 37/37/73 36/36/71 4/48/74
f 4/48/74 36/36/71 3/47/72
f 38/38/75 37/37/73 5/49/76
f 5/49/76 37/37/73 4/48/74
f 39/39/77 38/38/75 6/50/78
f 6/50/78 38/38/75 5/49/76
f 40/40/79 39/39/77 7/51/80
f 7/51/80 39/39/77 6/50/78
f 41/41/81 40/40/79 8/52/82
f 8/52/82 40/40/79 7/51/80
f 42/42/83 41/41/81 9/53/84
f 9/53/84 41/41/81 8/52/82
f 43/43/85 42/42/83 10/54/86
f 10/54/86 42/42/83 9/53/84
f 44/44/87 43/43/85 11/55/88
f 11/55/88 43/43/85 10/54/86
