# This file uses centimeters as units for non-parametric coordinates.

mtllib spikes.mtl
g default
v -50.000000 0.086127 50.000000
v 50.000000 0.086127 50.000000
v -50.000000 5.086127 50.000000
v 50.000000 5.086127 50.000000
v -50.000000 5.086127 -50.000000
v 50.000000 5.086127 -50.000000
v -50.000000 0.086127 -50.000000
v 50.000000 0.086127 -50.000000
v -17.928932 4.713276 -32.071068
v -25.000000 4.713276 -35.000000
v -32.071068 4.713276 -32.071068
v -35.000000 4.713276 -25.000000
v -32.071068 4.713276 -17.928932
v -25.000000 4.713276 -15.000001
v -17.928932 4.713276 -17.928932
v -15.000000 4.713276 -25.000000
v -25.000000 104.713272 -25.000000
v 32.071068 4.713276 -32.071068
v 25.000000 4.713276 -35.000000
v 17.928932 4.713276 -32.071068
v 15.000001 4.713276 -25.000000
v 17.928932 4.713276 -17.928932
v 25.000000 4.713276 -15.000001
v 32.071068 4.713276 -17.928932
v 35.000000 4.713276 -25.000000
v 25.000000 104.713272 -25.000000
v 32.071068 4.713276 17.928932
v 25.000000 4.713276 15.000001
v 17.928932 4.713276 17.928932
v 15.000001 4.713276 25.000000
v 17.928932 4.713276 32.071068
v 25.000000 4.713276 35.000000
v 32.071068 4.713276 32.071068
v 35.000000 4.713276 25.000000
v 25.000000 104.713272 25.000000
v -17.928932 4.713276 17.928932
v -25.000000 4.713276 15.000001
v -32.071068 4.713276 17.928932
v -35.000000 4.713276 25.000000
v -32.071068 4.713276 32.071068
v -25.000000 4.713276 35.000000
v -17.928932 4.713276 32.071068
v -15.000000 4.713276 25.000000
v -25.000000 104.713272 25.000000
vt 0.329117 0.007562
vt 0.663691 0.007562
vt 0.329117 0.500000
vt 0.663691 0.500000
vt 0.329117 0.992123
vt 0.663691 0.992123
vt 0.679576 0.511625
vt 0.992572 0.511625
vt 0.679576 0.996712
vt 0.992572 0.996712
vt 0.007428 0.513133
vt 0.314670 0.513133
vt 0.007428 0.991028
vt 0.314670 0.991028
vt 0.993949 0.007562
vt 0.993949 0.500000
vt 0.006051 0.007562
vt 0.006051 0.500000
vt 0.250000 0.500000
vt 0.312500 0.500000
vt 0.500000 1.000000
vt 0.375000 0.500000
vt 0.437500 0.500000
vt 0.500000 0.500000
vt 0.562500 0.500000
vt 0.625000 0.500000
vt 0.687500 0.500000
vt 0.750000 0.500000
vt 0.250000 0.500000
vt 0.312500 0.500000
vt 0.500000 1.000000
vt 0.375000 0.500000
vt 0.437500 0.500000
vt 0.500000 0.500000
vt 0.562500 0.500000
vt 0.625000 0.500000
vt 0.687500 0.500000
vt 0.750000 0.500000
vt 0.250000 0.500000
vt 0.312500 0.500000
vt 0.500000 1.000000
vt 0.375000 0.500000
vt 0.437500 0.500000
vt 0.500000 0.500000
vt 0.562500 0.500000
vt 0.625000 0.500000
vt 0.687500 0.500000
vt 0.750000 0.500000
vt 0.250000 0.500000
vt 0.312500 0.500000
vt 0.500000 1.000000
vt 0.375000 0.500000
vt 0.437500 0.500000
vt 0.500000 0.500000
vt 0.562500 0.500000
vt 0.625000 0.500000
vt 0.687500 0.500000
vt 0.750000 0.500000
vn 0.000000 0.000000 1.000000
vn 0.000000 0.000000 1.000000
vn 0.000000 0.000000 1.000000
vn 0.000000 0.000000 1.000000
vn 0.000000 0.000000 1.000000
vn 0.000000 0.000000 1.000000
vn 0.000000 1.000000 0.000000
vn 0.000000 1.000000 0.000000
vn 0.000000 1.000000 0.000000
vn 0.000000 1.000000 0.000000
vn 0.000000 1.000000 0.000000
vn 0.000000 1.000000 0.000000
vn 0.000000 0.000000 -1.000000
vn 0.000000 0.000000 -1.000000
vn 0.000000 0.000000 -1.000000
vn 0.000000 0.000000 -1.000000
vn 0.000000 0.000000 -1.000000
vn 0.000000 0.000000 -1.000000
vn 0.000000 -1.000000 0.000000
vn 0.000000 -1.000000 0.000000
vn 0.000000 -1.000000 0.000000
vn 0.000000 -1.000000 0.000000
vn 0.000000 -1.000000 0.000000
vn 0.000000 -1.000000 0.000000
vn 1.000000 0.000000 0.000000
vn 1.000000 0.000000 0.000000
vn 1.000000 0.000000 0.000000
vn 1.000000 0.000000 0.000000
vn 1.000000 0.000000 0.000000
vn 1.000000 0.000000 0.000000
vn -1.000000 0.000000 0.000000
vn -1.000000 0.000000 0.000000
vn -1.000000 0.000000 0.000000
vn -1.000000 0.000000 0.000000
vn -1.000000 0.000000 0.000000
vn -1.000000 0.000000 0.000000
vn 0.703598 0.099504 -0.703598
vn 0.000000 0.099504 -0.995037
vn 0.000000 1.000000 0.000000
vn 0.000000 0.099504 -0.995037
vn -0.703598 0.099504 -0.703598
vn 0.000000 1.000000 0.000000
vn -0.703598 0.099504 -0.703598
vn -0.995037 0.099504 0.000000
vn 0.000000 1.000000 0.000000
vn -0.995037 0.099504 0.000000
vn -0.703598 0.099504 0.703598
vn 0.000000 1.000000 0.000000
vn -0.703598 0.099504 0.703598
vn 0.000000 0.099504 0.995037
vn 0.000000 1.000000 0.000000
vn 0.000000 0.099504 0.995037
vn 0.703598 0.099504 0.703598
vn 0.000000 1.000000 0.000000
vn 0.703598 0.099504 0.703598
vn 0.995037 0.099504 0.000000
vn 0.000000 1.000000 0.000000
vn 0.995037 0.099504 0.000000
vn 0.703598 0.099504 -0.703598
vn 0.000000 1.000000 0.000000
vn 0.703598 0.099504 -0.703598
vn 0.000000 0.099504 -0.995037
vn 0.000000 1.000000 0.000000
vn 0.000000 0.099504 -0.995037
vn -0.703598 0.099504 -0.703598
vn 0.000000 1.000000 0.000000
vn -0.703598 0.099504 -0.703598
vn -0.995037 0.099504 0.000000
vn 0.000000 1.000000 0.000000
vn -0.995037 0.099504 0.000000
vn -0.703598 0.099504 0.703598
vn 0.000000 1.000000 0.000000
vn -0.703598 0.099504 0.703598
vn 0.000000 0.099504 0.995037
vn 0.000000 1.000000 0.000000
vn 0.000000 0.099504 0.995037
vn 0.703598 0.099504 0.703598
vn 0.000000 1.000000 0.000000
vn 0.703598 0.099504 0.703598
vn 0.995037 0.099504 0.000000
vn 0.000000 1.000000 0.000000
vn 0.995037 0.099504 0.000000
vn 0.703598 0.099504 -0.703598
vn 0.000000 1.000000 0.000000
vn 0.703598 0.099504 -0.703598
vn -0.000000 0.099504 -0.995037
vn -0.000000 1.000000 -0.000000
vn -0.000000 0.099504 -0.995037
vn -0.703598 0.099504 -0.703598
vn -0.000000 1.000000 -0.000000
vn -0.703598 0.099504 -0.703598
vn -0.995037 0.099504 0.000000
vn -0.000000 1.000000 -0.000000
vn -0.995037 0.099504 0.000000
vn -0.703598 0.099504 0.703598
vn -0.000000 1.000000 -0.000000
vn -0.703598 0.099504 0.703598
vn 0.000000 0.099504 0.995037
vn -0.000000 1.000000 -0.000000
vn 0.000000 0.099504 0.995037
vn 0.703598 0.099504 0.703598
vn -0.000000 1.000000 -0.000000
vn 0.703598 0.099504 0.703598
vn 0.995037 0.099504 0.000000
vn -0.000000 1.000000 -0.000000
vn 0.995037 0.099504 0.000000
vn 0.703598 0.099504 -0.703598
vn -0.000000 1.000000 -0.000000
vn 0.703598 0.099504 -0.703598
vn 0.000000 0.099504 -0.995037
vn -0.000000 1.000000 -0.000000
vn 0.000000 0.099504 -0.995037
vn -0.703598 0.099504 -0.703598
vn -0.000000 1.000000 -0.000000
vn -0.703598 0.099504 -0.703598
vn -0.995037 0.099504 0.000000
vn -0.000000 1.000000 -0.000000
vn -0.995037 0.099504 0.000000
vn -0.703598 0.099504 0.703598
vn -0.000000 1.000000 -0.000000
vn -0.703598 0.099504 0.703598
vn 0.000000 0.099504 0.995037
vn -0.000000 1.000000 -0.000000
vn 0.000000 0.099504 0.995037
vn 0.703598 0.099504 0.703598
vn -0.000000 1.000000 -0.000000
vn 0.703598 0.099504 0.703598
vn 0.995037 0.099504 0.000000
vn -0.000000 1.000000 -0.000000
vn 0.995037 0.099504 0.000000
vn 0.703598 0.099504 -0.703598
vn -0.000000 1.000000 -0.000000
s off
g polySurface7
usemtl lambert2SG
f 1/1/1 2/2/2 3/3/3
f 3/3/4 2/2/5 4/4/6
f 3/3/7 4/4/8 5/5/9
f 5/5/10 4/4/11 6/6/12
f 5/7/13 6/8/14 7/9/15
f 7/9/16 6/8/17 8/10/18
f 7/11/19 8/12/20 1/13/21
f 1/13/22 8/12/23 2/14/24
f 2/2/25 8/15/26 4/4/27
f 4/4/28 8/15/29 6/16/30
f 7/17/31 1/1/32 5/18/33
f 5/18/34 1/1/35 3/3/36
f 9/19/37 10/20/38 17/21/39
f 10/20/40 11/22/41 17/21/42
f 11/22/43 12/23/44 17/21/45
f 12/23/46 13/24/47 17/21/48
f 13/24/49 14/25/50 17/21/51
f 14/25/52 15/26/53 17/21/54
f 15/26/55 16/27/56 17/21/57
f 16/27/58 9/28/59 17/21/60
f 18/29/61 19/30/62 26/31/63
f 19/30/64 20/32/65 26/31/66
f 20/32/67 21/33/68 26/31/69
f 21/33/70 22/34/71 26/31/72
f 22/34/73 23/35/74 26/31/75
f 23/35/76 24/36/77 26/31/78
f 24/36/79 25/37/80 26/31/81
f 25/37/82 18/38/83 26/31/84
f 27/39/85 28/40/86 35/41/87
f 28/40/88 29/42/89 35/41/90
f 29/42/91 30/43/92 35/41/93
f 30/43/94 31/44/95 35/41/96
f 31/44/97 32/45/98 35/41/99
f 32/45/100 33/46/101 35/41/102
f 33/46/103 34/47/104 35/41/105
f 34/47/106 27/48/107 35/41/108
f 36/49/109 37/50/110 44/51/111
f 37/50/112 38/52/113 44/51/114
f 38/52/115 39/53/116 44/51/117
f 39/53/118 40/54/119 44/51/120
f 40/54/121 41/55/122 44/51/123
f 41/55/124 42/56/125 44/51/126
f 42/56/127 43/57/128 44/51/129
f 43/57/130 36/58/131 44/51/132
