# This file uses centimeters as units for non-parametric coordinates.

mtllib a21.mtl
g default
v -100.000000 -99.380264 50.000000
v 100.000000 -99.380264 50.000000
v -100.000000 0.000000 50.000000
v 100.000000 0.000000 50.000000
v -100.000000 0.000000 -50.000000
v 100.000000 0.000000 -50.000000
v -100.000000 -99.380264 -50.000000
v 100.000000 -99.380264 -50.000000
vt 0.329117 0.183202
vt 0.663691 0.183202
vt 0.329117 0.500000
vt 0.663691 0.500000
vt 0.562791 0.996878
vt -0.355450 0.996546
vt 0.563142 0.511791
vt -0.355098 0.511459
vt 0.993949 0.183202
vt 0.993949 0.500000
vt 0.006051 0.183202
vt 0.006051 0.500000
vn 0.000000 0.000000 1.000000
vn 0.000000 0.000000 1.000000
vn 0.000000 0.000000 1.000000
vn 0.000000 0.000000 1.000000
vn 0.000000 0.000000 1.000000
vn 0.000000 0.000000 1.000000
vn 0.000000 0.000000 -1.000000
vn 0.000000 0.000000 -1.000000
vn 0.000000 0.000000 -1.000000
vn 0.000000 0.000000 -1.000000
vn 0.000000 0.000000 -1.000000
vn 0.000000 0.000000 -1.000000
vn 1.000000 0.000000 0.000000
vn 1.000000 0.000000 0.000000
vn 1.000000 0.000000 0.000000
vn 1.000000 0.000000 0.000000
vn 1.000000 0.000000 0.000000
vn 1.000000 0.000000 0.000000
vn -1.000000 0.000000 0.000000
vn -1.000000 0.000000 0.000000
vn -1.000000 0.000000 0.000000
vn -1.000000 0.000000 0.000000
vn -1.000000 0.000000 0.000000
vn -1.000000 0.000000 0.000000
s off
g polySurface2 polySurface1
usemtl lambert4SG
f 1/1/1 2/2/2 3/3/3
f 3/3/4 2/2/5 4/4/6
f 5/5/7 6/6/8 7/7/9
f 7/7/10 6/6/11 8/8/12
f 2/2/13 8/9/14 4/4/15
f 4/4/16 8/9/17 6/10/18
f 7/11/19 1/1/20 5/12/21
f 5/12/22 1/1/23 3/3/24
g default
v -100.000000 0.000000 50.000000
v 100.000000 0.000000 50.000000
v -100.000000 0.000000 -50.000000
v 100.000000 0.000000 -50.000000
vt -0.113803 0.393884
vt 0.959392 0.446102
vt -0.113803 0.982423
vt 0.959392 1.034641
vn 0.000000 1.000000 0.000000
vn 0.000000 1.000000 0.000000
vn 0.000000 1.000000 0.000000
vn 0.000000 1.000000 0.000000
vn 0.000000 1.000000 0.000000
vn 0.000000 1.000000 0.000000
s off
g polySurface1 polySurface3
usemtl lambert3SG
f 9/13/25 10/14/26 11/15/27
f 11/15/28 10/14/29 12/16/30
g default
v -100.000000 -99.380264 50.000000
v 100.000000 -99.380264 50.000000
v -100.000000 -99.380264 -50.000000
v 100.000000 -99.380264 -50.000000
vt 0.007428 0.513133
vt 0.314670 0.513133
vt 0.007428 0.991028
vt 0.314670 0.991028
vn 0.000000 -1.000000 0.000000
vn 0.000000 -1.000000 0.000000
vn 0.000000 -1.000000 0.000000
vn 0.000000 -1.000000 0.000000
vn 0.000000 -1.000000 0.000000
vn 0.000000 -1.000000 0.000000
s off
g polySurface1 polySurface4
usemtl lambert2SG
f 15/17/31 16/18/32 13/19/33
f 13/19/34 16/18/35 14/20/36
