# This file uses centimeters as units for non-parametric coordinates.

mtllib b41.mtl
g default
v -200.047638 -99.985809 49.985813
v -150.035706 -105.876083 49.985813
v -100.023781 -118.638359 49.985813
v -50.011848 -134.345764 49.985813
v 0.000084 -151.034882 49.985813
v 50.012016 -168.705750 49.985813
v 100.023949 -187.358322 49.985813
v 150.035873 -196.193756 49.985813
v 200.047806 -199.138885 49.985813
v -200.047638 -0.014187 49.985813
v -150.035797 -5.904465 49.985813
v -100.023872 -18.666729 49.985813
v -50.011940 -34.374138 49.985813
v -0.000008 -51.063271 49.985813
v 50.011925 -68.734131 49.985813
v 100.023857 -87.386696 49.985813
v 150.035782 -96.222130 49.985813
v 200.047806 -99.167267 49.985813
v -200.047638 -0.014187 -49.985813
v -150.035797 -5.904465 -49.985813
v -100.023872 -18.666729 -49.985813
v -50.011940 -34.374138 -49.985813
v -0.000008 -51.063271 -49.985813
v 50.011925 -68.734131 -49.985813
v 100.023857 -87.386696 -49.985813
v 150.035782 -96.222130 -49.985813
v 200.047806 -99.167267 -49.985813
v -200.047638 -99.985809 -49.985813
v -150.035706 -105.876083 -49.985813
v -100.023781 -118.638359 -49.985813
v -50.011848 -134.345764 -49.985813
v 0.000084 -151.034882 -49.985813
v 50.012016 -168.705750 -49.985813
v 100.023949 -187.358322 -49.985813
v 150.035873 -196.193756 -49.985813
v 200.047806 -199.138885 -49.985813
v -200.047729 -0.014187 49.985813
v -150.035797 -5.904465 49.985813
v -100.023872 -18.666729 49.985813
v -50.011940 -34.374138 49.985813
v -0.000008 -51.063271 49.985813
v 50.011925 -68.734131 49.985813
v 100.023857 -87.386696 49.985813
v 150.035782 -96.222130 49.985813
v 200.047714 -99.167267 49.985813
v -200.047729 -0.014187 -49.985813
v -150.035797 -5.904465 -49.985813
v -100.023872 -18.666729 -49.985813
v -50.011940 -34.374138 -49.985813
v -0.000008 -51.063271 -49.985813
v 50.011925 -68.734131 -49.985813
v 100.023857 -87.386696 -49.985813
v 150.035782 -96.222130 -49.985813
v 200.047714 -99.167267 -49.985813
v -200.046982 -99.985809 49.985813
v -150.035065 -105.876083 49.985813
v -100.023132 -118.638359 49.985813
v -50.011204 -134.345764 49.985813
v 0.000728 -151.034882 49.985813
v 50.012661 -168.705750 49.985813
v 100.024590 -187.358322 49.985813
v 150.036514 -196.193756 49.985813
v 200.048447 -199.138885 49.985813
v -200.046982 -0.014187 49.985813
v 200.047806 -99.167267 49.985813
v -200.047638 -0.014187 -49.985813
v 200.047897 -99.167267 -49.985813
v -200.047455 -99.985809 -49.985813
v -150.035522 -105.876083 -49.985813
v -100.023689 -118.638359 -49.985813
v -50.011753 -134.345764 -49.985813
v 0.000360 -151.034882 -49.985813
v 50.012291 -168.705750 -49.985813
v 100.024040 -187.358322 -49.985813
v 150.035965 -196.193756 -49.985813
v 200.047989 -199.138885 -49.985813
vt 0.036032 0.421200
vt 0.155510 0.421200
vt 0.274989 0.421200
vt 0.394467 0.421200
vt 0.513946 0.421200
vt 0.633424 0.421200
vt 0.752903 0.421200
vt 0.872381 0.421200
vt 0.991860 0.421200
vt 0.036032 0.672525
vt 0.155510 0.672525
vt 0.274989 0.672525
vt 0.394467 0.672525
vt 0.513946 0.672525
vt 0.633424 0.672525
vt 0.752903 0.672525
vt 0.872381 0.672525
vt 0.991860 0.672525
vt -0.006243 0.727434
vt 0.119446 0.727434
vt 0.245135 0.727434
vt 0.370824 0.727434
vt 0.496513 0.727434
vt 0.622203 0.727434
vt 0.747892 0.727434
vt 0.873581 0.727434
vt 0.999269 0.727434
vt -0.006243 0.982780
vt 0.119446 0.982780
vt 0.245135 0.982780
vt 0.370824 0.982780
vt 0.496513 0.982780
vt 0.622203 0.982780
vt 0.747892 0.982780
vt 0.873581 0.982780
vt 0.999269 0.982780
vt -0.485333 0.447051
vt -0.252945 0.447051
vt -0.485333 0.979323
vt -0.252945 0.979323
vt -0.020558 0.447051
vt -0.020558 0.979323
vt 0.211829 0.447051
vt 0.211829 0.979323
vt 0.444217 0.447051
vt 0.444217 0.979323
vt 0.676604 0.447051
vt 0.676604 0.979323
vt 0.908991 0.447051
vt 0.908991 0.979323
vt 1.141378 0.447051
vt 1.141378 0.979323
vt 1.373766 0.447051
vt 1.373766 0.979323
vt -0.099081 0.750000
vt 0.050689 0.750000
vt -0.099081 1.000000
vt 0.050689 1.000000
vt 0.200460 0.750000
vt 0.200460 1.000000
vt 0.350230 0.750000
vt 0.350230 1.000000
vt 0.500000 0.750000
vt 0.500000 1.000000
vt 0.649770 0.750000
vt 0.649770 1.000000
vt 0.799541 0.750000
vt 0.799541 1.000000
vt 0.949311 0.750000
vt 0.949311 1.000000
vt 1.099081 0.750000
vt 1.099081 1.000000
vt 0.625000 0.000000
vt 0.875000 0.000000
vt 0.625000 0.250000
vt 0.875000 0.250000
vt 0.125000 0.000000
vt 0.375000 0.000000
vt 0.125000 0.250000
vt 0.375000 0.250000
vn -0.000000 0.000000 1.000000
vn -0.000000 0.000000 1.000000
vn -0.000000 0.000000 1.000000
vn 0.000000 0.000000 1.000000
vn 0.000000 0.000000 1.000000
vn 0.000000 0.000000 1.000000
vn 0.000000 0.000000 1.000000
vn 0.000000 0.000000 1.000000
vn 0.000000 0.000000 1.000000
vn -0.000000 0.000000 1.000000
vn 0.000000 0.000000 1.000000
vn -0.000000 0.000000 1.000000
vn -0.000000 0.000000 1.000000
vn 0.000000 0.000000 1.000000
vn 0.000000 0.000000 1.000000
vn 0.000000 0.000000 1.000000
vn -0.000000 0.000000 1.000000
vn 0.000000 0.000000 1.000000
vn 0.000000 0.000000 -1.000000
vn -0.000000 0.000000 -1.000000
vn -0.000000 0.000000 -1.000000
vn -0.000000 0.000000 -1.000000
vn 0.000000 0.000000 -1.000000
vn 0.000000 0.000000 -1.000000
vn 0.000000 0.000000 -1.000000
vn 0.000000 0.000000 -1.000000
vn -0.000000 0.000000 -1.000000
vn 0.000000 0.000000 -1.000000
vn -0.000000 0.000000 -1.000000
vn 0.000000 0.000000 -1.000000
vn 0.000000 0.000000 -1.000000
vn -0.000000 0.000000 -1.000000
vn 0.000000 0.000000 -1.000000
vn 0.000000 0.000000 -1.000000
vn 0.000000 0.000000 -1.000000
vn -0.000000 0.000000 -1.000000
vn 0.116969 0.993136 0.000000
vn 0.160713 0.987001 0.000000
vn 0.116969 0.993136 0.000000
vn 0.204229 0.978923 0.000000
vn 0.264808 0.964301 0.000000
vn 0.282275 0.959334 0.000000
vn 0.305287 0.952261 0.000000
vn 0.310921 0.950436 0.000000
vn 0.322089 0.946709 0.000000
vn 0.327625 0.944808 0.000000
vn 0.338593 0.940933 0.000000
vn 0.344027 0.938960 0.000000
vn 0.292032 0.956409 0.000000
vn 0.233324 0.972399 0.000000
vn 0.135780 0.990739 0.000000
vn 0.097328 0.995252 0.000000
vn 0.058787 0.998271 0.000000
vn 0.058787 0.998271 0.000000
vn -0.116969 -0.993136 0.000000
vn -0.160714 -0.987001 0.000001
vn -0.116969 -0.993136 0.000000
vn -0.204229 -0.978923 0.000001
vn -0.264809 -0.964301 0.000001
vn -0.282275 -0.959334 0.000002
vn -0.305286 -0.952261 0.000002
vn -0.310920 -0.950436 0.000001
vn -0.322089 -0.946709 0.000001
vn -0.327625 -0.944808 0.000001
vn -0.338594 -0.940933 0.000001
vn -0.344028 -0.938960 0.000002
vn -0.292033 -0.956408 0.000001
vn -0.233324 -0.972399 0.000001
vn -0.135780 -0.990739 0.000001
vn -0.097327 -0.995252 0.000000
vn -0.058787 -0.998271 0.000000
vn -0.058787 -0.998271 0.000000
vn 1.000000 0.000007 -0.000005
vn 1.000000 0.000004 -0.000002
vn 1.000000 0.000004 -0.000002
vn 1.000000 0.000001 0.000001
vn -1.000000 -0.000002 0.000005
vn -1.000000 -0.000001 0.000006
vn -1.000000 -0.000001 0.000006
vn -1.000000 0.000000 0.000007
s 1
g polySurface1
usemtl lambert4SG
f 2/2/1 11/11/2 1/1/3
f 1/1/3 11/11/2 10/10/4
f 3/3/5 12/12/6 2/2/1
f 2/2/1 12/12/6 11/11/2
f 4/4/7 13/13/8 3/3/5
f 3/3/5 13/13/8 12/12/6
f 5/5/9 14/14/10 4/4/7
f 4/4/7 14/14/10 13/13/8
f 6/6/11 15/15/12 5/5/9
f 5/5/9 15/15/12 14/14/10
f 7/7/13 16/16/14 6/6/11
f 6/6/11 16/16/14 15/15/12
f 8/8/15 17/17/16 7/7/13
f 7/7/13 17/17/16 16/16/14
f 9/9/17 18/18/18 8/8/15
f 8/8/15 18/18/18 17/17/16
s 8
f 19/19/19 20/20/20 28/28/21
f 28/28/21 20/20/20 29/29/22
f 20/20/20 21/21/23 29/29/22
f 29/29/22 21/21/23 30/30/24
f 21/21/23 22/22/25 30/30/24
f 30/30/24 22/22/25 31/31/26
f 22/22/25 23/23/27 31/31/26
f 31/31/26 23/23/27 32/32/28
f 23/23/27 24/24/29 32/32/28
f 32/32/28 24/24/29 33/33/30
f 24/24/29 25/25/31 33/33/30
f 33/33/30 25/25/31 34/34/32
f 25/25/31 26/26/33 34/34/32
f 34/34/32 26/26/33 35/35/34
f 26/26/33 27/27/35 35/35/34
f 35/35/34 27/27/35 36/36/36
s 9
usemtl lambert2SG
f 37/37/37 38/38/38 46/39/39
f 46/39/39 38/38/38 47/40/40
f 38/38/38 39/41/41 47/40/40
f 47/40/40 39/41/41 48/42/42
f 39/41/41 40/43/43 48/42/42
f 48/42/42 40/43/43 49/44/44
f 40/43/43 41/45/45 49/44/44
f 49/44/44 41/45/45 50/46/46
f 41/45/45 42/47/47 50/46/46
f 50/46/46 42/47/47 51/48/48
f 42/47/47 43/49/49 51/48/48
f 51/48/48 43/49/49 52/50/50
f 43/49/49 44/51/51 52/50/50
f 52/50/50 44/51/51 53/52/52
f 44/51/51 45/53/53 53/52/52
f 53/52/52 45/53/53 54/54/54
s 10
usemtl lambert5SG
f 68/55/55 69/56/56 55/57/57
f 55/57/57 69/56/56 56/58/58
f 69/56/56 70/59/59 56/58/58
f 56/58/58 70/59/59 57/60/60
f 70/59/59 71/61/61 57/60/60
f 57/60/60 71/61/61 58/62/62
f 71/61/61 72/63/63 58/62/62
f 58/62/62 72/63/63 59/64/64
f 72/63/63 73/65/65 59/64/64
f 59/64/64 73/65/65 60/66/66
f 73/65/65 74/67/67 60/66/66
f 60/66/66 74/67/67 61/68/68
f 74/67/67 75/69/69 61/68/68
f 61/68/68 75/69/69 62/70/70
f 75/69/69 76/71/71 62/70/70
f 62/70/70 76/71/71 63/72/72
s 11
f 63/73/73 76/74/74 65/75/75
f 65/75/75 76/74/74 67/76/76
s 12
f 68/77/77 55/78/78 66/79/79
f 66/79/79 55/78/78 64/80/80
