# This file uses centimeters as units for non-parametric coordinates.

v 1.512774 2.773927 0.085448
v 0.566854 2.774716 1.617404
v -1.740948 1.911031 0.085448
v -1.725246 2.775534 2.250423
v -3.707141 2.774594 1.617404
v -4.384809 2.773866 0.085448
v -3.707869 2.774140 -1.446297
v -1.725246 2.774353 -2.079102
v 0.566854 2.774140 -1.446297
v 2.660536 5.246410 2.879773
v 4.271091 5.231405 0.085448
v -1.264243 5.279054 3.967247
v -3.966544 5.242683 2.879773
v -6.608859 5.226160 0.085448
v -3.986278 5.234226 -2.704877
v -1.264243 5.243317 -3.783772
v 2.660536 5.235104 -2.704877
v 6.114159 8.909150 0.085448
v 4.204769 8.948312 3.684777
v 0.179568 9.101232 4.813686
v -2.116048 8.936248 3.684777
v -6.470336 8.870715 0.085448
v -2.174215 8.915212 -3.503515
v 0.179568 8.957163 -4.591958
v 4.204769 8.918941 -3.503515
v 6.761333 13.247405 0.085448
v 4.747763 13.295085 3.967247
v 1.161680 13.537665 4.985096
v -1.280612 13.279322 3.967247
v -4.075241 13.174870 0.085448
v -1.353904 13.254043 -3.783772
v 1.161680 13.319970 -4.737361
v 4.747763 13.259316 -3.783772
v 6.114159 17.585659 0.085448
v 4.204769 17.624761 3.684777
v 0.179568 17.777712 4.813686
v -2.154088 17.679352 3.684777
v -6.657176 17.874192 0.085448
v -2.212316 17.658284 -3.503515
v 0.179568 17.633672 -4.591958
v 4.204769 17.595421 -3.503515
v 4.271091 21.263404 0.085448
v 2.660536 21.278498 2.879773
v -1.264243 21.311084 3.967247
v -4.081606 21.476067 2.879773
v -6.973714 21.896846 0.085448
v -4.101338 21.467610 -2.704877
v -1.264243 21.275346 -3.783772
v 2.660536 21.267225 -2.704877
v 0.566854 23.721548 1.617404
v 1.512774 23.720883 0.085448
v -1.725246 23.722428 2.250423
v -3.791467 23.868979 1.617404
v -4.571707 24.047727 0.085448
v -3.792134 23.868495 -1.446297
v -1.725246 23.721245 -2.079102
v 0.566854 23.721033 -1.446297
v -1.740948 24.583778 0.085448
vt 0.697615 0.038059
vt 0.520892 0.038094
vt 0.216429 0.000000
vt 0.358811 0.038130
vt 0.279303 0.038088
vt 0.218619 0.038056
vt 0.157939 0.038068
vt 0.078583 0.038078
vt 0.869958 0.038068
vt 0.575815 0.147110
vt 0.695359 0.146448
vt 0.412843 0.148549
vt 0.313530 0.146945
vt 0.219083 0.146217
vt 0.124916 0.146572
vt 0.026420 0.146973
vt 0.814222 0.146611
vt 0.694966 0.308658
vt 0.589854 0.310385
vt 0.466188 0.317130
vt 0.379466 0.309853
vt 0.219063 0.306963
vt 0.061133 0.308925
vt 0.799588 0.309090
vt 0.694879 0.500000
vt 0.592975 0.502103
vt 0.495503 0.512802
vt 0.412254 0.501408
vt 0.218514 0.496801
vt 0.029582 0.500293
vt 0.892566 0.503201
vt 0.796314 0.500525
vt 0.694966 0.691342
vt 0.589854 0.693067
vt 0.466188 0.699813
vt 0.378249 0.695475
vt 0.219089 0.704068
vt 0.062324 0.694545
vt 0.921932 0.693460
vt 0.799588 0.691773
vt 0.695359 0.853552
vt 0.575815 0.854218
vt 0.412843 0.855655
vt 0.311445 0.862932
vt 0.219130 0.881491
vt 0.127005 0.862559
vt 0.026420 0.854079
vt 0.520892 0.961971
vt 0.358811 0.962009
vt 0.278077 0.968473
vt 0.218676 0.976357
vt 0.159207 0.968452
vt 0.078583 0.961957
vt 0.216429 1.000000
vt 1.164549 0.000000
vt 1.026703 0.038078
vt 0.974540 0.146973
vt 0.921932 0.310775
vt 1.009253 0.308925
vt 0.977702 0.500293
vt 1.010444 0.694545
vt 0.814222 0.853721
vt 0.974540 0.854079
vt 0.697615 0.961941
vt 1.469012 0.961971
vt 1.164549 1.000000
vt 1.026703 0.961957
vt 0.869958 0.961948
vn 0.504608 -0.859961 0.076404
vn 0.311617 -0.839070 0.445934
vn -0.018763 -0.999824 0.000200
vn 0.311617 -0.839070 0.445934
vn -0.031225 -0.707064 0.706460
vn -0.018763 -0.999824 0.000200
vn -0.031225 -0.707064 0.706460
vn -0.452817 -0.735978 0.503283
vn -0.018763 -0.999824 0.000200
vn -0.452817 -0.735978 0.503283
vn -0.539032 -0.842285 0.000224
vn -0.018763 -0.999824 0.000200
vn -0.539032 -0.842285 0.000224
vn -0.452911 -0.736937 -0.501793
vn -0.018763 -0.999824 0.000200
vn -0.452911 -0.736937 -0.501793
vn -0.030901 -0.708307 -0.705228
vn -0.018763 -0.999824 0.000200
vn -0.030901 -0.708307 -0.705228
vn 0.381255 -0.817032 -0.432554
vn -0.018763 -0.999824 0.000200
vn 0.381255 -0.817032 -0.432554
vn 0.504608 -0.859961 0.076404
vn -0.018763 -0.999824 0.000200
vn 0.503795 -0.536380 0.677117
vn 0.311617 -0.839070 0.445934
vn 0.504608 -0.859961 0.076404
vn 0.503795 -0.536380 0.677117
vn 0.504608 -0.859961 0.076404
vn 0.763157 -0.640871 -0.082918
vn 0.503795 -0.536380 0.677117
vn -0.144086 -0.308027 0.940404
vn -0.031225 -0.707064 0.706460
vn 0.503795 -0.536380 0.677117
vn -0.031225 -0.707064 0.706460
vn 0.311617 -0.839070 0.445934
vn -0.144086 -0.308027 0.940404
vn -0.527367 -0.209700 0.823353
vn -0.031225 -0.707064 0.706460
vn -0.031225 -0.707064 0.706460
vn -0.527367 -0.209700 0.823353
vn -0.452817 -0.735978 0.503283
vn -0.452817 -0.735978 0.503283
vn -0.527367 -0.209700 0.823353
vn -0.901700 -0.432359 0.001362
vn -0.452817 -0.735978 0.503283
vn -0.901700 -0.432359 0.001362
vn -0.539032 -0.842285 0.000224
vn -0.452911 -0.736937 -0.501793
vn -0.539032 -0.842285 0.000224
vn -0.901700 -0.432359 0.001362
vn -0.452911 -0.736937 -0.501793
vn -0.901700 -0.432359 0.001362
vn -0.527958 -0.212479 -0.822261
vn -0.030901 -0.708307 -0.705228
vn -0.452911 -0.736937 -0.501793
vn -0.527958 -0.212479 -0.822261
vn -0.030901 -0.708307 -0.705228
vn -0.527958 -0.212479 -0.822261
vn -0.138132 -0.309927 -0.940673
vn 0.381255 -0.817032 -0.432554
vn -0.030901 -0.708307 -0.705228
vn 0.482071 -0.506777 -0.714692
vn 0.482071 -0.506777 -0.714692
vn -0.030901 -0.708307 -0.705228
vn -0.138132 -0.309927 -0.940673
vn 0.763157 -0.640871 -0.082918
vn 0.504608 -0.859961 0.076404
vn 0.381255 -0.817032 -0.432554
vn 0.763157 -0.640871 -0.082918
vn 0.381255 -0.817032 -0.432554
vn 0.482071 -0.506777 -0.714692
vn 0.503795 -0.536380 0.677117
vn 0.763157 -0.640871 -0.082918
vn 0.932597 -0.360919 0.000480
vn 0.503795 -0.536380 0.677117
vn 0.932597 -0.360919 0.000480
vn 0.607237 -0.217090 0.764287
vn 0.503795 -0.536380 0.677117
vn 0.607237 -0.217090 0.764287
vn -0.090756 -0.117222 0.988950
vn 0.503795 -0.536380 0.677117
vn -0.090756 -0.117222 0.988950
vn -0.144086 -0.308027 0.940404
vn -0.144086 -0.308027 0.940404
vn -0.090756 -0.117222 0.988950
vn -0.564582 0.099744 0.819328
vn -0.144086 -0.308027 0.940404
vn -0.564582 0.099744 0.819328
vn -0.527367 -0.209700 0.823353
vn -0.901700 -0.432359 0.001362
vn -0.527367 -0.209700 0.823353
vn -0.967540 0.252713 0.001862
vn -0.967540 0.252713 0.001862
vn -0.527367 -0.209700 0.823353
vn -0.564582 0.099744 0.819328
vn -0.527958 -0.212479 -0.822261
vn -0.901700 -0.432359 0.001362
vn -0.967540 0.252713 0.001862
vn -0.527958 -0.212479 -0.822261
vn -0.967540 0.252713 0.001862
vn -0.559881 0.097504 -0.822816
vn -0.077834 -0.117100 -0.990065
vn -0.138132 -0.309927 -0.940673
vn -0.559881 0.097504 -0.822816
vn -0.559881 0.097504 -0.822816
vn -0.138132 -0.309927 -0.940673
vn -0.527958 -0.212479 -0.822261
vn 0.604962 -0.216314 -0.766309
vn 0.482071 -0.506777 -0.714692
vn -0.077834 -0.117100 -0.990065
vn -0.077834 -0.117100 -0.990065
vn 0.482071 -0.506777 -0.714692
vn -0.138132 -0.309927 -0.940673
vn 0.763157 -0.640871 -0.082918
vn 0.482071 -0.506777 -0.714692
vn 0.932597 -0.360919 0.000480
vn 0.932597 -0.360919 0.000480
vn 0.482071 -0.506777 -0.714692
vn 0.604962 -0.216314 -0.766309
vn 0.607237 -0.217090 0.764287
vn 0.932597 -0.360919 0.000480
vn 0.998616 -0.052591 -0.000474
vn 0.607237 -0.217090 0.764287
vn 0.998616 -0.052591 -0.000474
vn 0.694419 0.029185 0.718978
vn 0.607237 -0.217090 0.764287
vn 0.694419 0.029185 0.718978
vn 0.055058 0.001317 0.998482
vn 0.607237 -0.217090 0.764287
vn 0.055058 0.001317 0.998482
vn -0.090756 -0.117222 0.988950
vn -0.090756 -0.117222 0.988950
vn 0.055058 0.001317 0.998482
vn -0.561416 -0.001059 0.827533
vn -0.090756 -0.117222 0.988950
vn -0.561416 -0.001059 0.827533
vn -0.564582 0.099744 0.819328
vn -0.967540 0.252713 0.001862
vn -0.564582 0.099744 0.819328
vn -0.999990 0.000679 0.004426
vn -0.999990 0.000679 0.004426
vn -0.564582 0.099744 0.819328
vn -0.561416 -0.001059 0.827533
vn -0.559881 0.097504 -0.822816
vn -0.967540 0.252713 0.001862
vn -0.999990 0.000679 0.004426
vn -0.559881 0.097504 -0.822816
vn -0.999990 0.000679 0.004426
vn -0.548463 -0.001152 -0.836174
vn 0.056521 0.000308 -0.998401
vn -0.077834 -0.117100 -0.990065
vn -0.548463 -0.001152 -0.836174
vn -0.548463 -0.001152 -0.836174
vn -0.077834 -0.117100 -0.990065
vn -0.559881 0.097504 -0.822816
vn 0.689063 0.028876 -0.724126
vn 0.604962 -0.216314 -0.766309
vn 0.056521 0.000308 -0.998401
vn 0.056521 0.000308 -0.998401
vn 0.604962 -0.216314 -0.766309
vn -0.077834 -0.117100 -0.990065
vn 0.932597 -0.360919 0.000480
vn 0.604962 -0.216314 -0.766309
vn 0.998616 -0.052591 -0.000474
vn 0.998616 -0.052591 -0.000474
vn 0.604962 -0.216314 -0.766309
vn 0.689063 0.028876 -0.724126
vn 0.694419 0.029185 0.718978
vn 0.998616 -0.052591 -0.000474
vn 0.966922 0.255070 -0.001471
vn 0.694419 0.029185 0.718978
vn 0.966922 0.255070 -0.001471
vn 0.596668 0.270284 0.755602
vn 0.694419 0.029185 0.718978
vn 0.596668 0.270284 0.755602
vn 0.055058 0.001317 0.998482
vn 0.055058 0.001317 0.998482
vn 0.596668 0.270284 0.755602
vn -0.081853 0.125093 0.988763
vn 0.055058 0.001317 0.998482
vn -0.081853 0.125093 0.988763
vn -0.561416 -0.001059 0.827533
vn -0.561416 -0.001059 0.827533
vn -0.081853 0.125093 0.988763
vn -0.557176 -0.099197 0.824448
vn -0.999990 0.000679 0.004426
vn -0.561416 -0.001059 0.827533
vn -0.557176 -0.099197 0.824448
vn -0.999990 0.000679 0.004426
vn -0.557176 -0.099197 0.824448
vn -0.963283 -0.268477 0.002403
vn -0.548463 -0.001152 -0.836174
vn -0.999990 0.000679 0.004426
vn -0.553015 -0.097322 -0.827468
vn -0.553015 -0.097322 -0.827468
vn -0.999990 0.000679 0.004426
vn -0.963283 -0.268477 0.002403
vn -0.074131 0.119056 -0.990116
vn 0.056521 0.000308 -0.998401
vn -0.548463 -0.001152 -0.836174
vn -0.074131 0.119056 -0.990116
vn -0.548463 -0.001152 -0.836174
vn -0.553015 -0.097322 -0.827468
vn 0.589301 0.266628 -0.762649
vn 0.689063 0.028876 -0.724126
vn 0.056521 0.000308 -0.998401
vn 0.589301 0.266628 -0.762649
vn 0.056521 0.000308 -0.998401
vn -0.074131 0.119056 -0.990116
vn 0.998616 -0.052591 -0.000474
vn 0.689063 0.028876 -0.724126
vn 0.966922 0.255070 -0.001471
vn 0.966922 0.255070 -0.001471
vn 0.689063 0.028876 -0.724126
vn 0.589301 0.266628 -0.762649
vn 0.596668 0.270284 0.755602
vn 0.966922 0.255070 -0.001471
vn 0.784385 0.620273 -0.001351
vn 0.596668 0.270284 0.755602
vn 0.784385 0.620273 -0.001351
vn 0.418194 0.524650 0.741523
vn 0.596668 0.270284 0.755602
vn 0.418194 0.524650 0.741523
vn -0.081853 0.125093 0.988763
vn -0.081853 0.125093 0.988763
vn 0.418194 0.524650 0.741523
vn -0.130452 0.322767 0.937445
vn -0.081853 0.125093 0.988763
vn -0.130452 0.322767 0.937445
vn -0.557176 -0.099197 0.824448
vn -0.557176 -0.099197 0.824448
vn -0.130452 0.322767 0.937445
vn -0.492677 0.218899 0.842231
vn -0.963283 -0.268477 0.002403
vn -0.557176 -0.099197 0.824448
vn -0.492677 0.218899 0.842231
vn -0.963283 -0.268477 0.002403
vn -0.492677 0.218899 0.842231
vn -0.873714 0.486439 0.000763
vn -0.553015 -0.097322 -0.827468
vn -0.963283 -0.268477 0.002403
vn -0.491806 0.219311 -0.842632
vn -0.491806 0.219311 -0.842632
vn -0.963283 -0.268477 0.002403
vn -0.873714 0.486439 0.000763
vn -0.123658 0.315760 -0.940747
vn -0.074131 0.119056 -0.990116
vn -0.553015 -0.097322 -0.827468
vn -0.123658 0.315760 -0.940747
vn -0.553015 -0.097322 -0.827468
vn -0.491806 0.219311 -0.842632
vn 0.415047 0.518098 -0.747870
vn 0.589301 0.266628 -0.762649
vn -0.074131 0.119056 -0.990116
vn 0.415047 0.518098 -0.747870
vn -0.074131 0.119056 -0.990116
vn -0.123658 0.315760 -0.940747
vn 0.966922 0.255070 -0.001471
vn 0.589301 0.266628 -0.762649
vn 0.784385 0.620273 -0.001351
vn 0.784385 0.620273 -0.001351
vn 0.589301 0.266628 -0.762649
vn 0.415047 0.518098 -0.747870
vn 0.381099 0.818270 0.430346
vn 0.418194 0.524650 0.741523
vn 0.784385 0.620273 -0.001351
vn 0.381099 0.818270 0.430346
vn 0.784385 0.620273 -0.001351
vn 0.466819 0.884353 -0.000153
vn -0.130452 0.322767 0.937445
vn 0.418194 0.524650 0.741523
vn -0.003184 0.714398 0.699732
vn -0.003184 0.714398 0.699732
vn 0.418194 0.524650 0.741523
vn 0.381099 0.818270 0.430346
vn -0.492677 0.218899 0.842231
vn -0.130452 0.322767 0.937445
vn -0.003184 0.714398 0.699732
vn -0.492677 0.218899 0.842231
vn -0.003184 0.714398 0.699732
vn -0.362020 0.757526 0.543227
vn -0.492677 0.218899 0.842231
vn -0.362020 0.757526 0.543227
vn -0.873714 0.486439 0.000763
vn -0.873714 0.486439 0.000763
vn -0.362020 0.757526 0.543227
vn -0.435033 0.900415 -0.000065
vn -0.491806 0.219311 -0.842632
vn -0.873714 0.486439 0.000763
vn -0.362003 0.757573 -0.543172
vn -0.362003 0.757573 -0.543172
vn -0.873714 0.486439 0.000763
vn -0.435033 0.900415 -0.000065
vn -0.362003 0.757573 -0.543172
vn -0.002540 0.711397 -0.702786
vn -0.491806 0.219311 -0.842632
vn -0.491806 0.219311 -0.842632
vn -0.002540 0.711397 -0.702786
vn -0.123658 0.315760 -0.940747
vn -0.002540 0.711397 -0.702786
vn 0.381211 0.817458 -0.431788
vn 0.415047 0.518098 -0.747870
vn -0.002540 0.711397 -0.702786
vn 0.415047 0.518098 -0.747870
vn -0.123658 0.315760 -0.940747
vn 0.466819 0.884353 -0.000153
vn 0.784385 0.620273 -0.001351
vn 0.381211 0.817458 -0.431788
vn 0.381211 0.817458 -0.431788
vn 0.784385 0.620273 -0.001351
vn 0.415047 0.518098 -0.747870
vn 0.033270 0.999446 -0.000209
vn 0.381099 0.818270 0.430346
vn 0.466819 0.884353 -0.000153
vn 0.033270 0.999446 -0.000209
vn -0.003184 0.714398 0.699732
vn 0.381099 0.818270 0.430346
vn 0.033270 0.999446 -0.000209
vn -0.362020 0.757526 0.543227
vn -0.003184 0.714398 0.699732
vn 0.033270 0.999446 -0.000209
vn -0.435033 0.900415 -0.000065
vn -0.362020 0.757526 0.543227
vn 0.033270 0.999446 -0.000209
vn -0.362003 0.757573 -0.543172
vn -0.435033 0.900415 -0.000065
vn 0.033270 0.999446 -0.000209
vn -0.002540 0.711397 -0.702786
vn -0.362003 0.757573 -0.543172
vn 0.033270 0.999446 -0.000209
vn 0.381211 0.817458 -0.431788
vn -0.002540 0.711397 -0.702786
vn 0.033270 0.999446 -0.000209
vn 0.466819 0.884353 -0.000153
vn 0.381211 0.817458 -0.431788
g bean:Mesh
f 1/1/1 2/2/2 3/55/3
f 2/2/4 4/4/5 3/3/6
f 4/4/7 5/5/8 3/3/9
f 5/5/10 6/6/11 3/3/12
f 6/6/13 7/7/14 3/3/15
f 7/7/16 8/8/17 3/3/18
f 8/56/19 9/9/20 3/55/21
f 9/9/22 1/1/23 3/55/24
f 10/10/25 2/2/26 1/1/27
f 10/10/28 1/1/29 11/11/30
f 10/10/31 12/12/32 4/4/33
f 10/10/34 4/4/35 2/2/36
f 12/12/37 13/13/38 4/4/39
f 4/4/40 13/13/41 5/5/42
f 5/5/43 13/13/44 14/14/45
f 5/5/46 14/14/47 6/6/48
f 7/7/49 6/6/50 14/14/51
f 7/7/52 14/14/53 15/15/54
f 8/8/55 7/7/56 15/15/57
f 8/8/58 15/15/59 16/16/60
f 9/9/61 8/56/62 17/17/63
f 17/17/64 8/56/65 16/57/66
f 11/11/67 1/1/68 9/9/69
f 11/11/70 9/9/71 17/17/72
f 10/10/73 11/11/74 18/18/75
f 10/10/76 18/18/77 19/19/78
f 10/10/79 19/19/80 20/20/81
f 10/10/82 20/20/83 12/12/84
f 12/12/85 20/20/86 21/21/87
f 12/12/88 21/21/89 13/13/90
f 14/14/91 13/13/92 22/22/93
f 22/22/94 13/13/95 21/21/96
f 15/15/97 14/14/98 22/22/99
f 15/15/100 22/22/101 23/23/102
f 24/58/103 16/57/104 23/59/105
f 23/23/106 16/16/107 15/15/108
f 25/24/109 17/17/110 24/58/111
f 24/58/112 17/17/113 16/57/114
f 11/11/115 17/17/116 18/18/117
f 18/18/118 17/17/119 25/24/120
f 19/19/121 18/18/122 26/25/123
f 19/19/124 26/25/125 27/26/126
f 19/19/127 27/26/128 28/27/129
f 19/19/130 28/27/131 20/20/132
f 20/20/133 28/27/134 29/28/135
f 20/20/136 29/28/137 21/21/138
f 22/22/139 21/21/140 30/29/141
f 30/29/142 21/21/143 29/28/144
f 23/23/145 22/22/146 30/29/147
f 23/23/148 30/29/149 31/30/150
f 32/31/151 24/58/152 31/60/153
f 31/60/154 24/58/155 23/59/156
f 33/32/157 25/24/158 32/31/159
f 32/31/160 25/24/161 24/58/162
f 18/18/163 25/24/164 26/25/165
f 26/25/166 25/24/167 33/32/168
f 27/26/169 26/25/170 34/33/171
f 27/26/172 34/33/173 35/34/174
f 27/26/175 35/34/176 28/27/177
f 28/27/178 35/34/179 36/35/180
f 28/27/181 36/35/182 29/28/183
f 29/28/184 36/35/185 37/36/186
f 30/29/187 29/28/188 37/36/189
f 30/29/190 37/36/191 38/37/192
f 31/30/193 30/29/194 39/38/195
f 39/38/196 30/29/197 38/37/198
f 40/39/199 32/31/200 31/60/201
f 40/39/202 31/60/203 39/61/204
f 41/40/205 33/32/206 32/31/207
f 41/40/208 32/31/209 40/39/210
f 26/25/211 33/32/212 34/33/213
f 34/33/214 33/32/215 41/40/216
f 35/34/217 34/33/218 42/41/219
f 35/34/220 42/41/221 43/42/222
f 35/34/223 43/42/224 36/35/225
f 36/35/226 43/42/227 44/43/228
f 36/35/229 44/43/230 37/36/231
f 37/36/232 44/43/233 45/44/234
f 38/37/235 37/36/236 45/44/237
f 38/37/238 45/44/239 46/45/240
f 39/38/241 38/37/242 47/46/243
f 47/46/244 38/37/245 46/45/246
f 48/63/247 40/39/248 39/61/249
f 48/47/250 39/38/251 47/46/252
f 49/62/253 41/40/254 40/39/255
f 49/62/256 40/39/257 48/63/258
f 34/33/259 41/40/260 42/41/261
f 42/41/262 41/40/263 49/62/264
f 50/48/265 43/42/266 42/41/267
f 50/48/268 42/41/269 51/64/270
f 44/43/271 43/42/272 52/49/273
f 52/49/274 43/42/275 50/48/276
f 45/44/277 44/43/278 52/49/279
f 45/44/280 52/49/281 53/50/282
f 45/44/283 53/50/284 46/45/285
f 46/45/286 53/50/287 54/51/288
f 47/46/289 46/45/290 55/52/291
f 55/52/292 46/45/293 54/51/294
f 55/52/295 56/53/296 47/46/297
f 47/46/298 56/53/299 48/47/300
f 56/67/301 57/68/302 49/62/303
f 56/67/304 49/62/305 48/63/306
f 51/64/307 42/41/308 57/68/309
f 57/68/310 42/41/311 49/62/312
f 58/66/313 50/65/314 51/64/315
f 58/54/316 52/49/317 50/48/318
f 58/54/319 53/50/320 52/49/321
f 58/54/322 54/51/323 53/50/324
f 58/54/325 55/52/326 54/51/327
f 58/54/328 56/53/329 55/52/330
f 58/66/331 57/68/332 56/67/333
f 58/66/334 51/64/335 57/68/336
