# This file uses centimeters as units for non-parametric coordinates.

mtllib field_4x4.mtl
g default
v -400.000000 -800.101974 400.000000
v 400.000000 -800.101974 400.000000
v -400.000000 -0.101974 400.000000
v 400.000000 -0.101974 400.000000
v -400.000000 -0.101974 -400.000000
v 400.000000 -0.101974 -400.000000
v -400.000000 -800.101974 -400.000000
v 400.000000 -800.101974 -400.000000
vt 0.005811 -0.008422
vt 0.498918 -0.008422
vt 0.498918 0.504434
vt 0.005811 0.504434
vt 0.506026 -0.008422
vt 0.999133 -0.008422
vt 0.999133 0.504434
vt 0.506026 0.504434
vt 0.505976 0.507499
vt 1.008957 0.507499
vt 1.008957 1.000606
vt 0.505976 1.000606
vt -0.003809 0.507499
vt 0.499172 0.507499
vt 0.499172 1.000606
vt -0.003809 1.000606
vn 0.000000 0.000000 1.000000
vn 0.000000 0.000000 1.000000
vn 0.000000 0.000000 1.000000
vn 0.000000 0.000000 1.000000
vn 0.000000 0.000000 -1.000000
vn 0.000000 0.000000 -1.000000
vn 0.000000 0.000000 -1.000000
vn 0.000000 0.000000 -1.000000
vn 1.000000 0.000000 0.000000
vn 1.000000 0.000000 0.000000
vn 1.000000 0.000000 0.000000
vn 1.000000 0.000000 0.000000
vn -1.000000 0.000000 0.000000
vn -1.000000 0.000000 0.000000
vn -1.000000 0.000000 0.000000
vn -1.000000 0.000000 0.000000
s 1
g pCube1
usemtl lambert6SG
f 1/1/1 2/2/2 3/4/3
f 3/4/3 2/2/2 4/3/4
s 2
f 5/5/5 6/6/6 7/8/7
f 7/8/7 6/6/6 8/7/8
s 3
f 2/9/9 8/10/10 4/12/11
f 4/12/11 8/10/10 6/11/12
s 4
f 7/13/13 1/14/14 5/16/15
f 5/16/15 1/14/14 3/15/16
g default
v -400.000000 1.702112 400.000000
v 400.000000 1.702112 400.000000
v -400.000000 1.702112 -400.000000
v 400.000000 1.702112 -400.000000
v 0.000000 49.958251 0.000000
v -400.000000 1.702112 0.000000
v 0.000000 1.702112 400.000000
v 400.000000 1.702112 0.000000
v 0.000000 1.702112 -400.000000
v -200.000000 49.958251 -200.000000
v -200.000000 1.702112 -400.000000
v -400.000000 1.702112 -200.000000
v -200.000000 49.958251 0.000000
v 0.000000 49.958251 -200.000000
v -200.000000 49.958251 200.000000
v -400.000000 1.702112 200.000000
v -200.000000 1.702112 400.000000
v 0.000000 49.958251 200.000000
v 200.000000 49.958251 200.000000
v 200.000000 1.702112 400.000000
v 400.000000 1.702112 200.000000
v 200.000000 49.958251 0.000000
v 200.000000 49.958251 -200.000000
v 400.000000 1.702112 -200.000000
v 200.000000 1.702112 -400.000000
v -100.000000 49.958251 -300.000000
v 0.000000 49.958251 -300.000000
v -100.000000 1.702112 -400.000000
v -200.000000 49.958251 -300.000000
v -100.000000 49.958251 -200.000000
v -300.000000 49.958251 100.000000
v -300.000000 49.958251 0.000000
v -400.000000 1.702112 100.000000
v -300.000000 49.958251 200.000000
v -200.000000 49.958251 100.000000
v 100.000000 49.958251 300.000000
v 0.000000 49.958251 300.000000
v 100.000000 1.702112 400.000000
v 200.000000 49.958251 300.000000
v 100.000000 49.958251 200.000000
v 300.000000 49.958251 -100.000000
v 300.000000 49.958251 0.000000
v 400.000000 1.702112 -100.000000
v 300.000000 49.958251 -200.000000
v 200.000000 49.958251 -100.000000
v -300.000000 49.958251 -300.000000
v -300.000000 1.702112 -400.000000
v -400.000000 1.702112 -300.000000
v -300.000000 49.958251 -200.000000
v -300.000000 49.958251 -100.000000
v -400.000000 1.702112 -100.000000
v -200.000000 49.958251 -100.000000
v -100.000000 49.958251 -100.000000
v -100.000000 49.958251 0.000000
v 0.000000 49.958251 -100.000000
v -300.000000 49.958251 300.000000
v -400.000000 1.702112 300.000000
v -300.000000 1.702112 400.000000
v -200.000000 49.958251 300.000000
v -100.000000 49.958251 300.000000
v -100.000000 1.702112 400.000000
v -100.000000 49.958251 200.000000
v -100.000000 49.958251 100.000000
v 0.000000 49.958251 100.000000
v 300.000000 49.958251 300.000000
v 300.000000 1.702112 400.000000
v 400.000000 1.702112 300.000000
v 300.000000 49.958251 200.000000
v 300.000000 49.958251 100.000000
v 400.000000 1.702112 100.000000
v 200.000000 49.958251 100.000000
v 100.000000 49.958251 100.000000
v 100.000000 49.958251 0.000000
v 300.000000 49.958251 -300.000000
v 400.000000 1.702112 -300.000000
v 300.000000 1.702112 -400.000000
v 200.000000 49.958251 -300.000000
v 100.000000 49.958251 -300.000000
v 100.000000 1.702112 -400.000000
v 100.000000 49.958251 -200.000000
v 100.000000 49.958251 -100.000000
vt -0.066272 0.471131
vt -0.066272 0.719321
vt -0.327242 0.471131
vt -0.327242 0.719321
vt -0.588212 -0.025248
vt -0.849182 -0.025248
vt -0.588212 -0.273437
vt -0.849182 -0.273437
vt -0.066272 -0.521627
vt -0.066272 -0.769817
vt 0.194698 -0.521627
vt 0.194698 -0.769817
vt 0.455668 -0.025248
vt 0.716638 -0.025248
vt 0.455668 0.222942
vt 0.716638 0.222942
vt -0.588212 0.719321
vt -0.588212 0.967511
vt -0.849182 0.719321
vt -0.849182 0.967511
vt -1.110152 0.471131
vt -1.110152 0.222942
vt -0.849182 0.471131
vt -0.849182 0.222942
vt -0.588212 0.222942
vt -0.327242 0.222942
vt -0.327242 -0.025248
vt -0.849182 -0.521627
vt -1.110152 -0.521627
vt -0.849182 -0.769817
vt -1.110152 -0.769817
vt -0.588212 -1.018006
vt -0.327242 -1.018006
vt -0.588212 -0.769817
vt -0.327242 -0.769817
vt -0.327242 -0.521627
vt -0.327242 -0.273437
vt -0.066272 -0.273437
vt 0.455668 -0.769817
vt 0.455668 -1.018006
vt 0.716638 -0.769817
vt 0.716638 -1.018006
vt 0.977608 -0.521627
vt 0.977608 -0.273437
vt 0.716638 -0.521627
vt 0.716638 -0.273437
vt 0.455668 -0.273437
vt 0.194698 -0.273437
vt 0.194698 -0.025248
vt 0.716638 0.471131
vt 0.977608 0.471131
vt 0.716638 0.719321
vt 0.977608 0.719321
vt 0.455668 0.967511
vt 0.194698 0.967511
vt 0.455668 0.719321
vt 0.194698 0.719321
vt 0.194698 0.471131
vt 0.194698 0.222942
vt -0.066272 0.222942
vt -0.066272 0.967511
vt -0.327242 0.967511
vt -0.588212 0.471131
vt -1.110152 -0.025248
vt -1.110152 -0.273437
vt -0.588212 -0.521627
vt -0.066272 -1.018006
vt 0.194698 -1.018006
vt 0.455668 -0.521627
vt 0.977608 -0.025248
vt 0.977608 0.222942
vt 0.455668 0.471131
vt -1.110152 0.967511
vt -1.110152 0.719321
vt -0.066272 -0.025248
vt -1.110152 -1.018006
vt -0.849182 -1.018006
vt 0.977608 -1.018006
vt 0.977608 -0.769817
vt 0.977608 0.967511
vt 0.716638 0.967511
vn -0.000000 1.000000 -0.000000
vn -0.000000 1.000000 -0.000000
vn -0.000000 1.000000 -0.000000
vn -0.000000 1.000000 -0.000000
vn -0.000000 1.000000 -0.000000
vn -0.000000 1.000000 0.000000
vn -0.000000 1.000000 0.000000
vn -0.000000 1.000000 0.000000
vn 0.000000 1.000000 0.000000
vn 0.000000 1.000000 0.000000
vn 0.000000 1.000000 0.000000
vn 0.000000 1.000000 0.000000
vn 0.000000 1.000000 0.000000
vn 0.000000 1.000000 -0.000000
vn 0.000000 1.000000 -0.000000
vn 0.000000 1.000000 -0.000000
vn -0.000000 1.000000 -0.000000
vn 0.000000 1.000000 0.000000
vn -0.000000 1.000000 -0.000000
vn 0.000000 1.000000 0.000000
vn 0.000000 1.000000 0.000000
vn 0.000000 1.000000 0.000000
vn -0.000000 1.000000 -0.000000
vn -0.000000 1.000000 -0.000000
vn -0.000000 1.000000 -0.000000
vn -0.000000 1.000000 -0.000000
vn -0.000000 1.000000 0.000000
vn -0.000000 1.000000 0.000000
vn 0.000000 1.000000 0.000000
vn -0.000000 1.000000 0.000000
vn 0.000000 1.000000 0.000000
vn 0.000000 1.000000 0.000000
vn 0.000000 1.000000 0.000000
vn -0.000000 1.000000 0.000000
vn -0.000000 1.000000 0.000000
vn -0.000000 1.000000 0.000000
vn -0.000000 1.000000 0.000000
vn 0.000000 1.000000 0.000000
vn 0.000000 1.000000 0.000000
vn 0.000000 1.000000 0.000000
vn 0.000000 1.000000 0.000000
vn 0.000000 1.000000 0.000000
vn 0.000000 1.000000 0.000000
vn 0.000000 1.000000 0.000000
vn 0.000000 1.000000 0.000000
vn 0.000000 1.000000 0.000000
vn 0.000000 1.000000 0.000000
vn 0.000000 1.000000 0.000000
vn 0.000000 1.000000 -0.000000
vn 0.000000 1.000000 -0.000000
vn 0.000000 1.000000 0.000000
vn 0.000000 1.000000 -0.000000
vn 0.000000 1.000000 0.000000
vn 0.000000 1.000000 0.000000
vn 0.000000 1.000000 0.000000
vn 0.000000 1.000000 -0.000000
vn 0.000000 1.000000 -0.000000
vn 0.000000 1.000000 -0.000000
vn 0.000000 1.000000 -0.000000
vn 0.000000 1.000000 -0.000000
vn 0.000000 1.000000 0.000000
vn 0.000000 1.000000 0.000000
vn -0.000000 1.000000 -0.000000
vn 0.000000 1.000000 0.000000
vn 0.000000 1.000000 0.000000
vn -0.000000 1.000000 0.000000
vn 0.000000 1.000000 0.000000
vn 0.000000 1.000000 0.000000
vn 0.000000 1.000000 0.000000
vn 0.000000 1.000000 0.000000
vn 0.000000 1.000000 0.000000
vn 0.000000 1.000000 -0.000000
vn 0.000000 0.900621 -0.434605
vn 0.000000 1.000000 0.000000
vn 0.000000 1.000000 0.000000
vn 0.000000 1.000000 0.000000
vn -0.434605 0.900621 0.000000
vn 0.000000 0.900621 0.434605
vn 0.000000 1.000000 0.000000
vn 0.000000 1.000000 0.000000
vn 0.000000 1.000000 0.000000
vn 0.434605 0.900621 0.000000
vn 0.000000 1.000000 0.000000
vn 0.000000 1.000000 0.000000
vn 0.000000 1.000000 0.000000
s 1
g polySurface7 polySurface5
usemtl lambert2SG
f 22/17/17 35/18/18 38/19/19
f 38/19/19 35/18/18 34/20/20
f 21/21/21 40/22/22 43/23/23
f 43/23/23 40/22/22 39/24/24
f 26/25/25 45/26/26 48/27/27
f 48/27/27 45/26/26 44/28/28
f 30/29/29 50/30/30 53/31/31
f 53/31/31 50/30/30 49/32/32
f 37/33/33 19/34/34 54/35/35
f 54/35/35 19/34/34 55/36/36
f 20/37/37 59/38/38 57/39/39
f 57/39/39 59/38/38 58/40/40
f 60/41/41 21/21/21 61/42/42
f 61/42/42 21/21/21 62/43/43
f 42/44/44 24/45/45 64/46/46
f 64/46/46 24/45/45 65/47/47
f 25/48/48 69/49/49 67/50/50
f 67/50/50 69/49/49 68/51/51
f 70/52/52 26/25/25 71/53/53
f 71/53/53 26/25/25 72/54/54
f 47/55/55 28/56/56 73/57/57
f 73/57/57 28/56/56 74/58/58
f 29/59/59 78/60/60 76/61/61
f 76/61/61 78/60/60 77/62/62
f 79/63/63 30/29/29 80/64/64
f 80/64/64 30/29/29 81/65/65
f 52/66/66 32/67/67 82/68/68
f 82/68/68 32/67/67 83/69/69
f 33/70/70 87/71/71 85/72/72
f 85/72/72 87/71/71 86/73/73
f 88/74/74 22/17/17 89/75/75
f 89/75/75 22/17/17 63/76/76
f 35/18/18 17/77/77 34/20/20
f 34/20/20 17/77/77 36/78/78
f 19/34/34 37/33/33 36/78/78
f 36/78/78 37/33/33 34/20/20
f 37/33/33 18/79/79 34/20/20
f 34/20/20 18/79/79 38/19/19
f 40/22/22 14/80/80 39/24/24
f 39/24/24 14/80/80 41/81/81
f 24/45/45 42/44/44 41/81/81
f 41/81/81 42/44/44 39/24/24
f 42/44/44 23/82/82 39/24/24
f 39/24/24 23/82/82 43/23/23
f 45/26/26 15/83/83 44/28/28
f 44/28/28 15/83/83 46/84/84
f 28/56/56 47/55/55 46/84/84
f 46/84/84 47/55/55 44/28/28
f 47/55/55 27/85/85 44/28/28
f 44/28/28 27/85/85 48/27/27
f 50/30/30 16/86/86 49/32/32
f 49/32/32 16/86/86 51/87/87
f 32/67/67 52/66/66 51/87/87
f 51/87/87 52/66/66 49/32/32
f 52/66/66 31/88/88 49/32/32
f 49/32/32 31/88/88 53/31/31
f 55/36/36 11/89/89 54/35/35
f 54/35/35 11/89/90 56/90/91
f 56/90/91 20/37/37 54/35/35
f 54/35/35 20/37/37 57/39/39
f 18/79/79 37/33/33 57/39/39
f 57/39/39 37/33/33 54/35/35
f 59/38/38 14/80/80 58/40/40
f 58/40/40 14/80/80 40/22/22
f 21/21/21 60/41/41 40/22/22
f 40/22/22 60/41/41 58/40/40
f 60/41/41 18/79/79 58/40/40
f 58/40/40 18/79/79 57/39/39
f 13/91/92 63/76/76 62/43/43
f 62/43/43 63/76/76 61/42/42
f 63/76/76 22/17/17 61/42/42
f 61/42/42 22/17/17 38/19/19
f 18/79/79 60/41/41 38/19/19
f 38/19/19 60/41/41 61/42/42
f 65/47/47 9/92/93 64/46/46
f 64/46/46 9/92/94 66/93/95
f 66/93/95 25/48/48 64/46/46
f 64/46/46 25/48/48 67/50/50
f 23/82/82 42/44/44 67/50/50
f 67/50/50 42/44/44 64/46/46
f 69/49/49 15/83/83 68/51/51
f 68/51/51 15/83/83 45/26/26
f 26/25/25 70/52/52 45/26/26
f 45/26/26 70/52/52 68/51/51
f 70/52/52 23/82/82 68/51/51
f 68/51/51 23/82/82 67/50/50
f 13/91/92 62/43/43 72/54/54
f 72/54/54 62/43/43 71/53/53
f 62/43/43 21/21/21 71/53/53
f 71/53/53 21/21/21 43/23/23
f 23/82/82 70/52/52 43/23/23
f 43/23/23 70/52/52 71/53/53
f 74/58/58 10/94/96 73/57/57
f 73/57/57 10/94/97 75/95/98
f 75/95/98 29/59/59 73/57/57
f 73/57/57 29/59/59 76/61/61
f 27/85/85 47/55/55 76/61/61
f 76/61/61 47/55/55 73/57/57
f 78/60/60 16/86/86 77/62/62
f 77/62/62 16/86/86 50/30/30
f 30/29/29 79/63/63 50/30/30
f 50/30/30 79/63/63 77/62/62
f 79/63/63 27/85/85 77/62/62
f 77/62/62 27/85/85 76/61/61
f 13/91/92 72/54/54 81/65/65
f 81/65/65 72/54/54 80/64/64
f 72/54/54 26/25/25 80/64/64
f 80/64/64 26/25/25 48/27/27
f 27/85/85 79/63/63 48/27/27
f 48/27/27 79/63/63 80/64/64
f 83/69/69 12/96/99 82/68/68
f 82/68/68 12/96/100 84/97/101
f 84/97/101 33/70/70 82/68/68
f 82/68/68 33/70/70 85/72/72
f 31/88/88 52/66/66 85/72/72
f 85/72/72 52/66/66 82/68/68
f 87/71/71 17/77/77 86/73/73
f 86/73/73 17/77/77 35/18/18
f 22/17/17 88/74/74 35/18/18
f 35/18/18 88/74/74 86/73/73
f 88/74/74 31/88/88 86/73/73
f 86/73/73 31/88/88 85/72/72
f 13/91/92 81/65/65 63/76/76
f 63/76/76 81/65/65 89/75/75
f 81/65/65 30/29/29 89/75/75
f 89/75/75 30/29/29 53/31/31
f 31/88/88 88/74/74 53/31/31
f 53/31/31 88/74/74 89/75/75
