# This file uses centimeters as units for non-parametric coordinates.

mtllib plat_curved_rect_1x1.mtl
g tweakSet1
v -50.000000 0.000000 50.000000
v 50.000000 0.000000 50.000000
g ffd1Set tweakSet1
v -50.000000 12.500000 50.000000
v 50.000000 12.500000 50.000000
v -50.000000 12.500000 -50.000000
v 50.000000 12.500000 -50.000000
g tweakSet1
v -50.000000 0.000000 -50.000000
v 50.000000 0.000000 -50.000000
g ffd1Set tweakSet1
v 0.000000 27.527645 0.000000
v -50.000000 12.500000 0.000000
v 0.000000 12.500000 50.000000
v 50.000000 12.500000 0.000000
v 0.000000 12.500000 -50.000000
v -25.000000 20.010077 -25.000000
v -25.000000 12.500000 -50.000000
v -50.000000 12.500000 -25.000000
v -25.000000 23.010294 0.000000
v 0.000000 23.010294 -25.000000
v -25.000000 20.010077 25.000000
v -50.000000 12.500000 25.000000
v -25.000000 12.500000 50.000000
v 0.000000 23.010294 25.000000
v 25.000000 20.010077 25.000000
v 25.000000 12.500000 50.000000
v 50.000000 12.500000 25.000000
v 25.000000 23.010294 0.000000
v 25.000000 20.010077 -25.000000
v 50.000000 12.500000 -25.000000
v 25.000000 12.500000 -50.000000
v -12.500000 17.705101 -37.500000
v 0.000000 18.076517 -37.500000
v -12.500000 12.500000 -50.000000
v -25.000000 16.609159 -37.500000
v -12.500000 22.236948 -25.000000
v -37.500000 17.705101 12.500000
v -37.500000 18.076517 0.000000
v -50.000000 12.500000 12.500000
v -37.500000 16.609159 25.000000
v -25.000000 22.236948 12.500000
v 12.500000 17.705101 37.500000
v 0.000000 18.076517 37.500000
v 12.500000 12.500000 50.000000
v 25.000000 16.609159 37.500000
v 12.500000 22.236948 25.000000
v 37.500000 17.705101 -12.500000
v 37.500000 18.076517 0.000000
v 50.000000 12.500000 -12.500000
v 37.500000 16.609159 -25.000000
v 25.000000 22.236948 -12.500000
v -37.500000 14.843614 -37.500000
v -37.500000 12.500000 -50.000000
v -50.000000 12.500000 -37.500000
v -37.500000 16.609159 -25.000000
v -37.500000 17.705101 -12.500000
v -50.000000 12.500000 -12.500000
v -25.000000 22.236948 -12.500000
v -12.500000 25.281626 -12.500000
v -12.500000 26.350780 0.000000
v 0.000000 26.350780 -12.500000
v -37.500000 14.843614 37.500000
v -50.000000 12.500000 37.500000
v -37.500000 12.500000 50.000000
v -25.000000 16.609159 37.500000
v -12.500000 17.705101 37.500000
v -12.500000 12.500000 50.000000
v -12.500000 22.236948 25.000000
v -12.500000 25.281626 12.500000
v 0.000000 26.350780 12.500000
v 37.500000 14.843614 37.500000
v 37.500000 12.500000 50.000000
v 50.000000 12.500000 37.500000
v 37.500000 16.609159 25.000000
v 37.500000 17.705101 12.500000
v 50.000000 12.500000 12.500000
v 25.000000 22.236948 12.500000
v 12.500000 25.281626 12.500000
v 12.500000 26.350780 0.000000
v 37.500000 14.843614 -37.500000
v 50.000000 12.500000 -37.500000
v 37.500000 12.500000 -50.000000
v 25.000000 16.609159 -37.500000
v 12.500000 17.705101 -37.500000
v 12.500000 12.500000 -50.000000
v 12.500000 22.236948 -25.000000
v 12.500000 25.281626 -12.500000
vt 0.007347 0.005443
vt 0.993279 0.005443
vt 0.153345 0.153845
vt 0.848524 0.153845
vt 0.761627 0.153845
vt 0.674729 0.153845
vt 0.587832 0.153845
vt 0.500935 0.153845
vt 0.414037 0.153845
vt 0.327140 0.153845
vt 0.240243 0.153845
vt 0.413739 0.675162
vt 0.500637 0.675162
vt 0.500637 0.762060
vt 0.413739 0.762060
vt 0.500637 0.588265
vt 0.413739 0.588265
vt 0.587534 0.675162
vt 0.587534 0.762060
vt 0.500637 0.848957
vt 0.413739 0.848957
vt 0.326842 0.762060
vt 0.326842 0.675162
vt 0.587534 0.588265
vt 0.326842 0.588265
vt 0.413739 0.501368
vt 0.500637 0.501368
vt 0.674431 0.675162
vt 0.674431 0.762060
vt 0.587534 0.848957
vt 0.326842 0.848957
vt 0.239945 0.675162
vt 0.239945 0.762060
vt 0.587534 0.501368
vt 0.674431 0.588265
vt 0.239945 0.588265
vt 0.326842 0.501368
vt 0.500637 0.414470
vt 0.413739 0.414470
vt 0.761329 0.675162
vt 0.761329 0.762060
vt 0.674431 0.848957
vt 0.239945 0.848957
vt 0.153047 0.762060
vt 0.153047 0.675162
vt 0.587534 0.414470
vt 0.674431 0.501368
vt 0.761329 0.588265
vt 0.153047 0.588265
vt 0.239945 0.501368
vt 0.326842 0.414470
vt 0.413739 0.327573
vt 0.500637 0.327573
vt 0.848226 0.675162
vt 0.848226 0.762060
vt 0.761329 0.848957
vt 0.153047 0.848957
vt 0.587534 0.327573
vt 0.674431 0.414470
vt 0.761329 0.501368
vt 0.848226 0.588265
vt 0.153047 0.501368
vt 0.239945 0.414470
vt 0.326842 0.327573
vt 0.500637 0.240676
vt 0.413739 0.240676
vt 0.848226 0.848957
vt 0.587534 0.240676
vt 0.674431 0.327573
vt 0.761329 0.414470
vt 0.848226 0.501368
vt 0.153047 0.414470
vt 0.239945 0.327573
vt 0.326842 0.240676
vt 0.413739 0.153779
vt 0.500637 0.153779
vt 0.587534 0.153779
vt 0.674431 0.240676
vt 0.761329 0.327573
vt 0.848226 0.414470
vt 0.153047 0.327573
vt 0.239945 0.240676
vt 0.326842 0.153779
vt 0.674431 0.153779
vt 0.761329 0.240676
vt 0.848226 0.327573
vt 0.153047 0.240676
vt 0.239945 0.153779
vt 0.761329 0.153779
vt 0.848226 0.240676
vt 0.153047 0.153779
vt 0.848226 0.153779
vt 0.152770 0.849885
vt 0.239667 0.849885
vt 0.326564 0.849885
vt 0.413462 0.849885
vt 0.500359 0.849885
vt 0.587256 0.849885
vt 0.674154 0.849885
vt 0.761051 0.849885
vt 0.847948 0.849885
vt 0.003817 0.997507
vt 0.999769 0.997507
vt 0.079992 0.032692
vt 0.056360 0.032692
vt 0.079992 0.010013
vt 0.056360 0.010013
vt 0.994354 0.003279
vt 0.994354 0.992774
vt 0.848489 0.154592
vt 0.848489 0.849770
vt 0.848489 0.762873
vt 0.848489 0.675975
vt 0.848489 0.589078
vt 0.848489 0.502181
vt 0.848489 0.415284
vt 0.848489 0.328386
vt 0.848489 0.241489
vt 0.006941 0.996521
vt 0.006941 0.004811
vt 0.152962 0.849151
vt 0.152962 0.153972
vt 0.152962 0.240869
vt 0.152962 0.327766
vt 0.152962 0.414664
vt 0.152962 0.501561
vt 0.152962 0.588458
vt 0.152962 0.675356
vt 0.152962 0.762253
vn 0.000000 0.000000 1.000000
vn 0.000000 0.000000 1.000000
vn 0.000000 0.000000 1.000000
vn 0.000000 0.000000 1.000000
vn 0.000000 0.000000 1.000000
vn 0.000000 0.000000 1.000000
vn 0.000000 0.000000 1.000000
vn 0.000000 0.000000 1.000000
vn 0.000000 0.000000 1.000000
vn 0.000000 0.000000 1.000000
vn 0.000000 0.000000 1.000000
vn 0.000000 0.000000 1.000000
vn 0.000000 0.000000 1.000000
vn 0.000000 0.957672 -0.287863
vn 0.000000 0.928248 -0.371963
vn -0.119584 0.951940 -0.281977
vn -0.064377 0.933336 -0.353184
vn 0.000000 0.000000 -1.000000
vn 0.000000 0.000000 -1.000000
vn 0.000000 0.000000 -1.000000
vn 0.000000 0.000000 -1.000000
vn 0.000000 0.000000 -1.000000
vn 0.000000 0.000000 -1.000000
vn 0.000000 0.000000 -1.000000
vn 0.000000 0.000000 -1.000000
vn 0.000000 0.000000 -1.000000
vn 0.000000 0.000000 -1.000000
vn 0.000000 0.000000 -1.000000
vn 0.000000 0.000000 -1.000000
vn 0.000000 0.000000 -1.000000
vn 0.000000 -1.000000 0.000000
vn 0.000000 -1.000000 0.000000
vn 0.000000 -1.000000 0.000000
vn 0.000000 -1.000000 0.000000
vn 0.000000 -1.000000 0.000000
vn 0.000000 -1.000000 0.000000
vn 1.000000 0.000000 0.000000
vn 1.000000 0.000000 0.000000
vn 1.000000 0.000000 0.000000
vn 1.000000 0.000000 0.000000
vn 1.000000 0.000000 0.000000
vn 1.000000 0.000000 0.000000
vn 1.000000 0.000000 0.000000
vn 1.000000 0.000000 0.000000
vn 1.000000 0.000000 0.000000
vn 1.000000 0.000000 0.000000
vn 1.000000 0.000000 0.000000
vn 1.000000 0.000000 0.000000
vn 1.000000 0.000000 0.000000
vn -1.000000 0.000000 0.000000
vn -1.000000 0.000000 0.000000
vn -1.000000 0.000000 0.000000
vn -1.000000 0.000000 0.000000
vn -1.000000 0.000000 0.000000
vn -1.000000 0.000000 0.000000
vn -1.000000 0.000000 0.000000
vn -1.000000 0.000000 0.000000
vn -1.000000 0.000000 0.000000
vn -1.000000 0.000000 0.000000
vn -1.000000 0.000000 0.000000
vn -1.000000 0.000000 0.000000
vn -1.000000 0.000000 0.000000
vn -0.287863 0.957672 0.000000
vn -0.371963 0.928248 0.000000
vn -0.281977 0.951940 0.119584
vn -0.353184 0.933336 0.064377
vn -0.000000 0.957672 0.287863
vn -0.000000 0.928248 0.371963
vn 0.119584 0.951940 0.281977
vn 0.064377 0.933336 0.353184
vn 0.287863 0.957672 -0.000000
vn 0.371963 0.928248 -0.000000
vn 0.281977 0.951940 -0.119584
vn 0.353184 0.933336 -0.064377
vn -0.115756 0.953535 -0.278158
vn -0.044503 0.961901 -0.269752
vn -0.154627 0.975798 -0.154627
vn 0.000000 0.982874 -0.184278
vn -0.269752 0.961901 -0.044503
vn -0.360452 0.932389 -0.026929
vn -0.278158 0.953535 -0.115756
vn -0.353184 0.933336 -0.064377
vn -0.281977 0.951940 -0.119584
vn -0.159649 0.974179 -0.159649
vn -0.146211 0.989253 0.000000
vn -0.278158 0.953535 0.115756
vn -0.269752 0.961901 0.044503
vn -0.154627 0.975798 0.154627
vn -0.184278 0.982874 0.000000
vn -0.044503 0.961901 0.269752
vn -0.026929 0.932389 0.360452
vn -0.115756 0.953535 0.278158
vn -0.064377 0.933336 0.353184
vn -0.119584 0.951940 0.281977
vn -0.159649 0.974179 0.159649
vn -0.000000 0.989253 0.146211
vn 0.115756 0.953535 0.278158
vn 0.044503 0.961901 0.269752
vn 0.159115 0.974353 0.159115
vn 0.060864 0.990569 0.122753
vn 0.269752 0.961901 0.044503
vn 0.360452 0.932389 0.026929
vn 0.278158 0.953535 0.115756
vn 0.353184 0.933336 0.064377
vn 0.281977 0.951940 0.119584
vn 0.159649 0.974179 0.159649
vn 0.146211 0.989253 -0.000000
vn 0.278158 0.953535 -0.115756
vn 0.269752 0.961901 -0.044503
vn 0.159115 0.974353 -0.159115
vn 0.122753 0.990569 -0.060864
vn 0.044503 0.961901 -0.269752
vn 0.026929 0.932389 -0.360452
vn 0.115756 0.953535 -0.278158
vn 0.064377 0.933336 -0.353184
vn 0.119584 0.951940 -0.281977
vn 0.159649 0.974179 -0.159649
vn 0.000000 0.989253 -0.146211
vn 0.000000 0.918275 -0.395943
vn -0.026929 0.932389 -0.360452
vn -0.213771 0.953207 -0.213771
vn -0.395943 0.918275 0.000000
vn -0.360452 0.932389 0.026929
vn -0.213771 0.953207 0.213771
vn 0.000000 0.918275 0.395943
vn 0.026929 0.932389 0.360452
vn 0.213771 0.953207 0.213771
vn 0.395943 0.918275 0.000000
vn 0.360452 0.932389 -0.026929
vn 0.213771 0.953207 -0.213771
vn 0.000000 1.000000 0.000000
vn -0.091380 0.991615 -0.091380
vn -0.091380 0.991615 -0.091380
vn -0.181227 0.966599 -0.181227
vn -0.184278 0.982874 0.000000
vn 0.000000 1.000000 0.000000
vn 0.000000 1.000000 0.000000
vn -0.091380 0.991615 0.091380
vn -0.091380 0.991615 0.091380
vn -0.181227 0.966599 0.181227
vn 0.000000 0.982874 0.184278
vn 0.000000 1.000000 0.000000
vn 0.122753 0.990569 0.060864
vn 0.000000 1.000000 0.000000
vn 0.060864 0.990569 -0.122753
s off
g plat_rect_1x1_std:Mesh
usemtl initialShadingGroup
f 1/1/1 2/2/2 3/3/3
s 1
f 3/3/4 2/2/5 62/11/6
f 62/11/6 2/2/5 21/10/7
f 21/10/7 2/2/5 65/9/8
f 65/9/8 2/2/5 11/8/9
f 11/8/9 2/2/5 42/7/10
f 42/7/10 2/2/5 24/6/11
f 24/6/11 2/2/5 70/5/12
f 2/2/5 4/4/13 70/5/12
s 2
f 18/13/14 31/14/15 34/12/16
f 34/12/16 31/14/15 30/15/17
s 3
f 6/101/18 7/102/19 80/100/20
f 80/100/20 7/102/19 29/99/21
f 29/99/21 7/102/19 83/98/22
f 83/98/22 7/102/19 13/97/23
f 13/97/23 7/102/19 32/96/24
f 32/96/24 7/102/19 15/95/25
f 15/95/25 7/102/19 51/94/26
f 5/93/27 51/94/26 7/102/19
s off
f 7/102/28 6/101/29 8/103/30
f 7/104/31 8/105/32 1/106/33
f 1/106/34 8/105/35 2/107/36
f 2/108/37 8/109/38 4/110/39
s 4
f 4/110/40 8/109/41 71/118/42
f 71/118/42 8/109/41 25/117/43
f 25/117/43 8/109/41 74/116/44
f 74/116/44 8/109/41 12/115/45
f 12/115/45 8/109/41 47/114/46
f 47/114/46 8/109/41 28/113/47
f 28/113/47 8/109/41 79/112/48
f 8/109/41 6/111/49 79/112/48
s off
f 7/119/50 1/120/51 5/121/52
s 5
f 5/121/53 1/120/54 52/129/55
f 52/129/55 1/120/54 16/128/56
f 16/128/56 1/120/54 55/127/57
f 55/127/57 1/120/54 10/126/58
f 10/126/58 1/120/54 37/125/59
f 37/125/59 1/120/54 20/124/60
f 20/124/60 1/120/54 61/123/61
f 1/120/54 3/122/62 61/123/61
s 2
f 17/37/63 36/50/64 39/51/65
f 39/51/65 36/50/64 35/63/66
f 22/53/67 41/65/68 44/58/69
f 44/58/69 41/65/68 40/68/70
f 26/47/71 46/60/72 49/35/73
f 49/35/73 46/60/72 45/48/74
f 33/22/75 15/31/76 50/33/77
f 50/33/77 15/31/76 51/43/78
f 16/45/79 55/49/80 53/32/81
f 53/32/81 55/49/80 54/36/82
f 56/25/83 17/37/63 57/17/84
f 57/17/84 17/37/63 58/26/85
f 38/73/86 20/81/87 60/82/88
f 60/82/88 20/81/87 61/87/89
f 21/83/90 65/75/91 63/74/92
f 63/74/92 65/75/91 64/66/93
f 66/52/94 22/53/67 67/39/95
f 67/39/95 22/53/67 68/38/96
f 43/78/97 24/84/98 69/85/99
f 69/85/99 24/84/98 70/89/100
f 25/86/101 74/80/102 72/79/103
f 72/79/103 74/80/102 73/70/104
f 75/59/105 26/47/71 76/46/106
f 76/46/106 26/47/71 77/34/107
f 48/40/108 28/54/109 78/41/110
f 78/41/110 28/54/109 79/55/111
f 29/42/112 83/30/113 81/29/114
f 81/29/114 83/30/113 82/19/115
f 84/18/116 18/13/14 85/24/117
f 85/24/117 18/13/14 59/16/118
f 31/14/15 13/20/119 30/15/17
f 30/15/17 13/20/119 32/21/120
f 15/31/76 33/22/75 32/21/120
f 32/21/120 33/22/75 30/15/17
f 33/22/75 14/23/121 30/15/17
f 30/15/17 14/23/121 34/12/16
f 36/50/64 10/62/122 35/63/66
f 35/63/66 10/62/122 37/72/123
f 20/81/87 38/73/86 37/72/123
f 37/72/123 38/73/86 35/63/66
f 38/73/86 19/64/124 35/63/66
f 35/63/66 19/64/124 39/51/65
f 41/65/68 11/76/125 40/68/70
f 40/68/70 11/76/125 42/77/126
f 24/84/98 43/78/97 42/77/126
f 42/77/126 43/78/97 40/68/70
f 43/78/97 23/69/127 40/68/70
f 40/68/70 23/69/127 44/58/69
f 46/60/72 12/71/128 45/48/74
f 45/48/74 12/71/128 47/61/129
f 28/54/109 48/40/108 47/61/129
f 47/61/129 48/40/108 45/48/74
f 48/40/108 27/28/130 45/48/74
f 45/48/74 27/28/130 49/35/73
s 17
f 5/57/131 52/44/132 51/43/133
f 51/43/133 52/44/132 50/33/134
s 2
f 52/44/135 16/45/79 50/33/77
f 50/33/77 16/45/79 53/32/81
f 14/23/121 33/22/75 53/32/81
f 53/32/81 33/22/75 50/33/77
f 55/49/80 10/62/122 54/36/82
f 54/36/82 10/62/122 36/50/64
f 17/37/63 56/25/83 36/50/64
f 36/50/64 56/25/83 54/36/82
f 56/25/83 14/23/121 54/36/82
f 54/36/82 14/23/121 53/32/81
f 9/27/136 59/16/118 58/26/85
f 58/26/85 59/16/118 57/17/84
f 59/16/118 18/13/14 57/17/84
f 57/17/84 18/13/14 34/12/16
f 14/23/121 56/25/83 34/12/16
f 34/12/16 56/25/83 57/17/84
s 19
f 3/91/137 62/88/138 61/87/139
f 61/87/139 62/88/138 60/82/140
s 2
f 62/88/141 21/83/90 60/82/88
f 60/82/88 21/83/90 63/74/92
f 19/64/124 38/73/86 63/74/92
f 63/74/92 38/73/86 60/82/88
f 65/75/91 11/76/125 64/66/93
f 64/66/93 11/76/125 41/65/68
f 22/53/67 66/52/94 41/65/68
f 41/65/68 66/52/94 64/66/93
f 66/52/94 19/64/124 64/66/93
f 64/66/93 19/64/124 63/74/92
f 9/27/136 58/26/85 68/38/96
f 68/38/96 58/26/85 67/39/95
f 58/26/85 17/37/63 67/39/95
f 67/39/95 17/37/63 39/51/65
f 19/64/124 66/52/94 39/51/65
f 39/51/65 66/52/94 67/39/95
f 4/92/142 71/90/143 70/89/100
f 70/89/100 71/90/143 69/85/99
f 71/90/143 25/86/101 69/85/99
f 69/85/99 25/86/101 72/79/103
f 23/69/127 43/78/97 72/79/103
f 72/79/103 43/78/97 69/85/99
f 74/80/102 12/71/128 73/70/104
f 73/70/104 12/71/128 46/60/72
f 26/47/71 75/59/105 46/60/72
f 46/60/72 75/59/105 73/70/104
f 75/59/105 23/69/127 73/70/104
f 73/70/104 23/69/127 72/79/103
f 9/27/136 68/38/96 77/34/107
f 77/34/107 68/38/96 76/46/106
f 68/38/96 22/53/67 76/46/106
f 76/46/106 22/53/67 44/58/69
f 23/69/127 75/59/105 44/58/69
f 44/58/69 75/59/105 76/46/106
f 6/67/144 80/56/145 79/55/111
f 79/55/111 80/56/145 78/41/110
f 80/56/145 29/42/112 78/41/110
f 78/41/110 29/42/112 81/29/114
f 27/28/130 48/40/108 81/29/114
f 81/29/114 48/40/108 78/41/110
f 83/30/113 13/20/119 82/19/115
f 82/19/115 13/20/119 31/14/15
f 18/13/14 84/18/116 31/14/15
f 31/14/15 84/18/116 82/19/115
f 84/18/116 27/28/130 82/19/115
f 82/19/115 27/28/130 81/29/114
f 9/27/136 77/34/107 59/16/118
f 59/16/118 77/34/107 85/24/117
f 77/34/107 26/47/71 85/24/117
f 85/24/117 26/47/71 49/35/73
f 27/28/130 84/18/116 49/35/73
f 49/35/73 84/18/116 85/24/117
