v 43.301266 -0.250000 -24.999994
v 25.000000 -0.250000 -43.301263
v 43.301266 12.250000 -24.999994
v 25.000000 12.250000 -43.301263
v 0.000004 -0.250000 -49.999994
v 0.000004 12.250000 -49.999994
v -24.999994 -0.250000 -43.301266
v -24.999994 12.250000 -43.301266
v -43.301263 -0.250000 -24.999998
v -43.301263 12.250000 -24.999998
v -49.999994 -0.250000 -0.000002
v -49.999994 12.250000 -0.000002
v -43.301266 -0.250000 24.999995
v -43.301266 12.250000 24.999995
v -25.000000 -0.250000 43.301266
v -25.000000 12.250000 43.301266
v -0.000001 -0.250000 49.999997
v -0.000001 12.250000 49.999997
v 24.999998 -0.250000 43.301270
v 24.999998 12.250000 43.301270
v 43.301270 -0.250000 25.000000
v 43.301270 12.250000 25.000000
v 50.000000 -0.250000 0.000000
v 50.000000 12.250000 0.000000
v 0.000000 -0.250000 0.000000
v 0.000000 12.250000 0.000000
vt 0.018196 0.990259
vt 0.018196 0.908624
vt 0.425365 0.990308
vt 0.425365 0.908672
vt 0.018196 0.826988
vt 0.425365 0.827037
vt 0.018196 0.745353
vt 0.425365 0.745400
vt 0.018202 0.663717
vt 0.425365 0.663765
vt 0.018202 0.582081
vt 0.425371 0.582130
vt 0.018202 0.500446
vt 0.425371 0.500494
vt 0.018202 0.418810
vt 0.425371 0.418859
vt 0.018202 0.337175
vt 0.425371 0.337223
vt 0.018202 0.255539
vt 0.425371 0.255587
vt 0.018202 0.173903
vt 0.425371 0.173952
vt 0.018202 0.092268
vt 0.425371 0.092317
vt 0.018202 0.010632
vt 0.425377 0.010681
vt 0.731742 0.088005
vt 0.542002 0.263745
vt 0.993394 0.484604
vt 0.993394 0.023680
vt 0.732031 0.088005
vt 0.540699 0.263745
vt 0.470666 0.503810
vt 0.540699 0.743874
vt 0.732031 0.919614
vt 0.993394 0.983939
vt 0.731742 0.919614
vt 0.542002 0.743874
vt 0.472552 0.503810
vt 0.541685 0.745481
vt 0.731426 0.921221
vt 0.993713 0.486211
vt 0.993713 0.985546
vt 0.732350 0.921221
vt 0.541018 0.745481
vt 0.470986 0.505416
vt 0.541018 0.265351
vt 0.732350 0.089612
vt 0.993713 0.025287
vt 0.731426 0.089612
vt 0.541686 0.265351
vt 0.472235 0.505416
vn 0.707107 0.000000 -0.707107
vn 0.707107 0.000000 -0.707107
vn 0.707107 0.000000 -0.707107
vn 0.707107 0.000000 -0.707107
vn 0.707107 0.000000 -0.707107
vn 0.707107 0.000000 -0.707107
vn 0.258819 0.000000 -0.965926
vn 0.258819 0.000000 -0.965926
vn 0.258819 0.000000 -0.965926
vn 0.258819 0.000000 -0.965926
vn 0.258819 0.000000 -0.965926
vn 0.258819 0.000000 -0.965926
vn -0.258819 0.000000 -0.965926
vn -0.258819 0.000000 -0.965926
vn -0.258819 0.000000 -0.965926
vn -0.258819 0.000000 -0.965926
vn -0.258819 0.000000 -0.965926
vn -0.258819 0.000000 -0.965926
vn -0.707107 0.000000 -0.707107
vn -0.707107 0.000000 -0.707107
vn -0.707107 0.000000 -0.707107
vn -0.707107 0.000000 -0.707107
vn -0.707107 0.000000 -0.707107
vn -0.707107 0.000000 -0.707107
vn -0.965926 0.000000 -0.258819
vn -0.965926 0.000000 -0.258819
vn -0.965926 0.000000 -0.258819
vn -0.965926 0.000000 -0.258819
vn -0.965926 0.000000 -0.258819
vn -0.965926 0.000000 -0.258819
vn -0.965926 0.000000 0.258819
vn -0.965926 0.000000 0.258819
vn -0.965926 0.000000 0.258819
vn -0.965926 0.000000 0.258819
vn -0.965926 0.000000 0.258819
vn -0.965926 0.000000 0.258819
vn -0.707107 0.000000 0.707107
vn -0.707107 0.000000 0.707107
vn -0.707107 0.000000 0.707107
vn -0.707107 0.000000 0.707107
vn -0.707107 0.000000 0.707107
vn -0.707107 0.000000 0.707107
vn -0.258819 0.000000 0.965926
vn -0.258819 0.000000 0.965926
vn -0.258819 0.000000 0.965926
vn -0.258819 0.000000 0.965926
vn -0.258819 0.000000 0.965926
vn -0.258819 0.000000 0.965926
vn 0.258819 0.000000 0.965926
vn 0.258819 0.000000 0.965926
vn 0.258819 0.000000 0.965926
vn 0.258819 0.000000 0.965926
vn 0.258819 0.000000 0.965926
vn 0.258819 0.000000 0.965926
vn 0.707107 0.000000 0.707107
vn 0.707107 0.000000 0.707107
vn 0.707107 0.000000 0.707107
vn 0.707107 0.000000 0.707107
vn 0.707107 0.000000 0.707107
vn 0.707107 0.000000 0.707107
vn 0.965926 0.000000 0.258819
vn 0.965926 0.000000 0.258819
vn 0.965926 0.000000 0.258819
vn 0.965926 0.000000 0.258819
vn 0.965926 0.000000 0.258819
vn 0.965926 0.000000 0.258819
vn 0.965926 0.000000 -0.258819
vn 0.965926 0.000000 -0.258819
vn 0.965926 0.000000 -0.258819
vn 0.965926 0.000000 -0.258819
vn 0.965926 0.000000 -0.258819
vn 0.965926 0.000000 -0.258819
vn 0.000000 -1.000000 0.000000
vn 0.000000 -1.000000 0.000000
vn 0.000000 -1.000000 0.000000
vn 0.000000 -1.000000 0.000000
vn 0.000000 -1.000000 0.000000
vn 0.000000 -1.000000 0.000000
vn 0.000000 -1.000000 0.000000
vn 0.000000 -1.000000 0.000000
vn 0.000000 -1.000000 0.000000
vn 0.000000 -1.000000 0.000000
vn 0.000000 -1.000000 0.000000
vn 0.000000 -1.000000 0.000000
vn 0.000000 -1.000000 0.000000
vn 0.000000 -1.000000 0.000000
vn 0.000000 -1.000000 0.000000
vn 0.000000 -1.000000 0.000000
vn 0.000000 -1.000000 0.000000
vn 0.000000 -1.000000 0.000000
vn 0.000000 -1.000000 0.000000
vn 0.000000 -1.000000 0.000000
vn 0.000000 -1.000000 0.000000
vn 0.000000 -1.000000 0.000000
vn 0.000000 -1.000000 0.000000
vn 0.000000 -1.000000 0.000000
vn 0.000000 -1.000000 0.000000
vn 0.000000 -1.000000 0.000000
vn 0.000000 -1.000000 0.000000
vn 0.000000 -1.000000 0.000000
vn 0.000000 -1.000000 0.000000
vn 0.000000 -1.000000 0.000000
vn 0.000000 -1.000000 0.000000
vn 0.000000 -1.000000 0.000000
vn 0.000000 -1.000000 0.000000
vn 0.000000 -1.000000 0.000000
vn 0.000000 -1.000000 0.000000
vn 0.000000 -1.000000 0.000000
vn 0.000000 1.000000 0.000000
vn 0.000000 1.000000 0.000000
vn 0.000000 1.000000 0.000000
vn 0.000000 1.000000 0.000000
vn 0.000000 1.000000 0.000000
vn 0.000000 1.000000 0.000000
vn 0.000000 1.000000 0.000000
vn 0.000000 1.000000 0.000000
vn 0.000000 1.000000 0.000000
vn 0.000000 1.000000 0.000000
vn 0.000000 1.000000 0.000000
vn 0.000000 1.000000 0.000000
vn 0.000000 1.000000 0.000000
vn 0.000000 1.000000 0.000000
vn 0.000000 1.000000 0.000000
vn 0.000000 1.000000 0.000000
vn 0.000000 1.000000 0.000000
vn 0.000000 1.000000 0.000000
vn 0.000000 1.000000 0.000000
vn 0.000000 1.000000 0.000000
vn 0.000000 1.000000 0.000000
vn 0.000000 1.000000 0.000000
vn 0.000000 1.000000 0.000000
vn 0.000000 1.000000 0.000000
vn 0.000000 1.000000 0.000000
vn 0.000000 1.000000 0.000000
vn 0.000000 1.000000 0.000000
vn 0.000000 1.000000 0.000000
vn 0.000000 1.000000 0.000000
vn 0.000000 1.000000 0.000000
vn 0.000000 1.000000 0.000000
vn 0.000000 1.000000 0.000000
vn 0.000000 1.000000 0.000000
vn 0.000000 1.000000 0.000000
vn 0.000000 1.000000 0.000000
vn 0.000000 1.000000 0.000000
f 1/1/1 2/2/2 3/3/3
f 3/3/4 2/2/5 4/4/6
f 2/2/7 5/5/8 4/4/9
f 4/4/10 5/5/11 6/6/12
f 5/5/13 7/7/14 6/6/15
f 6/6/16 7/7/17 8/8/18
f 7/7/19 9/9/20 8/8/21
f 8/8/22 9/9/23 10/10/24
f 9/9/25 11/11/26 10/10/27
f 10/10/28 11/11/29 12/12/30
f 11/11/31 13/13/32 12/12/33
f 12/12/34 13/13/35 14/14/36
f 13/13/37 15/15/38 14/14/39
f 14/14/40 15/15/41 16/16/42
f 15/15/43 17/17/44 16/16/45
f 16/16/46 17/17/47 18/18/48
f 17/17/49 19/19/50 18/18/51
f 18/18/52 19/19/53 20/20/54
f 19/19/55 21/21/56 20/20/57
f 20/20/58 21/21/59 22/22/60
f 21/21/61 23/23/62 22/22/63
f 22/22/64 23/23/65 24/24/66
f 23/23/67 1/25/68 24/24/69
f 24/24/70 1/25/71 3/26/72
f 2/27/73 1/28/74 25/29/75
f 5/30/76 2/27/77 25/29/78
f 7/31/79 5/30/80 25/29/81
f 9/32/82 7/31/83 25/29/84
f 11/33/85 9/32/86 25/29/87
f 13/34/88 11/33/89 25/29/90
f 15/35/91 13/34/92 25/29/93
f 17/36/94 15/35/95 25/29/96
f 19/37/97 17/36/98 25/29/99
f 21/38/100 19/37/101 25/29/102
f 23/39/103 21/38/104 25/29/105
f 1/28/106 23/39/107 25/29/108
f 3/40/109 4/41/110 26/42/111
f 4/41/112 6/43/113 26/42/114
f 6/43/115 8/44/116 26/42/117
f 8/44/118 10/45/119 26/42/120
f 10/45/121 12/46/122 26/42/123
f 12/46/124 14/47/125 26/42/126
f 14/47/127 16/48/128 26/42/129
f 16/48/130 18/49/131 26/42/132
f 18/49/133 20/50/134 26/42/135
f 20/50/136 22/51/137 26/42/138
f 22/51/139 24/52/140 26/42/141
f 24/52/142 3/40/143 26/42/144
