# This file uses centimeters as units for non-parametric coordinates.

mtllib quarter_pipe_sloping_2.mtl
g default
v 0.001015 -56.157390 -199.987917
v -31.285889 -66.254649 -197.525589
v -61.802406 -76.351909 -190.199225
v -90.797109 -86.449120 -178.189211
v -117.556072 -96.546421 -161.791293
v -141.420389 -106.643663 -141.409247
v -161.802424 -116.740976 -117.544930
v -178.200329 -126.838181 -90.785961
v -190.210343 -136.935423 -61.791258
v -197.536708 -147.032759 -31.274737
v -199.999035 -157.129989 0.012164
v 0.001015 43.373137 -199.987917
v -31.285889 33.377200 -197.525589
v -61.802406 23.381261 -190.199225
v -90.797109 13.385310 -178.189211
v -117.556072 3.389337 -161.791293
v -141.420389 -6.606630 -141.409247
v -161.802424 -16.602510 -117.544930
v -178.200329 -26.598588 -90.785961
v -190.210343 -36.594460 -61.791258
v -197.536708 -46.590350 -31.274737
v -199.999035 -56.586395 0.012164
v 0.000995 43.373137 -399.987917
v -62.572808 33.377200 -395.063238
v -123.605848 23.381261 -380.410557
v -181.595255 13.385310 -356.390505
v -235.113085 3.389337 -323.594670
v -282.841814 -6.606630 -282.830600
v -323.605884 -16.602510 -235.101990
v -356.401695 -26.598588 -181.584065
v -380.421651 -36.594460 -123.594646
v -395.074452 -46.590350 -62.561606
v -399.999107 -56.586395 0.012197
v 0.000995 -56.157390 -399.987917
v -62.572808 -66.254649 -395.063238
v -123.605848 -76.351909 -380.410557
v -181.595255 -86.449120 -356.390505
v -235.113085 -96.546421 -323.594670
v -282.841814 -106.643663 -282.830600
v -323.605884 -116.740976 -235.101990
v -356.401695 -126.838181 -181.584065
v -380.421651 -136.935423 -123.594646
v -395.074452 -147.032759 -62.561606
v -399.999107 -157.129989 0.012197
vt 0.031201 0.115792
vt 0.031533 0.003107
vt 0.451997 0.114778
vt 0.451999 0.002198
vt 0.030869 0.228477
vt 0.451995 0.227358
vt 0.030537 0.341163
vt 0.451992 0.339938
vt 0.030204 0.453848
vt 0.451990 0.452518
vt 0.029872 0.566533
vt 0.451988 0.565098
vt 0.029540 0.679218
vt 0.451985 0.677678
vt 0.029208 0.791903
vt 0.451983 0.790258
vt 0.028876 0.904588
vt 0.451981 0.902838
vt 0.028544 1.017273
vt 0.451979 1.015418
vt 0.028212 1.129958
vt 0.451976 1.127998
vt 0.353373 1.247633
vt 0.107680 1.250404
vt 0.353522 1.088737
vt 0.107580 1.091468
vt 0.353671 0.929842
vt 0.107479 0.932533
vt 0.353820 0.770946
vt 0.107378 0.773598
vt 0.353969 0.612051
vt 0.107277 0.614663
vt 0.354119 0.453156
vt 0.107176 0.455728
vt 0.354268 0.294261
vt 0.107075 0.296792
vt 0.354417 0.135366
vt 0.106974 0.137857
vt 0.354567 -0.023529
vt 0.106874 -0.021078
vt 0.354716 -0.182425
vt 0.106773 -0.180014
vt 0.923803 0.742470
vt 0.958720 0.745348
vt 0.354866 -0.341320
vt 0.106672 -0.338950
vt 0.975132 0.711590
vt 0.975723 0.896950
vt 0.890523 0.952593
vt 0.957906 0.958089
vt 0.889735 0.734295
vt 0.824768 0.936875
vt 0.857314 0.721015
vt 0.762183 0.911303
vt 0.827300 0.702941
vt 0.704235 0.876477
vt 0.800397 0.680498
vt 0.652283 0.833213
vt 0.777235 0.654210
vt 0.607545 0.782525
vt 0.758358 0.624695
vt 0.571069 0.725601
vt 0.744208 0.592644
vt 0.543710 0.663777
vt 0.735116 0.558809
vt 0.526109 0.598500
vt 0.731296 0.523982
vt 0.518680 0.531302
vt 0.597087 0.586306
vt 0.590161 0.527793
vt 0.778923 0.550324
vt 0.775358 0.519978
vt 0.612859 0.643077
vt 0.787076 0.579771
vt 0.637110 0.696776
vt 0.799627 0.607629
vt 0.669270 0.746147
vt 0.816282 0.633247
vt 0.708587 0.790032
vt 0.836651 0.656022
vt 0.754139 0.827404
vt 0.860256 0.675424
vt 0.804860 0.857389
vt 0.886545 0.690996
vt 0.859562 0.879283
vt 0.914902 0.702375
vt 0.916965 0.892574
vt 0.944664 0.709294
vn 0.182283 0.000000 0.983246
vn 0.078459 0.000000 0.996917
vn 0.130479 0.000000 0.991451
vn 0.078459 0.000000 0.996917
vn 0.333852 0.000000 0.942626
vn 0.283969 0.000000 0.958833
vn 0.477201 0.000000 0.878794
vn 0.430468 0.000000 0.902606
vn 0.608799 0.000000 0.793324
vn 0.566367 0.000000 0.824153
vn 0.725408 0.000000 0.688320
vn 0.688320 0.000000 0.725407
vn 0.824154 0.000000 0.566366
vn 0.793324 0.000000 0.608799
vn 0.902606 0.000000 0.430468
vn 0.878794 0.000000 0.477201
vn 0.958833 0.000000 0.283969
vn 0.942625 0.000000 0.333852
vn 0.991451 0.000000 0.130479
vn 0.983246 0.000000 0.182283
vn 0.996917 0.000000 0.078459
vn 0.996917 0.000000 0.078459
vn -0.249290 0.966832 0.055595
vn -0.229856 0.972932 0.023876
vn -0.205253 0.978411 0.024159
vn -0.157746 0.987480 0.000000
vn -0.237524 0.966832 0.093908
vn -0.198946 0.978411 0.055970
vn -0.219910 0.966832 0.129909
vn -0.187742 0.978411 0.086403
vn -0.196880 0.966832 0.162711
vn -0.171914 0.978411 0.114709
vn -0.169002 0.966832 0.191506
vn -0.151853 0.978411 0.140189
vn -0.136964 0.966831 0.215588
vn -0.128053 0.978411 0.162218
vn -0.101552 0.966832 0.234358
vn -0.101101 0.978410 0.180255
vn -0.063640 0.966832 0.247357
vn -0.071657 0.978411 0.193848
vn -0.024161 0.966832 0.254270
vn -0.040450 0.978411 0.202672
vn 0.000000 0.952563 0.304341
vn -0.012376 0.972931 0.230763
vn -0.078460 0.000000 -0.996917
vn -0.078460 0.000000 -0.996917
vn -0.130479 0.000000 -0.991451
vn -0.182282 0.000000 -0.983246
vn -0.283969 0.000000 -0.958833
vn -0.333852 0.000000 -0.942625
vn -0.430468 0.000000 -0.902606
vn -0.477202 0.000000 -0.878794
vn -0.566367 0.000000 -0.824153
vn -0.608799 0.000000 -0.793325
vn -0.688319 0.000000 -0.725408
vn -0.725407 0.000000 -0.688320
vn -0.793324 0.000000 -0.608799
vn -0.824154 0.000000 -0.566367
vn -0.878794 0.000000 -0.477201
vn -0.902606 0.000000 -0.430467
vn -0.942625 0.000000 -0.333852
vn -0.958833 0.000000 -0.283970
vn -0.983246 0.000000 -0.182283
vn -0.991451 0.000000 -0.130479
vn -0.996917 0.000000 -0.078459
vn -0.996917 0.000000 -0.078459
vn 0.204615 -0.977990 -0.040841
vn 0.232947 -0.972409 -0.012498
vn 0.256653 -0.966196 -0.024390
vn 0.307133 -0.951667 -0.000000
vn 0.195706 -0.977990 -0.072347
vn 0.249677 -0.966196 -0.064239
vn 0.181980 -0.977990 -0.102072
vn 0.236554 -0.966196 -0.102506
vn 0.163772 -0.977990 -0.129283
vn 0.217607 -0.966196 -0.138250
vn 0.141532 -0.977990 -0.153311
vn 0.193301 -0.966196 -0.170589
vn 0.115805 -0.977990 -0.173563
vn 0.164235 -0.966196 -0.198727
vn 0.087228 -0.977990 -0.189542
vn 0.131125 -0.966196 -0.221972
vn 0.056504 -0.977990 -0.200855
vn 0.094787 -0.966196 -0.239753
vn 0.024387 -0.977990 -0.207221
vn 0.056114 -0.966196 -0.251629
vn -0.000000 -0.987229 -0.159305
vn 0.024096 -0.972409 -0.232034
s 1
g pPipe2
usemtl lambert2SG
f 2/1/1 1/2/2 13/3/3
f 13/3/3 1/2/2 12/4/4
f 3/5/5 2/1/1 14/6/6
f 14/6/6 2/1/1 13/3/3
f 4/7/7 3/5/5 15/8/8
f 15/8/8 3/5/5 14/6/6
f 5/9/9 4/7/7 16/10/10
f 16/10/10 4/7/7 15/8/8
f 6/11/11 5/9/9 17/12/12
f 17/12/12 5/9/9 16/10/10
f 7/13/13 6/11/11 18/14/14
f 18/14/14 6/11/11 17/12/12
f 8/15/15 7/13/13 19/16/16
f 19/16/16 7/13/13 18/14/14
f 9/17/17 8/15/15 20/18/18
f 20/18/18 8/15/15 19/16/16
f 10/19/19 9/17/17 21/20/20
f 21/20/20 9/17/17 20/18/18
f 11/21/21 10/19/19 22/22/22
f 22/22/22 10/19/19 21/20/20
s 2
f 13/43/23 12/44/24 24/49/25
f 24/49/25 12/44/24 23/50/26
f 14/51/27 13/43/23 25/52/28
f 25/52/28 13/43/23 24/49/25
f 15/53/29 14/51/27 26/54/30
f 26/54/30 14/51/27 25/52/28
f 16/55/31 15/53/29 27/56/32
f 27/56/32 15/53/29 26/54/30
f 17/57/33 16/55/31 28/58/34
f 28/58/34 16/55/31 27/56/32
f 18/59/35 17/57/33 29/60/36
f 29/60/36 17/57/33 28/58/34
f 19/61/37 18/59/35 30/62/38
f 30/62/38 18/59/35 29/60/36
f 20/63/39 19/61/37 31/64/40
f 31/64/40 19/61/37 30/62/38
f 21/65/41 20/63/39 32/66/42
f 32/66/42 20/63/39 31/64/40
f 22/67/43 21/65/41 33/68/44
f 33/68/44 21/65/41 32/66/42
s 3
f 23/23/45 34/24/46 24/25/47
f 24/25/47 34/24/46 35/26/48
f 24/25/47 35/26/48 25/27/49
f 25/27/49 35/26/48 36/28/50
f 25/27/49 36/28/50 26/29/51
f 26/29/51 36/28/50 37/30/52
f 26/29/51 37/30/52 27/31/53
f 27/31/53 37/30/52 38/32/54
f 27/31/53 38/32/54 28/33/55
f 28/33/55 38/32/54 39/34/56
f 28/33/55 39/34/56 29/35/57
f 29/35/57 39/34/56 40/36/58
f 29/35/57 40/36/58 30/37/59
f 30/37/59 40/36/58 41/38/60
f 30/37/59 41/38/60 31/39/61
f 31/39/61 41/38/60 42/40/62
f 31/39/61 42/40/62 32/41/63
f 32/41/63 42/40/62 43/42/64
f 32/41/63 43/42/64 33/45/65
f 33/45/65 43/42/64 44/46/66
s 4
f 35/69/67 34/70/68 2/71/69
f 2/71/69 34/70/68 1/72/70
f 36/73/71 35/69/67 3/74/72
f 3/74/72 35/69/67 2/71/69
f 37/75/73 36/73/71 4/76/74
f 4/76/74 36/73/71 3/74/72
f 38/77/75 37/75/73 5/78/76
f 5/78/76 37/75/73 4/76/74
f 39/79/77 38/77/75 6/80/78
f 6/80/78 38/77/75 5/78/76
f 40/81/79 39/79/77 7/82/80
f 7/82/80 39/79/77 6/80/78
f 41/83/81 40/81/79 8/84/82
f 8/84/82 40/81/79 7/82/80
f 42/85/83 41/83/81 9/86/84
f 9/86/84 41/83/81 8/84/82
f 43/87/85 42/85/83 10/88/86
f 10/88/86 42/85/83 9/86/84
f 44/48/87 43/87/85 11/47/88
f 11/47/88 43/87/85 10/88/86
