# This file uses centimeters as units for non-parametric coordinates.

mtllib rd_a11c.mtl
g default
v -41.334595 -6.000000 50.000000
v -21.168247 -6.000000 50.000000
v -0.000001 -6.000000 50.000000
v 20.580051 -6.000000 50.000000
v 41.756435 -6.000000 50.000000
v -50.000000 -6.000000 42.392426
v -41.334595 0.284367 42.392426
v -21.168247 0.284367 42.392426
v -0.000001 0.284367 42.392426
v 20.580051 0.284367 42.392426
v 41.756435 0.284367 42.392426
v 49.999996 -6.000000 42.392426
v -50.000000 -6.000000 -41.106140
v -41.334595 0.284367 -41.106140
v -21.168247 0.284367 -41.106140
v -0.000001 0.284367 -41.106140
v 20.580051 0.284367 -41.106140
v 41.756435 0.284367 -41.106140
v 49.999996 -6.000000 -41.106140
v -41.334595 -6.000000 -50.000000
v -21.168247 -6.000000 -50.000000
v -0.000001 -6.000000 -50.000000
v 20.580051 -6.000000 -50.000000
v 41.756435 -6.000000 -50.000000
v -39.102673 -88.278152 50.000000
v -20.515003 -98.606873 50.000000
v -1.003861 -105.056534 50.000000
v 17.965134 -98.470512 50.000000
v 37.483768 -81.879822 50.000000
v -41.334595 -6.000000 50.000000
v -21.168247 -6.000000 50.000000
v -0.000001 -6.000000 50.000000
v 20.580051 -6.000000 50.000000
v 41.756435 -6.000000 50.000000
v -50.000000 -6.000000 42.392426
v 49.999992 -6.000000 42.392426
v -50.000000 -6.000000 -41.106140
v 49.999992 -6.000000 -41.106140
v -41.334595 -6.000000 -50.000000
v -21.168247 -6.000000 -50.000000
v -0.000001 -6.000000 -50.000000
v 20.580051 -6.000000 -50.000000
v 41.756435 -6.000000 -50.000000
v -39.102673 -88.278152 -50.000000
v -20.515003 -98.606873 -50.000000
v -1.003861 -105.056534 -50.000000
v 17.965134 -98.470512 -50.000000
v 37.483768 -81.879822 -50.000000
v -47.089725 -75.582932 -41.106136
v -37.883934 -91.174362 -41.106136
v -19.296268 -101.503082 -41.106136
v 0.214873 -107.952744 -41.106136
v 19.183872 -101.366722 -41.106136
v 38.702499 -84.776024 -41.106136
v 45.081997 -67.512924 -41.106136
v -47.089725 -75.582932 42.392429
v -37.883934 -91.174362 42.392429
v -19.296268 -101.503082 42.392429
v 0.214873 -107.952744 42.392429
v 19.183872 -101.366722 42.392429
v 38.702499 -84.776024 42.392429
v 45.081997 -67.512924 42.392429
vt 0.243209 0.005186
vt 0.243209 0.098053
vt 0.212556 0.098053
vt 0.304515 0.098053
vt 0.304515 0.005186
vt 0.365821 0.098053
vt 0.365821 0.005186
vt 0.427127 0.098053
vt 0.427127 0.005186
vt 0.488433 0.098053
vt 0.488433 0.005186
vt 0.519086 0.098053
vt 0.212556 0.907205
vt 0.243209 0.907205
vt 0.304515 0.907205
vt 0.365821 0.907205
vt 0.427127 0.907205
vt 0.488433 0.907205
vt 0.519086 0.907205
vt 0.243209 0.994863
vt 0.304515 0.994863
vt 0.365821 0.994863
vt 0.427127 0.994863
vt 0.488433 0.994863
vt 0.959450 0.030465
vt 1.000000 0.030465
vt 0.959450 1.000000
vt 1.000000 1.000000
vt 0.037787 0.030465
vt 0.232470 0.057653
vt 0.037787 1.000000
vt 0.232470 1.000000
vt 0.500000 0.030465
vt 0.500000 1.000000
vt 0.754667 0.092591
vt 0.754667 1.000000
vt 0.037787 1.000000
vt 0.232470 1.000000
vt 0.037787 0.030465
vt 0.232470 0.057653
vt 0.500000 1.000000
vt 0.500000 0.030465
vt 0.754667 1.000000
vt 0.754667 0.092591
vt 0.959450 1.000000
vt 0.959450 0.030465
vt 1.000000 0.030465
vt 1.000000 1.000000
vt 0.037787 0.000000
vt 0.000000 0.030465
vt 0.232470 0.027189
vt 0.500000 0.000000
vt 0.754667 0.062127
vt 0.959450 0.000000
vt 0.000000 0.030465
vt 0.037787 0.000000
vt 0.232470 0.027189
vt 0.500000 0.000000
vt 0.754667 0.062127
vt 0.959450 0.000000
vt 0.000000 1.000000
vt 0.000000 1.000000
vn -0.167476 0.760080 0.627877
vn -0.304394 0.927165 0.218426
vn -0.561775 0.774622 0.290464
vn 0.000000 0.941002 0.338401
vn 0.000000 0.770969 0.636872
vn 0.000000 0.941002 0.338401
vn 0.000000 0.770969 0.636872
vn 0.000000 0.941002 0.338401
vn 0.000000 0.770969 0.636872
vn 0.245356 0.882226 0.401843
vn 0.262563 0.743920 0.614528
vn 0.595206 0.780766 0.190089
vn -0.578482 0.797659 -0.170584
vn -0.299182 0.908137 -0.292879
vn 0.000000 0.953072 -0.302743
vn 0.000000 0.953072 -0.302743
vn 0.000000 0.953072 -0.302743
vn 0.272747 0.926972 -0.257548
vn 0.586506 0.769353 -0.253193
vn -0.175397 0.804033 -0.568126
vn 0.000000 0.816693 -0.577072
vn 0.000000 0.816693 -0.577072
vn 0.000000 0.816693 -0.577072
vn 0.274850 0.785240 -0.554847
vn 0.269320 -0.015165 0.962932
vn 0.863978 -0.062782 0.499600
vn 0.509756 -0.034440 0.859629
vn 0.961415 -0.076866 0.264148
vn -0.381565 -0.010350 0.924284
vn 0.000000 0.000000 1.000000
vn -0.366936 -0.012560 0.930161
vn 0.000000 0.000000 1.000000
vn 0.000000 0.000000 1.000000
vn 0.000000 0.000000 1.000000
vn -0.000000 0.000000 1.000000
vn -0.000000 0.000000 1.000000
vn -0.388627 -0.010542 -0.921335
vn 0.000000 0.000000 -1.000000
vn -0.405568 -0.014082 -0.913957
vn 0.000000 0.000000 -1.000000
vn 0.000000 0.000000 -1.000000
vn 0.000000 0.000000 -1.000000
vn 0.000000 0.000000 -1.000000
vn -0.000000 0.000000 -1.000000
vn 0.263790 -0.014854 -0.964466
vn 0.561994 -0.038612 -0.826240
vn 0.975844 -0.078019 -0.204063
vn 0.893037 -0.065302 -0.445220
vn -0.623954 -0.764198 -0.163353
vn -0.697793 -0.714876 -0.045140
vn -0.860861 -0.508286 -0.023764
vn -0.398713 -0.909816 -0.115168
vn -0.361811 -0.899899 -0.243465
vn 0.007969 -0.988584 -0.150461
vn 0.109884 -0.940565 -0.321345
vn 0.490836 -0.854670 -0.169174
vn 0.519332 -0.789071 -0.328118
vn 0.776912 -0.602696 -0.182112
vn 0.787200 -0.546464 -0.285821
vn 0.935090 -0.345558 -0.078714
vn -0.860956 -0.508342 0.018514
vn -0.655561 -0.746417 0.114463
vn -0.398339 -0.906135 0.142285
vn 0.001264 -0.981933 0.189223
vn 0.485288 -0.852960 0.192238
vn 0.815288 -0.568271 0.111233
vn 0.929143 -0.343360 0.137105
vn -0.691969 -0.704565 0.157375
vn -0.415304 -0.870293 0.264789
vn -0.103057 -0.934968 0.339433
vn 0.408365 -0.829421 0.381182
vn 0.722162 -0.600048 0.344129
vn -0.973257 -0.040706 -0.226086
vn -0.879425 -0.033051 -0.474889
vn -0.850415 -0.031839 0.525149
vn -0.961522 -0.040215 0.271770
s 1
g polySurface10
usemtl initialShadingGroup
f 1/1/1 7/2/2 6/3/3
f 7/2/2 1/1/1 8/4/4
f 8/4/4 1/1/1 2/5/5
f 8/4/4 2/5/5 9/6/6
f 9/6/6 2/5/5 3/7/7
f 9/6/6 3/7/7 10/8/8
f 10/8/8 3/7/7 4/9/9
f 10/8/8 4/9/9 11/10/10
f 11/10/10 4/9/9 5/11/11
f 5/11/11 12/12/12 11/10/10
f 6/3/3 7/2/2 13/13/13
f 13/13/13 7/2/2 14/14/14
f 14/14/14 7/2/2 15/15/15
f 15/15/15 7/2/2 8/4/4
f 15/15/15 8/4/4 16/16/16
f 16/16/16 8/4/4 9/6/6
f 16/16/16 9/6/6 17/17/17
f 17/17/17 9/6/6 10/8/8
f 17/17/17 10/8/8 18/18/18
f 18/18/18 10/8/8 11/10/10
f 11/10/10 12/12/12 18/18/18
f 18/18/18 12/12/12 19/19/19
f 13/13/13 14/14/14 20/20/20
f 21/21/21 20/20/20 15/15/15
f 15/15/15 20/20/20 14/14/14
f 22/22/22 21/21/21 16/16/16
f 16/16/16 21/21/21 15/15/15
f 23/23/23 22/22/22 17/17/17
f 17/17/17 22/22/22 16/16/16
f 24/24/24 23/23/23 18/18/18
f 18/18/18 23/23/23 17/17/17
f 18/18/18 19/19/19 24/24/24
s 2
usemtl lambert2SG
f 29/25/25 62/26/26 34/27/27
f 34/27/27 62/26/26 36/28/28
f 25/29/29 26/30/30 30/31/31
f 30/31/31 26/30/30 31/32/32
f 26/30/30 27/33/33 31/32/32
f 31/32/32 27/33/33 32/34/34
f 27/33/33 28/35/35 32/34/34
f 32/34/34 28/35/35 33/36/36
f 28/35/35 29/25/25 33/36/36
f 33/36/36 29/25/25 34/27/27
f 39/37/37 40/38/38 44/39/39
f 44/39/39 40/38/38 45/40/40
f 40/38/38 41/41/41 45/40/40
f 45/40/40 41/41/41 46/42/42
f 41/41/41 42/43/43 46/42/42
f 46/42/42 42/43/43 47/44/44
f 42/43/43 43/45/45 47/44/44
f 47/44/44 43/45/45 48/46/46
f 55/47/47 48/46/46 38/48/48
f 38/48/48 48/46/46 43/45/45
s 5
f 44/39/49 50/49/50 49/50/51
f 50/49/50 44/39/49 51/51/52
f 51/51/52 44/39/49 45/40/53
f 51/51/52 45/40/53 52/52/54
f 52/52/54 45/40/53 46/42/55
f 52/52/54 46/42/55 53/53/56
f 53/53/56 46/42/55 47/44/57
f 53/53/56 47/44/57 54/54/58
f 54/54/58 47/44/57 48/46/59
f 48/46/59 55/47/60 54/54/58
f 49/50/51 50/49/50 56/55/61
f 56/55/61 50/49/50 57/56/62
f 57/56/62 50/49/50 58/57/63
f 58/57/63 50/49/50 51/51/52
f 58/57/63 51/51/52 59/58/64
f 59/58/64 51/51/52 52/52/54
f 59/58/64 52/52/54 60/59/65
f 60/59/65 52/52/54 53/53/56
f 60/59/65 53/53/56 61/60/66
f 61/60/66 53/53/56 54/54/58
f 54/54/58 55/47/60 61/60/66
f 61/60/66 55/47/60 62/26/67
f 56/55/61 57/56/62 25/29/68
f 25/29/68 57/56/62 26/30/69
f 26/30/69 57/56/62 58/57/63
f 26/30/69 58/57/63 27/33/70
f 27/33/70 58/57/63 59/58/64
f 27/33/70 59/58/64 28/35/71
f 28/35/71 59/58/64 60/59/65
f 28/35/71 60/59/65 29/25/72
f 29/25/72 60/59/65 61/60/66
f 61/60/66 62/26/67 29/25/72
s 2
f 62/26/26 55/47/47 36/28/28
f 36/28/28 55/47/47 38/48/48
f 49/50/73 37/61/74 44/39/39
f 44/39/39 37/61/74 39/37/37
f 56/55/75 35/62/76 49/50/73
f 49/50/73 35/62/76 37/61/74
f 25/29/29 30/31/31 56/55/75
f 56/55/75 30/31/31 35/62/76
