# Wavefront OBJ exported by MilkShape 3D
mtllib star.mtl
v -15.446762 -19.153692 10.000000
v -0.380459 -8.942918 10.000000
v -9.257553 -2.038003 10.000000
v 13.977994 -20.111376 10.000000
v -23.616011 9.130465 10.000000
v 8.945748 -2.635769 10.000000
v -5.439459 8.553492 10.000000
v 5.808726 8.172818 10.000000
v 24.012024 7.575046 10.000000
v 0.749619 25.669157 10.000000
v 8.945742 -2.635817 -10.000000
v 13.978020 -20.111423 -10.000000
v 24.012039 7.575017 -10.000000
v 5.808715 8.172747 -10.000000
v 0.749669 25.669088 -10.000000
v -5.439432 8.553415 -10.000000
v -23.615997 9.130450 -10.000000
v -9.257510 -2.038056 -10.000000
v -15.446710 -19.153748 -10.000000
v -0.380432 -8.942944 -10.000000
# 20 vertices

vt 0.000000 1.000000
# 1 texture coordinates

vn 0.000000 -0.000000 1.000000
vn 0.000000 -0.000000 -1.000000
vn 0.437364 0.899285 -0.000001
vn 0.990573 -0.136986 0.000002
vn -0.720783 0.693161 -0.000003
vn -0.881964 -0.471317 -0.000003
vn 0.175763 -0.984433 0.000000
# 7 normals
g default
usemtl default
s 1
f 1/1/1 2/1/1 3/1/1
f 2/1/1 4/1/1 3/1/1
f 3/1/2 4/1/2 5/1/2
f 5/1/1 4/1/1 6/1/1
f 5/1/1 6/1/1 7/1/1
f 7/1/1 6/1/1 8/1/1
f 8/1/1 6/1/1 9/1/1
f 8/1/1 10/1/1 7/1/1
f 11/1/3 6/1/3 4/1/3
f 11/1/3 4/1/3 12/1/3
f 9/1/4 6/1/4 11/1/4
f 9/1/4 11/1/4 13/1/4
f 14/1/5 8/1/5 9/1/5
f 14/1/5 9/1/5 13/1/5
f 15/1/3 10/1/3 8/1/3
f 15/1/3 8/1/3 14/1/3
f 7/1/6 10/1/6 15/1/6
f 7/1/6 15/1/6 16/1/6
f 17/1/5 5/1/5 7/1/5
f 17/1/5 7/1/5 16/1/5
f 5/1/7 17/1/7 3/1/7
f 3/1/7 17/1/7 18/1/7
f 1/1/6 3/1/6 18/1/6
f 1/1/6 18/1/6 19/1/6
f 2/1/4 1/1/4 19/1/4
f 2/1/4 19/1/4 20/1/4
f 2/1/7 20/1/7 4/1/7
f 4/1/7 20/1/7 12/1/7
f 19/1/2 18/1/2 20/1/2
f 18/1/1 17/1/1 20/1/1
f 20/1/2 17/1/2 16/1/2
f 12/1/2 20/1/2 16/1/2
f 12/1/2 16/1/2 11/1/2
f 11/1/2 16/1/2 14/1/2
f 11/1/2 14/1/2 13/1/2
f 16/1/2 15/1/2 14/1/2
# 36 triangles in group

# 36 triangles total

