# This file uses centimeters as units for non-parametric coordinates.

mtllib transporter2.mtl
g default
v 20.026761 4.531548 -0.277281
v 19.047673 4.531548 -6.657555
v 16.206281 4.531548 -12.413281
v 11.780682 4.531548 -16.981054
v 6.204160 4.531548 -19.913740
v 0.022469 4.531548 -20.924274
v -6.159217 4.531548 -19.913742
v -11.735755 4.531548 -16.981054
v -16.161338 4.531548 -12.413282
v -19.002784 4.531548 -6.657555
v -19.981864 4.531548 -0.277280
v -19.002784 4.531548 6.102996
v -16.161338 4.531548 11.858725
v -11.735755 4.531548 16.426499
v -6.159217 4.531548 19.359186
v 0.022469 4.531548 20.369717
v 6.204163 4.531548 19.359186
v 11.780690 4.531548 16.426499
v 16.206284 4.531548 11.858725
v 19.047685 4.531548 6.102995
v 19.873628 75.537895 -0.277281
v 18.902036 75.537895 -6.608714
v 16.082391 75.537895 -12.320380
v 11.690675 75.537895 -16.853185
v 6.156838 75.537895 -19.763422
v 0.022469 75.537895 -20.766222
v -6.111899 75.537895 -19.763424
v -11.645743 75.537895 -16.853185
v -16.037452 75.537895 -12.320381
v -18.857146 75.537895 -6.608714
v -19.828734 75.537895 -0.277280
v -18.857146 75.537895 6.054155
v -16.037452 75.537895 11.765824
v -11.645743 75.537895 16.298632
v -6.111899 75.537895 19.208870
v 0.022469 75.537895 20.211664
v 6.156842 75.537895 19.208870
v 11.690682 75.537895 16.298632
v 16.082395 75.537895 11.765824
v 18.902047 75.537895 6.054154
v 20.257928 75.537898 -0.277279
v 19.267537 75.537898 -6.584204
v 16.393273 75.537898 -12.273762
v 11.916573 75.537898 -16.789022
v 6.275567 75.537898 -19.687999
v 0.022469 75.537898 -20.686918
v -6.230628 75.537898 -19.687999
v -11.871635 75.537898 -16.789024
v -16.348334 75.537898 -12.273765
v -19.222602 75.537898 -6.584207
v -20.212997 75.537898 -0.277281
v -19.222602 75.537898 6.029646
v -16.348342 75.537898 11.719206
v -11.871642 75.537898 16.234469
v -6.230628 75.537898 19.133448
v 0.022469 75.537898 20.132368
v 6.275567 75.537898 19.133450
v 11.916577 75.537898 16.234474
v 16.393319 75.537898 11.719213
v 19.267548 75.537898 6.029650
v 20.257928 4.531545 -0.277279
v 19.267537 4.531545 -6.584204
v 16.393273 4.531545 -12.273762
v 11.916573 4.531545 -16.789022
v 6.275567 4.531545 -19.687999
v 0.022469 4.531545 -20.686918
v -6.230628 4.531545 -19.687999
v -11.871635 4.531545 -16.789024
v -16.348334 4.531545 -12.273765
v -19.222602 4.531545 -6.584207
v -20.212997 4.531545 -0.277281
v -19.222602 4.531545 6.029646
v -16.348342 4.531545 11.719206
v -11.871642 4.531545 16.234469
v -6.230628 4.531545 19.133448
v 0.022469 4.531545 20.132368
v 6.275567 4.531545 19.133450
v 11.916577 4.531545 16.234474
v 16.393319 4.531545 11.719213
v 19.267548 4.531545 6.029650
vt 1.001103 0.995245
vt 0.951425 0.945462
vt 0.901747 0.895680
vt 0.852070 0.845897
vt 0.802392 0.796115
vt 0.752715 0.746333
vt 0.703037 0.696550
vt 0.653359 0.646768
vt 0.603682 0.596985
vt 0.554004 0.547203
vt 0.504326 0.497421
vt 0.454649 0.447638
vt 0.404971 0.397856
vt 0.355293 0.348074
vt 0.305616 0.298291
vt 0.255938 0.248509
vt 0.206260 0.198726
vt 0.156582 0.148944
vt 0.106905 0.099161
vt 0.057227 0.049379
vt 0.007550 -0.000403
vt 0.997294 -0.004171
vt 0.947776 -0.054087
vt 0.898257 -0.104002
vt 0.848738 -0.153918
vt 0.799219 -0.203833
vt 0.749701 -0.253748
vt 0.700182 -0.303664
vt 0.650663 -0.353580
vt 0.601144 -0.403495
vt 0.551625 -0.453410
vt 0.502107 -0.503326
vt 0.452588 -0.553241
vt 0.403069 -0.603157
vt 0.353550 -0.653072
vt 0.304032 -0.702988
vt 0.254513 -0.752903
vt 0.204994 -0.802819
vt 0.155476 -0.852734
vt 0.105957 -0.902650
vt 0.056438 -0.952565
vt 0.006919 -1.002481
vt 1.003904 0.992488
vt 0.954226 0.942705
vt 0.904548 0.892923
vt 0.854871 0.843140
vt 0.805193 0.793358
vt 0.755516 0.743576
vt 0.705838 0.693793
vt 0.656160 0.644011
vt 0.606483 0.594229
vt 0.556805 0.544446
vt 0.507127 0.494664
vt 0.457450 0.444881
vt 0.407772 0.395099
vt 0.358094 0.345317
vt 0.308417 0.295534
vt 0.258739 0.245752
vt 0.209061 0.195969
vt 0.159384 0.146187
vt 0.109706 0.096405
vt 0.060028 0.046622
vt 0.010351 -0.003160
vt 1.001912 -0.004530
vt 0.952393 -0.054445
vt 0.902875 -0.104361
vt 0.853356 -0.154276
vt 0.803837 -0.204192
vt 0.754318 -0.254107
vt 0.704799 -0.304023
vt 0.655281 -0.353938
vt 0.605762 -0.403854
vt 0.556243 -0.453769
vt 0.506724 -0.503685
vt 0.457206 -0.553600
vt 0.407687 -0.603516
vt 0.358168 -0.653431
vt 0.308649 -0.703347
vt 0.259131 -0.753262
vt 0.209612 -0.803178
vt 0.160093 -0.853093
vt 0.110574 -0.903009
vt 0.061055 -0.952924
vt 0.011537 -1.002840
vn -0.937009 -0.002162 0.349299
vn -0.998692 -0.002154 0.051085
vn -0.967910 -0.002158 0.251286
vn -0.998692 -0.002154 -0.051084
vn -0.786118 -0.002180 0.618072
vn -0.846260 -0.002174 0.532765
vn -0.555894 -0.002202 0.831251
vn -0.641089 -0.002195 0.767464
vn -0.265761 -0.002218 0.964037
vn -0.368315 -0.002214 0.929698
vn 0.054410 -0.002223 0.998516
vn -0.054410 -0.002223 0.998516
vn 0.368314 -0.002214 0.929699
vn 0.265760 -0.002218 0.964037
vn 0.641089 -0.002195 0.767463
vn 0.555894 -0.002202 0.831251
vn 0.846258 -0.002174 0.532769
vn 0.786117 -0.002180 0.618074
vn 0.967910 -0.002158 0.251288
vn 0.937007 -0.002162 0.349304
vn 0.998692 -0.002154 -0.051085
vn 0.998692 -0.002154 0.051085
vn 0.937007 -0.002162 -0.349303
vn 0.967910 -0.002158 -0.251288
vn 0.786117 -0.002180 -0.618073
vn 0.846258 -0.002174 -0.532769
vn 0.555894 -0.002202 -0.831251
vn 0.641089 -0.002195 -0.767463
vn 0.265760 -0.002218 -0.964037
vn 0.368314 -0.002214 -0.929699
vn -0.054410 -0.002223 -0.998516
vn 0.054410 -0.002223 -0.998516
vn -0.368315 -0.002214 -0.929699
vn -0.265760 -0.002218 -0.964037
vn -0.641089 -0.002195 -0.767464
vn -0.555894 -0.002202 -0.831250
vn -0.846260 -0.002174 -0.532766
vn -0.786118 -0.002180 -0.618072
vn -0.967911 -0.002158 -0.251285
vn -0.937009 -0.002162 -0.349299
vn 0.934425 0.000000 -0.356160
vn 0.998633 0.000000 -0.052273
vn 0.966547 0.000000 -0.256491
vn 0.998633 0.000000 0.052271
vn 0.779424 0.000000 -0.626497
vn 0.840905 0.000000 -0.541183
vn 0.547452 0.000000 -0.836837
vn 0.632739 0.000000 -0.774365
vn 0.260414 0.000000 -0.965497
vn 0.361311 0.000000 -0.932445
vn -0.053174 0.000000 -0.998585
vn 0.053174 0.000000 -0.998585
vn -0.361311 0.000000 -0.932445
vn -0.260413 0.000000 -0.965497
vn -0.632739 0.000000 -0.774365
vn -0.547452 0.000000 -0.836837
vn -0.840905 0.000000 -0.541184
vn -0.779423 0.000000 -0.626498
vn -0.966546 0.000000 -0.256492
vn -0.934425 0.000000 -0.356160
vn -0.998633 0.000000 0.052273
vn -0.998633 0.000000 -0.052273
vn -0.934425 0.000000 0.356159
vn -0.966547 0.000000 0.256491
vn -0.779424 0.000000 0.626497
vn -0.840905 0.000000 0.541183
vn -0.547452 0.000000 0.836837
vn -0.632739 0.000000 0.774365
vn -0.260414 0.000000 0.965497
vn -0.361311 0.000000 0.932445
vn 0.053174 0.000000 0.998585
vn -0.053174 0.000000 0.998585
vn 0.361311 0.000000 0.932446
vn 0.260413 0.000000 0.965497
vn 0.632736 0.000000 0.774368
vn 0.547450 0.000000 0.836838
vn 0.840906 0.000000 0.541182
vn 0.779423 0.000000 0.626498
vn 0.966547 0.000000 0.256488
vn 0.934427 0.000000 0.356156
s 1
g pPipe1
usemtl lambert6SG
f 2/2/1 1/1/2 22/23/3
f 22/23/3 1/1/2 21/22/4
f 3/3/5 2/2/1 23/24/6
f 23/24/6 2/2/1 22/23/3
f 4/4/7 3/3/5 24/25/8
f 24/25/8 3/3/5 23/24/6
f 5/5/9 4/4/7 25/26/10
f 25/26/10 4/4/7 24/25/8
f 6/6/11 5/5/9 26/27/12
f 26/27/12 5/5/9 25/26/10
f 7/7/13 6/6/11 27/28/14
f 27/28/14 6/6/11 26/27/12
f 8/8/15 7/7/13 28/29/16
f 28/29/16 7/7/13 27/28/14
f 9/9/17 8/8/15 29/30/18
f 29/30/18 8/8/15 28/29/16
f 10/10/19 9/9/17 30/31/20
f 30/31/20 9/9/17 29/30/18
f 11/11/21 10/10/19 31/32/22
f 31/32/22 10/10/19 30/31/20
f 12/12/23 11/11/21 32/33/24
f 32/33/24 11/11/21 31/32/22
f 13/13/25 12/12/23 33/34/26
f 33/34/26 12/12/23 32/33/24
f 14/14/27 13/13/25 34/35/28
f 34/35/28 13/13/25 33/34/26
f 15/15/29 14/14/27 35/36/30
f 35/36/30 14/14/27 34/35/28
f 16/16/31 15/15/29 36/37/32
f 36/37/32 15/15/29 35/36/30
f 17/17/33 16/16/31 37/38/34
f 37/38/34 16/16/31 36/37/32
f 18/18/35 17/17/33 38/39/36
f 38/39/36 17/17/33 37/38/34
f 19/19/37 18/18/35 39/40/38
f 39/40/38 18/18/35 38/39/36
f 20/20/39 19/19/37 40/41/40
f 40/41/40 19/19/37 39/40/38
f 1/21/2 20/20/39 21/42/4
f 21/42/4 20/20/39 40/41/40
s 2
f 42/44/41 41/43/42 62/65/43
f 62/65/43 41/43/42 61/64/44
f 43/45/45 42/44/41 63/66/46
f 63/66/46 42/44/41 62/65/43
f 44/46/47 43/45/45 64/67/48
f 64/67/48 43/45/45 63/66/46
f 45/47/49 44/46/47 65/68/50
f 65/68/50 44/46/47 64/67/48
f 46/48/51 45/47/49 66/69/52
f 66/69/52 45/47/49 65/68/50
f 47/49/53 46/48/51 67/70/54
f 67/70/54 46/48/51 66/69/52
f 48/50/55 47/49/53 68/71/56
f 68/71/56 47/49/53 67/70/54
f 49/51/57 48/50/55 69/72/58
f 69/72/58 48/50/55 68/71/56
f 50/52/59 49/51/57 70/73/60
f 70/73/60 49/51/57 69/72/58
f 51/53/61 50/52/59 71/74/62
f 71/74/62 50/52/59 70/73/60
f 52/54/63 51/53/61 72/75/64
f 72/75/64 51/53/61 71/74/62
f 53/55/65 52/54/63 73/76/66
f 73/76/66 52/54/63 72/75/64
f 54/56/67 53/55/65 74/77/68
f 74/77/68 53/55/65 73/76/66
f 55/57/69 54/56/67 75/78/70
f 75/78/70 54/56/67 74/77/68
f 56/58/71 55/57/69 76/79/72
f 76/79/72 55/57/69 75/78/70
f 57/59/73 56/58/71 77/80/74
f 77/80/74 56/58/71 76/79/72
f 58/60/75 57/59/73 78/81/76
f 78/81/76 57/59/73 77/80/74
f 59/61/77 58/60/75 79/82/78
f 79/82/78 58/60/75 78/81/76
f 60/62/79 59/61/77 80/83/80
f 80/83/80 59/61/77 79/82/78
f 41/63/42 60/62/79 61/84/44
f 61/84/44 60/62/79 80/83/80
