# Wavefront OBJ exported by MilkShape 3D

v 0.245077 0.500000 -1.797160
v -0.186924 0.500000 -1.735060
v -0.171174 0.500000 0.022639
v 0.197826 0.500000 0.049639
v 0.245077 0.000000 -1.797160
v -0.186924 0.000000 -1.735060
v -0.171174 0.000000 0.022639
v 0.197826 0.000000 0.049639
# 8 vertices

vt 0.000000 1.000000
# 1 texture coordinates

vn 0.000000 1.000000 0.000000
vn -0.142288 -0.000000 -0.989825
vn -0.999960 0.000000 0.008960
vn -0.072976 0.000000 0.997334
vn 0.999673 0.000000 0.025576
vn 0.000000 -1.000000 -0.000000
# 6 normals

g default
s 1
f 1/1/1 2/1/1 3/1/1
f 1/1/1 3/1/1 4/1/1
f 1/1/2 5/1/2 6/1/2
f 1/1/2 6/1/2 2/1/2
f 3/1/3 2/1/3 6/1/3
f 3/1/3 6/1/3 7/1/3
f 8/1/4 4/1/4 3/1/4
f 8/1/4 3/1/4 7/1/4
f 1/1/5 4/1/5 8/1/5
f 1/1/5 8/1/5 5/1/5
f 6/1/6 5/1/6 7/1/6
f 7/1/6 5/1/6 8/1/6
# 12 triangles in group

# 12 triangles total

