# j.c. saved from ObjMesh class
# points
v 0.411359 0.500000 -0.483891
v 0.425000 0.500000 -0.333000
v 0.425000 -0.000000 -0.333000
v 0.411359 -0.000000 -0.483891
v 0.370437 0.500000 -0.601313
v 0.370437 -0.000000 -0.601312
v 0.339746 0.500000 -0.647473
v 0.339746 -0.000000 -0.647473
v 0.302234 0.500000 -0.685266
v 0.302234 -0.000000 -0.685266
v 0.257902 -0.000000 -0.714691
v 0.257902 0.500000 -0.714692
v 0.206750 -0.000000 -0.735750
v 0.206750 0.500000 -0.735750
v 0.302234 -0.000000 -0.821391
v 0.302234 0.500000 -0.821391
v 0.370437 0.500000 -0.911813
v 0.370437 -0.000000 -0.911812
v 0.411359 0.500000 -1.007020
v 0.411359 -0.000000 -1.007020
v 0.425000 0.500000 -1.107000
v 0.425000 -0.000000 -1.107000
v 0.411500 0.500000 -1.206000
v 0.411500 -0.000000 -1.206000
v 0.383234 0.500000 -1.281940
v 0.383234 -0.000000 -1.281940
v 0.341187 0.500000 -1.350000
v 0.341187 -0.000000 -1.350000
v 0.285359 0.500000 -1.410190
v 0.285359 -0.000000 -1.410190
v 0.215750 -0.000000 -1.462500
v 0.215750 0.500000 -1.462500
v 0.144031 -0.000000 -1.501880
v 0.144031 0.500000 -1.501880
v 0.068375 -0.000000 -1.530000
v 0.068375 0.500000 -1.530000
v -0.011219 0.500000 -1.546880
v -0.011219 -0.000000 -1.546880
v -0.094750 0.500000 -1.552500
v -0.094750 -0.000000 -1.552500
v -0.192906 0.500000 -1.544200
v -0.192906 -0.000000 -1.544200
v -0.278125 0.500000 -1.519310
v -0.278125 -0.000000 -1.519310
v -0.350406 0.500000 -1.477830
v -0.350406 -0.000000 -1.477830
v -0.409750 0.500000 -1.419750
v -0.409750 -0.000000 -1.419750
v -0.578500 0.500000 -1.185750
v -0.578500 -0.000000 -1.185750
v -0.603250 0.500000 -1.134000
v -0.603250 -0.000000 -1.134000
v -0.226094 0.500000 -1.108830
v -0.272500 0.500000 -1.019250
v -0.272500 -0.000000 -1.019250
v -0.226094 -0.000000 -1.108830
v -0.179125 0.500000 -1.172810
v -0.179125 -0.000000 -1.172810
v -0.131594 -0.000000 -1.211200
v -0.131594 0.500000 -1.211200
v -0.083500 -0.000000 -1.224000
v -0.083500 0.500000 -1.224000
v -0.031750 -0.000000 -1.206000
v -0.031750 0.500000 -1.206000
v 0.008750 0.500000 -1.158190
v 0.008750 -0.000000 -1.158190
v 0.022250 0.500000 -1.091250
v 0.022250 -0.000000 -1.091250
v 0.017188 0.500000 -1.043300
v 0.017187 -0.000000 -1.043300
v 0.002000 0.500000 -0.998438
v 0.002000 -0.000000 -0.998437
v -0.058750 0.500000 -0.918000
v -0.058750 -0.000000 -0.918000
v -0.107828 0.500000 -0.882422
v -0.107828 -0.000000 -0.882422
v -0.162813 -0.000000 -0.858937
v -0.162813 0.500000 -0.858938
v -0.223703 -0.000000 -0.847547
v -0.223703 0.500000 -0.847547
v -0.290500 -0.000000 -0.848250
v -0.290500 0.500000 -0.848250
v -0.176453 -0.000000 -0.540281
v -0.176453 0.500000 -0.540282
v -0.331000 0.500000 -0.567000
v -0.331000 -0.000000 -0.567000
v -0.066063 -0.000000 -0.496125
v -0.066063 0.500000 -0.496125
v -0.027426 -0.000000 -0.467508
v -0.027426 0.500000 -0.467508
v 0.000172 0.500000 -0.434532
v 0.000172 -0.000000 -0.434531
v 0.016730 0.500000 -0.397196
v 0.016730 -0.000000 -0.397195
v 0.022250 0.500000 -0.355500
v 0.022250 -0.000000 -0.355500
v 0.020035 0.500000 -0.324000
v 0.020035 -0.000000 -0.324000
v -0.004612 0.500000 -0.252141
v -0.004612 -0.000000 -0.252141
v -0.047544 0.500000 -0.200813
v -0.047544 -0.000000 -0.200812
v -0.108762 -0.000000 -0.170016
v -0.108762 0.500000 -0.170016
v -0.188266 -0.000000 -0.159750
v -0.188266 0.500000 -0.159750
v -0.263605 -0.000000 -0.168750
v -0.263606 0.500000 -0.168750
v -0.081813 0.000000 0.117562
v -0.081813 0.500000 0.117562
v -0.270250 0.000000 0.132750
v -0.270250 0.500000 0.132750
v 0.078500 0.000000 0.081000
v 0.078500 0.500000 0.081000
v 0.230094 0.000000 0.012937
v 0.230094 0.500000 0.012937
v 0.289648 -0.000000 -0.029953
v 0.289648 0.500000 -0.029953
v 0.338375 0.500000 -0.078750
v 0.338375 -0.000000 -0.078750
v 0.376273 0.500000 -0.133453
v 0.376273 -0.000000 -0.133453
v 0.403344 0.500000 -0.194063
v 0.403344 -0.000000 -0.194062
v 0.419586 0.500000 -0.260578
v 0.419586 -0.000000 -0.260578
# UVs
vt 0.000000 0.000000
# Normals
vn 0.985295 0.000000 -0.170860
vn 0.999805 0.000000 0.019747
vn 0.999377 0.000000 -0.035281
vn 0.967966 -0.000000 -0.251081
vn 0.913515 -0.000001 -0.406805
vn 0.876067 -0.000001 -0.482190
vn 0.795091 -0.000000 -0.606490
vn 0.753920 0.000000 -0.656967
vn 0.634651 -0.000000 -0.772799
vn 0.634647 0.000000 -0.772802
vn 0.497687 -0.000001 -0.867357
vn 0.439999 -0.000001 -0.897998
vn 0.985537 -0.000001 -0.169463
vn 0.985536 0.000000 -0.169467
vn 0.757952 0.000000 0.652311
vn 0.714216 0.000000 0.699925
vn 0.843886 0.000001 0.536522
vn 0.884269 0.000001 0.466978
vn 0.950463 0.000000 0.310839
vn 0.974689 0.000000 0.223564
vn 0.998966 0.000000 0.045456
vn 0.998970 0.000000 -0.045384
vn 0.978240 0.000000 -0.207476
vn 0.960261 0.000000 -0.279104
vn 0.912303 0.000000 -0.409516
vn 0.883364 0.000000 -0.468687
vn 0.814972 0.000000 -0.579500
vn 0.775618 0.000000 -0.631203
vn 0.669632 0.000000 -0.742693
vn 0.562205 0.000000 -0.826998
vn 0.522298 0.000000 -0.852763
vn 0.438043 0.000000 -0.898954
vn 0.393634 0.000000 -0.919267
vn 0.278680 0.000000 -0.960384
vn 0.161044 0.000000 -0.986947
vn 0.114162 0.000000 -0.993462
vn 0.016709 0.000000 -0.999860
vn -0.033883 0.000000 -0.999426
vn -0.150291 0.000000 -0.988642
vn -0.215948 0.000000 -0.976405
vn -0.355025 0.000000 -0.934857
vn -0.427938 0.000000 -0.903808
vn -0.569035 0.000000 -0.822313
vn -0.636759 0.000000 -0.771063
vn -0.739077 0.000000 -0.673621
vn -0.776410 0.000000 -0.630228
vn -0.844431 0.000000 -0.535664
vn -0.874887 0.000000 -0.484327
vn -0.902134 0.000000 -0.431456
vn 0.862963 0.000000 0.505267
vn 0.887928 0.000000 0.459982
vn 0.835615 0.000000 0.549316
vn 0.723233 0.000000 0.690604
vn 0.514623 0.000000 0.857417
vn 0.388457 0.000000 0.921467
vn 0.064464 0.000000 0.997920
vn -0.138682 0.000000 0.990337
vn -0.565766 0.000000 0.824566
vn -0.859509 0.000000 0.511120
vn -0.934007 0.000000 0.357254
vn -0.995206 0.000000 0.097803
vn -0.999991 0.000001 -0.004142
vn -0.984057 0.000001 -0.177853
vn -0.968212 0.000001 -0.250132
vn -0.907786 0.000000 -0.419434
vn -0.857479 -0.000001 -0.514518
vn -0.734803 -0.000000 -0.678280
vn -0.663757 0.000000 -0.747948
vn -0.492933 -0.000000 -0.870067
vn -0.492936 0.000000 -0.870066
vn -0.324869 -0.000001 -0.945759
vn -0.254863 -0.000001 -0.966977
vn -0.119584 -0.000001 -0.992824
vn -0.054510 0.000000 -0.998513
vn 0.010524 0.000000 -0.999945
vn -0.272365 0.000001 0.962194
vn -0.272366 0.000002 0.962194
vn -0.170355 0.000001 0.985383
vn -0.170359 0.000000 0.985382
vn -0.524430 0.000000 0.851453
vn -0.449283 0.000001 0.893390
vn -0.714075 0.000000 0.700069
vn -0.656487 0.000000 0.754337
vn -0.823086 0.000001 0.567916
vn -0.872604 0.000001 0.488429
vn -0.948463 0.000001 0.316888
vn -0.974436 0.000000 0.224665
vn -0.997924 0.000000 0.064405
vn -0.999995 0.000000 -0.003028
vn -0.987744 0.000000 -0.156081
vn -0.970404 0.000000 -0.241486
vn -0.899640 0.000000 -0.436632
vn -0.839126 -0.000000 -0.543937
vn -0.621118 -0.000001 -0.783718
vn -0.621117 -0.000002 -0.783718
vn -0.346666 -0.000001 -0.937988
vn -0.238186 0.000000 -0.971220
vn -0.046149 0.000000 -0.998935
vn 0.036638 0.000000 -0.999329
vn 0.118616 0.000000 -0.992940
vn 0.118615 0.000000 -0.992940
vn 0.175420 0.000000 0.984494
vn 0.127972 0.000000 0.991778
vn 0.080339 0.000000 0.996768
vn 0.348694 0.000000 0.937237
vn 0.286010 0.000000 0.958227
vn 0.528531 0.000000 0.848914
vn 0.469994 0.000000 0.882669
vn 0.668491 0.000000 0.743720
vn 0.627302 0.000000 0.778777
vn 0.748400 0.000000 0.663247
vn 0.786666 0.000000 0.617378
vn 0.855637 0.000000 0.517576
vn 0.886107 0.000000 0.463481
vn 0.935916 0.000000 0.352224
vn 0.955451 0.000000 0.295151
vn 0.983011 0.000000 0.183546
vn 0.991624 0.000000 0.129160
vn 0.000000 1.000000 -0.000000
vn -0.327772 0.000000 0.944757
vn -0.989790 0.000000 -0.142530
vn -0.999757 -0.000002 -0.022031
vn -0.999757 -0.000000 -0.022034
vn -0.000000 -1.000000 0.000000
g font3d/31.obj
mtllib default.mtl
usemtl default
# Faces
f 1/1/1 2/1/2 3/1/3 
f 1/1/1 3/1/3 4/1/4 
f 5/1/5 1/1/1 4/1/4 
f 5/1/5 4/1/4 6/1/6 
f 7/1/7 5/1/5 6/1/6 
f 7/1/7 6/1/6 8/1/8 
f 9/1/9 7/1/7 8/1/8 
f 9/1/9 8/1/8 10/1/10 
f 9/1/9 10/1/10 11/1/11 
f 9/1/9 11/1/11 12/1/12 
f 12/1/12 11/1/11 13/1/13 
f 12/1/12 13/1/13 14/1/14 
f 15/1/15 16/1/16 13/1/13 
f 13/1/13 16/1/16 14/1/14 
f 17/1/17 16/1/16 15/1/15 
f 17/1/17 15/1/15 18/1/18 
f 19/1/19 17/1/17 18/1/18 
f 19/1/19 18/1/18 20/1/20 
f 21/1/21 19/1/19 20/1/20 
f 21/1/21 20/1/20 22/1/22 
f 23/1/23 21/1/21 22/1/22 
f 23/1/23 22/1/22 24/1/24 
f 25/1/25 23/1/23 24/1/24 
f 25/1/25 24/1/24 26/1/26 
f 27/1/27 25/1/25 26/1/26 
f 27/1/27 26/1/26 28/1/28 
f 29/1/29 27/1/27 28/1/28 
f 29/1/29 28/1/28 30/1/29 
f 29/1/29 30/1/29 31/1/30 
f 29/1/29 31/1/30 32/1/31 
f 32/1/31 31/1/30 33/1/32 
f 32/1/31 33/1/32 34/1/33 
f 34/1/33 33/1/32 35/1/34 
f 34/1/33 35/1/34 36/1/34 
f 36/1/34 35/1/34 37/1/35 
f 37/1/35 35/1/34 38/1/36 
f 37/1/35 38/1/36 39/1/37 
f 39/1/37 38/1/36 40/1/38 
f 39/1/37 40/1/38 41/1/39 
f 41/1/39 40/1/38 42/1/40 
f 41/1/39 42/1/40 43/1/41 
f 43/1/41 42/1/40 44/1/42 
f 43/1/41 44/1/42 45/1/43 
f 45/1/43 44/1/42 46/1/44 
f 45/1/43 46/1/44 47/1/45 
f 47/1/45 46/1/44 48/1/46 
f 49/1/47 47/1/45 48/1/46 
f 49/1/47 48/1/46 50/1/48 
f 51/1/49 49/1/47 50/1/48 
f 51/1/49 50/1/48 52/1/49 
f 53/1/50 54/1/51 55/1/51 
f 53/1/50 55/1/51 56/1/52 
f 57/1/53 53/1/50 56/1/52 
f 57/1/53 56/1/52 58/1/53 
f 59/1/54 60/1/55 57/1/53 
f 59/1/54 57/1/53 58/1/53 
f 61/1/56 62/1/57 60/1/55 
f 61/1/56 60/1/55 59/1/54 
f 63/1/58 64/1/58 62/1/57 
f 63/1/58 62/1/57 61/1/56 
f 65/1/59 64/1/58 63/1/58 
f 65/1/59 63/1/58 66/1/60 
f 67/1/61 65/1/59 66/1/60 
f 67/1/61 66/1/60 68/1/62 
f 69/1/63 67/1/61 68/1/62 
f 69/1/63 68/1/62 70/1/64 
f 71/1/65 69/1/63 70/1/64 
f 71/1/65 70/1/64 72/1/66 
f 73/1/67 71/1/65 72/1/66 
f 73/1/67 72/1/66 74/1/68 
f 73/1/67 74/1/68 75/1/69 
f 75/1/69 74/1/68 76/1/70 
f 75/1/69 76/1/70 77/1/71 
f 75/1/69 77/1/71 78/1/72 
f 78/1/72 77/1/71 79/1/73 
f 78/1/72 79/1/73 80/1/74 
f 80/1/74 79/1/73 81/1/75 
f 80/1/74 81/1/75 82/1/75 
f 83/1/76 84/1/77 85/1/78 
f 83/1/76 85/1/78 86/1/79 
f 87/1/80 88/1/81 83/1/76 
f 83/1/76 88/1/81 84/1/77 
f 89/1/82 90/1/83 87/1/80 
f 87/1/80 90/1/83 88/1/81 
f 91/1/84 90/1/83 89/1/82 
f 91/1/84 89/1/82 92/1/85 
f 93/1/86 91/1/84 92/1/85 
f 93/1/86 92/1/85 94/1/87 
f 95/1/88 93/1/86 94/1/87 
f 95/1/88 94/1/87 96/1/89 
f 97/1/90 95/1/88 96/1/89 
f 97/1/90 96/1/89 98/1/91 
f 99/1/92 97/1/90 98/1/91 
f 99/1/92 98/1/91 100/1/93 
f 101/1/94 99/1/92 100/1/93 
f 101/1/94 100/1/93 102/1/95 
f 101/1/94 102/1/95 103/1/96 
f 101/1/94 103/1/96 104/1/97 
f 104/1/97 103/1/96 105/1/98 
f 104/1/97 105/1/98 106/1/99 
f 106/1/99 105/1/98 107/1/100 
f 106/1/99 107/1/100 108/1/101 
f 109/1/102 110/1/103 111/1/104 
f 111/1/104 110/1/103 112/1/104 
f 113/1/105 114/1/106 109/1/102 
f 109/1/102 114/1/106 110/1/103 
f 115/1/107 116/1/108 113/1/105 
f 113/1/105 116/1/108 114/1/106 
f 117/1/109 118/1/110 115/1/107 
f 115/1/107 118/1/110 116/1/108 
f 119/1/111 118/1/110 117/1/109 
f 119/1/111 117/1/109 120/1/112 
f 121/1/113 119/1/111 120/1/112 
f 121/1/113 120/1/112 122/1/114 
f 123/1/115 121/1/113 122/1/114 
f 123/1/115 122/1/114 124/1/116 
f 125/1/117 123/1/115 124/1/116 
f 125/1/117 124/1/116 126/1/118 
f 2/1/2 125/1/117 126/1/118 
f 2/1/2 126/1/118 3/1/3 
g font3d/32.obj
mtllib default.mtl
usemtl default
# Faces
f 80/1/119 82/1/119 16/1/119 
f 16/1/119 82/1/119 14/1/119 
f 14/1/119 82/1/119 12/1/119 
f 12/1/119 82/1/119 9/1/119 
f 9/1/119 82/1/119 7/1/119 
f 7/1/119 82/1/119 5/1/119 
f 5/1/119 82/1/119 85/1/119 
f 5/1/119 85/1/119 84/1/119 
f 5/1/119 84/1/119 88/1/119 
f 5/1/119 88/1/119 1/1/119 
f 1/1/119 88/1/119 90/1/119 
f 1/1/119 90/1/119 91/1/119 
f 1/1/119 91/1/119 93/1/119 
f 1/1/119 93/1/119 95/1/119 
f 1/1/119 95/1/119 2/1/119 
f 2/1/119 95/1/119 97/1/119 
f 2/1/119 97/1/119 125/1/119 
f 125/1/119 97/1/119 99/1/119 
f 125/1/119 99/1/119 101/1/119 
f 125/1/119 101/1/119 123/1/119 
f 123/1/119 101/1/119 104/1/119 
f 123/1/119 104/1/119 106/1/119 
f 123/1/119 106/1/119 121/1/119 
f 25/1/119 62/1/119 64/1/119 
f 25/1/119 64/1/119 23/1/119 
f 23/1/119 64/1/119 65/1/119 
f 23/1/119 65/1/119 21/1/119 
f 21/1/119 65/1/119 67/1/119 
f 21/1/119 67/1/119 69/1/119 
f 21/1/119 69/1/119 19/1/119 
f 19/1/119 69/1/119 71/1/119 
f 19/1/119 71/1/119 73/1/119 
f 19/1/119 73/1/119 17/1/119 
f 17/1/119 73/1/119 75/1/119 
f 17/1/119 75/1/119 78/1/119 
f 17/1/119 78/1/119 80/1/119 
f 17/1/119 80/1/119 16/1/119 
f 37/1/119 39/1/119 41/1/119 
f 37/1/119 41/1/119 36/1/119 
f 36/1/119 41/1/119 43/1/119 
f 36/1/119 43/1/119 34/1/119 
f 34/1/119 43/1/119 45/1/119 
f 34/1/119 45/1/119 32/1/119 
f 32/1/119 45/1/119 47/1/119 
f 32/1/119 47/1/119 29/1/119 
f 29/1/119 47/1/119 27/1/119 
f 27/1/119 47/1/119 25/1/119 
f 25/1/119 47/1/119 62/1/119 
f 62/1/119 47/1/119 60/1/119 
f 60/1/119 47/1/119 49/1/119 
f 60/1/119 49/1/119 57/1/119 
f 57/1/119 49/1/119 51/1/119 
f 57/1/119 51/1/119 53/1/119 
f 53/1/119 51/1/119 54/1/119 
f 121/1/119 106/1/119 119/1/119 
f 106/1/119 108/1/119 119/1/119 
f 119/1/119 108/1/119 118/1/119 
f 118/1/119 108/1/119 116/1/119 
f 116/1/119 108/1/119 114/1/119 
f 114/1/119 108/1/119 110/1/119 
f 110/1/119 108/1/119 112/1/119 
f 55/1/120 54/1/120 51/1/120 
f 55/1/120 51/1/120 52/1/120 
f 85/1/121 82/1/121 81/1/121 
f 85/1/121 81/1/121 86/1/121 
f 112/1/122 108/1/122 107/1/122 
f 112/1/123 107/1/123 111/1/123 
f 81/1/124 79/1/124 15/1/124 
f 81/1/124 15/1/124 13/1/124 
f 81/1/124 13/1/124 11/1/124 
f 81/1/124 11/1/124 10/1/124 
f 81/1/124 10/1/124 8/1/124 
f 81/1/124 8/1/124 6/1/124 
f 81/1/124 6/1/124 86/1/124 
f 86/1/124 6/1/124 83/1/124 
f 83/1/124 6/1/124 87/1/124 
f 87/1/124 6/1/124 4/1/124 
f 87/1/124 4/1/124 89/1/124 
f 89/1/124 4/1/124 92/1/124 
f 92/1/124 4/1/124 94/1/124 
f 94/1/124 4/1/124 96/1/124 
f 96/1/124 4/1/124 3/1/124 
f 96/1/124 3/1/124 98/1/124 
f 98/1/124 3/1/124 126/1/124 
f 98/1/124 126/1/124 100/1/124 
f 100/1/124 126/1/124 102/1/124 
f 102/1/124 126/1/124 124/1/124 
f 102/1/124 124/1/124 103/1/124 
f 103/1/124 124/1/124 105/1/124 
f 105/1/124 124/1/124 122/1/124 
f 105/1/124 122/1/124 120/1/124 
f 107/1/124 105/1/124 120/1/124 
f 107/1/124 120/1/124 117/1/124 
f 107/1/124 117/1/124 115/1/124 
f 107/1/124 115/1/124 113/1/124 
f 107/1/124 113/1/124 109/1/124 
f 107/1/124 109/1/124 111/1/124 
f 61/1/124 26/1/124 24/1/124 
f 61/1/124 24/1/124 63/1/124 
f 63/1/124 24/1/124 66/1/124 
f 66/1/124 24/1/124 22/1/124 
f 66/1/124 22/1/124 68/1/124 
f 68/1/124 22/1/124 70/1/124 
f 70/1/124 22/1/124 20/1/124 
f 70/1/124 20/1/124 72/1/124 
f 72/1/124 20/1/124 74/1/124 
f 74/1/124 20/1/124 18/1/124 
f 74/1/124 18/1/124 76/1/124 
f 76/1/124 18/1/124 77/1/124 
f 77/1/124 18/1/124 79/1/124 
f 79/1/124 18/1/124 15/1/124 
f 40/1/124 38/1/124 42/1/124 
f 42/1/124 38/1/124 35/1/124 
f 42/1/124 35/1/124 44/1/124 
f 44/1/124 35/1/124 33/1/124 
f 44/1/124 33/1/124 46/1/124 
f 46/1/124 33/1/124 31/1/124 
f 46/1/124 31/1/124 48/1/124 
f 48/1/124 31/1/124 30/1/124 
f 48/1/124 30/1/124 28/1/124 
f 48/1/124 28/1/124 26/1/124 
f 48/1/124 26/1/124 61/1/124 
f 48/1/124 61/1/124 59/1/124 
f 48/1/124 59/1/124 50/1/124 
f 50/1/124 59/1/124 58/1/124 
f 50/1/124 58/1/124 52/1/124 
f 52/1/124 58/1/124 56/1/124 
f 52/1/124 56/1/124 55/1/124 
