# j.c. saved from ObjMesh class
# points
v -0.459500 0.500000 -1.073250
v -0.432500 0.500000 -1.478250
v -0.432500 -0.000000 -1.478250
v -0.459500 -0.000000 -1.073250
v -0.457953 0.500000 -0.989156
v -0.457953 -0.000000 -0.989156
v -0.446563 0.500000 -0.910125
v -0.446562 -0.000000 -0.910125
v -0.425328 0.500000 -0.836156
v -0.425328 -0.000000 -0.836156
v -0.394250 0.500000 -0.767250
v -0.394250 -0.000000 -0.767250
v -0.339828 0.500000 -0.687656
v -0.339828 -0.000000 -0.687656
v -0.271063 -0.000000 -0.622125
v -0.271063 0.500000 -0.622125
v -0.187953 -0.000000 -0.570656
v -0.187953 0.500000 -0.570656
v -0.090500 -0.000000 -0.533250
v -0.090500 0.500000 -0.533250
v 0.021437 -0.000000 -0.486000
v 0.021437 0.500000 -0.486000
v 0.105250 -0.000000 -0.416250
v 0.105250 0.500000 -0.416250
v 0.149125 0.500000 -0.342000
v 0.149125 -0.000000 -0.342000
v 0.163750 0.500000 -0.263250
v 0.163750 -0.000000 -0.263250
v 0.156719 0.500000 -0.207563
v 0.156719 -0.000000 -0.207563
v 0.135625 0.500000 -0.166500
v 0.135625 -0.000000 -0.166500
v 0.100469 -0.000000 -0.140063
v 0.100469 0.500000 -0.140063
v 0.051250 -0.000000 -0.128250
v 0.051250 0.500000 -0.128250
v -0.018359 0.500000 -0.149344
v -0.018359 -0.000000 -0.149344
v -0.065188 0.500000 -0.203625
v -0.065188 -0.000000 -0.203625
v -0.089234 0.500000 -0.291094
v -0.089234 -0.000000 -0.291094
v -0.090500 0.500000 -0.411750
v -0.090500 -0.000000 -0.411750
v -0.423359 0.500000 -0.185484
v -0.470750 0.500000 -0.344250
v -0.470750 -0.000000 -0.344250
v -0.423359 -0.000000 -0.185484
v -0.350937 0.500000 -0.055687
v -0.350938 -0.000000 -0.055688
v -0.253484 0.500000 0.045141
v -0.253484 0.000000 0.045141
v -0.131000 0.000000 0.117000
v -0.131000 0.500000 0.117000
v -0.010625 0.000000 0.153562
v -0.010625 0.500000 0.153562
v 0.125500 0.000000 0.164250
v 0.125500 0.500000 0.164250
v 0.200172 0.000000 0.149484
v 0.200172 0.500000 0.149484
v 0.266688 0.000000 0.116437
v 0.266688 0.500000 0.116437
v 0.325047 0.000000 0.065109
v 0.325047 0.500000 0.065109
v 0.375250 0.500000 -0.004500
v 0.375250 -0.000000 -0.004500
v 0.412656 0.500000 -0.077625
v 0.412656 -0.000000 -0.077625
v 0.439375 0.500000 -0.157500
v 0.439375 -0.000000 -0.157500
v 0.455406 0.500000 -0.244125
v 0.455406 -0.000000 -0.244125
v 0.460750 0.500000 -0.337500
v 0.460750 -0.000000 -0.337500
v 0.444438 0.500000 -0.490500
v 0.444438 -0.000000 -0.490500
v 0.395500 0.500000 -0.621000
v 0.395500 -0.000000 -0.621000
v 0.356969 0.500000 -0.679922
v 0.356969 -0.000000 -0.679922
v 0.311125 0.500000 -0.726188
v 0.311125 -0.000000 -0.726188
v 0.257969 -0.000000 -0.759797
v 0.257969 0.500000 -0.759797
v 0.197500 -0.000000 -0.780750
v 0.197500 0.500000 -0.780750
v 0.118750 -0.000000 -0.798750
v 0.118750 0.500000 -0.798750
v -0.003313 -0.000000 -0.837563
v -0.003313 0.500000 -0.837563
v -0.090500 -0.000000 -0.891000
v -0.090500 0.500000 -0.891000
v -0.142812 0.500000 -0.959062
v -0.142812 -0.000000 -0.959062
v -0.160250 0.500000 -1.041750
v -0.160250 -0.000000 -1.041750
v -0.154625 0.500000 -1.090120
v -0.154625 -0.000000 -1.090120
v -0.137750 0.500000 -1.136250
v -0.137750 -0.000000 -1.136250
v 0.636250 0.500000 -1.343250
v 0.564250 0.500000 -0.927000
v 0.636250 -0.000000 -1.343250
v 0.564250 -0.000000 -0.927000
# UVs
vt 0.000000 0.000000
# Normals
vn -0.999268 0.000000 -0.038246
vn -0.997785 0.000000 -0.066519
vn -0.999951 0.000000 -0.009919
vn -0.998204 0.000000 0.059915
vn -0.994845 -0.000001 0.101408
vn -0.982271 -0.000001 0.187468
vn -0.972719 -0.000001 0.231985
vn -0.946828 -0.000001 0.321741
vn -0.930255 0.000000 0.366913
vn -0.885925 0.000000 0.463828
vn -0.857131 0.000000 0.515099
vn -0.761868 0.000000 0.647732
vn -0.638451 0.000000 0.769662
vn -0.583733 0.000000 0.811946
vn -0.444386 0.000000 0.895836
vn -0.378751 0.000000 0.925498
vn -0.368570 0.000000 0.929600
vn -0.519912 0.000000 0.854219
vn -0.761472 0.000000 0.648197
vn -0.914086 0.000000 0.405520
vn -0.955401 0.000000 0.295312
vn -0.996728 0.000000 0.080830
vn -0.999738 0.000000 -0.022888
vn -0.971009 0.000000 -0.239045
vn -0.936333 0.000000 -0.351112
vn -0.764659 0.000000 -0.644435
vn -0.487501 0.000000 -0.873122
vn -0.362643 0.000000 -0.931928
vn 0.029339 0.000000 -0.999570
vn 0.461955 0.000000 -0.886904
vn 0.623341 0.000000 -0.781950
vn 0.844548 0.000000 -0.535479
vn 0.915102 0.000000 -0.403222
vn 0.983381 0.000000 -0.181552
vn 0.995375 0.000000 -0.096061
vn 0.999945 0.000000 -0.010492
vn -0.934871 0.000000 0.354987
vn -0.958222 0.000000 0.286025
vn -0.906401 0.000000 0.422419
vn -0.828037 0.000000 0.560674
vn -0.776242 0.000000 0.630435
vn -0.618233 0.000000 0.785995
vn -0.436916 0.000000 0.899502
vn -0.364671 0.000000 0.931136
vn -0.220991 0.000000 0.975276
vn -0.149838 0.000000 0.988711
vn 0.012584 0.000000 0.999921
vn 0.104098 0.000000 0.994567
vn 0.279832 0.000000 0.960049
vn 0.364144 0.000000 0.931343
vn 0.520680 0.000000 0.853752
vn 0.593052 0.000000 0.805164
vn 0.740410 0.000000 0.672156
vn 0.839626 0.000000 0.543166
vn 0.866098 0.000000 0.499874
vn 0.911916 0.000000 0.410377
vn 0.931320 0.000000 0.364202
vn 0.962088 0.000000 0.272738
vn 0.973766 0.000000 0.227553
vn 0.990065 0.000000 0.140608
vn 0.995095 0.000000 0.098923
vn 0.999996 0.000000 0.002762
vn 0.998658 0.000000 -0.051783
vn 0.981966 0.000000 -0.189055
vn 0.962483 0.000000 -0.271342
vn 0.908090 0.000000 -0.418774
vn 0.874780 0.000000 -0.484520
vn 0.798341 0.000000 -0.602205
vn 0.755951 0.000000 -0.654628
vn 0.626376 0.000000 -0.779521
vn 0.468164 0.000000 -0.883642
vn 0.398755 0.000000 -0.917057
vn 0.292933 0.000000 -0.956133
vn 0.258026 0.000000 -0.966138
vn 0.249750 0.000000 -0.968310
vn 0.276504 0.000000 -0.961013
vn 0.378663 0.000000 -0.925535
vn 0.452320 0.000000 -0.891856
vn 0.668862 0.000000 -0.743387
vn 0.874074 0.000000 -0.485792
vn 0.937344 0.000000 -0.348405
vn 0.994965 0.000000 -0.100226
vn 0.999965 0.000000 0.008321
vn 0.981257 0.000000 0.192704
vn 0.963089 0.000000 0.269184
vn 0.939135 0.000000 0.343548
vn 0.000000 1.000000 0.000000
vn 0.125320 0.000000 -0.992116
vn -0.174782 -0.000000 -0.984607
vn -0.285657 0.000000 0.958332
vn 0.985368 0.000000 0.170442
vn 0.000000 -1.000000 0.000000
g font3d/51.obj
mtllib default.mtl
usemtl default
# Faces
f 1/1/1 2/1/2 3/1/2 
f 1/1/1 3/1/2 4/1/3 
f 5/1/4 1/1/1 4/1/3 
f 5/1/4 4/1/3 6/1/5 
f 7/1/6 5/1/4 6/1/5 
f 7/1/6 6/1/5 8/1/7 
f 9/1/8 7/1/6 8/1/7 
f 9/1/8 8/1/7 10/1/9 
f 11/1/10 9/1/8 10/1/9 
f 11/1/10 10/1/9 12/1/11 
f 13/1/12 11/1/10 12/1/11 
f 13/1/12 12/1/11 14/1/12 
f 15/1/13 16/1/14 13/1/12 
f 15/1/13 13/1/12 14/1/12 
f 17/1/15 18/1/15 16/1/14 
f 17/1/15 16/1/14 15/1/13 
f 19/1/16 20/1/17 17/1/15 
f 17/1/15 20/1/17 18/1/15 
f 21/1/18 22/1/18 19/1/16 
f 19/1/16 22/1/18 20/1/17 
f 23/1/19 24/1/19 22/1/18 
f 23/1/19 22/1/18 21/1/18 
f 25/1/20 24/1/19 23/1/19 
f 25/1/20 23/1/19 26/1/21 
f 27/1/22 25/1/20 26/1/21 
f 27/1/22 26/1/21 28/1/23 
f 29/1/24 27/1/22 28/1/23 
f 29/1/24 28/1/23 30/1/25 
f 31/1/26 29/1/24 30/1/25 
f 31/1/26 30/1/25 32/1/26 
f 31/1/26 32/1/26 33/1/27 
f 31/1/26 33/1/27 34/1/28 
f 34/1/28 33/1/27 35/1/29 
f 34/1/28 35/1/29 36/1/29 
f 36/1/29 35/1/29 37/1/30 
f 37/1/30 35/1/29 38/1/31 
f 39/1/32 37/1/30 38/1/31 
f 39/1/32 38/1/31 40/1/33 
f 41/1/34 39/1/32 40/1/33 
f 41/1/34 40/1/33 42/1/35 
f 43/1/36 41/1/34 42/1/35 
f 43/1/36 42/1/35 44/1/36 
f 45/1/37 46/1/38 47/1/38 
f 45/1/37 47/1/38 48/1/39 
f 49/1/40 45/1/37 48/1/39 
f 49/1/40 48/1/39 50/1/41 
f 51/1/42 49/1/40 50/1/41 
f 51/1/42 50/1/41 52/1/42 
f 53/1/43 54/1/44 51/1/42 
f 53/1/43 51/1/42 52/1/42 
f 55/1/45 56/1/46 54/1/44 
f 55/1/45 54/1/44 53/1/43 
f 57/1/47 58/1/48 56/1/46 
f 57/1/47 56/1/46 55/1/45 
f 59/1/49 60/1/50 58/1/48 
f 59/1/49 58/1/48 57/1/47 
f 61/1/51 62/1/52 60/1/50 
f 61/1/51 60/1/50 59/1/49 
f 63/1/53 64/1/53 62/1/52 
f 63/1/53 62/1/52 61/1/51 
f 65/1/54 64/1/53 63/1/53 
f 65/1/54 63/1/53 66/1/55 
f 67/1/56 65/1/54 66/1/55 
f 67/1/56 66/1/55 68/1/57 
f 69/1/58 67/1/56 68/1/57 
f 69/1/58 68/1/57 70/1/59 
f 71/1/60 69/1/58 70/1/59 
f 71/1/60 70/1/59 72/1/61 
f 73/1/62 71/1/60 72/1/61 
f 73/1/62 72/1/61 74/1/63 
f 75/1/64 73/1/62 74/1/63 
f 75/1/64 74/1/63 76/1/65 
f 77/1/66 75/1/64 76/1/65 
f 77/1/66 76/1/65 78/1/67 
f 79/1/68 77/1/66 78/1/67 
f 79/1/68 78/1/67 80/1/69 
f 81/1/70 79/1/68 80/1/69 
f 81/1/70 80/1/69 82/1/70 
f 81/1/70 82/1/70 83/1/71 
f 81/1/70 83/1/71 84/1/72 
f 84/1/72 83/1/71 85/1/73 
f 84/1/72 85/1/73 86/1/74 
f 86/1/74 85/1/73 87/1/75 
f 86/1/74 87/1/75 88/1/76 
f 88/1/76 87/1/75 89/1/77 
f 88/1/76 89/1/77 90/1/78 
f 90/1/78 89/1/77 91/1/79 
f 90/1/78 91/1/79 92/1/79 
f 93/1/80 92/1/79 91/1/79 
f 93/1/80 91/1/79 94/1/81 
f 95/1/82 93/1/80 94/1/81 
f 95/1/82 94/1/81 96/1/83 
f 97/1/84 95/1/82 96/1/83 
f 97/1/84 96/1/83 98/1/85 
f 99/1/86 97/1/84 98/1/85 
f 99/1/86 98/1/85 100/1/86 
g font3d/52.obj
mtllib default.mtl
usemtl default
# Faces
f 101/1/87 99/1/87 102/1/87 
f 101/1/87 2/1/87 99/1/87 
f 99/1/87 2/1/87 97/1/87 
f 97/1/87 2/1/87 1/1/87 
f 97/1/87 1/1/87 95/1/87 
f 95/1/87 1/1/87 5/1/87 
f 95/1/87 5/1/87 93/1/87 
f 93/1/87 5/1/87 7/1/87 
f 93/1/87 7/1/87 92/1/87 
f 92/1/87 7/1/87 90/1/87 
f 90/1/87 7/1/87 9/1/87 
f 90/1/87 9/1/87 88/1/87 
f 88/1/87 9/1/87 86/1/87 
f 86/1/87 9/1/87 11/1/87 
f 86/1/87 11/1/87 84/1/87 
f 84/1/87 11/1/87 81/1/87 
f 81/1/87 11/1/87 13/1/87 
f 81/1/87 13/1/87 79/1/87 
f 79/1/87 13/1/87 16/1/87 
f 79/1/87 16/1/87 77/1/87 
f 77/1/87 16/1/87 18/1/87 
f 77/1/87 18/1/87 20/1/87 
f 77/1/87 20/1/87 75/1/87 
f 75/1/87 20/1/87 22/1/87 
f 75/1/87 22/1/87 24/1/87 
f 75/1/87 24/1/87 25/1/87 
f 75/1/87 25/1/87 73/1/87 
f 73/1/87 25/1/87 27/1/87 
f 73/1/87 27/1/87 71/1/87 
f 71/1/87 27/1/87 29/1/87 
f 71/1/87 29/1/87 31/1/87 
f 71/1/87 31/1/87 69/1/87 
f 69/1/87 31/1/87 34/1/87 
f 69/1/87 34/1/87 36/1/87 
f 69/1/87 36/1/87 67/1/87 
f 43/1/87 46/1/87 41/1/87 
f 41/1/87 46/1/87 39/1/87 
f 39/1/87 46/1/87 45/1/87 
f 39/1/87 45/1/87 37/1/87 
f 37/1/87 45/1/87 36/1/87 
f 36/1/87 45/1/87 67/1/87 
f 67/1/87 45/1/87 49/1/87 
f 67/1/87 49/1/87 65/1/87 
f 65/1/87 49/1/87 51/1/87 
f 65/1/87 51/1/87 64/1/87 
f 64/1/87 51/1/87 62/1/87 
f 62/1/87 51/1/87 54/1/87 
f 62/1/87 54/1/87 60/1/87 
f 60/1/87 54/1/87 56/1/87 
f 60/1/87 56/1/87 58/1/87 
f 101/1/88 103/1/88 3/1/88 
f 101/1/88 3/1/88 2/1/88 
f 43/1/89 44/1/89 46/1/89 
f 46/1/89 44/1/89 47/1/89 
f 104/1/90 102/1/90 99/1/90 
f 104/1/90 99/1/90 100/1/90 
f 101/1/91 102/1/91 104/1/91 
f 101/1/91 104/1/91 103/1/91 
f 104/1/92 100/1/92 103/1/92 
f 3/1/92 103/1/92 100/1/92 
f 3/1/92 100/1/92 98/1/92 
f 3/1/92 98/1/92 4/1/92 
f 4/1/92 98/1/92 96/1/92 
f 4/1/92 96/1/92 6/1/92 
f 6/1/92 96/1/92 94/1/92 
f 6/1/92 94/1/92 8/1/92 
f 8/1/92 94/1/92 91/1/92 
f 8/1/92 91/1/92 89/1/92 
f 8/1/92 89/1/92 10/1/92 
f 10/1/92 89/1/92 87/1/92 
f 10/1/92 87/1/92 85/1/92 
f 10/1/92 85/1/92 12/1/92 
f 12/1/92 85/1/92 83/1/92 
f 12/1/92 83/1/92 82/1/92 
f 12/1/92 82/1/92 14/1/92 
f 14/1/92 82/1/92 80/1/92 
f 14/1/92 80/1/92 15/1/92 
f 15/1/92 80/1/92 78/1/92 
f 15/1/92 78/1/92 17/1/92 
f 17/1/92 78/1/92 19/1/92 
f 19/1/92 78/1/92 76/1/92 
f 19/1/92 76/1/92 21/1/92 
f 21/1/92 76/1/92 23/1/92 
f 23/1/92 76/1/92 26/1/92 
f 26/1/92 76/1/92 74/1/92 
f 26/1/92 74/1/92 28/1/92 
f 28/1/92 74/1/92 72/1/92 
f 28/1/92 72/1/92 30/1/92 
f 30/1/92 72/1/92 32/1/92 
f 32/1/92 72/1/92 70/1/92 
f 32/1/92 70/1/92 33/1/92 
f 33/1/92 70/1/92 35/1/92 
f 35/1/92 70/1/92 68/1/92 
f 47/1/92 44/1/92 42/1/92 
f 47/1/92 42/1/92 40/1/92 
f 47/1/92 40/1/92 48/1/92 
f 48/1/92 40/1/92 38/1/92 
f 48/1/92 38/1/92 35/1/92 
f 48/1/92 35/1/92 68/1/92 
f 48/1/92 68/1/92 50/1/92 
f 50/1/92 68/1/92 66/1/92 
f 50/1/92 66/1/92 52/1/92 
f 52/1/92 66/1/92 63/1/92 
f 52/1/92 63/1/92 61/1/92 
f 52/1/92 61/1/92 53/1/92 
f 53/1/92 61/1/92 59/1/92 
f 53/1/92 59/1/92 55/1/92 
f 55/1/92 59/1/92 57/1/92 
