# j.c. saved from ObjMesh class
# points
v 1.307190 0.500000 -0.669134
v 1.273900 0.500000 -0.186106
v 1.273900 0.000000 -0.186107
v 1.307190 0.000000 -0.669134
v 1.295510 0.500000 -1.786510
v 1.295510 0.000000 -1.786510
v 1.267190 0.500000 -1.806630
v 1.267190 0.000000 -1.806630
v 1.322850 0.500000 -1.258260
v 1.322850 0.000000 -1.258260
v 0.950140 0.500000 -0.471102
v 0.924298 0.500000 -1.236890
v 0.924298 0.000000 -1.236890
v 0.950140 0.000000 -0.471102
v 0.940697 0.500000 -0.263879
v 0.940697 0.000000 -0.263878
v 0.912294 0.500000 -0.108847
v 0.912294 0.000000 -0.108847
v 0.866839 0.500000 -0.001555
v 0.866839 0.000000 -0.001555
v 0.837718 0.500000 0.034190
v 0.837718 0.000000 0.034190
v 0.804333 0.500000 0.058001
v 0.804333 0.000000 0.058001
v 0.766686 0.500000 0.069877
v 0.766686 0.000000 0.069877
v 0.724776 0.500000 0.069819
v 0.724776 0.000000 0.069819
v 0.678960 0.500000 0.057158
v 0.678960 0.000000 0.057158
v 0.640777 0.500000 0.032471
v 0.640777 0.000000 0.032470
v 0.610228 0.500000 -0.004245
v 0.610227 0.000000 -0.004246
v 0.587310 0.500000 -0.052988
v 0.587310 0.000000 -0.052988
v 0.564373 0.500000 -0.186557
v 0.564372 0.000000 -0.186556
v 0.571967 0.500000 -0.368236
v 0.571966 0.000000 -0.368235
v 0.589608 0.500000 -0.486259
v 0.589608 0.000000 -0.486259
v 0.206279 0.500000 -0.214743
v 0.201745 0.500000 -0.438802
v 0.201745 0.000000 -0.438802
v 0.206279 0.000000 -0.214743
v 0.236779 0.500000 -0.020625
v 0.236779 0.000000 -0.020625
v 0.265357 0.500000 0.079683
v 0.265357 0.000000 0.079683
v 0.301149 0.500000 0.167918
v 0.301148 0.000000 0.167918
v 0.344153 0.500000 0.244078
v 0.344153 0.000000 0.244078
v 0.394372 0.500000 0.308164
v 0.394371 0.000000 0.308164
v 0.451803 0.000000 0.360176
v 0.451804 0.500000 0.360176
v 0.516448 0.000000 0.400114
v 0.516448 0.500000 0.400114
v 0.588306 0.000000 0.427977
v 0.588307 0.500000 0.427978
v 0.667379 0.000000 0.443767
v 0.667379 0.500000 0.443767
v 0.800357 0.000000 0.442696
v 0.800357 0.500000 0.442696
v 0.920012 0.000000 0.406186
v 0.920012 0.500000 0.406186
v 1.026340 0.000000 0.334238
v 1.026340 0.500000 0.334238
v 1.119350 0.500000 0.226852
v 1.119350 0.000000 0.226852
v 1.175500 0.500000 0.134049
v 1.175500 0.000000 0.134049
v 1.219980 0.500000 0.034287
v 1.219980 0.000000 0.034287
v 1.252780 0.500000 -0.072431
v 1.252780 0.000000 -0.072431
v 1.235380 0.500000 -1.815830
v 1.235380 0.000000 -1.815830
v 1.200630 0.500000 -1.812470
v 1.200630 0.000000 -1.812470
v 1.167920 0.500000 -1.794460
v 1.167920 0.000000 -1.794460
v 1.137270 0.500000 -1.761790
v 1.137270 0.000000 -1.761790
v 1.108660 0.500000 -1.714450
v 1.108660 0.000000 -1.714450
v 1.048100 0.500000 -1.780610
v 1.048100 0.000000 -1.780610
v 0.983185 0.500000 -1.807630
v 0.983185 0.000000 -1.807630
v 0.931559 0.500000 -1.801420
v 0.931559 0.000000 -1.801420
v 0.884019 0.500000 -1.770860
v 0.884019 0.000000 -1.770860
v 0.863846 0.500000 -1.691180
v 0.863846 0.000000 -1.691180
v 0.870608 0.500000 -1.590320
v 0.870608 0.000000 -1.590320
v 0.914371 0.500000 -1.499000
v 0.914371 0.000000 -1.499000
v 0.995129 0.000000 -1.417220
v 0.995130 0.500000 -1.417220
v 1.112890 0.000000 -1.344970
v 1.112890 0.500000 -1.344970
v 1.209390 0.000000 -1.411220
v 1.209390 0.500000 -1.411220
v 1.280980 0.500000 -1.482500
v 1.280980 0.000000 -1.482500
v 1.327660 0.500000 -1.558820
v 1.327660 0.000000 -1.558820
v 1.349430 0.500000 -1.640160
v 1.349430 0.000000 -1.640160
v 1.341170 0.500000 -1.723710
v 1.341170 0.000000 -1.723710
v 1.323020 0.500000 -1.757700
v 1.323020 0.000000 -1.757700
# UVs
vt 0.000000 0.000000
# Normals
vn 0.998502 -0.000000 0.054706
vn 0.989445 -0.000000 0.144909
vn 0.994272 -0.000000 0.106883
vn 0.999174 0.000000 0.040642
vn 0.677952 0.000000 -0.735106
vn 0.629734 0.000000 -0.776811
vn 0.484789 0.000000 -0.874631
vn 0.383071 0.000000 -0.923719
vn 0.999647 0.000000 0.026572
vn -0.999973 0.000000 0.007315
vn -0.999431 0.000000 0.033726
vn -0.999817 -0.000000 -0.019119
vn -0.995887 -0.000000 -0.090602
vn -0.990765 -0.000000 -0.135590
vn -0.967853 -0.000000 -0.251515
vn -0.946790 0.000000 -0.321853
vn -0.880087 0.000000 -0.474812
vn -0.831156 0.000000 -0.556040
vn -0.716098 0.000000 -0.697999
vn -0.650706 0.000000 -0.759330
vn -0.492774 0.000000 -0.870157
vn -0.398470 0.000000 -0.917181
vn -0.202212 0.000000 -0.979342
vn -0.100407 0.000000 -0.994946
vn 0.090431 0.000000 -0.995903
vn 0.179467 0.000000 -0.983764
vn 0.362274 0.000000 -0.932071
vn 0.455431 0.000001 -0.890271
vn 0.624556 0.000001 -0.780980
vn 0.700580 0.000001 -0.713574
vn 0.820014 0.000000 -0.572343
vn 0.865761 -0.000000 -0.500458
vn 0.939395 -0.000000 -0.342836
vn 0.966483 -0.000001 -0.256729
vn 0.995047 -0.000001 -0.099408
vn 0.999588 -0.000002 -0.028720
vn 0.997015 -0.000002 0.077215
vn 0.993638 -0.000001 0.112618
vn 0.989012 -0.000001 0.147832
vn 0.989012 0.000000 0.147836
vn -0.997862 0.000000 0.065360
vn -0.999795 0.000000 0.020232
vn -0.993882 0.000000 0.110447
vn -0.980777 0.000000 0.195132
vn -0.972046 0.000000 0.234791
vn -0.951269 0.000000 0.308363
vn -0.939566 0.000001 0.342369
vn -0.909706 0.000001 0.415252
vn -0.891041 0.000001 0.453923
vn -0.845016 0.000001 0.534741
vn -0.817063 0.000001 0.576549
vn -0.731843 0.000001 0.681474
vn -0.731844 0.000001 0.681472
vn -0.625018 0.000001 0.780610
vn -0.576281 0.000001 0.817251
vn -0.472670 0.000000 0.881239
vn -0.417779 -0.000000 0.908549
vn -0.307312 -0.000001 0.951609
vn -0.251891 -0.000001 0.967756
vn -0.128461 -0.000001 0.991715
vn -0.060183 0.000000 0.998187
vn 0.103604 0.000000 0.994619
vn 0.199079 0.000000 0.979983
vn 0.385178 0.000000 0.922842
vn 0.475597 0.000000 0.879663
vn 0.663848 0.000000 0.747868
vn 0.791651 0.000000 0.610973
vn 0.824988 0.000000 0.565150
vn 0.876346 0.000000 0.481683
vn 0.895629 0.000000 0.444803
vn 0.929027 0.000000 0.370012
vn 0.943230 0.000000 0.332140
vn 0.966379 0.000000 0.257122
vn 0.975494 -0.000000 0.220028
vn 0.155599 0.000000 -0.987820
vn 0.028906 0.000000 -0.999582
vn -0.229130 0.000000 -0.973396
vn -0.360223 0.000000 -0.932866
vn -0.570880 0.000000 -0.821034
vn -0.654114 0.000000 -0.756396
vn -0.775268 0.000000 -0.631633
vn -0.817659 0.000000 -0.575702
vn -0.495030 0.000000 -0.868876
vn 0.314801 0.000000 -0.949158
vn 0.633098 0.000000 -0.774072
vn 0.512794 0.000000 -0.858511
vn 0.222873 0.000000 -0.974847
vn 0.049930 0.000000 -0.998753
vn -0.265855 0.000000 -0.964013
vn -0.409530 0.000000 -0.912297
vn -0.728633 0.000000 -0.684905
vn -0.880930 0.000000 -0.473246
vn -0.989738 0.000000 -0.142894
vn -0.999292 0.000000 -0.037629
vn -0.981451 0.000000 0.191713
vn -0.948943 0.000000 0.315447
vn -0.817924 0.000000 0.575326
vn -0.817925 0.000000 0.575325
vn -0.652894 0.000001 0.757449
vn -0.589624 0.000001 0.807678
vn -0.186430 0.000000 0.982468
vn 0.236578 0.000000 0.971613
vn 0.638408 0.000000 0.769698
vn 0.759540 0.000000 0.650460
vn 0.809023 0.000000 0.587776
vn 0.898954 0.000000 0.438042
vn 0.936941 0.000000 0.349487
vn 0.989924 0.000000 0.141599
vn 0.999782 0.000000 0.020892
vn 0.974023 0.000000 -0.226448
vn 0.935695 0.000000 -0.352811
vn 0.836008 0.000000 -0.548718
vn 0.782610 0.000000 -0.622512
vn 0.000000 1.000000 0.000000
vn -0.053542 -0.000000 -0.998566
vn -0.121449 -0.000000 -0.992598
vn -0.000000 -1.000000 -0.000000
g font3d/j1.obj
mtllib default.mtl
usemtl default
# Faces
f 1/1/1 2/1/2 3/1/3 
f 1/1/1 3/1/3 4/1/4 
f 5/1/5 6/1/6 7/1/7 
f 7/1/7 6/1/6 8/1/8 
f 9/1/9 1/1/1 4/1/4 
f 9/1/9 4/1/4 10/1/9 
f 11/1/10 12/1/11 13/1/11 
f 11/1/10 13/1/11 14/1/12 
f 15/1/13 11/1/10 14/1/12 
f 15/1/13 14/1/12 16/1/14 
f 17/1/15 15/1/13 16/1/14 
f 17/1/15 16/1/14 18/1/16 
f 19/1/17 17/1/15 18/1/16 
f 19/1/17 18/1/16 20/1/18 
f 21/1/19 19/1/17 20/1/18 
f 21/1/19 20/1/18 22/1/20 
f 21/1/19 22/1/20 23/1/21 
f 23/1/21 22/1/20 24/1/22 
f 23/1/21 24/1/22 25/1/23 
f 25/1/23 24/1/22 26/1/24 
f 25/1/23 26/1/24 27/1/25 
f 27/1/25 26/1/24 28/1/26 
f 27/1/25 28/1/26 29/1/27 
f 29/1/27 28/1/26 30/1/28 
f 29/1/27 30/1/28 31/1/29 
f 31/1/29 30/1/28 32/1/30 
f 31/1/29 32/1/30 33/1/31 
f 33/1/31 32/1/30 34/1/32 
f 35/1/33 33/1/31 34/1/32 
f 35/1/33 34/1/32 36/1/34 
f 37/1/35 35/1/33 36/1/34 
f 37/1/35 36/1/34 38/1/36 
f 39/1/37 37/1/35 38/1/36 
f 39/1/37 38/1/36 40/1/38 
f 41/1/39 39/1/37 40/1/38 
f 41/1/39 40/1/38 42/1/40 
f 43/1/41 44/1/42 45/1/42 
f 43/1/41 45/1/42 46/1/43 
f 47/1/44 43/1/41 46/1/43 
f 47/1/44 46/1/43 48/1/45 
f 49/1/46 47/1/44 48/1/45 
f 49/1/46 48/1/45 50/1/47 
f 51/1/48 49/1/46 50/1/47 
f 51/1/48 50/1/47 52/1/49 
f 53/1/50 51/1/48 52/1/49 
f 53/1/50 52/1/49 54/1/51 
f 55/1/52 53/1/50 54/1/51 
f 55/1/52 54/1/51 56/1/53 
f 57/1/54 58/1/55 55/1/52 
f 57/1/54 55/1/52 56/1/53 
f 59/1/56 60/1/57 58/1/55 
f 59/1/56 58/1/55 57/1/54 
f 61/1/58 62/1/59 60/1/57 
f 61/1/58 60/1/57 59/1/56 
f 63/1/60 64/1/61 62/1/59 
f 63/1/60 62/1/59 61/1/58 
f 65/1/62 66/1/63 64/1/61 
f 65/1/62 64/1/61 63/1/60 
f 67/1/64 68/1/65 66/1/63 
f 67/1/64 66/1/63 65/1/62 
f 69/1/66 70/1/66 68/1/65 
f 69/1/66 68/1/65 67/1/64 
f 71/1/67 70/1/66 69/1/66 
f 71/1/67 69/1/66 72/1/68 
f 73/1/69 71/1/67 72/1/68 
f 73/1/69 72/1/68 74/1/70 
f 75/1/71 73/1/69 74/1/70 
f 75/1/71 74/1/70 76/1/72 
f 77/1/73 75/1/71 76/1/72 
f 77/1/73 76/1/72 78/1/74 
f 2/1/2 77/1/73 78/1/74 
f 2/1/2 78/1/74 3/1/3 
f 7/1/7 8/1/8 79/1/75 
f 79/1/75 8/1/8 80/1/76 
f 79/1/75 80/1/76 81/1/77 
f 81/1/77 80/1/76 82/1/78 
f 81/1/77 82/1/78 83/1/79 
f 83/1/79 82/1/78 84/1/80 
f 85/1/81 83/1/79 84/1/80 
f 85/1/81 84/1/80 86/1/82 
f 87/1/83 85/1/81 86/1/82 
f 87/1/83 86/1/82 88/1/84 
f 87/1/83 88/1/84 89/1/85 
f 89/1/85 88/1/84 90/1/86 
f 89/1/85 90/1/86 91/1/87 
f 91/1/87 90/1/86 92/1/88 
f 91/1/87 92/1/88 93/1/89 
f 93/1/89 92/1/88 94/1/90 
f 93/1/89 94/1/90 95/1/91 
f 95/1/91 94/1/90 96/1/92 
f 97/1/93 95/1/91 96/1/92 
f 97/1/93 96/1/92 98/1/94 
f 99/1/95 97/1/93 98/1/94 
f 99/1/95 98/1/94 100/1/96 
f 101/1/97 99/1/95 100/1/96 
f 101/1/97 100/1/96 102/1/98 
f 103/1/99 104/1/100 101/1/97 
f 103/1/99 101/1/97 102/1/98 
f 105/1/101 106/1/102 104/1/100 
f 105/1/101 104/1/100 103/1/99 
f 107/1/103 108/1/103 106/1/102 
f 107/1/103 106/1/102 105/1/101 
f 109/1/104 108/1/103 107/1/103 
f 109/1/104 107/1/103 110/1/105 
f 111/1/106 109/1/104 110/1/105 
f 111/1/106 110/1/105 112/1/107 
f 113/1/108 111/1/106 112/1/107 
f 113/1/108 112/1/107 114/1/109 
f 115/1/110 113/1/108 114/1/109 
f 115/1/110 114/1/109 116/1/111 
f 117/1/112 115/1/110 116/1/111 
f 117/1/112 116/1/111 118/1/113 
f 117/1/112 118/1/113 5/1/5 
f 5/1/5 118/1/113 6/1/6 
g font3d/j2.obj
mtllib default.mtl
usemtl default
# Faces
f 9/1/114 12/1/114 1/1/114 
f 1/1/114 12/1/114 11/1/114 
f 1/1/114 11/1/114 15/1/114 
f 1/1/114 15/1/114 2/1/114 
f 2/1/114 15/1/114 77/1/114 
f 77/1/114 15/1/114 17/1/114 
f 77/1/114 17/1/114 75/1/114 
f 75/1/114 17/1/114 19/1/114 
f 75/1/114 19/1/114 21/1/114 
f 75/1/114 21/1/114 23/1/114 
f 75/1/114 23/1/114 25/1/114 
f 75/1/114 25/1/114 73/1/114 
f 25/1/114 27/1/114 73/1/114 
f 41/1/114 44/1/114 39/1/114 
f 39/1/114 44/1/114 37/1/114 
f 37/1/114 44/1/114 43/1/114 
f 37/1/114 43/1/114 35/1/114 
f 35/1/114 43/1/114 33/1/114 
f 33/1/114 43/1/114 47/1/114 
f 33/1/114 47/1/114 31/1/114 
f 31/1/114 47/1/114 29/1/114 
f 29/1/114 47/1/114 27/1/114 
f 27/1/114 47/1/114 49/1/114 
f 73/1/114 27/1/114 49/1/114 
f 73/1/114 49/1/114 71/1/114 
f 71/1/114 49/1/114 51/1/114 
f 71/1/114 51/1/114 53/1/114 
f 71/1/114 53/1/114 70/1/114 
f 70/1/114 53/1/114 55/1/114 
f 70/1/114 55/1/114 68/1/114 
f 68/1/114 55/1/114 58/1/114 
f 68/1/114 58/1/114 60/1/114 
f 68/1/114 60/1/114 66/1/114 
f 66/1/114 60/1/114 62/1/114 
f 66/1/114 62/1/114 64/1/114 
f 7/1/114 79/1/114 81/1/114 
f 7/1/114 81/1/114 5/1/114 
f 5/1/114 81/1/114 83/1/114 
f 5/1/114 83/1/114 117/1/114 
f 117/1/114 83/1/114 85/1/114 
f 117/1/114 85/1/114 115/1/114 
f 115/1/114 85/1/114 87/1/114 
f 115/1/114 87/1/114 113/1/114 
f 91/1/114 93/1/114 89/1/114 
f 89/1/114 93/1/114 95/1/114 
f 89/1/114 95/1/114 87/1/114 
f 87/1/114 95/1/114 113/1/114 
f 113/1/114 95/1/114 97/1/114 
f 113/1/114 97/1/114 111/1/114 
f 111/1/114 97/1/114 99/1/114 
f 111/1/114 99/1/114 109/1/114 
f 109/1/114 99/1/114 101/1/114 
f 109/1/114 101/1/114 108/1/114 
f 108/1/114 101/1/114 104/1/114 
f 108/1/114 104/1/114 106/1/114 
f 9/1/115 10/1/115 12/1/115 
f 12/1/115 10/1/115 13/1/115 
f 41/1/116 42/1/116 44/1/116 
f 44/1/116 42/1/116 45/1/116 
f 13/1/117 10/1/117 4/1/117 
f 13/1/117 4/1/117 14/1/117 
f 14/1/117 4/1/117 16/1/117 
f 16/1/117 4/1/117 3/1/117 
f 16/1/117 3/1/117 78/1/117 
f 16/1/117 78/1/117 18/1/117 
f 18/1/117 78/1/117 76/1/117 
f 18/1/117 76/1/117 20/1/117 
f 20/1/117 76/1/117 22/1/117 
f 22/1/117 76/1/117 24/1/117 
f 24/1/117 76/1/117 26/1/117 
f 26/1/117 76/1/117 74/1/117 
f 28/1/117 26/1/117 74/1/117 
f 45/1/117 42/1/117 40/1/117 
f 45/1/117 40/1/117 38/1/117 
f 45/1/117 38/1/117 46/1/117 
f 46/1/117 38/1/117 36/1/117 
f 46/1/117 36/1/117 34/1/117 
f 46/1/117 34/1/117 48/1/117 
f 48/1/117 34/1/117 32/1/117 
f 48/1/117 32/1/117 30/1/117 
f 48/1/117 30/1/117 28/1/117 
f 48/1/117 28/1/117 50/1/117 
f 28/1/117 74/1/117 50/1/117 
f 50/1/117 74/1/117 72/1/117 
f 50/1/117 72/1/117 52/1/117 
f 52/1/117 72/1/117 54/1/117 
f 54/1/117 72/1/117 69/1/117 
f 54/1/117 69/1/117 56/1/117 
f 56/1/117 69/1/117 67/1/117 
f 56/1/117 67/1/117 57/1/117 
f 57/1/117 67/1/117 59/1/117 
f 59/1/117 67/1/117 65/1/117 
f 59/1/117 65/1/117 61/1/117 
f 61/1/117 65/1/117 63/1/117 
f 82/1/117 8/1/117 6/1/117 
f 82/1/117 6/1/117 84/1/117 
f 84/1/117 6/1/117 118/1/117 
f 84/1/117 118/1/117 86/1/117 
f 86/1/117 118/1/117 116/1/117 
f 86/1/117 116/1/117 88/1/117 
f 88/1/117 116/1/117 114/1/117 
f 94/1/117 92/1/117 90/1/117 
f 94/1/117 90/1/117 96/1/117 
f 96/1/117 90/1/117 88/1/117 
f 96/1/117 88/1/117 114/1/117 
f 96/1/117 114/1/117 98/1/117 
f 98/1/117 114/1/117 112/1/117 
f 98/1/117 112/1/117 100/1/117 
f 100/1/117 112/1/117 110/1/117 
f 100/1/117 110/1/117 102/1/117 
f 102/1/117 110/1/117 107/1/117 
f 102/1/117 107/1/117 103/1/117 
f 103/1/117 107/1/117 105/1/117 
