# j.c. saved from ObjMesh class
# points
v 1.656540 0.500000 0.541914
v 1.656540 -0.000000 0.541914
v 1.578040 0.500000 0.485650
v 1.578040 -0.000000 0.485650
v 1.498330 0.500000 0.442835
v 1.498330 -0.000000 0.442835
v 1.417400 -0.000000 0.413469
v 1.417400 0.500000 0.413469
v 1.335270 0.500000 0.397552
v 1.335270 -0.000000 0.397551
v 1.259050 0.500000 0.395874
v 1.259050 -0.000000 0.395874
v 1.186930 0.500000 0.408236
v 1.186930 -0.000000 0.408236
v 1.428450 0.500000 -1.235650
v 1.428450 0.000000 -1.235650
v 1.243960 0.000000 -1.281610
v 1.243960 0.500000 -1.281620
v 1.072140 0.500000 -1.309200
v 1.072140 0.000000 -1.309200
v 0.858189 0.500000 -1.317970
v 0.858189 0.000000 -1.317970
v 0.672534 0.500000 -1.293600
v 0.672534 0.000000 -1.293600
v 0.590319 0.500000 -1.268990
v 0.590319 0.000000 -1.268990
v 0.515175 0.500000 -1.236100
v 0.515175 0.000000 -1.236100
v 0.447105 0.500000 -1.194920
v 0.447105 0.000000 -1.194920
v 0.386110 0.500000 -1.145450
v 0.386110 0.000000 -1.145450
v 0.303059 0.500000 -1.044880
v 0.303059 0.000000 -1.044880
v 0.245724 0.500000 -0.921084
v 0.245724 0.000000 -0.921083
v 0.222368 0.500000 -0.792376
v 0.222368 0.000000 -0.792376
v 0.215581 0.500000 -0.659987
v 0.215581 0.000000 -0.659987
v 0.225784 0.500000 -0.537880
v 0.225784 0.000000 -0.537880
v 0.252976 0.500000 -0.426052
v 0.252976 0.000000 -0.426052
v 0.297158 0.500000 -0.324505
v 0.297158 0.000000 -0.324505
v 0.341117 0.500000 -0.256303
v 0.341117 0.000000 -0.256303
v 0.393983 0.000000 -0.196309
v 0.393983 0.500000 -0.196309
v 0.455755 0.000000 -0.144523
v 0.455755 0.500000 -0.144523
v 0.526434 0.000000 -0.100943
v 0.526434 0.500000 -0.100943
v 0.606018 0.000000 -0.065571
v 0.606018 0.500000 -0.065571
v 0.694509 0.000000 -0.038406
v 0.694509 0.500000 -0.038406
v 0.898208 0.000000 -0.008698
v 0.898208 0.500000 -0.008698
v 0.951878 0.500000 -0.308354
v 0.951878 0.000000 -0.308354
v 0.811337 0.500000 -0.332177
v 0.811337 0.000000 -0.332177
v 0.697071 0.500000 -0.378547
v 0.697071 0.000000 -0.378547
v 0.609082 0.500000 -0.447467
v 0.609082 0.000000 -0.447467
v 0.547367 0.500000 -0.538935
v 0.547367 0.000000 -0.538935
v 0.518110 0.500000 -0.632174
v 0.518110 0.000000 -0.632174
v 0.510843 0.500000 -0.739949
v 0.510843 0.000000 -0.739949
v 0.536443 0.500000 -0.810856
v 0.536443 0.000000 -0.810856
v 0.571376 0.500000 -0.870893
v 0.571376 0.000000 -0.870893
v 0.615643 0.500000 -0.920059
v 0.615643 0.000000 -0.920059
v 0.669243 0.000000 -0.958354
v 0.669243 0.500000 -0.958354
v 0.732175 0.000000 -0.985779
v 0.732175 0.500000 -0.985779
v 0.804442 0.000000 -1.002330
v 0.804442 0.500000 -1.002330
v 0.886041 0.000000 -1.008020
v 0.886041 0.500000 -1.008020
v 0.976974 0.000000 -1.002830
v 0.976974 0.500000 -1.002830
v 1.059220 0.000000 -0.989165
v 1.059220 0.500000 -0.989164
v 0.782917 0.500000 0.743672
v 1.113880 0.500000 0.861944
v 0.782917 -0.000000 0.743672
v 1.113880 -0.000000 0.861944
# UVs
vt 0.000000 0.000000
# Normals
vn 0.582557 0.000000 -0.812790
vn 0.547113 0.000000 -0.837059
vn 0.510591 0.000000 -0.859824
vn 0.408214 0.000000 -0.912886
vn 0.266499 0.000000 -0.963835
vn 0.266496 0.000000 -0.963836
vn 0.134611 0.000001 -0.990899
vn 0.078343 0.000001 -0.996926
vn -0.041817 0.000001 -0.999125
vn -0.105729 0.000000 -0.994395
vn -0.168945 0.000000 -0.985626
vn 0.241756 -0.000010 -0.970337
vn 0.241732 0.000000 -0.970343
vn 0.200317 -0.000010 -0.979731
vn 0.200316 -0.000020 -0.979731
vn 0.119515 -0.000007 -0.992832
vn 0.080277 0.000000 -0.996773
vn -0.016131 0.000000 -0.999870
vn -0.073353 0.000000 -0.997306
vn -0.182876 0.000000 -0.983136
vn -0.235231 0.000000 -0.971940
vn -0.325368 0.000000 -0.945588
vn -0.363498 0.000000 -0.931595
vn -0.440697 0.000000 -0.897656
vn -0.479655 0.000000 -0.877457
vn -0.556215 0.000000 -0.831039
vn -0.593726 0.000000 -0.804667
vn -0.679956 0.000000 -0.733253
vn -0.727216 0.000000 -0.686409
vn -0.822519 0.000000 -0.568738
vn -0.868299 -0.000000 -0.496042
vn -0.939649 -0.000000 -0.342139
vn -0.965342 -0.000000 -0.260988
vn -0.990661 -0.000000 -0.136348
vn -0.995589 0.000000 -0.093821
vn -0.999980 0.000000 -0.006389
vn -0.999258 0.000000 0.038523
vn -0.990896 0.000000 0.134630
vn -0.982593 0.000000 0.185769
vn -0.956583 0.000000 0.291459
vn -0.938284 0.000000 0.345867
vn -0.894099 0.000000 0.447869
vn -0.868547 0.000000 0.495607
vn -0.797639 0.000000 0.603135
vn -0.716138 0.000000 0.697959
vn -0.680105 0.000000 0.733115
vn -0.604660 0.000000 0.796484
vn -0.565366 0.000000 0.824840
vn -0.486252 0.000000 0.873819
vn -0.446609 0.000000 0.894729
vn -0.369182 0.000000 0.929357
vn -0.331559 0.000000 0.943434
vn -0.244382 0.000000 0.969679
vn -0.194537 0.000000 0.980895
vn -0.144315 0.000000 0.989532
vn 0.167125 0.000000 -0.985936
vn 0.238009 0.000000 -0.971263
vn 0.308010 0.000000 -0.951383
vn 0.460199 0.000000 -0.887816
vn 0.541101 0.000000 -0.840958
vn 0.694943 0.000000 -0.719065
vn 0.766493 0.000000 -0.642253
vn 0.878847 0.000000 -0.477104
vn 0.920962 0.000000 -0.389652
vn 0.974725 0.000000 -0.223408
vn 0.989351 0.000000 -0.145552
vn 0.997571 0.000000 0.069663
vn 0.978150 0.000000 0.207900
vn 0.918484 0.000000 0.395458
vn 0.892977 0.000000 0.450102
vn 0.827843 0.000000 0.560960
vn 0.787261 0.000000 0.616619
vn 0.666179 0.000000 0.745792
vn 0.523267 0.000000 0.852169
vn 0.462361 0.000000 0.886692
vn 0.342060 0.000000 0.939678
vn 0.283082 0.000000 0.959096
vn 0.172481 0.000000 0.985013
vn 0.121116 0.000000 0.992638
vn 0.027430 0.000000 0.999624
vn -0.014827 0.000000 0.999890
vn -0.092741 0.000000 0.995690
vn -0.128431 -0.000001 0.991718
vn -0.163907 -0.000001 0.986476
vn -0.163913 -0.000002 0.986475
vn 0.000000 1.000000 -0.000000
vn -0.987797 0.000000 -0.155744
vn 0.989379 0.000000 0.145360
vn -0.988462 0.000000 -0.151469
vn -0.336515 0.000000 0.941678
vn 0.507985 -0.000000 0.861366
vn -0.000000 -1.000000 -0.000000
g font3d/q1.obj
mtllib default.mtl
usemtl default
# Faces
f 1/1/1 2/1/1 3/1/2 
f 3/1/2 2/1/1 4/1/3 
f 3/1/2 4/1/3 5/1/4 
f 5/1/4 4/1/3 6/1/4 
f 5/1/4 6/1/4 7/1/5 
f 5/1/4 7/1/5 8/1/6 
f 8/1/6 7/1/5 9/1/7 
f 9/1/7 7/1/5 10/1/8 
f 9/1/7 10/1/8 11/1/9 
f 11/1/9 10/1/8 12/1/10 
f 11/1/9 12/1/10 13/1/11 
f 13/1/11 12/1/10 14/1/11 
f 15/1/12 16/1/13 17/1/14 
f 15/1/12 17/1/14 18/1/15 
f 18/1/15 17/1/14 19/1/16 
f 19/1/16 17/1/14 20/1/17 
f 19/1/16 20/1/17 21/1/18 
f 21/1/18 20/1/17 22/1/19 
f 21/1/18 22/1/19 23/1/20 
f 23/1/20 22/1/19 24/1/21 
f 23/1/20 24/1/21 25/1/22 
f 25/1/22 24/1/21 26/1/23 
f 25/1/22 26/1/23 27/1/24 
f 27/1/24 26/1/23 28/1/25 
f 27/1/24 28/1/25 29/1/26 
f 29/1/26 28/1/25 30/1/27 
f 31/1/28 29/1/26 30/1/27 
f 31/1/28 30/1/27 32/1/29 
f 33/1/30 31/1/28 32/1/29 
f 33/1/30 32/1/29 34/1/31 
f 35/1/32 33/1/30 34/1/31 
f 35/1/32 34/1/31 36/1/33 
f 37/1/34 35/1/32 36/1/33 
f 37/1/34 36/1/33 38/1/35 
f 39/1/36 37/1/34 38/1/35 
f 39/1/36 38/1/35 40/1/37 
f 41/1/38 39/1/36 40/1/37 
f 41/1/38 40/1/37 42/1/39 
f 43/1/40 41/1/38 42/1/39 
f 43/1/40 42/1/39 44/1/41 
f 45/1/42 43/1/40 44/1/41 
f 45/1/42 44/1/41 46/1/43 
f 47/1/44 45/1/42 46/1/43 
f 47/1/44 46/1/43 48/1/44 
f 49/1/45 50/1/46 47/1/44 
f 49/1/45 47/1/44 48/1/44 
f 51/1/47 52/1/48 50/1/46 
f 51/1/47 50/1/46 49/1/45 
f 53/1/49 54/1/50 52/1/48 
f 53/1/49 52/1/48 51/1/47 
f 55/1/51 56/1/52 54/1/50 
f 55/1/51 54/1/50 53/1/49 
f 57/1/53 58/1/54 56/1/52 
f 57/1/53 56/1/52 55/1/51 
f 59/1/55 60/1/55 58/1/54 
f 59/1/55 58/1/54 57/1/53 
f 61/1/56 62/1/56 63/1/57 
f 63/1/57 62/1/56 64/1/58 
f 63/1/57 64/1/58 65/1/59 
f 65/1/59 64/1/58 66/1/60 
f 65/1/59 66/1/60 67/1/61 
f 67/1/61 66/1/60 68/1/62 
f 69/1/63 67/1/61 68/1/62 
f 69/1/63 68/1/62 70/1/64 
f 71/1/65 69/1/63 70/1/64 
f 71/1/65 70/1/64 72/1/66 
f 73/1/67 71/1/65 72/1/66 
f 73/1/67 72/1/66 74/1/68 
f 75/1/69 73/1/67 74/1/68 
f 75/1/69 74/1/68 76/1/70 
f 77/1/71 75/1/69 76/1/70 
f 77/1/71 76/1/70 78/1/72 
f 79/1/73 77/1/71 78/1/72 
f 79/1/73 78/1/72 80/1/73 
f 81/1/74 82/1/75 79/1/73 
f 81/1/74 79/1/73 80/1/73 
f 83/1/76 84/1/77 82/1/75 
f 83/1/76 82/1/75 81/1/74 
f 85/1/78 86/1/79 84/1/77 
f 85/1/78 84/1/77 83/1/76 
f 87/1/80 88/1/81 86/1/79 
f 87/1/80 86/1/79 85/1/78 
f 89/1/82 90/1/83 88/1/81 
f 89/1/82 88/1/81 87/1/80 
f 91/1/84 92/1/85 90/1/83 
f 91/1/84 90/1/83 89/1/82 
g font3d/q2.obj
mtllib default.mtl
usemtl default
# Faces
f 9/1/86 11/1/86 8/1/86 
f 8/1/86 11/1/86 13/1/86 
f 8/1/86 13/1/86 5/1/86 
f 18/1/86 19/1/86 21/1/86 
f 18/1/86 21/1/86 15/1/86 
f 15/1/86 21/1/86 23/1/86 
f 15/1/86 23/1/86 25/1/86 
f 15/1/86 25/1/86 27/1/86 
f 15/1/86 27/1/86 29/1/86 
f 15/1/86 29/1/86 31/1/86 
f 15/1/86 31/1/86 90/1/86 
f 15/1/86 90/1/86 92/1/86 
f 15/1/86 92/1/86 61/1/86 
f 61/1/86 45/1/86 47/1/86 
f 61/1/86 47/1/86 50/1/86 
f 61/1/86 50/1/86 52/1/86 
f 61/1/86 52/1/86 54/1/86 
f 61/1/86 54/1/86 56/1/86 
f 61/1/86 56/1/86 58/1/86 
f 61/1/86 58/1/86 60/1/86 
f 15/1/86 61/1/86 60/1/86 
f 15/1/86 60/1/86 13/1/86 
f 5/1/86 13/1/86 3/1/86 
f 3/1/86 13/1/86 1/1/86 
f 13/1/86 60/1/86 93/1/86 
f 1/1/86 13/1/86 93/1/86 
f 1/1/86 93/1/86 94/1/86 
f 90/1/86 31/1/86 88/1/86 
f 88/1/86 31/1/86 86/1/86 
f 86/1/86 31/1/86 33/1/86 
f 86/1/86 33/1/86 84/1/86 
f 84/1/86 33/1/86 82/1/86 
f 82/1/86 33/1/86 79/1/86 
f 79/1/86 33/1/86 35/1/86 
f 79/1/86 35/1/86 77/1/86 
f 77/1/86 35/1/86 75/1/86 
f 75/1/86 35/1/86 37/1/86 
f 75/1/86 37/1/86 73/1/86 
f 73/1/86 37/1/86 71/1/86 
f 71/1/86 37/1/86 39/1/86 
f 71/1/86 39/1/86 69/1/86 
f 69/1/86 39/1/86 41/1/86 
f 69/1/86 41/1/86 67/1/86 
f 67/1/86 41/1/86 65/1/86 
f 65/1/86 41/1/86 43/1/86 
f 65/1/86 43/1/86 63/1/86 
f 63/1/86 43/1/86 61/1/86 
f 61/1/86 43/1/86 45/1/86 
f 61/1/87 92/1/87 91/1/87 
f 61/1/87 91/1/87 62/1/87 
f 15/1/88 13/1/88 14/1/88 
f 15/1/88 14/1/88 16/1/88 
f 93/1/89 60/1/89 59/1/89 
f 93/1/89 59/1/89 95/1/89 
f 96/1/90 94/1/90 93/1/90 
f 96/1/90 93/1/90 95/1/90 
f 2/1/91 1/1/91 94/1/91 
f 2/1/91 94/1/91 96/1/91 
f 10/1/92 7/1/92 12/1/92 
f 12/1/92 7/1/92 6/1/92 
f 12/1/92 6/1/92 14/1/92 
f 14/1/92 6/1/92 4/1/92 
f 20/1/92 17/1/92 22/1/92 
f 22/1/92 17/1/92 16/1/92 
f 22/1/92 16/1/92 24/1/92 
f 24/1/92 16/1/92 26/1/92 
f 26/1/92 16/1/92 28/1/92 
f 28/1/92 16/1/92 30/1/92 
f 30/1/92 16/1/92 32/1/92 
f 32/1/92 16/1/92 89/1/92 
f 89/1/92 16/1/92 91/1/92 
f 91/1/92 16/1/92 62/1/92 
f 46/1/92 62/1/92 48/1/92 
f 48/1/92 62/1/92 49/1/92 
f 49/1/92 62/1/92 51/1/92 
f 51/1/92 62/1/92 53/1/92 
f 53/1/92 62/1/92 55/1/92 
f 55/1/92 62/1/92 57/1/92 
f 57/1/92 62/1/92 59/1/92 
f 62/1/92 16/1/92 59/1/92 
f 59/1/92 16/1/92 14/1/92 
f 14/1/92 4/1/92 2/1/92 
f 59/1/92 14/1/92 95/1/92 
f 14/1/92 2/1/92 95/1/92 
f 95/1/92 2/1/92 96/1/92 
f 32/1/92 89/1/92 87/1/92 
f 32/1/92 87/1/92 85/1/92 
f 32/1/92 85/1/92 34/1/92 
f 34/1/92 85/1/92 83/1/92 
f 34/1/92 83/1/92 81/1/92 
f 34/1/92 81/1/92 80/1/92 
f 34/1/92 80/1/92 36/1/92 
f 36/1/92 80/1/92 78/1/92 
f 36/1/92 78/1/92 76/1/92 
f 36/1/92 76/1/92 38/1/92 
f 38/1/92 76/1/92 74/1/92 
f 38/1/92 74/1/92 72/1/92 
f 38/1/92 72/1/92 40/1/92 
f 40/1/92 72/1/92 70/1/92 
f 40/1/92 70/1/92 42/1/92 
f 42/1/92 70/1/92 68/1/92 
f 42/1/92 68/1/92 66/1/92 
f 42/1/92 66/1/92 44/1/92 
f 44/1/92 66/1/92 64/1/92 
f 44/1/92 64/1/92 62/1/92 
f 44/1/92 62/1/92 46/1/92 
